<?xml version="1.0" encoding="UTF-8"?>
<!DOCTYPE svg PUBLIC "-//W3C//DTD SVG 1.1//EN" "http://www.w3.org/Graphics/SVG/1.1/DTD/svg11.dtd">
<!-- Creator: CorelDRAW -->
<svg xmlns="http://www.w3.org/2000/svg" xml:space="preserve" width="32px" height="32px" shape-rendering="geometricPrecision" text-rendering="geometricPrecision" image-rendering="optimizeQuality" fill-rule="evenodd" clip-rule="evenodd"
viewBox="0 0 32 32"
 version="1.1"
 xmlns:xlink="http://www.w3.org/1999/xlink">
 <g id="Layer_x0020_1">
  <metadata id="CorelCorpID_0Corel-Layer"/>
  <polygon fill="#752B55" points="0,0 0,32 32,32 32,0 "/>
  <path fill="white" d="M16 4.57143c-6.30171,0 -11.4286,5.12686 -11.4286,11.4286 0,2.14994 0.597486,4.2368 1.73074,6.04937 -0.451657,1.58126 -1.26674,4.5728 -1.27589,4.60434 -0.0420571,0.154514 0.0032,0.32 0.118857,0.431086 0.115657,0.111086 0.282514,0.150857 0.434743,0.104229l4.52983 -1.39337c1.77463,1.0688 3.80663,1.63291 5.89029,1.63291 6.30171,0 11.4286,-5.12686 11.4286,-11.4286 0,-6.30171 -5.12686,-11.4286 -11.4286,-11.4286zm0.000457143 21.0853c-1.8176,0 -3.59086,-0.508343 -5.12137,-1.46926 -0.0667429,-0.0411429 -0.139886,-0.0617143 -0.215771,-0.0617143 -0.0388571,0 -0.0790857,0.00685714 -0.117943,0.0187429l-3.6192 1.11406c0.265143,-0.970514 0.745143,-2.70811 1.0208,-3.67406 0.0297143,-0.109714 0.0128,-0.232229 -0.0502857,-0.330971 -1.01577,-1.56251 -1.55337,-3.37874 -1.55337,-5.25394 0,-5.32343 4.3328,-9.65623 9.65714,-9.65623 5.32343,0 9.65623,4.3328 9.65623,9.65623 0,5.32434 -4.3328,9.65714 -9.65623,9.65714z"/>
  <path fill="white" stroke="white" stroke-width="0.348343" d="M23.0455 18.5312c-0.764343,-0.424686 -1.41577,-0.850286 -1.89074,-1.16114 -0.362971,-0.2368 -0.624914,-0.407771 -0.816914,-0.504229 -0.5376,-0.268343 -0.944457,-0.0790857 -1.09943,0.0777143 -0.0196571,0.0196571 -0.0370286,0.0406857 -0.0516571,0.0630857 -0.558171,0.837029 -1.2864,1.63749 -1.49989,1.68046 -0.2464,-0.0384 -1.39977,-0.693943 -2.54629,-1.64891 -1.17074,-0.975086 -1.9072,-1.90903 -2.01509,-2.54537 0.751086,-0.773029 1.02126,-1.25897 1.02126,-1.81257 0,-0.570057 -1.33029,-2.95131 -1.57074,-3.19177 -0.241829,-0.241371 -0.785371,-0.278857 -1.61691,-0.113371 -0.0795429,0.0164571 -0.1536,0.0557714 -0.211657,0.113371 -0.100571,0.100571 -2.45531,2.50149 -1.33623,5.41166 1.22834,3.1936 4.38171,6.90606 8.40137,7.50903 0.457143,0.0681143 0.885486,0.1024 1.2864,0.1024 2.3648,0 3.76046,-1.18994 4.1536,-3.55063 0.0292571,-0.1728 -0.0539429,-0.345143 -0.207086,-0.429714zm-5.10949 3.05874c-4.25143,-0.637714 -6.92891,-4.84937 -7.75177,-6.98743 -0.816,-2.12069 0.688914,-4.01143 1.06651,-4.43886 0.307657,-0.0521143 0.630857,-0.0740571 0.766171,-0.0530286 0.282057,0.392229 1.25851,2.23771 1.30149,2.5696 0,0.2176 -0.0708571,0.520229 -0.913829,1.36411 -0.0781714,0.0772571 -0.1216,0.1824 -0.1216,0.292571 0,2.16869 4.57417,5.1776 5.38423,5.1776 0.704914,0 1.62331,-1.18446 2.14629,-1.95611 0.0306286,0.00137143 0.0813714,0.0118857 0.154057,0.048 0.149029,0.0749714 0.407314,0.243657 0.734171,0.4576 0.431543,0.282057 1.0048,0.656457 1.68137,1.04457 -0.3072,1.4784 -1.16617,2.97417 -4.44709,2.48137z"/>
 </g>
</svg>
