<?xml version="1.0" encoding="UTF-8"?>
<!DOCTYPE svg PUBLIC "-//W3C//DTD SVG 1.1//EN" "http://www.w3.org/Graphics/SVG/1.1/DTD/svg11.dtd">
<!-- Creator: CorelDRAW -->
<svg xmlns="http://www.w3.org/2000/svg" xml:space="preserve" width="200px" height="200px" style="shape-rendering:geometricPrecision; text-rendering:geometricPrecision; image-rendering:optimizeQuality; fill-rule:evenodd; clip-rule:evenodd"
viewBox="0 0 200 200">
 <defs>
  <style type="text/css">
   <![CDATA[
    .fil5 {fill:none}
    .fil1 {fill:#484848}
    .fil3 {fill:#606060}
    .fil8 {fill:#7A7A7A}
    .fil2 {fill:#848484}
    .fil7 {fill:#8F8F8F}
    .fil6 {fill:darkgray}
    .fil4 {fill:#C8C8C8}
    .fil0 {fill:#EFEEEE}
   ]]>
  </style>
 </defs>
 <g id="Layer_x0020_1">
  <metadata id="CorelCorpID_0Corel-Layer"/>
  <rect class="fil0" width="200" height="200" rx="19.9287" ry="19.9287"/>
  <g id="_406279568">
   <polygon id="_406281104" class="fil1" points="52.9558,23.0289 57.6501,75.7469 71.8641,46.6245 "/>
   <polygon id="_406281032" class="fil2" points="165.406,84.222 127.279,42.8527 134.865,71.1468 "/>
   <polygon id="_406281128" class="fil3" points="112.981,86.1211 127.223,42.8554 133.976,66.6158 "/>
   <polygon id="_406280840" class="fil4" points="66.9821,84.2383 39.9777,84.2383 165.852,176.971 "/>
   <polygon id="_406281272" class="fil3" points="66.6399,39.5481 57.6428,75.7323 165.829,176.949 165.852,176.971 165.849,176.96 "/>
   <polygon id="_406281008" class="fil3" points="165.407,84.2221 165.852,176.971 132.467,65.762 "/>
   <polygon id="_406281512" class="fil1" points="165.852,176.971 133.979,66.5987 114.39,81.8384 "/>
   <polygon id="_406280648" class="fil5" points="63.7873,83.4934 53.4506,73.8577 58.1224,82.5192 "/>
   <polygon id="_406280384" class="fil6" points="66.7344,84.2382 34.2749,72.5064 41.393,84.2381 "/>
   <polygon id="_406280480" class="fil4" points="165.851,176.971 34.2395,143.477 63.051,167.127 "/>
   <polygon id="_406280696" class="fil6" points="60.3082,165.397 50.2786,176.91 165.853,176.971 "/>
   <polygon id="_406280216" class="fil7" points="65.0686,165.934 34.2395,143.477 50.2786,176.91 "/>
   <polygon id="_406280624" class="fil4" points="34.1492,111.649 165.852,176.971 46.4014,135.283 "/>
   <polygon id="_406280456" class="fil6" points="45.1627,132.443 34.2395,143.477 165.852,176.971 "/>
   <polygon id="_406280048" class="fil7" points="40.5652,83.2099 34.1905,111.705 165.852,176.971 "/>
   <polygon id="_406279640" class="fil7" points="34.2394,111.566 34.2393,143.477 47.5747,133.375 "/>
   <polygon id="_406279328" class="fil3" points="34.2399,72.5352 34.1472,111.857 41.9449,84.222 "/>
   <polygon id="_406279784" class="fil3" points="94.0016,43.7652 52.9628,23.1065 70.4681,46.6018 "/>
   <polygon id="_406279520" class="fil8" points="165.852,176.97 93.9968,43.7616 66.2467,40.9869 "/>
  </g>
 </g>
</svg>
