<?xml version="1.0" encoding="UTF-8"?>
<!DOCTYPE svg PUBLIC "-//W3C//DTD SVG 1.1//EN" "http://www.w3.org/Graphics/SVG/1.1/DTD/svg11.dtd">
<!-- Creator: CorelDRAW -->
<svg xmlns="http://www.w3.org/2000/svg" xml:space="preserve" width="250px" height="64px" shape-rendering="geometricPrecision" text-rendering="geometricPrecision" image-rendering="optimizeQuality" fill-rule="evenodd" clip-rule="evenodd"
viewBox="0 0 250 63.9365">
 <g id="Layer_x0020_1">
  <metadata id="CorelCorpID_0Corel-Layer"/>
  <path fill="#F9F8F8" fill-rule="nonzero" d="M37.8027 45.7082c0,3.33892 -0.475434,6.13771 -1.42644,8.4177 -0.939993,2.28 -2.28,4.06294 -3.98724,5.34885 -1.70738,1.31825 -3.77127,2.25838 -6.18093,2.84187 -2.42053,0.572753 -5.15435,0.864568 -8.19086,0.864568 -2.46376,0 -4.89503,-0.14054 -7.29395,-0.443089 -2.39878,-0.291815 -4.47355,-0.64832 -6.22401,-1.0698l0 -8.90401 1.39382 0c1.39396,0.551142 3.09047,1.05906 5.1004,1.51289 1.99906,0.453824 3.79288,0.680806 5.38134,0.680806 2.10711,0 3.82523,-0.205372 5.14348,-0.594364 1.31839,-0.388992 2.32336,-0.940134 3.02563,-1.65329 0.64832,-0.680806 1.1239,-1.54523 1.42644,-2.60415 0.291673,-1.04819 0.442948,-2.32336 0.442948,-3.79288l0 -0.66993c-1.37235,1.12375 -2.89597,2.00979 -4.55999,2.65825 -1.6749,0.659054 -3.52268,0.983214 -5.57583,0.983214 -4.98147,0 -8.81757,-1.50201 -11.5189,-4.49516 -2.70147,-2.99315 -4.05221,-7.55328 -4.05221,-13.6801 0,-2.92846 0.410602,-5.4569 1.23181,-7.5965 0.821346,-2.12872 1.98832,-3.98738 3.47946,-5.56496 1.39396,-1.4804 3.11208,-2.62591 5.14362,-3.45785 2.04228,-0.821346 4.12778,-1.23195 6.2565,-1.23195 1.92349,0 3.66322,0.226983 5.2408,0.680806 1.56684,0.453824 3.00402,1.08053 4.28993,1.88027l0.410602 -1.57772 11.0436 0 0 31.4665zm-11.3894 -7.12106l0 -16.1114c-0.659054,-0.28108 -1.45879,-0.497186 -2.40966,-0.648461 -0.950869,-0.162009 -1.80456,-0.237717 -2.56093,-0.237717 -3.00402,0 -5.25167,0.853692 -6.74281,2.57181 -1.50201,1.72899 -2.24765,4.12778 -2.24765,7.20751 0,3.41463 0.637585,5.80267 1.91261,7.15341 1.27503,1.35074 3.16617,2.03154 5.68389,2.03154 1.13463,0 2.25838,-0.183761 3.34979,-0.540408 1.10214,-0.356505 2.10711,-0.83194 3.01476,-1.4263zm47.9237 -13.4856l-1.0157 0c-0.48631,-0.172885 -1.26429,-0.302549 -2.34483,-0.378257 -1.0698,-0.0864426 -1.96671,-0.129664 -2.69074,-0.129664 -1.6208,0 -3.05798,0.108053 -4.30066,0.313425 -1.24268,0.216107 -2.58254,0.572612 -4.01972,1.08053l0 23.8052 -11.4001 0 0 -35.5511 11.4001 0 0 5.21919c2.50684,-2.15033 4.68965,-3.57663 6.54831,-4.28993 1.85852,-0.702276 3.5659,-1.05892 5.13274,-1.05892 0.399727,0 0.853692,0.0107347 1.36147,0.0323454 0.507921,0.0217519 0.950869,0.0540973 1.32913,0.0973186l0 10.8598zm27.9762 15.4198l0 -7.41274c-1.53436,0.129664 -3.20925,0.302549 -5.00308,0.518656 -1.79368,0.226983 -3.1553,0.48631 -4.08456,0.777984 -1.13463,0.356646 -2.00993,0.886178 -2.60415,1.56684 -0.605098,0.691541 -0.907789,1.58845 -0.907789,2.71235 0,0.734762 0.064832,1.33986 0.194496,1.80456 0.129805,0.464559 0.443089,0.907648 0.95101,1.32913 0.486169,0.421337 1.05892,0.734762 1.73973,0.929258 0.66993,0.205231 1.72885,0.302549 3.16603,0.302549 1.13463,0 2.29087,-0.237717 3.46872,-0.691541 1.16698,-0.4647 2.19355,-1.08067 3.07959,-1.83705zm0 5.50012c-0.605098,0.4647 -1.37235,1.02658 -2.28,1.68577 -0.907648,0.64832 -1.76134,1.16698 -2.56093,1.54523 -1.1239,0.50778 -2.28,0.886037 -3.47946,1.12375 -1.21034,0.248593 -2.52859,0.367381 -3.95489,0.367381 -3.38228,0 -6.21342,-1.04819 -8.49341,-3.13369 -2.28,-2.09623 -3.41463,-4.76536 -3.41463,-8.0071 0,-2.60415 0.583488,-4.72214 1.73973,-6.36455 1.16698,-1.65329 2.80953,-2.95007 4.93825,-3.90094 2.10711,-0.940134 4.73288,-1.6208 7.85583,-2.02067 3.12281,-0.399868 6.36455,-0.702417 9.71434,-0.886037l0 -0.194496c0,-1.95584 -0.799594,-3.31745 -2.40966,-4.06309 -1.59919,-0.745497 -3.96577,-1.12375 -7.08858,-1.12375 -1.88027,0 -3.87932,0.335036 -6.00805,0.99409 -2.1396,0.670072 -3.66322,1.17785 -4.59248,1.5345l-1.04819 0 0 -8.57985c1.19946,-0.313284 3.16617,-0.691541 5.87838,-1.12375 2.70147,-0.432213 5.42456,-0.64832 8.14764,-0.64832 6.48348,0 11.1624,0.99409 14.0366,2.99315 2.88523,1.99906 4.32241,5.12201 4.32241,9.39033l0 24.1833 -11.3029 0 0 -3.77127zm57.4976 3.77127l-11.4649 0 0 -17.635c0,-1.43718 -0.0755667,-2.86362 -0.216107,-4.28993 -0.151275,-1.42644 -0.399868,-2.47463 -0.767249,-3.14456 -0.421337,-0.788718 -1.03731,-1.35074 -1.84778,-1.71812 -0.810329,-0.356505 -1.94496,-0.52939 -3.40375,-0.52939 -1.03745,0 -2.0855,0.162009 -3.14456,0.50778 -1.0698,0.335036 -2.2259,0.875302 -3.46858,1.61006l0 25.1992 -11.4001 0 0 -35.5511 11.4001 0 0 3.92255c2.02067,-1.57772 3.96563,-2.79879 5.83502,-3.64161 1.86953,-0.842816 3.94416,-1.26429 6.22415,-1.26429 3.8361,0 6.84013,1.1239 9.00133,3.36067 2.17194,2.23677 3.25247,5.57569 3.25247,10.0278l0 23.146zm46.184 0l-11.4649 0 0 -17.635c0,-1.43718 -0.0755667,-2.86362 -0.216107,-4.28993 -0.151275,-1.42644 -0.399868,-2.47463 -0.767249,-3.14456 -0.421337,-0.788718 -1.03731,-1.35074 -1.84778,-1.71812 -0.810329,-0.356505 -1.94496,-0.52939 -3.40375,-0.52939 -1.03745,0 -2.0855,0.162009 -3.14456,0.50778 -1.0698,0.335036 -2.2259,0.875302 -3.46858,1.61006l0 25.1992 -11.4001 0 0 -35.5511 11.4001 0 0 3.92255c2.02067,-1.57772 3.96563,-2.79879 5.83502,-3.64161 1.86953,-0.842816 3.94416,-1.26429 6.22415,-1.26429 3.8361,0 6.84013,1.1239 9.00133,3.36067 2.17194,2.23677 3.25247,5.57569 3.25247,10.0278l0 23.146zm31.9959 -9.2714l0 -7.41274c-1.53436,0.129664 -3.20925,0.302549 -5.00308,0.518656 -1.79368,0.226983 -3.1553,0.48631 -4.08456,0.777984 -1.13463,0.356646 -2.00993,0.886178 -2.60415,1.56684 -0.605098,0.691541 -0.907789,1.58845 -0.907789,2.71235 0,0.734762 0.064832,1.33986 0.194496,1.80456 0.129805,0.464559 0.443089,0.907648 0.95101,1.32913 0.486169,0.421337 1.05892,0.734762 1.73973,0.929258 0.66993,0.205231 1.72885,0.302549 3.16603,0.302549 1.13463,0 2.29087,-0.237717 3.46872,-0.691541 1.16698,-0.4647 2.19355,-1.08067 3.07959,-1.83705zm0 5.50012c-0.605098,0.4647 -1.37235,1.02658 -2.28,1.68577 -0.907648,0.64832 -1.76134,1.16698 -2.56093,1.54523 -1.1239,0.50778 -2.28,0.886037 -3.47946,1.12375 -1.21034,0.248593 -2.52859,0.367381 -3.95489,0.367381 -3.38228,0 -6.21342,-1.04819 -8.49341,-3.13369 -2.28,-2.09623 -3.41463,-4.76536 -3.41463,-8.0071 0,-2.60415 0.583488,-4.72214 1.73973,-6.36455 1.16698,-1.65329 2.80953,-2.95007 4.93825,-3.90094 2.10711,-0.940134 4.73288,-1.6208 7.85583,-2.02067 3.12281,-0.399868 6.36455,-0.702417 9.71434,-0.886037l0 -0.194496c0,-1.95584 -0.799594,-3.31745 -2.40966,-4.06309 -1.59919,-0.745497 -3.96577,-1.12375 -7.08858,-1.12375 -1.88027,0 -3.87932,0.335036 -6.00805,0.99409 -2.1396,0.670072 -3.66322,1.17785 -4.59248,1.5345l-1.04819 0 0 -8.57985c1.19946,-0.313284 3.16617,-0.691541 5.87838,-1.12375 2.70147,-0.432213 5.42456,-0.64832 8.14764,-0.64832 6.48348,0 11.1624,0.99409 14.0366,2.99315 2.88523,1.99906 4.32241,5.12201 4.32241,9.39033l0 24.1833 -11.3029 0 0 -3.77127z"/>
 </g>
</svg>
