<?xml version="1.0" encoding="UTF-8"?>
<!DOCTYPE svg PUBLIC "-//W3C//DTD SVG 1.1//EN" "http://www.w3.org/Graphics/SVG/1.1/DTD/svg11.dtd">
<!-- Creator: CorelDRAW -->
<svg xmlns="http://www.w3.org/2000/svg" xml:space="preserve" width="220px" height="69px" style="shape-rendering:geometricPrecision; text-rendering:geometricPrecision; image-rendering:optimizeQuality; fill-rule:evenodd; clip-rule:evenodd"
viewBox="0 0 220 68.75">
 <defs>
  <style type="text/css">
   <![CDATA[
    .fil0 {fill:#8E3EF0}
    .fil1 {fill:#383431;fill-rule:nonzero}
   ]]>
  </style>
 </defs>
 <g id="Layer_x0020_1">
  <metadata id="CorelCorpID_0Corel-Layer"/>
  <path class="fil0" d="M46.6972 43.8716l-23.6574 13.6001c-0.6699,0.386925 -0.669625,1.93435 0,2.321l7.3931 4.26828c1.09807,0.63415 2.71067,0.638275 3.80655,0l21.0504 -12.2675c2.76513,-1.6115 3.83817,-1.86532 3.83817,-5.26873l0 -7.93815c0,-1.74873 -5.14607,-4.4374 -10.2976,-7.3887l8.7439 -5.04818c2.39663,-1.38352 2.3969,-6.92037 0,-8.3039l-22.4562 -12.9654c-1.31505,-0.759 -3.09238,-1.0153 -4.85072,0l-22.4114 12.9387c-1.94837,1.12503 -2.31385,2.79373 -2.32293,5.18788l-0.023375 6.15395c-0.0044,1.14207 0.7623,1.672 1.7314,1.11265l24.9607 -14.4004c3.40175,1.96405 6.80378,3.9281 10.2058,5.89215 -12.3307,7.11892 -24.6615,14.2381 -36.9919,21.3573l0 2.6125c0,2.56795 -0.03025,2.7467 1.75643,4.576 0.663025,0.678975 1.33182,1.35162 2.0306,1.99237 0.4477,0.411125 1.75945,0.757625 3.07175,0l22.4274 -12.9486c1.46052,-0.84315 3.5266,-1.71408 4.98465,-0.8668l7.30455 4.24683 -0.2937 1.13658z"/>
  <path class="fil1" d="M164.211 39.1072l3.05993 2.80143c-0.531575,1.02548 -1.49683,1.7644 -2.47775,2.39415 -1.65193,1.06012 -3.72102,1.58758 -6.20648,1.58758 -3.93112,0 -6.83787,-1.18388 -8.72767,-3.56565 -1.48968,-1.9041 -2.23822,-4.31255 -2.23822,-7.21243 0,-3.4716 0.980925,-6.18997 2.94332,-8.1543 1.9547,-1.96487 4.43273,-2.94717 7.4272,-2.94717 3.36435,0 6.01947,1.02822 7.96455,3.08798 1.639,1.7358 2.5058,4.72368 2.6884,8.16558 -0.258775,1.9723 -0.671,1.9536 -2.49672,1.9536 -3.87283,0.00055 -7.74648,0.00165 -11.6193,0.001925 0.65395,4.60625 7.07053,4.53668 9.68275,1.88732zm-1.49737 -5.97053c-0.0418,-1.2639 -0.4664,-2.22145 -1.28095,-2.87677 -0.814825,-0.655875 -1.81033,-0.98395 -2.9799,-0.98395 -1.25345,0 -2.28442,0.348975 -3.0987,1.04197 -0.814825,0.687225 -1.21852,1.62855 -1.2045,2.81875l8.56405 0zm24.3903 5.97053l3.05993 2.80143c-0.531575,1.02548 -1.49683,1.7644 -2.47775,2.39415 -1.6522,1.06012 -3.72102,1.58758 -6.20647,1.58758 -3.9314,0 -6.83815,-1.18388 -8.72768,-3.56565 -1.48968,-1.9041 -2.23822,-4.31255 -2.23822,-7.21243 0,-3.4716 0.980925,-6.18997 2.94333,-8.1543 1.9547,-1.96487 4.43273,-2.94717 7.4272,-2.94717 3.36435,0 6.01947,1.02822 7.96455,3.08798 1.63872,1.7358 2.5058,4.72368 2.6884,8.16558 -0.258775,1.9723 -0.671,1.9536 -2.49673,1.9536 -3.8731,0.00055 -7.74647,0.00165 -11.6193,0.001925 0.65395,4.60625 7.07025,4.53668 9.68275,1.88732zm-1.49737 -5.97053c-0.0418,-1.2639 -0.4664,-2.22145 -1.28123,-2.87677 -0.81455,-0.655875 -1.81005,-0.98395 -2.97962,-0.98395 -1.25345,0 -2.28442,0.348975 -3.0987,1.04197 -0.814825,0.687225 -1.21852,1.62855 -1.20477,2.81875l8.56432 0zm-61.0679 12.5378l0 -30.4755 6.56288 0 0 12.6891 11.6248 -12.6891 7.4096 0 -12.5221 13.2751 12.7306 17.2004 -7.1302 0 -9.46412 -13.1816 -2.64852 2.9887 0 10.1929 -6.56288 0zm-42.4141 -24.612l0 5.89682 2.5949 0c1.54358,0 2.5036,-0.0297 2.87815,-0.0891 0.6765,-0.100925 1.21027,-0.40425 1.59885,-0.908875 0.388575,-0.504625 0.579975,-1.16957 0.579975,-1.99513 0,-0.7898 -0.1639,-1.43082 -0.497475,-1.92362 -0.338525,-0.493075 -0.836275,-0.79035 -1.4938,-0.891 -0.392975,-0.059125 -1.52213,-0.0891 -3.3858,-0.0891l-2.2748 0zm0 11.1672l0 7.50585 4.11373 0c1.60572,0 2.62075,-0.05225 3.0525,-0.16995 0.660825,-0.150425 1.199,-0.529925 1.6148,-1.11815 0.41525,-0.594825 0.6259,-1.3926 0.6259,-2.38617 0,-0.843425 -0.1639,-1.55623 -0.48235,-2.14473 -0.323125,-0.588225 -0.7843,-1.01998 -1.3904,-1.2881 -0.604175,-0.2684 -1.92335,-0.39875 -3.9435,-0.39875l-3.59068 0zm-6.29227 -17.0308l9.57742 0c2.1604,0 3.77383,0.10285 4.8356,0.30525 1.0604,0.20185 2.0086,0.617375 2.84708,1.25593 0.83875,0.638275 1.53037,1.4839 2.09082,2.54705 0.557425,1.05792 0.83875,2.24977 0.83875,3.56208 0,1.42587 -0.341,2.74038 -1.0296,3.93085 -0.689975,1.19322 -1.62663,2.08615 -2.80225,2.68235 1.65852,0.539 3.5035,1.46217 4.3934,2.76017 0.8954,1.3057 1.3409,2.838 1.3409,4.59773 0,1.3838 -0.284625,2.73268 -0.86405,4.0447 -0.57695,1.30625 -1.36675,2.35565 -2.36418,3.1361 -0.9977,0.78045 -2.22997,1.2683 -3.69847,1.4476 -0.9141,0.11165 -3.1328,0.2057 -6.64703,0.2057l-8.5184 0 0 -30.4755zm27.5278 -0.5247c2.07377,0 3.75567,1.6819 3.75567,3.75568 0,2.07378 -1.6819,3.75568 -3.75567,3.75568 -2.07377,0 -3.75567,-1.6819 -3.75567,-3.75568 0,-2.07377 1.6819,-3.75568 3.75567,-3.75568zm-3.3429 31.0002l0 -21.1723 6.60715 0 0 21.1723 -6.60715 0zm12.0882 0l0 -16.0435 -4.12775 0 0 -5.48845 4.12775 0 0 -6.5197 6.60715 0 0 6.5197 4.12775 0 0 5.48845 -4.12775 0 0 16.0435 -6.60715 0zm87.568 -10.9706c0,1.81638 0.4675,3.1636 1.40992,4.02765 0.935825,0.868725 2.0812,1.30542 3.43723,1.30542 1.29525,0 2.37297,-0.400125 3.234,-1.19652 0.8613,-0.796125 1.29525,-2.10678 1.29525,-3.92288 0,-1.70143 -0.447425,-2.9612 -1.33567,-3.78318 -0.887975,-0.821975 -1.9866,-1.2331 -3.29478,-1.2331 -1.3629,0 -2.49535,0.4004 -3.39708,1.21275 -0.901725,0.806025 -1.34887,2.00255 -1.34887,3.58985zm-6.93165 -10.513l5.72385 0 0 3.17955c0.7381,-1.0923 1.74405,-1.97588 3.01125,-2.651 1.26693,-0.681725 2.67575,-1.02272 4.2185,-1.02272 2.6906,0 4.9786,0.9878 6.84942,2.95707 1.87852,1.969 2.81737,4.71763 2.81737,8.23845 0,3.61103 -0.94655,6.42235 -2.83195,8.426 -1.89337,2.0042 -4.18908,3.0063 -6.8794,3.0063 -1.28205,0 -2.4475,-0.232925 -3.4881,-0.71005 -1.03868,-0.47575 -1.7127,-0.986425 -2.86798,-2.14142l0 10.6026 -6.55298 0 0 -29.8848z"/>
 </g>
</svg>
