<?xml version="1.0" encoding="UTF-8"?>
<!DOCTYPE svg PUBLIC "-//W3C//DTD SVG 1.1//EN" "http://www.w3.org/Graphics/SVG/1.1/DTD/svg11.dtd">
<!-- Creator: CorelDRAW -->
<svg xmlns="http://www.w3.org/2000/svg" xml:space="preserve" width="220px" height="66px" style="shape-rendering:geometricPrecision; text-rendering:geometricPrecision; image-rendering:optimizeQuality; fill-rule:evenodd; clip-rule:evenodd"
viewBox="0 0 220 66">
 <defs>
  <style type="text/css">
   <![CDATA[
    .fil0 {fill:#1F1A17}
    .fil1 {fill:#383431;fill-rule:nonzero}
   ]]>
  </style>
 </defs>
 <g id="Layer_x0020_1">
  <metadata id="CorelCorpID_0Corel-Layer"/>
  <path class="fil0" d="M39.1383 27.9452c0.132,0.96195 0.184525,2.03748 0.16335,3.18505 2.41257,1.3849 5.15157,2.90043 7.56415,4.28532 -6.16577,2.36803 -9.03567,5.47718 -10.4547,8.71228 -2.34162,5.33803 -4.13077,10.8653 -5.62953,16.4862 -1.49875,-5.621 -3.2879,-11.1482 -5.62953,-16.4862 -1.419,-3.2351 -4.2889,-6.34425 -10.4547,-8.71228 2.41258,-1.3849 5.15157,-2.90042 7.56415,-4.28532 -0.021175,-1.14757 0.03135,-2.2231 0.16335,-3.18505 -7.58945,0.15895 -9.97095,-5.85722 -6.96878,-11.2835 -1.40772,-1.39645 -2.64357,-2.87238 -3.70755,-4.4341 -3.2868,4.11565 -2.80335,12.2056 -2.94855,20.6415 -0.1485,8.60943 -2.47968,15.2688 -5.22747,20.6412 2.41257,-2.0999 4.82515,-4.1998 7.238,-6.2997 1.78695,2.99365 3.57417,5.98703 5.3614,8.9804 1.92115,-1.78695 3.8423,-3.57417 5.76345,-5.3614 2.904,4.9148 5.808,9.82933 8.8462,14.7439 3.0382,-4.91452 5.9422,-9.82905 8.8462,-14.7439 1.92115,1.78722 3.8423,3.57445 5.76345,5.3614 1.78723,-2.99337 3.57445,-5.98675 5.3614,-8.9804 2.41285,2.0999 4.82543,4.1998 7.238,6.2997 -2.7478,-5.3724 -5.07897,-12.0318 -5.22747,-20.6412 -0.1452,-8.4359 0.33825,-16.5259 -2.94855,-20.6415 -1.06397,1.56172 -2.29983,3.03765 -3.70755,4.4341 3.00218,5.4263 0.620675,11.4425 -6.96878,11.2835zm-21.0606 -8.95648c2.03748,1.63707 4.35105,3.13665 6.94045,4.4979m18.4673 -4.4979c-2.03748,1.63707 -4.35105,3.13665 -6.94045,4.4979m-18.4869 -4.5144c-1.49353,4.10163 1.59445,6.512 6.98032,4.54932m18.4665 -4.54932c1.49353,4.10163 -1.59445,6.512 -6.98032,4.54932m-5.70955 -4.35737c-1.51387,0.072875 -2.81875,0.538175 -3.67262,1.70335 -8.34543,-4.81085 -14.8341,-10.3131 -17.4215,-17.2664 1.66045,1.69455 3.19687,3.69957 5.65235,3.4067 4.86255,-5.05615 10.1857,-6.61375 15.4418,-6.5813 5.25635,-0.03245 10.5793,1.52515 15.4418,6.5813 2.45575,0.292875 3.9919,-1.71215 5.65235,-3.4067 -2.58747,6.95337 -9.07582,12.4556 -17.4215,17.2664 -0.853875,-1.16518 -2.15875,-1.63048 -3.67262,-1.70335zm0.041525 3.71497c-3.76255,0 -5.4318,3.8731 -5.17853,10.1527 -1.01337,0.7513 -2.1175,1.45695 -3.42045,2.06305 5.42163,3.25985 6.8167,8.8165 8.59898,14.1499 1.782,-5.33335 3.17707,-10.89 8.5987,-14.1499 -1.30295,-0.6061 -2.40708,-1.31175 -3.42045,-2.06305 0.253275,-6.27962 -1.41598,-10.1527 -5.17825,-10.1527z"/>
  <path class="fil1" d="M69.0316 25.3965l5.13178 0c1.15555,0 2.03637,0.0957 2.64495,0.2904 0.815925,0.2618 1.51525,0.7293 2.09495,1.40195 0.58245,0.66935 1.02603,1.49077 1.33045,2.4607 0.301125,0.973775 0.453475,2.17057 0.453475,3.59727 0,1.24988 -0.142725,2.3298 -0.427625,3.2362 -0.346225,1.10468 -0.841775,2.00035 -1.48913,2.68373 -0.485925,0.520575 -1.1429,0.924275 -1.97175,1.2144 -0.618475,0.21615 -1.44733,0.3223 -2.48655,0.3223l-5.28055 0 0 -15.207zm2.80693 2.574l0 10.0697 2.09467 0c0.783475,0 1.34998,-0.0462 1.69977,-0.1452 0.4532,-0.124025 0.83215,-0.333025 1.13328,-0.6303 0.30085,-0.29755 0.54395,-0.789525 0.735075,-1.46932 0.18755,-0.6798 0.2849,-1.61095 0.2849,-2.78657 0,-1.17535 -0.09735,-2.07488 -0.2849,-2.7049 -0.191125,-0.6303 -0.456775,-1.12255 -0.796675,-1.4729 -0.3432,-0.3542 -0.77715,-0.59125 -1.3013,-0.715275 -0.391875,-0.099275 -1.1594,-0.1452 -2.30532,-0.1452l-1.2595 0z"/>
  <polygon class="fil1" points="83.0698,40.6035 83.0698,25.3965 93.3785,25.3965 93.3785,27.9705 85.8767,27.9705 85.8767,31.3412 92.8571,31.3412 92.8571,33.9012 85.8767,33.9012 85.8767,38.0402 93.6438,38.0402 93.6438,40.6035 "/>
  <polygon class="fil1" points="94.6121,40.6035 99.3649,32.6689 95.059,25.3965 98.3386,25.3965 101.129,30.2825 103.859,25.3965 107.113,25.3965 102.787,32.7822 107.54,40.6035 104.153,40.6035 101.071,35.3458 97.9792,40.6035 "/>
  <path class="fil1" d="M112.287 35.7176l1.73525 -0.16665c0.08085,0.761475 0.271975,1.38462 0.5731,1.87302 0.301125,0.488675 0.76725,0.88165 1.39865,1.18278 0.6314,0.30085 1.34365,0.449625 2.13373,0.449625 0.702625,0 1.32082,-0.1133 1.85845,-0.3399 0.53735,-0.230175 0.93885,-0.54175 1.2012,-0.9383 0.262075,-0.400125 0.394625,-0.83215 0.394625,-1.30295 0,-0.47795 -0.126225,-0.892375 -0.381975,-1.24988 -0.25245,-0.3575 -0.6699,-0.65505 -1.2496,-0.895675 -0.375375,-0.1595 -1.1979,-0.407275 -2.47665,-0.7436 -1.27572,-0.336325 -2.1725,-0.651475 -2.684,-0.949025 -0.66385,-0.378675 -1.1594,-0.853325 -1.4861,-1.41625 -0.32395,-0.562925 -0.48565,-1.19322 -0.48565,-1.8942 0,-0.764775 0.19745,-1.48335 0.59565,-2.14913 0.3982,-0.669075 0.980925,-1.17535 1.74487,-1.5224 0.767525,-0.343475 1.6159,-0.517 2.55145,-0.517 1.0329,0 1.9393,0.180675 2.7291,0.545325 0.78705,0.361075 1.3926,0.895675 1.81637,1.60022 0.421025,0.70455 0.650925,1.5048 0.683375,2.39718l-1.76467 0.1452c-0.097075,-0.95975 -0.417725,-1.68905 -0.9647,-2.17772 -0.54725,-0.491975 -1.35328,-0.73645 -2.42165,-0.73645 -1.11375,0 -1.92335,0.2233 -2.43485,0.66935 -0.508475,0.44605 -0.764225,0.984225 -0.764225,1.61095 0,0.5489 0.1815,0.998525 0.54065,1.34887 0.3564,0.3542 1.27903,0.715275 2.77475,1.0835 1.496,0.3718 2.5223,0.6941 3.0789,0.9702 0.8096,0.410575 1.40855,0.927575 1.79382,1.55072 0.385275,0.626725 0.5764,1.34887 0.5764,2.16342 0,0.8107 -0.21065,1.5719 -0.6347,2.28718 -0.42405,0.715275 -1.0329,1.27105 -1.826,1.67117 -0.7931,0.39655 -1.68685,0.594825 -2.67768,0.594825 -1.25923,0 -2.31467,-0.198275 -3.16305,-0.601975 -0.851675,-0.400125 -1.51855,-1.00182 -2.00392,-1.80922 -0.482625,-0.803825 -0.738375,-1.7171 -0.760925,-2.73322z"/>
  <path class="fil1" d="M135.789 35.2712l1.84222 0.50985c-0.385275,1.65 -1.0813,2.9106 -2.08175,3.78153 -1.00375,0.86735 -2.2275,1.29937 -3.67812,1.29937 -1.49902,0 -2.71617,-0.33275 -3.6553,-0.998525 -0.938575,-0.669075 -1.6544,-1.6357 -2.14307,-2.8996 -0.48895,-1.26775 -0.7348,-2.62735 -0.7348,-4.0788 0,-1.5829 0.275,-2.96367 0.82885,-4.1426 0.5533,-1.1792 1.34007,-2.07487 2.36307,-2.6873 1.01997,-0.6127 2.14363,-0.917125 3.3704,-0.917125 1.39232,0 2.56108,0.385825 3.50983,1.16133 0.948475,0.7755 1.60903,1.8623 1.98138,3.2681l-1.80978 0.467225c-0.323675,-1.10825 -0.790075,-1.9118 -1.40525,-2.41808 -0.611875,-0.50655 -1.38243,-0.7579 -2.31468,-0.7579 -1.06865,0 -1.9591,0.279675 -2.67767,0.8393 -0.71885,0.562925 -1.22402,1.3134 -1.51223,2.25885 -0.291225,0.941875 -0.436975,1.91538 -0.436975,2.91747 0,1.2958 0.171875,2.42165 0.5148,3.38828 0.3465,0.96305 0.88055,1.68548 1.60902,2.16343 0.728475,0.47795 1.51552,0.715275 2.36363,0.715275 1.0296,0 1.90052,-0.325875 2.61607,-0.973775 0.715275,-0.651475 1.1979,-1.6181 1.45035,-2.8963z"/>
  <path class="fil1" d="M139.926 40.6035l0 -15.207 6.1644 0c1.23998,0 2.1824,0.13805 2.82645,0.410575 0.644325,0.2728 1.15913,0.754325 1.5477,1.44458 0.385275,0.6941 0.5764,1.45887 0.5764,2.29433 0,1.07992 -0.31735,1.98633 -0.958375,2.72635 -0.638,0.740025 -1.62525,1.21082 -2.95927,1.41268 0.488675,0.254925 0.858,0.506275 1.11045,0.7579 0.53735,0.538175 1.04582,1.2144 1.52817,2.02152l2.41863 4.13903 -2.31495 0 -1.8392 -3.16525c-0.53735,-0.909975 -0.980925,-1.61095 -1.33045,-2.09248 -0.3465,-0.4851 -0.65725,-0.825 -0.93225,-1.01613 -0.27555,-0.194975 -0.55385,-0.32945 -0.83875,-0.407275 -0.210375,-0.045925 -0.55055,-0.07095 -1.0263,-0.07095l-2.13372 0 0 6.75208 -1.83893 0zm1.83893 -8.49393l3.95642 0c0.83875,0 1.49902,-0.0957 1.97175,-0.286825 0.476025,-0.191125 0.83545,-0.49555 1.0813,-0.91355 0.246125,-0.417725 0.36905,-0.870925 0.36905,-1.36318 0,-0.718575 -0.236225,-1.30983 -0.715275,-1.77375 -0.476025,-0.463925 -1.23035,-0.693825 -2.26325,-0.693825l-4.4 0 0 5.03112z"/>
  <polygon class="fil1" points="153.965,40.6035 153.965,25.3965 164.017,25.3965 164.017,27.1917 155.804,27.1917 155.804,31.8475 163.496,31.8475 163.496,33.632 155.804,33.632 155.804,38.8083 164.341,38.8083 164.341,40.6035 "/>
  <polygon class="fil1" points="166.922,40.6035 166.922,25.3965 176.975,25.3965 176.975,27.1917 168.761,27.1917 168.761,31.8475 176.453,31.8475 176.453,33.632 168.761,33.632 168.761,38.8083 177.299,38.8083 177.299,40.6035 "/>
  <polygon class="fil1" points="179.821,40.6035 179.821,25.3965 181.708,25.3965 189.012,37.3354 189.012,25.3965 190.777,25.3965 190.777,40.6035 188.89,40.6035 181.585,28.6539 181.585,40.6035 "/>
  <polygon class="fil1" points="193.908,40.6035 193.908,25.3965 203.96,25.3965 203.96,27.1917 195.747,27.1917 195.747,31.8475 203.439,31.8475 203.439,33.632 195.747,33.632 195.747,38.8083 204.284,38.8083 204.284,40.6035 "/>
  <path class="fil1" d="M206.855 40.6035l0 -15.207 6.1644 0c1.23997,0 2.1824,0.13805 2.82645,0.410575 0.644325,0.2728 1.15912,0.754325 1.5477,1.44458 0.385275,0.6941 0.5764,1.45887 0.5764,2.29433 0,1.07992 -0.31735,1.98633 -0.958375,2.72635 -0.638,0.740025 -1.62525,1.21082 -2.95927,1.41268 0.488675,0.254925 0.858,0.506275 1.11045,0.7579 0.53735,0.538175 1.04582,1.2144 1.52817,2.02152l2.41863 4.13903 -2.31495 0 -1.8392 -3.16525c-0.53735,-0.909975 -0.980925,-1.61095 -1.33045,-2.09248 -0.3465,-0.4851 -0.65725,-0.825 -0.93225,-1.01613 -0.27555,-0.194975 -0.55385,-0.32945 -0.83875,-0.407275 -0.210375,-0.045925 -0.55055,-0.07095 -1.0263,-0.07095l-2.13372 0 0 6.75208 -1.83892 0zm1.83892 -8.49393l3.95642 0c0.83875,0 1.49903,-0.0957 1.97175,-0.286825 0.476025,-0.191125 0.83545,-0.49555 1.0813,-0.91355 0.246125,-0.417725 0.36905,-0.870925 0.36905,-1.36318 0,-0.718575 -0.236225,-1.30983 -0.715275,-1.77375 -0.476025,-0.463925 -1.23035,-0.693825 -2.26325,-0.693825l-4.4 0 0 5.03112z"/>
 </g>
</svg>
