<?xml version="1.0" encoding="UTF-8"?>
<!DOCTYPE svg PUBLIC "-//W3C//DTD SVG 1.1//EN" "http://www.w3.org/Graphics/SVG/1.1/DTD/svg11.dtd">
<!-- Creator: CorelDRAW -->
<svg xmlns="http://www.w3.org/2000/svg" xml:space="preserve" width="220px" height="61px" style="shape-rendering:geometricPrecision; text-rendering:geometricPrecision; image-rendering:optimizeQuality; fill-rule:evenodd; clip-rule:evenodd"
viewBox="0 0 220 60.5">
 <defs>
  <style type="text/css">
   <![CDATA[
    .fil0 {fill:#383431}
    .fil1 {fill:#0EACCD}
   ]]>
  </style>
 </defs>
 <g id="Layer_x0020_1">
  <metadata id="CorelCorpID_0Corel-Layer"/>
  <path class="fil0" d="M161.696 23.4691c-4.21273,0.5236 -7.31858,2.91555 -8.4612,6.4856 -0.7854,2.4277 -0.689975,4.73632 0.29755,7.08043 1.16627,2.77282 3.67702,4.74815 7.0092,5.4978 0.963875,0.226325 3.45097,0.23815 4.4506,0.047575 3.8676,-0.761475 6.56865,-3.16525 7.68735,-6.8068 0.2618,-0.868725 0.29755,-1.13052 0.29755,-2.6774 0,-1.54715 -0.03575,-1.80895 -0.29755,-2.67768 -1.1066,-3.5937 -3.71277,-5.96173 -7.43737,-6.74713 -0.773575,-0.154825 -2.89163,-0.273625 -3.54613,-0.2024zm2.35593 4.72423c1.39232,0.36905 2.71342,1.27352 3.32007,2.33255 0.940225,1.59445 0.904475,3.70095 -0.071225,5.22417 -1.74928,2.7489 -5.74778,3.201 -8.15155,0.9163 -1.99925,-1.9041 -2.07075,-4.92663 -0.16665,-6.98555 1.27353,-1.35657 3.29642,-1.93958 5.06935,-1.48747zm18.2311 -4.72423c-4.21273,0.5236 -7.31857,2.91555 -8.46093,6.4856 -0.7854,2.4277 -0.69025,4.73632 0.297275,7.08043 1.16627,2.77282 3.67702,4.74815 7.0092,5.4978 0.963875,0.226325 3.45097,0.23815 4.4506,0.047575 3.8676,-0.761475 6.56865,-3.16525 7.68735,-6.8068 0.2618,-0.868725 0.29755,-1.13052 0.29755,-2.6774 0,-1.54715 -0.03575,-1.80895 -0.29755,-2.67768 -1.1066,-3.5937 -3.71277,-5.96173 -7.43738,-6.74713 -0.773575,-0.154825 -2.8919,-0.273625 -3.54612,-0.2024zm2.36803 4.72423c1.40415,0.36905 2.71315,1.27352 3.32007,2.33255 0.93995,1.59445 0.9042,3.70095 -0.0715,5.22417 -1.74928,2.7489 -5.74778,3.201 -8.15155,0.9163 -1.99925,-1.9041 -2.07047,-4.92663 -0.16665,-6.98555 1.26143,-1.35657 3.2846,-1.93958 5.06963,-1.48747zm25.3588 -4.66455c-2.45135,0.35695 -4.29578,1.92775 -4.89088,4.1888 -0.571175,2.13015 -0.16665,4.3076 0.975975,5.3669 0.67815,0.630575 1.48748,0.999625 3.71278,1.71352 2.1538,0.69025 2.64165,0.9878 2.8677,1.71353 0.249975,0.83325 -0.368775,1.8326 -1.309,2.0944 -0.5115,0.143 -1.47537,0.143 -2.11805,-0.011825 -0.702075,-0.16665 -1.9635,-0.7854 -2.49893,-1.24932 -0.23815,-0.226325 -0.511775,-0.392975 -0.55935,-0.392975 -0.047575,0 -0.3212,0.4048 -0.583,0.904475 -0.36905,0.702075 -0.488125,0.8569 -0.511775,0.666325l-0.03575 -0.237875 -2.86798 0 -2.85587 0 0 -7.21133 0 -7.2116 -2.3683 0 -2.36802 0 0 9.24633 0 9.24632 5.22418 0 5.22418 0 0 -0.511775c0,-0.273625 0.02365,-0.499675 0.047575,-0.499675 0.023925,0 0.4521,0.202125 0.95205,0.42845 1.54688,0.725725 2.53467,0.93995 4.4506,0.93995 1.86835,0 2.7489,-0.16665 3.90308,-0.725725 0.9163,-0.440275 2.1538,-1.66595 2.57043,-2.52285 0.82115,-1.71353 0.940225,-4.02215 0.249975,-5.48598 -0.119075,-0.273625 -0.5236,-0.80905 -0.904475,-1.1781 -0.80905,-0.80905 -1.67778,-1.24932 -3.90308,-1.9635 -0.88055,-0.273625 -1.76138,-0.606925 -1.9635,-0.725725 -0.714175,-0.44055 -0.8569,-1.40442 -0.29755,-2.01135 0.9757,-1.04693 2.71315,-0.951775 4.5221,0.249975l0.35695 0.226325 0.963875 -1.8447c0.511775,-0.999625 0.93995,-1.84442 0.9163,-1.85625 -0.106975,-0.106975 -1.45172,-0.642675 -2.21347,-0.88055 -1.60655,-0.49995 -3.29642,-0.678425 -4.68875,-0.4642zm-133.042 6.94953l0 12.1855 4.30788 0c2.36803,0 4.8433,-0.0715 5.48597,-0.142725 5.31905,-0.6545 9.24632,-3.87942 10.5075,-8.61575 0.416625,-1.5708 0.511775,-4.33152 0.214225,-5.97383 -0.606925,-3.18917 -2.26105,-5.7596 -4.80755,-7.49705 -1.14235,-0.7854 -2.1659,-1.21385 -3.80792,-1.66595 -1.28535,-0.345125 -1.48748,-0.345125 -6.60468,-0.41635l-5.28357 -0.059675 0 12.1858 -0.011825 0zm9.40115 -7.21132c3.344,0.7139 5.56903,3.51037 5.56903,7.00892 -0.011825,2.32072 -0.725725,4.3197 -2.05865,5.6408 -1.32082,1.33265 -3.28432,1.97532 -6.0214,1.98715l-1.29718 0 0 -7.41372 0 -7.41372 1.4399 0c0.785675,0 1.8447,0.09515 2.3683,0.190575zm13.1258 7.22315l0 12.1737 10.2578 -0.011825 10.246 0 2.64165 -3.71278c1.46382,-2.02318 2.6895,-3.68913 2.72498,-3.68913 0.059675,0 1.28535,1.66595 2.73708,3.71278l2.65375 3.71278 3.33218 0.000275c1.82077,0 3.32007,-0.04785 3.32007,-0.083325 0,-0.04785 -1.9635,-2.78465 -4.33152,-6.08107l-4.3318 -5.99748 4.14122 -5.78353c2.2847,-3.16525 4.27213,-5.8905 4.40303,-6.04505 0.2618,-0.2618 0.2618,-0.226325 0.2618,2.2132l0 2.47527 2.52285 0 2.52285 0 0 9.65085 0 9.65085 3.0107 0.000275 3.0107 0 0 -9.65113 0 -9.65085 2.9392 -0.02365 2.92737 -0.047575 -1.5708 -2.47527 -1.5708 -2.47528 -10.2814 -0.011825 -10.2938 0 -2.64165 3.71278c-1.46382,2.0229 -2.6895,3.68913 -2.72498,3.71278 -0.04785,0 -1.27352,-1.66595 -2.72525,-3.71278l-2.65375 -3.71278 -10.246 0 -10.2578 0 0 12.1498 -0.02365 0zm18.0997 -6.09263c2.3562,3.2604 4.28422,5.99748 4.28422,6.0808 0,0.083325 -1.92802,2.84405 -4.29605,6.12837l-4.30788 5.97383 -0.047575 -2.33228 -0.023925 -2.33255 -4.05762 0 -4.0579 0 0 -2.7368 0 -2.72525 3.28432 0 3.2846 0 0 -2.30862 0 -2.30863 -3.2846 0 -3.28432 0 0 -2.37985 0 -2.38012 4.0579 0 4.0579 0 0 -2.30863c0,-1.27325 0.02365,-2.30862 0.0594,-2.30862 0.03575,0 1.9756,2.67768 4.33152,5.93835z"/>
  <path class="fil1" d="M24.7395 4.62935c-3.43695,1.79355 -6.26148,3.30797 -6.25075,3.37233 0,0.16115 8.25935,4.33895 8.5492,4.32822 0.128975,0 1.09533,-0.451 2.14803,-0.988075l1.91152 -0.97735 2.08367 1.07415 2.08367 1.07415 3.4155 -1.53587c5.1337,-2.30918 5.67078,-2.56713 5.5847,-2.6422 -0.10725,-0.11825 -1.9547,-1.10632 -6.9597,-3.73752 -2.41642,-1.26748 -4.75777,-2.52395 -5.20878,-2.77118 -0.451275,-0.257675 -0.880825,-0.451 -0.9559,-0.451 -0.07535,0 -2.96422,1.4608 -6.40117,3.25435zm-15.0898 7.8188l-3.58738 1.84745 0 8.11965c0,4.46792 0.043175,8.11937 0.107525,8.11937 0.053625,0 1.815,-0.762575 3.92012,-1.69675l3.8126 -1.69703 0 -8.55993 1.85817 1.00953c1.43908,0.784025 2.8677,1.55732 4.30678,2.34135l2.44888 1.3211 1.0846 -0.4939c0.6875,-0.311575 1.364,-0.62315 2.04077,-0.93445 0.526075,-0.24695 1.815,-0.8272 2.86742,-1.28892 1.0527,-0.461725 2.01932,-0.93445 2.15902,-1.0417 0.182325,-0.1397 -2.0515,-1.37473 -8.25935,-4.56445 -4.6827,-2.40597 -8.66718,-4.36067 -8.84978,-4.34995 -0.1826,0.010725 -1.94397,0.848375 -3.9094,1.86862zm35.2492 0.515625c-2.43815,1.10605 -4.43575,2.05123 -4.43575,2.10513 0,0.053625 1.33182,0.848375 2.9535,1.76137 1.6324,0.913 2.9535,1.70775 2.9535,1.7721 0,0.06435 -1.43907,0.762575 -3.20045,1.5466 -1.76138,0.79475 -6.20785,2.80307 -9.89175,4.46792l-12.3189 5.57425c-3.10393,1.39617 -5.89628,2.66337 -6.20785,2.80307 -6.32582,2.8677 -8.07648,3.66245 -8.3127,3.80215 -0.2365,0.139425 -0.290125,0.93445 -0.333025,4.94037l-0.053625 4.7795 3.20045 1.6324 3.20045 1.63268 4.44648 -2.0086c2.43815,-1.10633 4.44647,-2.06195 4.44647,-2.1373 0,-0.075075 -0.451,-0.3652 -0.9988,-0.65505 -0.5478,-0.290125 -1.6863,-0.93445 -2.53468,-1.42835 -0.83765,-0.494175 -1.6753,-0.945175 -1.85818,-1.0098 -0.182325,-0.06435 -0.33275,-0.160875 -0.33275,-0.236225 0,-0.06435 1.9547,-0.9988 4.34967,-2.06195 4.6398,-2.07295 8.184,-3.67318 15.7987,-7.12085 3.40478,-1.53588 6.80927,-3.08248 10.2248,-4.61835 2.9964,-1.35328 6.47625,-2.93205 7.73273,-3.51203l2.28772 -1.05242 0.0539 -4.83313 0.053625 -4.83312 -3.24363 -1.65413c-1.7831,-0.913 -3.3187,-1.66457 -3.39405,-1.66457 -0.0858,0 -2.14802,0.912725 -4.5859,2.00832zm10.2567 17.4419c-0.483175,0.2365 -1.42835,0.676775 -2.10513,0.97735 -0.6765,0.30085 -1.96542,0.880825 -2.8567,1.28892l-1.62195 0.741125 -0.032175 4.24215c-0.02145,2.33062 -0.10725,4.2317 -0.193325,4.22097 -0.193325,-0.032175 -3.23262,-1.5895 -6.29365,-3.2329 -2.21237,-1.1814 -2.35207,-1.23503 -2.8677,-0.977075 -0.300575,0.15015 -2.09413,0.955625 -3.98448,1.78283 -1.89035,0.83765 -3.5013,1.56805 -3.57665,1.64312 -0.075075,0.064625 3.72707,2.12658 8.4634,4.58617l8.5921 4.46793 3.67318 -1.90108c2.01905,-1.0417 3.73753,-1.9976 3.8126,-2.11585 0.1826,-0.2684 0.16115,-16.1854 -0.010725,-16.164 -0.075075,0.010725 -0.526075,0.20405 -0.9988,0.440275zm-20.3418 18.6774c-0.6336,0.2684 -1.2782,0.547525 -1.9118,0.826925 -1.92252,0.826925 -1.5466,0.8591 -3.83405,-0.2794 -1.52515,-0.762575 -2.18048,-0.988075 -2.47033,-0.88055 -0.214775,0.0858 -2.0515,0.913 -4.092,1.83645 -2.03005,0.923725 -3.7697,1.6863 -3.85578,1.6863 -0.8591,0 0.56925,0.848375 6.0467,3.60883l6.42263 3.24335 2.70655 -1.33182c1.48225,-0.730125 4.48937,-2.20165 6.65885,-3.26507 2.1802,-1.06315 3.93085,-1.9547 3.89867,-1.9976 -0.032175,-0.032175 -1.8579,-0.966625 -4.05983,-2.08367l-3.9952 -2.01905 -1.51443 0.655325z"/>
 </g>
</svg>
