<?xml version="1.0" encoding="UTF-8"?>
<!DOCTYPE svg PUBLIC "-//W3C//DTD SVG 1.1//EN" "http://www.w3.org/Graphics/SVG/1.1/DTD/svg11.dtd">
<!-- Creator: CorelDRAW -->
<svg xmlns="http://www.w3.org/2000/svg" xml:space="preserve" width="220px" height="69px" style="shape-rendering:geometricPrecision; text-rendering:geometricPrecision; image-rendering:optimizeQuality; fill-rule:evenodd; clip-rule:evenodd"
viewBox="0 0 220 68.75"
 version="1.1"
 xmlns:xlink="http://www.w3.org/1999/xlink">
 <defs>
  <style type="text/css">
   <![CDATA[
    .str0 {stroke:#1F1A17;stroke-width:0.20955}
    .fil17 {fill:none}
    .fil3 {fill:#1F1A17}
    .fil13 {fill:#383431}
    .fil18 {fill:#838281}
    .fil16 {fill:#969594}
    .fil14 {fill:#AAA9A9}
    .fil15 {fill:#C2C1C1}
    .fil2 {fill:white}
    .fil11 {fill:#0EACCD}
    .fil5 {fill:#1BAB7A}
    .fil19 {fill:#522478}
    .fil8 {fill:#725037}
    .fil20 {fill:#861F78}
    .fil7 {fill:#87603F}
    .fil6 {fill:#976A49}
    .fil9 {fill:#CC2E80}
    .fil12 {fill:#E78329}
    .fil10 {fill:#8E3EF0}
    .fil1 {fill:#9F5CF0}
    .fil0 {fill:#383431;fill-rule:nonzero}
    .fil4 {fill:url(#id1)}
    .fil21 {fill:url(#id2)}
    .fil22 {fill:url(#id3)}
    .fil23 {fill:url(#id4)}
   ]]>
  </style>
  <clipPath id="id0">
   <rect x="356" y="-357" width="538" height="804"/>
  </clipPath>
  <linearGradient id="id1" gradientUnits="userSpaceOnUse" x1="15.466" y1="71.8363" x2="66.6042" y2="20.6979">
   <stop offset="0" style="stop-color:#A364F0"/>
   <stop offset="1" style="stop-color:#7F66F7"/>
  </linearGradient>
  <linearGradient id="id2" gradientUnits="userSpaceOnUse" x1="74.0647" y1="103.36" x2="29.0183" y2="148.406">
   <stop offset="0" style="stop-color:#522478"/>
   <stop offset="1" style="stop-color:#861F78"/>
  </linearGradient>
  <linearGradient id="id3" gradientUnits="userSpaceOnUse" xlink:href="#id2" x1="71.2176" y1="92.438" x2="24.1871" y2="139.468">
  </linearGradient>
  <linearGradient id="id4" gradientUnits="userSpaceOnUse" xlink:href="#id2" x1="66.424" y1="116.213" x2="19.3768" y2="163.261">
  </linearGradient>
 </defs>
 <g id="Layer_x0020_1">
  <metadata id="CorelCorpID_0Corel-Layer"/>
  <path class="fil0" d="M89.8601 36.2874l15.3549 0 0 4.00427 -5.6584 0 0 17.3288 -4.03453 0 0 -17.3288 -5.66197 0 0 -4.00427zm31.2944 14.5918l-12.4622 0c0.179575,1.11843 0.6644,2.00943 1.44513,2.67272 0.780725,0.6633 1.77457,0.99495 2.98705,0.99495 1.4498,0 2.6961,-0.51975 3.73862,-1.5543l3.26838 1.56915c-0.814825,1.17782 -1.78943,2.0493 -2.92903,2.61827 -1.13465,0.5643 -2.4827,0.84645 -4.0491,0.84645 -2.4244,0 -4.39808,-0.7821 -5.92047,-2.34108 -1.52763,-1.5642 -2.2891,-3.51945 -2.2891,-5.86547 0,-2.41065 0.761475,-4.40523 2.2792,-5.99912 1.52267,-1.58868 3.42843,-2.38563 5.71725,-2.38563 2.4343,0 4.41265,0.79695 5.94,2.38563 1.52295,1.5939 2.2891,3.6927 2.2891,6.30107l-0.01485 0.75735zm-3.89373 -3.11823c-0.257125,-0.8811 -0.761475,-1.5939 -1.51305,-2.1483 -0.751575,-0.54945 -1.62938,-0.82665 -2.62323,-0.82665 -1.07662,0 -2.02702,0.31185 -2.84158,0.9306 -0.5093,0.3861 -0.9845,1.0692 -1.42092,2.04435l8.39878 0zm6.12453 -5.91992l3.32173 0 0 1.98963c0.36355,-0.781825 0.83875,-1.37583 1.43523,-1.78173 0.596475,-0.41085 1.25098,-0.6138 1.96377,-0.6138 0.4994,0 1.02327,0.1386 1.57602,0.4059l-1.20752 3.41027c-0.455675,-0.23265 -0.82885,-0.3465 -1.12475,-0.3465 -0.596475,0 -1.10083,0.3762 -1.51305,1.1286 -0.412225,0.75735 -0.616,2.23217 -0.616,4.43988l0.014575 0.76725 0 6.38 -3.85 0 0 -15.7795zm10.1833 0l3.89372 0 0 1.81638c0.6644,-0.747175 1.40168,-1.30157 2.21128,-1.66788 0.809875,-0.3663 1.69235,-0.5544 2.6477,-0.5544 0.964975,0 1.83783,0.24255 2.6136,0.72765 0.775775,0.4851 1.4014,1.18773 1.8766,2.11832 0.616,-0.9306 1.37253,-1.63323 2.26462,-2.11832 0.89705,-0.4851 1.87165,-0.72765 2.9337,-0.72765 1.10082,0 2.0658,0.26235 2.89987,0.78705 0.8338,0.51975 1.43055,1.20285 1.7941,2.04407 0.3685,0.8415 0.5478,2.2077 0.5478,4.10328l0 9.251 -3.90335 0 0 -8.0036c0,-1.7919 -0.21835,-2.99942 -0.654775,-3.63302 -0.436425,-0.6336 -1.09092,-0.9504 -1.95883,-0.9504 -0.6644,0 -1.26087,0.19305 -1.78447,0.57915 -0.52855,0.3861 -0.91685,0.9207 -1.1737,1.6038 -0.25685,0.682825 -0.383075,1.77678 -0.383075,3.28653l0 7.11755 -3.90857 0 0 -7.64225c0,-1.41075 -0.10175,-2.43512 -0.30525,-3.06873 -0.203775,-0.6336 -0.5093,-1.10385 -0.916575,-1.41075 -0.407275,-0.31185 -0.89705,-0.4653 -1.47428,-0.4653 -0.644875,0 -1.23145,0.198 -1.75505,0.58905 -0.523875,0.39105 -0.921525,0.9405 -1.17865,1.6434 -0.2618,0.70785 -0.3927,1.81638 -0.3927,3.33602l0 7.01855 -3.89372 0 0 -15.7795zm28.9008 -6.49412c0.678975,0 1.26583,0.25245 1.75532,0.7524 0.4851,0.5049 0.72765,1.11375 0.72765,1.82655 0,0.707575 -0.237875,1.31147 -0.7227,1.80647 -0.484825,0.49995 -1.06205,0.74745 -1.73112,0.74745 -0.69355,0 -1.28508,-0.25245 -1.7699,-0.7623 -0.489775,-0.504625 -0.732325,-1.12365 -0.732325,-1.84607 0,-0.69795 0.24255,-1.29195 0.7227,-1.78695 0.484825,-0.49005 1.06672,-0.73755 1.75037,-0.73755zm-1.9492 6.49412l3.89372 0 0 15.7795 -3.89372 0 0 -15.7795zm7.3997 0l3.86485 0 0 1.61342c0.882475,-0.757075 1.67777,-1.28178 2.39552,-1.57382 0.7128,-0.297 1.44512,-0.4455 2.19175,-0.4455 1.53725,0 2.8369,0.54945 3.9083,1.6434 0.902,0.925375 1.34833,2.29653 1.34833,4.11785l0 10.4241 -3.8357 0 0 -6.9146c0,-1.88595 -0.0825,-3.1383 -0.2475,-3.75678 -0.164725,-0.61875 -0.455675,-1.089 -0.8679,-1.4157 -0.412225,-0.32175 -0.916575,-0.4851 -1.52267,-0.4851 -0.79035,0 -1.46437,0.2673 -2.02702,0.80685 -0.562375,0.5346 -0.955075,1.2771 -1.17343,2.22228 -0.111375,0.495 -0.169675,1.5642 -0.169675,3.2076l0 6.33545 -3.86485 0 0 -15.7795zm28.8866 0l3.86485 0 0 15.7795 -3.86485 0 0 -1.66815c-0.756525,0.73755 -1.51773,1.26225 -2.2792,1.58895 -0.76615,0.32175 -1.59033,0.4851 -2.4827,0.4851 -1.99787,0 -3.72432,-0.792 -5.18375,-2.37105 -1.4597,-1.57878 -2.18707,-3.54393 -2.18707,-5.8949 0,-2.4354 0.703175,-4.42997 2.1142,-5.98922 1.4113,-1.55403 3.12785,-2.33613 5.14497,-2.33613 0.926475,0 1.79933,0.18315 2.61388,0.53955 0.81455,0.3564 1.56612,0.89595 2.25967,1.60847l0 -1.74213zm-4.07825 3.25187c-1.20257,0 -2.20137,0.43065 -2.99667,1.2969 -0.7953,0.86625 -1.19295,1.97478 -1.19295,3.32612 0,1.3662 0.4026,2.48463 1.2122,3.36573 0.809875,0.8811 1.80895,1.32165 2.992,1.32165 1.2221,0 2.23547,-0.4356 3.04067,-1.30185 0.804925,-0.8613 1.20725,-1.99485 1.20725,-3.40037 0,-1.37115 -0.402325,-2.48463 -1.20725,-3.33107 -0.8052,-0.8514 -1.82353,-1.2771 -3.05525,-1.2771zm11.4488 -9.3401l3.87942 0 0 21.8677 -3.87942 0 0 -21.8677z"/>
  <path id="XMLID_54_" class="fil1" d="M109.616 19.665c0.8481,6.31043 -2.32292,12.8595 -9.9308,12.4022 -6.75647,0 -10.8152,-5.3735 -10.8152,-11.8129 0,-6.43913 4.0359,-11.8124 10.8152,-11.8124 4.92002,0 9.06923,2.62983 9.65882,7.7088l-3.8544 0c-0.38555,-2.97028 -2.97,-4.48937 -5.80442,-4.48937 -4.82982,0 -6.8475,4.2625 -6.8475,8.59293 0,4.33097 2.01767,8.59347 6.8475,8.59347 4.03535,0.067925 6.25763,-2.38068 6.32582,-6.18997l-6.00847 0 0 -2.99283 9.61345 0zm6.57497 4.62523c0,2.56217 1.38353,4.82928 4.3989,4.82928 2.08615,0 3.35555,-0.906675 3.99053,-2.72058l3.42348 0c-0.793375,3.5596 -3.83158,5.555 -7.39145,5.555 -5.1238,0 -8.00387,-3.55988 -8.00387,-8.59293 0,-4.64805 3.03848,-8.61603 7.89057,-8.61603 5.1469,0 8.32123,4.64777 7.7088,9.54525l-12.017 0zm8.41225 -2.35813c-0.1364,-2.2671 -1.67777,-4.33042 -4.1041,-4.33042 -2.49397,0 -4.19458,1.90465 -4.30815,4.33042l8.41225 0zm17.3902 -1.26967c-0.2948,-1.99485 -1.74597,-3.06075 -3.71855,-3.06075 -1.859,0 -4.4891,0.974875 -4.4891,5.94055 0,2.72057 1.20147,5.6001 4.33042,5.6001 2.08615,0 3.53733,-1.38297 3.87723,-3.71827l3.58243 0c-0.6578,4.23995 -3.28762,6.57552 -7.48192,6.57552 -5.12463,0 -7.93595,-3.62807 -7.93595,-8.4348 0,-4.9203 2.67548,-8.7747 8.04898,-8.7747 3.78647,0 7.00618,1.90465 7.3689,5.91773l-3.58243 0 0 -0.045375zm6.62062 -11.6991l3.60498 0 0 12.8329 6.50732 -6.59808 4.42145 0 -6.25817 6.00848 6.8475 10.3392 -4.39863 0 -4.98822 -7.93567 -2.1538 2.08615 0 5.84952 -3.60497 0 0 -22.5825 0.02255 0zm16.1208 14.3745c0,-4.98795 2.99283,-8.59292 8.25303,-8.59292 5.23737,0 8.25302,3.60497 8.25302,8.59292 0,5.0336 -2.9931,8.61603 -8.25302,8.61603 -5.2602,0.02255 -8.25303,-3.58243 -8.25303,-8.61603zm12.9008 0c0,-2.81132 -1.42808,-5.75877 -4.64777,-5.75877 -3.2197,0 -4.64805,2.94745 -4.64805,5.75877 0,2.83415 1.42835,5.7816 4.64805,5.7816 3.2197,0 4.64777,-2.92463 4.64777,-5.7816z"/>
  <path class="fil1" d="M71.2374 43.3078c4.895,-4.92057 4.89252,-12.9506 -0.016225,-17.8593l-2.86192 -2.8622 0.00605 -0.0022c5.65703,-3.7906 0.138875,-8.71118 -6.07447,-9.06675 -0.995225,-3.00823 -3.62313,-4.56968 -6.33792,-3.33768l-3.59838 -3.59838c-4.91123,-4.9115 -12.9495,-4.9115 -17.8601,0l-18.9271 18.9296 8.9276 9.07968 10.2242 -10.3309c-1.8931,9.75232 -3.69078,14.1366 -9.38905,14.1157 6.4207,6.2183 12.8411,12.4361 19.2618,18.6541 3.3836,-2.5157 6.76748,-5.03195 10.1514,-7.5482 -0.086625,-2.3716 0.21615,-4.4165 -0.5335,-6.66793 -2.0152,-6.05193 -0.697675,-10.4525 2.72002,-13.8298l14.3077 14.3242z"/>
  <path class="fil2" d="M27.5899 39.8728c3.12592,-0.251625 5.45352,-3.2263 6.20758,-8.01817 1.0307,-6.54857 2.1439,-11.2241 4.51962,-13.8369 2.79015,-3.06845 6.36158,-5.51595 13.4338,-5.1128 0.958375,-1.7204 2.47473,-2.9491 4.51138,-2.70682 3.0932,0.368225 4.20063,2.1296 4.51138,3.90995 4.19458,0.7546 7.15247,2.10073 8.52143,4.11015 1.61095,2.36445 -1.00403,4.92387 -4.52348,6.11352 -8.4205,2.84625 -10.7088,5.10538 -12.5194,8.22277 -1.97065,4.37497 -2.02455,10.9057 -1.80455,17.7447l-6.21582 5.61413c-5.5473,-5.34682 -11.0946,-10.6936 -16.6419,-16.0405z"/>
  <path class="fil3" d="M57.2137 11.9749c1.17397,0.242 2.4112,1.52928 2.4112,3.2263 0,1.69703 -1.59583,3.564 -3.564,3.564 -1.9679,0 -3.564,-1.59583 -3.564,-3.564 0,-0.5401 0.121,-1.05242 0.33605,-1.5114 0.50325,0.515075 0.76835,0.8151 1.98165,0.8349 1.21358,0.0198 2.81078,-1.0175 2.3991,-2.5498z"/>
  <path class="fil4" d="M62.4641 34.2953l8.88992 8.92155c-0.00275,0.00275 -0.00605,0.006325 -0.00825,0.008525l-18.9915 18.9497c-4.91673,4.906 -12.9484,4.91178 -17.8596,0l-18.8669 -18.8669c-4.91177,-4.9115 -4.91177,-12.9481 0,-17.8599l0.000825 -0.00055 27.7959 27.8457 19.0396 -18.9981z"/>
 </g>
 <g id="_184284800">
  <rect id="_184283048" class="fil5 str0" x="-120.696" y="-54.8573" width="49.3148" height="16.9312"/>
  <rect id="_182626736" class="fil6 str0" x="-120.696" y="-37.926" width="49.3148" height="16.9312"/>
  <rect id="_182233424" class="fil7 str0" x="-120.696" y="-20.9948" width="49.3148" height="16.9312"/>
  <rect id="_182627192" class="fil8 str0" x="-120.696" y="-4.06359" width="49.3148" height="16.9312"/>
  <rect id="_182627120" class="fil9 str0" x="-120.696" y="12.8676" width="49.3148" height="16.9312"/>
  <rect id="_181855488" class="fil10 str0" x="-120.696" y="29.7989" width="49.3148" height="16.9312"/>
  <rect id="_184282664" class="fil11 str0" x="-120.696" y="46.7301" width="49.3148" height="16.9312"/>
  <rect id="_184282712" class="fil12 str0" x="-120.696" y="63.6613" width="49.3148" height="16.9312"/>
  <rect id="_184286768" class="fil3 str0" x="-120.696" y="80.5925" width="49.3148" height="16.9312"/>
  <rect id="_184283528" class="fil13 str0" x="-120.696" y="97.5238" width="49.3148" height="16.9312"/>
  <rect id="_184283936" class="fil14 str0" x="-71.3808" y="-54.8573" width="49.3148" height="16.9312"/>
  <rect id="_184284032" class="fil14 str0" x="-71.3808" y="-37.926" width="49.3148" height="16.9312"/>
  <rect id="_184283648" class="fil15 str0" x="-71.3808" y="-20.9948" width="49.3148" height="16.9312"/>
  <rect id="_184283672" class="fil16 str0" x="-71.3808" y="-4.06359" width="49.3148" height="16.9312"/>
  <rect id="_184283912" class="fil15 str0" x="-71.3808" y="12.8676" width="49.3148" height="16.9312"/>
  <rect id="_184284056" class="fil17 str0" x="-71.3808" y="29.7989" width="49.3148" height="16.9312"/>
  <rect id="_184284416" class="fil17 str0" x="-71.3808" y="46.7301" width="49.3148" height="16.9312"/>
  <rect id="_184284200" class="fil17 str0" x="-71.3808" y="63.6613" width="49.3148" height="16.9312"/>
  <rect id="_184284224" class="fil17 str0" x="-71.3808" y="80.5925" width="49.3148" height="16.9312"/>
  <rect id="_184284776" class="fil18 str0" x="-71.3808" y="97.5238" width="49.3148" height="16.9312"/>
 </g>
 <g style="clip-path:url(#id0)">
  <image id="Embedding_x0020_30" transform="matrix(1 0 0 1 247.679 412.179)" x="110" y="-768.79" width="535.425" height="803.165" xlink:href="geckoTerminalLogoOR_Images\geckoTerminalLogoOR_ImgID1.png"/>
 </g>
 <g>
  <polygon class="fil17" points="357.679,-356.611 893.104,-356.611 893.104,446.554 357.679,446.554 "/>
 </g>
 <g>
  <rect class="fil19 str0" x="-207.431" y="-60.0116" width="40.1703" height="17.5288"/>
  <rect class="fil20 str0" x="-207.431" y="-42.4828" width="40.1703" height="17.5288"/>
  <rect class="fil17 str0" x="-207.431" y="-24.9541" width="40.1703" height="17.5288"/>
  <rect class="fil17 str0" x="-207.431" y="-7.42527" width="40.1703" height="17.5288"/>
  <rect class="fil17 str0" x="-207.431" y="10.1035" width="40.1703" height="17.5288"/>
  <rect class="fil17 str0" x="-207.431" y="27.6323" width="40.1703" height="17.5288"/>
  <rect class="fil17 str0" x="-207.431" y="45.1611" width="40.1703" height="17.5288"/>
  <rect class="fil17 str0" x="-207.431" y="62.6898" width="40.1703" height="17.5288"/>
  <rect class="fil17 str0" x="-207.431" y="80.2186" width="40.1703" height="17.5288"/>
  <rect class="fil17 str0" x="-207.431" y="97.7474" width="40.1703" height="17.5288"/>
  <rect class="fil17 str0" x="-167.261" y="-60.0116" width="40.1703" height="17.5288"/>
  <rect class="fil17 str0" x="-167.261" y="-42.4828" width="40.1703" height="17.5288"/>
  <rect class="fil17 str0" x="-167.261" y="-24.9541" width="40.1703" height="17.5288"/>
  <rect class="fil17 str0" x="-167.261" y="-7.42527" width="40.1703" height="17.5288"/>
  <rect class="fil17 str0" x="-167.261" y="10.1035" width="40.1703" height="17.5288"/>
  <rect class="fil17 str0" x="-167.261" y="27.6323" width="40.1703" height="17.5288"/>
  <rect class="fil17 str0" x="-167.261" y="45.1611" width="40.1703" height="17.5288"/>
  <rect class="fil17 str0" x="-167.261" y="62.6898" width="40.1703" height="17.5288"/>
  <rect class="fil17 str0" x="-167.261" y="80.2186" width="40.1703" height="17.5288"/>
  <rect class="fil17 str0" x="-167.261" y="97.7474" width="40.1703" height="17.5288"/>
 </g>
 <path class="fil0" d="M91.7254 129.757l15.3549 0 0 4.00427 -5.6584 0 0 17.3289 -4.03453 0 0 -17.3289 -5.66197 0 0 -4.00427zm31.2944 14.5918l-12.4622 0c0.179575,1.11843 0.6644,2.00942 1.44513,2.67273 0.780725,0.6633 1.77457,0.99495 2.98705,0.99495 1.4498,0 2.6961,-0.51975 3.73862,-1.5543l3.26838 1.56915c-0.814825,1.17782 -1.78943,2.0493 -2.92903,2.61827 -1.13465,0.5643 -2.4827,0.84645 -4.0491,0.84645 -2.4244,0 -4.39807,-0.7821 -5.92047,-2.34107 -1.52763,-1.5642 -2.2891,-3.51945 -2.2891,-5.86548 0,-2.41065 0.761475,-4.40523 2.2792,-5.99912 1.52268,-1.58868 3.42843,-2.38563 5.71725,-2.38563 2.4343,0 4.41265,0.79695 5.94,2.38563 1.52295,1.5939 2.2891,3.6927 2.2891,6.30107l-0.01485 0.75735zm-3.89373 -3.11822c-0.257125,-0.8811 -0.761475,-1.5939 -1.51305,-2.1483 -0.751575,-0.54945 -1.62937,-0.82665 -2.62323,-0.82665 -1.07662,0 -2.02702,0.31185 -2.84157,0.9306 -0.5093,0.3861 -0.9845,1.0692 -1.42093,2.04435l8.39878 0zm6.12453 -5.91993l3.32173 0 0 1.98963c0.36355,-0.781825 0.83875,-1.37583 1.43522,-1.78173 0.596475,-0.41085 1.25098,-0.6138 1.96378,-0.6138 0.4994,0 1.02327,0.1386 1.57602,0.4059l-1.20753 3.41027c-0.455675,-0.23265 -0.82885,-0.3465 -1.12475,-0.3465 -0.596475,0 -1.10082,0.3762 -1.51305,1.1286 -0.412225,0.75735 -0.616,2.23217 -0.616,4.43988l0.014575 0.76725 0 6.38 -3.85 0 0 -15.7795zm10.1832 0l3.89373 0 0 1.81637c0.6644,-0.747175 1.40168,-1.30157 2.21128,-1.66788 0.809875,-0.3663 1.69235,-0.5544 2.6477,-0.5544 0.964975,0 1.83783,0.24255 2.6136,0.72765 0.775775,0.4851 1.4014,1.18773 1.8766,2.11833 0.616,-0.9306 1.37252,-1.63323 2.26462,-2.11833 0.89705,-0.4851 1.87165,-0.72765 2.9337,-0.72765 1.10082,0 2.0658,0.26235 2.89987,0.78705 0.8338,0.51975 1.43055,1.20285 1.7941,2.04407 0.3685,0.8415 0.5478,2.2077 0.5478,4.10327l0 9.251 -3.90335 0 0 -8.0036c0,-1.7919 -0.21835,-2.99943 -0.654775,-3.63303 -0.436425,-0.6336 -1.09093,-0.9504 -1.95883,-0.9504 -0.6644,0 -1.26087,0.19305 -1.78448,0.57915 -0.52855,0.3861 -0.91685,0.9207 -1.1737,1.6038 -0.25685,0.682825 -0.383075,1.77678 -0.383075,3.28653l0 7.11755 -3.90858 0 0 -7.64225c0,-1.41075 -0.10175,-2.43512 -0.30525,-3.06873 -0.203775,-0.6336 -0.5093,-1.10385 -0.916575,-1.41075 -0.407275,-0.31185 -0.89705,-0.4653 -1.47428,-0.4653 -0.644875,0 -1.23145,0.198 -1.75505,0.58905 -0.523875,0.39105 -0.921525,0.9405 -1.17865,1.6434 -0.2618,0.70785 -0.3927,1.81637 -0.3927,3.33603l0 7.01855 -3.89373 0 0 -15.7795zm28.9009 -6.49412c0.678975,0 1.26582,0.25245 1.75532,0.7524 0.4851,0.5049 0.72765,1.11375 0.72765,1.82655 0,0.707575 -0.237875,1.31148 -0.7227,1.80648 -0.484825,0.49995 -1.06205,0.74745 -1.73113,0.74745 -0.69355,0 -1.28508,-0.25245 -1.7699,-0.7623 -0.489775,-0.504625 -0.732325,-1.12365 -0.732325,-1.84608 0,-0.69795 0.24255,-1.29195 0.7227,-1.78695 0.484825,-0.49005 1.06672,-0.73755 1.75037,-0.73755zm-1.9492 6.49412l3.89372 0 0 15.7795 -3.89372 0 0 -15.7795zm7.3997 0l3.86485 0 0 1.61342c0.882475,-0.757075 1.67777,-1.28177 2.39553,-1.57382 0.7128,-0.297 1.44512,-0.4455 2.19175,-0.4455 1.53725,0 2.8369,0.54945 3.9083,1.6434 0.902,0.925375 1.34833,2.29653 1.34833,4.11785l0 10.4241 -3.8357 0 0 -6.9146c0,-1.88595 -0.0825,-3.1383 -0.2475,-3.75678 -0.164725,-0.61875 -0.455675,-1.089 -0.8679,-1.4157 -0.412225,-0.32175 -0.916575,-0.4851 -1.52268,-0.4851 -0.79035,0 -1.46437,0.2673 -2.02703,0.80685 -0.562375,0.5346 -0.955075,1.2771 -1.17343,2.22228 -0.111375,0.495 -0.169675,1.5642 -0.169675,3.2076l0 6.33545 -3.86485 0 0 -15.7795zm28.8866 0l3.86485 0 0 15.7795 -3.86485 0 0 -1.66815c-0.756525,0.73755 -1.51773,1.26225 -2.2792,1.58895 -0.76615,0.32175 -1.59033,0.4851 -2.4827,0.4851 -1.99787,0 -3.72432,-0.792 -5.18375,-2.37105 -1.4597,-1.57878 -2.18707,-3.54393 -2.18707,-5.8949 0,-2.4354 0.703175,-4.42998 2.1142,-5.98923 1.4113,-1.55402 3.12785,-2.33612 5.14497,-2.33612 0.926475,0 1.79933,0.18315 2.61388,0.53955 0.81455,0.3564 1.56612,0.89595 2.25968,1.60847l0 -1.74213zm-4.07825 3.25188c-1.20257,0 -2.20137,0.43065 -2.99667,1.2969 -0.7953,0.86625 -1.19295,1.97477 -1.19295,3.32612 0,1.3662 0.4026,2.48462 1.2122,3.36572 0.809875,0.8811 1.80895,1.32165 2.992,1.32165 1.2221,0 2.23547,-0.4356 3.04067,-1.30185 0.804925,-0.8613 1.20725,-1.99485 1.20725,-3.40037 0,-1.37115 -0.402325,-2.48463 -1.20725,-3.33107 -0.8052,-0.8514 -1.82352,-1.2771 -3.05525,-1.2771zm11.4488 -9.3401l3.87943 0 0 21.8677 -3.87943 0 0 -21.8677z"/>
 <path id="XMLID_54__0" class="fil19" d="M111.482 113.135c0.8481,6.31042 -2.32292,12.8595 -9.9308,12.4022 -6.75647,0 -10.8152,-5.3735 -10.8152,-11.8129 0,-6.43913 4.0359,-11.8124 10.8152,-11.8124 4.92002,0 9.06923,2.62983 9.65883,7.7088l-3.8544 0c-0.38555,-2.97028 -2.97,-4.48938 -5.80442,-4.48938 -4.82982,0 -6.8475,4.2625 -6.8475,8.59293 0,4.33097 2.01767,8.59347 6.8475,8.59347 4.03535,0.067925 6.25763,-2.38067 6.32582,-6.18998l-6.00847 0 0 -2.99282 9.61345 0zm6.57497 4.62523c0,2.56217 1.38353,4.82927 4.3989,4.82927 2.08615,0 3.35555,-0.906675 3.99053,-2.72057l3.42347 0c-0.793375,3.5596 -3.83158,5.555 -7.39145,5.555 -5.1238,0 -8.00388,-3.55988 -8.00388,-8.59293 0,-4.64805 3.03848,-8.61602 7.89057,-8.61602 5.1469,0 8.32122,4.64777 7.7088,9.54525l-12.0169 0zm8.41225 -2.35813c-0.1364,-2.2671 -1.67777,-4.33043 -4.1041,-4.33043 -2.49397,0 -4.19458,1.90465 -4.30815,4.33043l8.41225 0zm17.3902 -1.26968c-0.2948,-1.99485 -1.74598,-3.06075 -3.71855,-3.06075 -1.859,0 -4.4891,0.974875 -4.4891,5.94055 0,2.72058 1.20147,5.6001 4.33042,5.6001 2.08615,0 3.53733,-1.38297 3.87723,-3.71827l3.58243 0c-0.6578,4.23995 -3.28763,6.57552 -7.48193,6.57552 -5.12463,0 -7.93595,-3.62807 -7.93595,-8.4348 0,-4.9203 2.67548,-8.7747 8.04898,-8.7747 3.78647,0 7.00617,1.90465 7.3689,5.91773l-3.58243 0 0 -0.045375zm6.62062 -11.6991l3.60497 0 0 12.8329 6.50733 -6.59807 4.42145 0 -6.25817 6.00848 6.8475 10.3392 -4.39862 0 -4.98823 -7.93568 -2.1538 2.08615 0 5.84952 -3.60497 0 0 -22.5825 0.02255 0zm16.1208 14.3745c0,-4.98795 2.99282,-8.59292 8.25302,-8.59292 5.23738,0 8.25303,3.60497 8.25303,8.59292 0,5.0336 -2.9931,8.61603 -8.25303,8.61603 -5.2602,0.02255 -8.25302,-3.58243 -8.25302,-8.61603zm12.9008 0c0,-2.81132 -1.42808,-5.75878 -4.64778,-5.75878 -3.2197,0 -4.64805,2.94745 -4.64805,5.75878 0,2.83415 1.42835,5.7816 4.64805,5.7816 3.2197,0 4.64778,-2.92462 4.64778,-5.7816z"/>
 <path class="fil21" d="M27.1953 131.845c5.91305,0.021725 7.62493,-4.6992 9.603,-15.2411 5.26377,-2.71837 12.0301,-6.50787 17.2939,-9.22652 3.60827,-6.11243 8.6009,-4.81278 10.0639,-0.3905 6.21362,0.355575 11.7315,5.27643 6.07447,9.06703 -10.692,3.84808 -17.7644,9.3929 -14.1553,20.2293 0.749375,2.25088 0.446325,4.29605 0.533225,6.66765 -3.38388,2.51625 -6.76775,5.0325 -10.1516,7.54847 -6.42043,-6.2183 -12.8411,-12.4363 -19.2616,-18.6543z"/>
 <path class="fil22" d="M73.1027 136.778c4.895,-4.92057 4.8928,-12.9508 -0.01595,-17.8596l-18.8672 -18.8669c-4.91123,-4.9115 -12.9596,-4.9225 -17.8596,0l-18.953 19.0407 8.95318 8.9683 18.9296 -19.1271 27.813 27.8446z"/>
 <path class="fil2" d="M29.4552 133.343c3.12593,-0.251625 5.45352,-3.2263 6.20758,-8.01817 1.0307,-6.54857 2.1439,-11.2241 4.51963,-13.8369 2.79015,-3.06845 6.36157,-5.51595 13.4337,-5.1128 0.958375,-1.7204 2.47472,-2.9491 4.51138,-2.70682 3.0932,0.368225 4.20062,2.1296 4.51137,3.90995 4.19458,0.7546 7.15248,2.10073 8.52142,4.11015 1.61095,2.36445 -1.00402,4.92387 -4.52347,6.11352 -8.4205,2.84625 -10.7088,5.10538 -12.5194,8.22278 -1.97065,4.37497 -2.02455,10.9057 -1.80455,17.7447l-6.21582 5.61413c-5.5473,-5.34683 -11.0946,-10.6937 -16.6419,-16.0405z"/>
 <path class="fil3" d="M59.0791 105.445c1.17397,0.242 2.4112,1.52927 2.4112,3.2263 0,1.69703 -1.59582,3.564 -3.564,3.564 -1.9679,0 -3.564,-1.59583 -3.564,-3.564 0,-0.5401 0.121,-1.05242 0.33605,-1.5114 0.50325,0.515075 0.76835,0.8151 1.98165,0.8349 1.21357,0.0198 2.81077,-1.0175 2.3991,-2.5498z"/>
 <path class="fil23" d="M64.3294 127.765l8.88993 8.92155c-0.00275,0.00275 -0.00605,0.006325 -0.00825,0.008525l-18.9915 18.9497c-4.91672,4.906 -12.9484,4.91177 -17.8596,0l-18.8669 -18.8669c-4.91177,-4.9115 -4.91177,-12.9481 0,-17.8599l0.000825 -0.00055 27.7959 27.8457 19.0396 -18.9981z"/>
</svg>
