<?xml version="1.0" encoding="UTF-8"?>
<!DOCTYPE svg PUBLIC "-//W3C//DTD SVG 1.1//EN" "http://www.w3.org/Graphics/SVG/1.1/DTD/svg11.dtd">
<!-- Creator: CorelDRAW -->
<svg xmlns="http://www.w3.org/2000/svg" xml:space="preserve" width="220px" height="69px" style="shape-rendering:geometricPrecision; text-rendering:geometricPrecision; image-rendering:optimizeQuality; fill-rule:evenodd; clip-rule:evenodd"
viewBox="0 0 220 68.75">
 <defs>
  <style type="text/css">
   <![CDATA[
    .fil1 {fill:#383431}
    .fil0 {fill:#1BAB7A}
   ]]>
  </style>
 </defs>
 <g id="Layer_x0020_1">
  <metadata id="CorelCorpID_0Corel-Layer"/>
  <g id="_182627024">
   <path id="_182626352" class="fil0" d="M56.7416 8.28272l3.46363 0c0.38115,0 0.692725,0.311575 0.692725,0.692725l0 4.12473 4.125 0c0.38115,0 0.692725,0.311575 0.692725,0.692725l0 3.4639c0,0.380875 -0.311575,0.69245 -0.692725,0.69245l-4.125 0 0 4.125c0,0.38115 -0.311575,0.692725 -0.692725,0.692725l-3.46363 0c-0.38115,0 -0.692725,-0.311575 -0.692725,-0.692725l0 -4.125 -4.12472 0c-0.38115,0 -0.692725,-0.311575 -0.692725,-0.693l0 -3.46335c0,-0.38115 0.311575,-0.692725 0.692725,-0.692725l4.12472 0 0 -4.12473c0,-0.38115 0.311575,-0.692725 0.692725,-0.692725z"/>
   <path id="_182292448" class="fil0" d="M25.3982 21.1414l15.6214 0c3.0756,0 6.0368,-3.06625 6.0368,-6.53373l-21.698 -0.170225 0 0c-11.9281,0 -22.1381,10.5696 -22.1381,21.9585l0 2.22062c0,11.7026 10.5298,21.8504 22.1381,21.8504l11.4191 -0.102025 0 0c13.0713,0 12.975,-19.9158 -0.117975,-19.9158l-10.4481 0c-1.42257,0 -2.77228,-1.38627 -2.77228,-2.81958l0 -0.27445c0,-1.39535 1.25098,-2.6917 2.71508,-2.6917l0 0 -0.000825 -0.01925 10.8463 0c3.07587,0 6.69543,-3.41275 6.69543,-6.88022l-17.8981 -0.140525 -0.034375 0.0539c-4.94312,0.050325 -9.1575,4.43933 -9.1575,9.1674l0 0.927025c0,2.79922 1.47758,5.46453 3.70865,7.18328 2.20412,1.69812 5.06687,2.2924 7.80395,2.2792l8.66882 -0.042075c1.61893,-0.0077 2.9007,1.35328 2.9007,2.90785l0 0.649825c0,1.60352 -1.46025,2.97165 -3.0591,2.90235l-11.3366 -0.01375c-8.1642,0 -15.5697,-7.13735 -15.5697,-15.3673l0 -1.56173c0,-8.00992 7.29905,-15.568 15.6879,-15.568l-0.01155 0z"/>
  </g>
  <path class="fil1" d="M105.957 27.5979l0 0c5.0204,0 9.12698,4.49982 9.12698,8.61437l0 9.86948c0,4.11455 -4.10658,8.4722 -9.12698,8.4722l0 0c-5.02013,0 -9.1267,-4.35683 -9.1267,-8.4722l0 -9.86948c0,-4.11538 4.10657,-8.61437 9.1267,-8.61437zm0 4.03288l0 0c2.84103,0 5.16505,2.35923 5.16505,5.24343l0 8.40373c0,2.88392 -2.32402,5.24342 -5.16505,5.24342l0 0c-2.84075,0 -5.16478,-2.3595 -5.16478,-5.24342l0 -8.40373c0,-2.8842 2.32403,-5.24343 5.16478,-5.24343zm70.9409 -3.68335l-3.9622 0.000275 0 18.1341c0,4.11538 4.10685,8.4722 9.12697,8.4722l0 0c5.02013,0 9.12697,-4.3582 9.12697,-8.4722l0 -18.1343 -3.9622 0.000275 0 17.3302c0,2.88392 -2.32403,5.24342 -5.16477,5.24342l0 0c-2.84075,0 -5.16477,-2.3595 -5.16477,-5.24342l0 -17.3305zm-91.883 11.8198l3.96192 0 0 3.89125 0 2.4233c0,4.11427 -4.10657,8.4722 -9.1267,8.4722l0 0c-5.02012,0 -9.12698,-4.35683 -9.12698,-8.4722l0 -9.86948c0,-4.11538 4.10685,-8.61437 9.12698,-8.61437l0 0c4.76493,0 8.70705,4.05433 9.09535,7.9849l-4.0942 -0.0154c-0.5753,-2.25693 -2.60425,-3.93662 -5.00115,-3.93662l0 0c-2.84102,0 -5.16505,2.35923 -5.16505,5.24343l0 8.40373c0,2.88392 2.32403,5.24342 5.16505,5.24342l0 0c2.84075,0 5.16478,-2.3595 5.16478,-5.24342l0 -1.61948 -5.16478 0 0 -3.89125 5.16478 0zm80.5932 10.871l-12.2271 0 0 -22.6908 -4.00565 0 0 26.4201 1.73003 0 2.27562 0 12.2271 0 0 -3.72927zm-32.5781 -18.9228l-5.33968 0 0 8.54013 5.43427 0 -0.000275 0.003575c3.08165,0.011 4.61588,-1.83095 4.62633,-4.50312 0.01045,-2.71535 -1.58922,-4.09558 -4.719,-4.03508l-0.00165 -0.0055zm-0.52525 12.2694l-4.81442 0 0 1.1946 0 9.18803 -4.00565 0c0,-8.79368 0,-17.5879 0,-26.3813l8.13257 0c5.82478,-0.074525 9.7284,2.48572 9.7086,7.5636 -0.0198,5.11555 -3.02445,8.5723 -9.0211,8.43563l0 -0.00055zm65.5696 7.0147c0.84535,-1.00292 1.69043,-2.00585 2.5355,-3.00878 1.8865,2.14115 8.7967,3.44438 10.5416,2.07625 1.74515,-1.36785 2.91115,-4.6376 -0.271975,-6.35938 -1.67007,-0.90365 -5.98042,-0.11 -9.21882,-2.82865 -3.23868,-2.71865 -2.66613,-7.69807 -0.759,-10.1632 2.9821,-3.85468 9.98222,-3.9402 15.1302,-0.198 -0.7293,1.08047 -1.4586,2.16095 -2.1879,3.24143 -2.42852,-1.78613 -7.79817,-3.44988 -10.1038,-0.015675 -0.8778,1.30763 -0.884675,5.10263 4.06862,5.34573 4.66868,0.229075 7.51163,1.92445 8.46807,5.01462 0.995775,3.21668 0.5511,6.12453 -1.65578,8.37347 -4.3417,3.67758 -13.1079,2.14363 -16.5467,-1.47785z"/>
 </g>
</svg>
