<?xml version="1.0" encoding="UTF-8"?>
<!DOCTYPE svg PUBLIC "-//W3C//DTD SVG 1.1//EN" "http://www.w3.org/Graphics/SVG/1.1/DTD/svg11.dtd">
<!-- Creator: CorelDRAW -->
<svg xmlns="http://www.w3.org/2000/svg" xml:space="preserve" width="220px" height="66px" style="shape-rendering:geometricPrecision; text-rendering:geometricPrecision; image-rendering:optimizeQuality; fill-rule:evenodd; clip-rule:evenodd"
viewBox="0 0 220 66">
 <defs>
  <style type="text/css">
   <![CDATA[
    .fil1 {fill:#383431}
    .fil0 {fill:#8E3EF0}
   ]]>
  </style>
 </defs>
 <g id="Layer_x0020_1">
  <metadata id="CorelCorpID_0Corel-Layer"/>
  <g id="_182583432">
   <path id="_182583600" class="fil0" d="M16.2563 4.21795c-7.18713,0.072325 -12.8915,5.92488 -12.8915,13.1117l0 31.2661c0,5.33253 3.1845,10.0777 8.07372,12.1514 4.8906,2.07488 10.5229,0.88935 14.3019,-2.816l8.8902 -8.89157c0.220275,7.18713 6.149,12.8186 13.263,12.7424 7.18575,-0.072325 12.889,-5.92488 12.889,-13.1117l0 -31.2661c0,-5.33253 -3.1845,-10.0777 -8.07455,-12.1514 -4.89115,-2.00035 -10.5207,-0.88935 -14.3008,2.816l-8.88938 8.89157c-0.22275,-7.18712 -6.07393,-12.8898 -13.2616,-12.7424zm28.9311 28.7834c0,-7.2424 -5.8718,-13.115 -13.1131,-13.115 -7.24185,0 -13.1137,5.87262 -13.1137,13.115 0,7.2391 5.8718,13.1137 13.1137,13.1137 7.2413,0 13.1131,-5.87455 13.1131,-13.1137z"/>
   <path id="_182582832" class="fil1" d="M81.0675 44.2035l-5.07595 0 0 -22.4073 5.07595 0 0 3.29945c1.8491,-2.42935 4.6046,-3.7708 7.83172,-3.7708 5.11225,0 8.12158,3.44465 8.12158,8.77443l0 14.1042 -5.07595 0 0 -13.1252c0,-3.40835 -1.81307,-5.22115 -4.56857,-5.22115 -3.8071,0 -6.27248,3.40835 -6.27248,8.5206 -0.0363,0.036025 -0.0363,9.82575 -0.0363,9.82575zm19.2527 -11.1675c0,-6.99765 4.49598,-11.7112 11.1675,-11.7112 6.67122,0 11.1672,4.6772 11.1672,11.7112 0,6.96162 -4.49598,11.6388 -11.1672,11.6388 -6.6715,0 -11.1675,-4.6772 -11.1675,-11.6388zm17.1498 0c0,-4.31448 -2.46537,-7.21518 -5.98235,-7.21518 -3.51698,0 -5.98263,2.9007 -5.98263,7.21518 0,4.27845 2.46565,7.14285 5.98263,7.14285 3.51698,0 5.98235,-2.9007 5.98235,-7.14285l0 0zm13.8143 11.1675l-5.07622 0 0 -22.4073 5.07622 0 0 3.29945c1.59528,-2.46538 3.95203,-3.7708 6.63493,-3.7708 2.9733,0 5.58388,1.55925 6.81643,4.42338 1.84937,-2.90042 4.7498,-4.42338 7.79542,-4.42338 4.31475,0 7.32407,3.04563 7.32407,8.26678l0 14.6482 -5.07595 0 0 -13.4153c0,-3.26315 -1.41405,-4.96732 -3.98833,-4.96732 -3.40835,0 -5.32977,3.08192 -5.32977,8.55663l0 9.82603 -5.07622 0 0 -13.4153c0,-3.37205 -1.48665,-4.96732 -3.8797,-4.96732 -3.26315,0 -5.22088,3.15452 -5.22088,8.55663l0 9.78972zm33.2117 -22.4073l5.07623 0 0 22.4073 -5.07623 0c0,0 0,-22.4073 0,-22.4073zm8.6295 11.2035c0,-6.96135 4.6046,-11.6385 11.1312,-11.6385 5.00335,0 8.62922,2.64687 10.1522,7.07025l-4.71377 1.958c-0.616275,-2.937 -2.50168,-4.53227 -5.32978,-4.53227 -3.6619,0 -6.05495,2.8281 -6.05495,7.14257 0,4.38735 2.39305,7.17915 6.09125,7.17915 2.7918,0 4.6409,-1.59527 5.29348,-4.53227l4.67747 1.958c-1.63157,4.60487 -5.14882,7.07025 -10.0435,7.07025 -6.5989,0 -11.2035,-4.6772 -11.2035,-11.6751zm24.0026 5.33005l4.6046 -2.10292c0.326425,2.46538 2.8644,4.20585 5.8014,4.20585 2.24785,0 4.02463,-1.0516 4.02463,-2.46565 0,-3.8071 -13.4879,-2.17525 -13.4879,-9.86205 0,-4.20585 3.6982,-6.6352 8.77442,-6.6352 5.00335,0 8.70183,2.39305 9.60823,5.54758l-4.85842 2.10292c-0.1452,-1.8491 -2.1032,-3.40835 -4.895,-3.40835 -2.03033,0 -3.5893,0.870375 -3.5893,2.0669 0,3.6256 13.5239,1.95772 13.5239,9.97068 0,4.06093 -3.58957,6.92533 -9.24578,6.92533 -5.5473,0 -9.3907,-2.50167 -10.2608,-6.34508z"/>
  </g>
 </g>
</svg>
