<?xml version="1.0" encoding="UTF-8"?>
<!DOCTYPE svg PUBLIC "-//W3C//DTD SVG 1.1//EN" "http://www.w3.org/Graphics/SVG/1.1/DTD/svg11.dtd">
<!-- Creator: CorelDRAW -->
<svg xmlns="http://www.w3.org/2000/svg" xml:space="preserve" width="199px" height="86px" style="shape-rendering:geometricPrecision; text-rendering:geometricPrecision; image-rendering:optimizeQuality; fill-rule:evenodd; clip-rule:evenodd"
viewBox="0 0 199 85.9419">
 <defs>
  <style type="text/css">
   <![CDATA[
    .fil0 {fill:#67458B;fill-rule:nonzero}
   ]]>
  </style>
 </defs>
 <g id="Layer_x0020_1">
  <metadata id="CorelCorpID_0Corel-Layer"/>
  <path class="fil0" d="M22.4945 71.7326c-3.29317,0 -6.29502,-0.759973 -9.00555,-2.27992 -2.71038,-1.51995 -4.86358,-3.81245 -6.45946,-6.8775 -1.59588,-3.06521 -2.3939,-6.95359 -2.3939,-11.6653 0,-4.76233 0.772552,-8.66345 2.31781,-11.7032 1.54526,-3.03974 3.66042,-5.30693 6.34564,-6.80156 2.68522,-1.49464 5.75027,-2.24188 9.19546,-2.24188 4.00236,0 7.53607,0.86122 10.6013,2.58382 3.06505,1.7226 5.497,4.12908 7.29537,7.21959 1.79853,3.09036 2.6978,6.7382 2.6978,10.9432 0,4.20517 -0.899266,7.86559 -2.6978,10.9813 -1.79838,3.11583 -4.23032,5.53504 -7.29537,7.25764 -3.06521,1.72244 -6.59891,2.58382 -10.6013,2.58382zm-22.4945 14.2111l0 -55.3245 9.04328 0 0 9.57545 -0.303896 10.7913 0.759973 10.7912 0 24.1665 -9.49936 0zm21.4305 -22.3425c2.27992,0 4.31915,-0.506701 6.11768,-1.51995 1.79853,-1.01325 3.22965,-2.48257 4.29368,-4.40782 1.06387,-1.92509 1.59588,-4.1797 1.59588,-6.76352 0,-2.63444 -0.532012,-4.90163 -1.59588,-6.80156 -1.06402,-1.89978 -2.49515,-3.35637 -4.29368,-4.36961 -1.79853,-1.0134 -3.83776,-1.51995 -6.11768,-1.51995 -2.27977,0 -4.33172,0.506545 -6.15557,1.51995 -1.82384,1.01325 -3.26785,2.46984 -4.33172,4.36961 -1.06387,1.89993 -1.59588,4.16712 -1.59588,6.80156 0,2.58382 0.532012,4.83843 1.59588,6.76352 1.06387,1.92525 2.50788,3.39457 4.33172,4.40782 1.82384,1.01325 3.8758,1.51995 6.15557,1.51995zm33.8482 7.59942l0 -56.3884 9.49936 0 0 56.3884 -9.49936 0zm50.1109 0l0 -8.20753 -0.531857 -1.74775 0 -14.3631c0,-2.78647 -0.836064,-4.95241 -2.50788,-6.49766 -1.67197,-1.5451 -4.20501,-2.31781 -7.59958,-2.31781 -2.27977,0 -4.52164,0.354675 -6.72547,1.06402 -2.20383,0.709195 -4.06572,1.69713 -5.58567,2.9638l-3.72362 -6.91554c2.17836,-1.67197 4.77491,-2.92591 7.78934,-3.76182 3.01443,-0.835909 6.14299,-1.25394 9.38538,-1.25394 5.87698,0 10.4239,1.40597 13.6412,4.21774 3.21708,2.81178 4.82569,7.15624 4.82569,13.0331l0 23.7865 -8.9675 0zm-12.7671 0.532012c-3.03989,0 -5.69965,-0.519279 -7.97957,-1.55799 -2.27977,-1.03856 -4.04041,-2.48241 -5.28146,-4.33172 -1.24121,-1.84915 -1.86189,-3.939 -1.86189,-6.26955 0,-2.27977 0.544591,-4.33172 1.63393,-6.15557 1.08903,-1.82384 2.87498,-3.26785 5.35739,-4.33172 2.48257,-1.06387 5.77574,-1.59588 9.87934,-1.59588l11.7793 0 0 6.30759 -11.0952 0c-3.24254,0 -5.42106,0.519279 -6.53555,1.55784 -1.11465,1.03856 -1.67197,2.31781 -1.67197,3.83776 0,1.7226 0.684038,3.09052 2.05196,4.10376 1.36792,1.01325 3.2677,1.51995 5.69965,1.51995 2.33039,0 4.42024,-0.532012 6.26955,-1.59588 1.84915,-1.06402 3.17903,-2.6346 3.98978,-4.71171l1.59588 5.69965c-0.911999,2.38117 -2.54593,4.23032 -4.90178,5.54762 -2.35586,1.31714 -5.33224,1.97587 -8.9293,1.97587zm52.3149 0c-4.45844,0 -7.90348,-1.15269 -10.3353,-3.45777 -2.43195,-2.30523 -3.64784,-5.71238 -3.64784,-10.2214l0 -36.4015 9.49936 0 0 36.1736c0,1.92525 0.493967,3.41988 1.4819,4.48375 0.987934,1.06387 2.36859,1.59588 4.14181,1.59588 2.12789,0 3.90096,-0.557324 5.31966,-1.67182l2.65975 6.76352c-1.11449,0.911844 -2.48241,1.59588 -4.10376,2.0518 -1.62119,0.456077 -3.29301,0.684038 -5.01561,0.684038zm-20.6707 -33.2099l0 -7.59942 27.0542 0 0 7.59942 -27.0542 0zm65.766 32.6779l0 -8.20753 -0.531857 -1.74775 0 -14.3631c0,-2.78647 -0.836064,-4.95241 -2.50788,-6.49766 -1.67197,-1.5451 -4.20501,-2.31781 -7.59958,-2.31781 -2.27977,0 -4.52164,0.354675 -6.72547,1.06402 -2.20383,0.709195 -4.06572,1.69713 -5.58567,2.9638l-3.72378 -6.91554c2.17852,-1.67197 4.77507,-2.92591 7.7895,-3.76182 3.01443,-0.835909 6.14299,-1.25394 9.38538,-1.25394 5.87698,0 10.4239,1.40597 13.6412,4.21774 3.21708,2.81178 4.82569,7.15624 4.82569,13.0331l0 23.7865 -8.9675 0zm-12.7671 0.532012c-3.03989,0 -5.69965,-0.519279 -7.97957,-1.55799 -2.27977,-1.03856 -4.04041,-2.48241 -5.28161,-4.33172 -1.24121,-1.84915 -1.86189,-3.939 -1.86189,-6.26955 0,-2.27977 0.544591,-4.33172 1.63393,-6.15557 1.08918,-1.82384 2.87513,-3.26785 5.35755,-4.33172 2.48257,-1.06387 5.77574,-1.59588 9.87934,-1.59588l11.7793 0 0 6.30759 -11.0952 0c-3.24254,0 -5.42106,0.519279 -6.53555,1.55784 -1.11465,1.03856 -1.67197,2.31781 -1.67197,3.83776 0,1.7226 0.684038,3.09052 2.05196,4.10376 1.36792,1.01325 3.2677,1.51995 5.69965,1.51995 2.33039,0 4.42024,-0.532012 6.26955,-1.59588 1.84915,-1.06402 3.17903,-2.6346 3.98978,-4.71171l1.59588 5.69965c-0.911999,2.38117 -2.54593,4.23032 -4.90178,5.54762 -2.35586,1.31714 -5.33224,1.97587 -8.9293,1.97587z"/>
 </g>
</svg>
