<?xml version="1.0" encoding="UTF-8"?>
<!DOCTYPE svg PUBLIC "-//W3C//DTD SVG 1.1//EN" "http://www.w3.org/Graphics/SVG/1.1/DTD/svg11.dtd">
<!-- Creator: CorelDRAW -->
<svg xmlns="http://www.w3.org/2000/svg" xml:space="preserve" width="200px" height="62px" style="shape-rendering:geometricPrecision; text-rendering:geometricPrecision; image-rendering:optimizeQuality; fill-rule:evenodd; clip-rule:evenodd"
viewBox="0 0 200 62.5">
 <defs>
  <style type="text/css">
   <![CDATA[
    .fil1 {fill:#969594}
    .fil0 {fill:url(#id0)}
   ]]>
  </style>
  <linearGradient id="id0" gradientUnits="userSpaceOnUse" x1="50.6415" y1="5.7485" x2="13.132" y2="53.4875">
   <stop offset="0" style="stop-color:#838281"/>
   <stop offset="1" style="stop-color:#DEDEDD"/>
  </linearGradient>
 </defs>
 <g id="Layer_x0020_1">
  <metadata id="CorelCorpID_0Corel-Layer"/>
  <path class="fil0" d="M31.9305 9.15925c11.4578,0 20.8855,8.7025 22.0348,19.8575l0.42975 0.26675 1.41575 0c-1.0305,-12.2855 -11.329,-21.938 -23.8803,-21.938 -12.363,0 -22.5405,9.36425 -23.8285,21.3855l1.82575 0c1.27925,-11.0173 10.6425,-19.5718 22.0027,-19.5718zm-23.9647 21.9318c-0.00075,0.074 -0.00275,0.14775 -0.00275,0.222 0,3.835 0.9035,7.45825 2.50525,10.6727 0.47775,-0.34925 0.95825,-0.7375 1.443,-1.17825 -1.358,-2.85775 -2.1235,-6.05125 -2.13425,-9.423l-1.81125 -0.2935zm36.2567 20.7995c6.30775,-3.77725 10.7348,-10.3723 11.5413,-18.0445 -0.614,0.17675 -1.24175,0.3255 -1.88125,0.45 -0.97825,7.26575 -5.49425,13.3915 -11.7298,16.674 -1.0365,0.5455 -0.58,0.91725 0.18525,0.918l1.8845 0.0025zm-25.0237 -0.2705c0.418,0.2405 0.8825,-0.11525 0.658,-0.48675l-1.31075 -2.169c-1.6585,-1.25975 -3.135,-2.74725 -4.38075,-4.4165 -0.6085,0.1245 -1.22325,0.3025 -1.84425,0.54425 1.834,2.6055 4.11,4.9365 6.87775,6.528z"/>
  <path class="fil1" d="M194.247 39.332l-2.9005 0 0 -11.62 2.69275 0 0 1.65075c0.4615,-0.78075 0.87775,-1.296 1.244,-1.5425 0.37,-0.24675 0.78575,-0.37375 1.25475,-0.37375 0.6625,0 1.29675,0.19425 1.91,0.583l-0.8985 2.678c-0.4865,-0.3325 -0.94125,-0.5005 -1.3605,-0.5005 -0.40875,0 -0.75075,0.11575 -1.0325,0.35475 -0.28575,0.23525 -0.50425,0.66475 -0.66625,1.28475 -0.162,0.62025 -0.24325,1.92 -0.24325,3.89575l0 3.58975zm-8.02475 -6.8055c-0.02125,-0.89275 -0.23625,-1.56875 -0.64875,-2.032 -0.41225,-0.46325 -0.91625,-0.69475 -1.50825,-0.69475 -0.6345,0 -1.15625,0.2465 -1.5685,0.73575 -0.41225,0.48575 -0.617,1.1505 -0.60975,1.991l4.33525 0zm-0.166 3.10775l2.8935 0.5115c-0.3735,1.12425 -0.9585,1.97975 -1.762,2.56625 -0.8,0.59 -1.8045,0.8815 -3.01,0.8815 -1.90675,0 -3.31625,-0.6575 -4.23275,-1.97975 -0.72225,-1.057 -1.0855,-2.39425 -1.0855,-4.00425 0,-1.92725 0.47575,-3.43625 1.4275,-4.527 0.948,-1.09075 2.14975,-1.636 3.602,-1.636 1.6315,0 2.918,0.5715 3.8625,1.71475 0.94125,1.14275 1.39225,2.891 1.3535,5.24775l-7.27075 0c0.021,0.9115 0.25375,1.621 0.70125,2.1255 0.4475,0.50775 1.008,0.76175 1.67375,0.76175 0.455,0 0.8355,-0.13075 1.14575,-0.39225 0.31025,-0.265 0.54625,-0.68725 0.70125,-1.26975zm-14.6615 -7.92225l1.61075 0 0 -0.87775c0,-0.975 0.09875,-1.70725 0.296,-2.189 0.19725,-0.48175 0.557,-0.874 1.08175,-1.17675 0.529,-0.30225 1.19525,-0.45175 1.9985,-0.45175 0.82825,0 1.63525,0.13075 2.42825,0.392l-0.391 2.148c-0.462,-0.11975 -0.90575,-0.17575 -1.332,-0.17575 -0.42325,0 -0.72275,0.101 -0.906,0.31 -0.18325,0.20925 -0.2715,0.609 -0.2715,1.199l0 0.822 2.1675 0 0 2.4165 -2.1675 0 0 9.2035 -2.904 0 0 -9.2035 -1.61075 0 0 -2.4165zm-7.0415 0l1.61025 0 0 -0.87775c0,-0.975 0.09875,-1.70725 0.29625,-2.189 0.19725,-0.48175 0.55675,-0.874 1.08175,-1.17675 0.529,-0.30225 1.195,-0.45175 1.9985,-0.45175 0.82825,0 1.63525,0.13075 2.42825,0.392l-0.391 2.148c-0.462,-0.11975 -0.90575,-0.17575 -1.33225,-0.17575 -0.423,0 -0.72275,0.101 -0.906,0.31 -0.183,0.20925 -0.27125,0.609 -0.27125,1.199l0 0.822 2.1675 0 0 2.4165 -2.1675 0 0 9.2035 -2.90425 0 0 -9.2035 -1.61025 0 0 -2.4165zm-4.60325 11.62l0 -11.62 2.90075 0 0 11.62 -2.90075 0zm0 -13.1965l0 -2.846 2.90075 0 0 2.846 -2.90075 0zm-2.94275 13.1965l-2.9005 0 0 -5.9315c0,-1.255 -0.0635,-2.0655 -0.18675,-2.4355 -0.1235,-0.36575 -0.32775,-0.6535 -0.60625,-0.859 -0.2785,-0.20175 -0.6135,-0.30625 -1.0045,-0.30625 -0.50375,0 -0.95475,0.14575 -1.35325,0.437 -0.39825,0.295 -0.67325,0.68 -0.82125,1.16175 -0.148,0.48175 -0.222,1.37075 -0.222,2.6705l0 5.263 -2.90075 0 0 -11.62 2.69275 0 0 1.70675c0.95875,-1.31475 2.164,-1.97225 3.616,-1.97225 0.63825,0 1.2265,0.1235 1.75525,0.36625 0.5285,0.2465 0.9305,0.55625 1.2015,0.9375 0.27175,0.381 0.462,0.8105 0.568,1.2925 0.109,0.48175 0.16175,1.169 0.16175,2.0655l0 7.22375zm-24.8328 -5.21825l2.9745 -0.30975c0.1765,1.0605 0.5395,1.8375 1.08925,2.33425 0.54625,0.49325 1.28275,0.7435 2.2135,0.7435 0.983,0 1.72675,-0.22025 2.2235,-0.665 0.5005,-0.44075 0.75075,-0.95625 0.75075,-1.54625 0,-0.381 -0.1055,-0.70225 -0.31725,-0.9675 -0.20775,-0.26875 -0.5745,-0.5005 -1.0995,-0.69475 -0.356,-0.1345 -1.1735,-0.366 -2.446,-0.70225 -1.63875,-0.4295 -2.7875,-0.96 -3.44675,-1.5875 -0.9305,-0.8815 -1.3955,-1.957 -1.3955,-3.227 0,-0.81825 0.2185,-1.58 0.65525,-2.2935 0.437,-0.7095 1.068,-1.251 1.88925,-1.62475 0.8245,-0.36975 1.815,-0.5565 2.978,-0.5565 1.90325,0 3.33075,0.44075 4.29275,1.32225 0.9585,0.88525 1.4625,2.06175 1.512,3.53725l-3.0555 0.14175c-0.1305,-0.82525 -0.4125,-1.41925 -0.84225,-1.77775 -0.43025,-0.3625 -1.075,-0.54175 -1.935,-0.54175 -0.88825,0 -1.586,0.1905 -2.0865,0.579 -0.32425,0.24675 -0.4865,0.579 -0.4865,0.99375 0,0.381 0.1515,0.70575 0.45475,0.97475 0.384,0.34375 1.32175,0.70225 2.809,1.072 1.487,0.3735 2.587,0.75825 3.29875,1.154 0.712,0.39975 1.269,0.94125 1.67425,1.63225 0.4015,0.691 0.60275,1.54275 0.60275,2.555 0,0.91875 -0.23975,1.78175 -0.72275,2.581 -0.48275,0.80325 -1.163,1.40075 -2.044,1.789 -0.88125,0.3925 -1.98075,0.5865 -3.2955,0.5865 -1.91375,0 -3.3835,-0.46675 -4.409,-1.4045 -1.0255,-0.9375 -1.639,-2.30425 -1.83625,-4.0975zm-6.595 5.21825l-2.9005 0 0 -5.9315c0,-1.255 -0.0635,-2.0655 -0.18675,-2.4355 -0.1235,-0.36575 -0.32775,-0.6535 -0.60625,-0.859 -0.2785,-0.20175 -0.6135,-0.30625 -1.0045,-0.30625 -0.50375,0 -0.95475,0.14575 -1.35325,0.437 -0.39825,0.295 -0.67325,0.68 -0.82125,1.16175 -0.148,0.48175 -0.222,1.37075 -0.222,2.6705l0 5.263 -2.90075 0 0 -11.62 2.69275 0 0 1.70675c0.95875,-1.31475 2.164,-1.97225 3.616,-1.97225 0.63825,0 1.2265,0.1235 1.75525,0.36625 0.5285,0.2465 0.9305,0.55625 1.2015,0.9375 0.27175,0.381 0.462,0.8105 0.56775,1.2925 0.10925,0.48175 0.162,1.169 0.162,2.0655l0 7.22375zm-15.2215 -6.8055c-0.02125,-0.89275 -0.23625,-1.56875 -0.64875,-2.032 -0.4125,-0.46325 -0.91625,-0.69475 -1.5085,-0.69475 -0.63425,0 -1.156,0.2465 -1.56825,0.73575 -0.4125,0.48575 -0.61675,1.1505 -0.60975,1.991l4.33525 0zm-0.16575 3.10775l2.8935 0.5115c-0.37375,1.12425 -0.95875,1.97975 -1.76225,2.56625 -0.80025,0.59 -1.8045,0.8815 -3.00975,0.8815 -1.907,0 -3.3165,-0.6575 -4.233,-1.97975 -0.72225,-1.057 -1.0855,-2.39425 -1.0855,-4.00425 0,-1.92725 0.47575,-3.43625 1.4275,-4.527 0.948,-1.09075 2.14975,-1.636 3.602,-1.636 1.6315,0 2.918,0.5715 3.86275,1.71475 0.941,1.14275 1.392,2.891 1.35325,5.24775l-7.27075 0c0.02125,0.9115 0.25375,1.621 0.701,2.1255 0.44775,0.50775 1.00825,0.76175 1.67425,0.76175 0.4545,0 0.83525,-0.13075 1.14525,-0.39225 0.3105,-0.265 0.54675,-0.68725 0.70175,-1.26975zm-18.2145 3.69775l0 -16.0425 2.9045 0 0 8.5125 3.394 -4.09 3.57375 0 -3.74625 4.243 4.01375 7.377 -3.12575 0 -2.75975 -5.21825 -1.34975 1.498 0 3.72025 -2.9045 0zm-10.5092 -5.812c0,1.154 0.25725,2.0355 0.775,2.64825 0.51475,0.6125 1.15275,0.91875 1.9105,0.91875 0.7575,0 1.39225,-0.30625 1.903,-0.91875 0.5145,-0.61275 0.77175,-1.5015 0.77175,-2.6705 0,-1.1355 -0.25725,-2.01325 -0.77175,-2.626 -0.51075,-0.6125 -1.1455,-0.91875 -1.903,-0.91875 -0.75775,0 -1.39575,0.30625 -1.9105,0.91875 -0.51775,0.61275 -0.775,1.49775 -0.775,2.64825zm-2.97475 -0.1645c0,-1.0195 0.23975,-2.0095 0.712,-2.9655 0.47575,-0.9525 1.149,-1.68475 2.0195,-2.18525 0.8705,-0.50425 1.8435,-0.75825 2.91825,-0.75825 1.6565,0 3.017,0.5715 4.07775,1.71475 1.06075,1.14275 1.5895,2.5845 1.5895,4.329 0,1.7555 -0.53575,3.21225 -1.60375,4.37 -1.0715,1.158 -2.41775,1.73325 -4.04225,1.73325 -1.00825,0 -1.96325,-0.23925 -2.876,-0.721 -0.91275,-0.48175 -1.60725,-1.18775 -2.083,-2.11775 -0.47225,-0.93025 -0.712,-2.062 -0.712,-3.39925zm-7.24925 5.9765l0 -13.3272 -4.49025 0 0 -2.71525 12.0287 0 0 2.71525 -4.4795 0 0 13.3272 -3.059 0zm-27.3648 -0.786c1.33475,0.03425 2.69475,-0.1855 3.9835,0 0.70875,0.102 0.76425,1.02325 0.395,1.89225 -0.096,0.22625 -0.27225,0.414 -0.365,0.64125 -0.15475,0.38 0.483,1.086 0.76,0.85425 0.95225,-0.79575 1.59475,-1.94675 1.7025,-3.44875 0.09525,-1.31875 -0.71475,-2.24075 -2.5535,-2.13625 -1.821,0.1035 -3.00575,1.07325 -3.9225,2.19725zm-41.4942 -9.4265c14.4162,0 28.8345,0.206 43.2497,0 2.05825,-0.0295 2.99875,-1.945 4.249,-3.29 0.16475,-0.177 0.4215,0.0245 0.41125,0.27425 -0.0325,0.77625 -0.04575,1.715 -0.06875,2.4915 0.34825,0.30075 0.554,0.52925 0.617,0.686 2.0725,-0.05075 3.644,-0.1375 3.427,0.3865l4.557 0c0.6935,0 0.35,1.1065 -0.48025,2.19325 -0.92475,1.21125 -2.2995,1.89875 -6.66325,2.38775 -0.49225,0.055 -1.101,0.1415 -1.66575,0.1985 -8.133,0.82325 -13.6067,8.46625 -15.8257,15.3575 2.333,-0.245 2.272,0.86925 2.463,1.81075 -1.0785,0 -2.15725,0 -3.23575,0 -0.6025,0 -0.43675,-0.286 -0.5235,-0.851 -0.32825,-2.135 -0.73425,-4.27675 -0.90125,-6.429 -0.06225,-0.802 0.1825,-1.599 0.27425,-2.399 0.27375,-0.7995 0.8255,-2.11 0.67775,-2.942 -0.141,-0.79775 -0.63125,-1.1875 -1.43175,-1.3075 -3.432,-0.5135 -7.54475,-0.07775 -11.0353,2.4675 -1.153,0.84075 -1.752,2.262 -2.742,3.29 -0.21175,0.2205 -0.51575,0.39975 -0.82225,0.411 -4.11525,0.1545 -7.05475,1.6335 -8.91,4.38675 -0.36325,0.539 -0.22175,1.48825 0.32775,1.65975 1.01275,0.316 1.51525,0.94075 1.782,1.7135 -1.64525,0 -3.2905,0 -4.93525,0 -0.48525,-0.501 -0.92325,-1.05575 -0.7535,-1.7135 0.084,-0.3265 0.4715,-0.9515 0.6315,-1.24825 1.07375,-1.48525 2.20425,-2.931 3.22125,-4.45525 0.37775,-0.566 0.72225,-0.7665 1.09675,-0.95975 2.43475,-1.2555 4.4,-3.42625 6.30575,-5.75725 1.6735,-2.04725 3.3815,-4.06675 5.07225,-6.10025 -2.34325,0 -4.67675,0 -7.04525,0 -1.987,0 -3.47225,-0.36225 -5.40375,-0.669 -0.70575,-0.11175 -1.50025,-0.20075 -2.42875,-0.266 -3.1405,-0.22025 -3.18625,-0.8485 -3.49125,-1.32675zm19.2445 14.1363c1.87625,-1.5765 4.0935,-2.5855 6.802,-2.77825 -0.08775,3.737 -3.79225,7.35625 -7.451,7.2955 0.12775,0.597 0.387,1.22775 1.55775,2.103 1.5865,0.04425 2.14425,0.79275 2.41425,1.7395 -1.38475,0 -2.7695,0 -4.15375,0 -0.85675,-1.402 -1.71375,-2.804 -2.5705,-4.20575 2.868,-0.751 3.37925,-2.3635 3.40125,-4.154z"/>
 </g>
</svg>
