<?xml version="1.0" encoding="UTF-8"?>
<!DOCTYPE svg PUBLIC "-//W3C//DTD SVG 1.1//EN" "http://www.w3.org/Graphics/SVG/1.1/DTD/svg11.dtd">
<!-- Creator: CorelDRAW -->
<svg xmlns="http://www.w3.org/2000/svg" xml:space="preserve" width="220px" height="69px" style="shape-rendering:geometricPrecision; text-rendering:geometricPrecision; image-rendering:optimizeQuality; fill-rule:evenodd; clip-rule:evenodd"
viewBox="0 0 220 68.75">
 <defs>
  <style type="text/css">
   <![CDATA[
    .fil1 {fill:#383431}
    .fil0 {fill:#E78329}
   ]]>
  </style>
 </defs>
 <g id="Layer_x0020_1">
  <metadata id="CorelCorpID_0Corel-Layer"/>
  <g id="_182627816">
   <path id="_182627912" class="fil0" d="M181.268 15.2606l0 0 21.6461 20.6858 0 -20.6858 7.40877 0 0 39.0819 -21.6458 -20.8923 0 20.8923 -7.40905 0 0 -39.0819zm-20.7262 0l6.0885 0 11.1202 0 0 6.853 -11.1202 0 0 7.7792 10.5644 0 0 6.85327 -10.5644 0 0 10.7429 11.1202 0 0 6.85328 -11.1202 0 0 0.000275 -7.40905 0 0 -39.0819 1.32055 0zm-35.1923 0l7.40878 0 0 12.9357 13.2432 -12.9357 9.56285 0 -17.7499 17.0907 18.4742 21.9912 -9.27273 0 -14.2576 -16.9716 0 16.9716 -7.40878 0 0 -39.0819zm-69.2904 0l28.339 0 0 6.853 -10.9112 0 0 32.2289 -7.40878 0 0 -32.2289 -10.0191 0 0 -6.853zm46.9827 5.74557c7.24102,0 13.1125,5.8718 13.1125,13.1123 0,7.24103 -5.87153,13.1125 -13.1125,13.1125 -7.24048,0 -13.1123,-5.87152 -13.1123,-13.1125 0,-7.24048 5.8718,-13.1123 13.1123,-13.1123zm0 -7.11123c11.168,0 20.2241,9.05658 20.2241,20.2235 0,11.168 -9.05603,20.224 -20.2241,20.224 -11.1672,0 -20.2235,-9.05602 -20.2235,-20.224 0,-11.1669 9.0563,-20.2235 20.2235,-20.2235z"/>
   <path id="_182628344" class="fil1" d="M9.67725 38.0476l7.93182 -5.46672 0 22.0806 -4.28753 0 0 -15.5425 -2.35812 1.71545 -1.28618 -2.78685zm17.3643 -2.22832l0 0c1.82765,0 3.32282,1.4784 3.32282,3.2857l0 9.32745c0,1.8073 -1.49517,3.28597 -3.32282,3.28597l0 0c-1.82765,0 -3.32282,-1.47867 -3.32282,-3.28597l0 -9.32745c0,-1.8073 1.49517,-3.2857 3.32282,-3.2857zm-0.791175 -3.31018l1.40415 0c3.5585,0 6.34452,2.60728 6.36955,6.9586l0.050325 8.65205c0.0253,4.35132 -2.86137,7.15962 -6.41987,7.15962l-1.40415 0c-3.5585,0 -6.41493,-3.2098 -6.4702,-7.56085l-0.100375 -7.89965c-0.055,-4.35105 3.0118,-7.30978 6.57058,-7.30978zm16.7621 3.31018l0 0c1.82738,0 3.32255,1.4784 3.32255,3.2857l0 9.32745c0,1.8073 -1.49517,3.28597 -3.32255,3.28597l0 0c-1.82765,0 -3.32282,-1.47867 -3.32282,-3.28597l0 -9.32745c0,-1.8073 1.49517,-3.2857 3.32282,-3.2857zm-0.79145 -3.31018l1.40443 0c3.5585,0 6.34425,2.60728 6.36955,6.9586l0.050325 8.65205c0.025025,4.35132 -2.86165,7.15962 -6.41987,7.15962l-1.40443 0c-3.5585,0 -6.41465,-3.2098 -6.46993,-7.56085l-0.100375 -7.89965c-0.055275,-4.35105 3.0118,-7.30978 6.5703,-7.30978z"/>
   <path id="_182628440" class="fil0" d="M30.2211 16.4788c3.28212,0 5.94412,2.662 5.94412,5.9444 0,3.2824 -2.662,5.9444 -5.94412,5.9444 -3.2824,0 -5.9444,-2.662 -5.9444,-5.9444 0,-3.2824 2.662,-5.9444 5.9444,-5.9444zm0 -3.00795c5.07485,0 9.19105,3.98777 9.19105,8.90478 0,4.91672 -4.1162,8.9045 -9.19105,8.9045 -5.07512,0 -9.19105,-3.98777 -9.19105,-8.9045 0,-4.917 4.11593,-8.90478 9.19105,-8.90478zm-16.8306 17.284l2.91253 0 0 -14.0849 3.34235 0 0 -2.7214 -9.74023 0 0 2.7214 3.48535 0 0 14.0849zm35.934 -15.4088c0.918775,0.801625 1.3222,1.8689 1.4509,3.03847 -0.01595,0.964975 0.0033,1.93133 -0.047575,2.8952 -0.0924,1.74212 -1.2793,3.21915 -3.7598,4.0337 -0.982575,0.32285 -2.00255,0.359425 -3.0679,0.290675l0 5.15075 -3.10337 0 0 -16.8542c2.6994,0 6.2909,-0.506275 8.52775,1.4454zm-5.43702 7.29218c0,-2.00558 0,-4.01087 0,-6.01618l0.667975 -0.000825c1.4256,-0.001375 3.0558,1.00485 3.31155,2.72552 0.07535,0.506825 0.0418,0.976525 -0.064075,1.375 -0.105875,0.398475 -0.284075,0.725725 -0.498025,0.94765 -0.4279,0.443575 -0.808225,0.600325 -1.41268,0.7601 -0.55715,0.14685 -1.22678,0.2156 -2.00475,0.208725z"/>
  </g>
 </g>
</svg>
