<?xml version="1.0" encoding="UTF-8"?>
<!DOCTYPE svg PUBLIC "-//W3C//DTD SVG 1.1//EN" "http://www.w3.org/Graphics/SVG/1.1/DTD/svg11.dtd">
<!-- Creator: CorelDRAW -->
<svg xmlns="http://www.w3.org/2000/svg" xml:space="preserve" width="26px" height="18px" shape-rendering="geometricPrecision" text-rendering="geometricPrecision" image-rendering="optimizeQuality" fill-rule="evenodd" clip-rule="evenodd"
viewBox="0 0 26 18.4737">
 <g id="Layer_x0020_1">
  <metadata id="CorelCorpID_0Corel-Layer"/>
  <path fill="#383431" d="M5.17571 4.00811c0.296947,0 0.566294,0.118026 0.763894,0.30966l0.000821053 -0.000697895 0.0292158 0.0308853 0.00128632 0.00135474 7.02907 7.43142 7.02907 -7.43142 0.00128632 -0.00135474 0.0292158 -0.0308853 0.000821053 0.000697895c0.1976,-0.191634 0.466946,-0.30966 0.763894,-0.30966 0.606019,0 1.09749,0.491468 1.09749,1.09749 0,0.228061 -0.0696526,0.439865 -0.188774,0.615393l-7.80811 8.27672c-0.583002,0.616364 -1.25424,0.631294 -1.84978,0l-7.80811 -8.27672c-0.119121,-0.175527 -0.188774,-0.387332 -0.188774,-0.615393 0,-0.606019 0.491468,-1.09749 1.09749,-1.09749z"/>
 </g>
</svg>
