<?xml version="1.0" encoding="UTF-8"?>
<!DOCTYPE svg PUBLIC "-//W3C//DTD SVG 1.1//EN" "http://www.w3.org/Graphics/SVG/1.1/DTD/svg11.dtd">
<!-- Creator: CorelDRAW -->
<svg xmlns="http://www.w3.org/2000/svg" xml:space="preserve" width="200px" height="62px" style="shape-rendering:geometricPrecision; text-rendering:geometricPrecision; image-rendering:optimizeQuality; fill-rule:evenodd; clip-rule:evenodd"
viewBox="0 0 200 62.5">
 <defs>
  <style type="text/css">
   <![CDATA[
    .fil0 {fill:#C2C1C1}
    .fil1 {fill:#838281;fill-rule:nonzero}
   ]]>
  </style>
 </defs>
 <g id="Layer_x0020_1">
  <metadata id="CorelCorpID_0Corel-Layer"/>
  <path class="fil0" d="M42.452 39.8833l-21.5067 12.3637c-0.609,0.35175 -0.60875,1.7585 0,2.11l6.721 3.88025c0.99825,0.5765 2.46425,0.58025 3.4605,0l19.1367 -11.1523c2.51375,-1.465 3.48925,-1.69575 3.48925,-4.78975l0 -7.2165c0,-1.58975 -4.67825,-4.034 -9.3615,-6.717l7.949 -4.58925c2.17875,-1.25775 2.179,-6.29125 0,-7.549l-20.4147 -11.7868c-1.1955,-0.69 -2.81125,-0.923 -4.40975,0l-20.374 11.7625c-1.77125,1.02275 -2.1035,2.53975 -2.11175,4.71625l-0.02125 5.5945c-0.004,1.03825 0.693,1.52 1.574,1.0115l22.6915 -13.0912c3.0925,1.7855 6.18525,3.571 9.278,5.3565 -11.2098,6.47175 -22.4195,12.9438 -33.629,19.4158l0 2.375c0,2.3345 -0.0275,2.497 1.59675,4.16 0.60275,0.61725 1.21075,1.22875 1.846,1.81125 0.407,0.37375 1.5995,0.68875 2.7925,0l20.3885 -11.7715c1.32775,-0.7665 3.206,-1.55825 4.5315,-0.788l6.6405 3.86075 -0.267 1.03325z"/>
  <path class="fil1" d="M149.283 35.552l2.78175 2.54675c-0.48325,0.93225 -1.36075,1.604 -2.2525,2.1765 -1.50175,0.96375 -3.38275,1.44325 -5.64225,1.44325 -3.57375,0 -6.21625,-1.07625 -7.93425,-3.2415 -1.35425,-1.731 -2.03475,-3.9205 -2.03475,-6.55675 0,-3.156 0.89175,-5.62725 2.67575,-7.413 1.777,-1.78625 4.02975,-2.67925 6.752,-2.67925 3.0585,0 5.47225,0.93475 7.2405,2.80725 1.49,1.578 2.278,4.29425 2.444,7.42325 -0.23525,1.793 -0.61,1.776 -2.26975,1.776 -3.52075,0.0005 -7.04225,0.0015 -10.563,0.00175 0.5945,4.1875 6.42775,4.12425 8.8025,1.71575zm-1.36125 -5.42775c-0.038,-1.149 -0.424,-2.0195 -1.1645,-2.61525 -0.74075,-0.59625 -1.64575,-0.8945 -2.709,-0.8945 -1.1395,0 -2.07675,0.31725 -2.817,0.94725 -0.74075,0.62475 -1.10775,1.4805 -1.095,2.5625l7.7855 0zm22.173 5.42775l2.78175 2.54675c-0.48325,0.93225 -1.36075,1.604 -2.2525,2.1765 -1.502,0.96375 -3.38275,1.44325 -5.64225,1.44325 -3.574,0 -6.2165,-1.07625 -7.93425,-3.2415 -1.35425,-1.731 -2.03475,-3.9205 -2.03475,-6.55675 0,-3.156 0.89175,-5.62725 2.67575,-7.413 1.777,-1.78625 4.02975,-2.67925 6.752,-2.67925 3.0585,0 5.47225,0.93475 7.2405,2.80725 1.48975,1.578 2.278,4.29425 2.444,7.42325 -0.23525,1.793 -0.61,1.776 -2.26975,1.776 -3.521,0.0005 -7.04225,0.0015 -10.563,0.00175 0.5945,4.1875 6.4275,4.12425 8.8025,1.71575zm-1.36125 -5.42775c-0.038,-1.149 -0.424,-2.0195 -1.16475,-2.61525 -0.7405,-0.59625 -1.6455,-0.8945 -2.70875,-0.8945 -1.1395,0 -2.07675,0.31725 -2.817,0.94725 -0.74075,0.62475 -1.10775,1.4805 -1.09525,2.5625l7.78575 0zm-55.5162 11.398l0 -27.705 5.96625 0 0 11.5355 10.568 -11.5355 6.736 0 -11.3838 12.0682 11.5732 15.6367 -6.482 0 -8.60375 -11.9832 -2.40775 2.717 0 9.26625 -5.96625 0zm-38.5583 -22.3745l0 5.36075 2.359 0c1.40325,0 2.276,-0.027 2.6165,-0.081 0.615,-0.09175 1.10025,-0.3675 1.4535,-0.82625 0.35325,-0.45875 0.52725,-1.06325 0.52725,-1.81375 0,-0.718 -0.149,-1.30075 -0.45225,-1.74875 -0.30775,-0.44825 -0.76025,-0.7185 -1.358,-0.81 -0.35725,-0.05375 -1.38375,-0.081 -3.078,-0.081l-2.068 0zm0 10.152l0 6.8235 3.73975 0c1.45975,0 2.3825,-0.0475 2.775,-0.1545 0.60075,-0.13675 1.09,-0.48175 1.468,-1.0165 0.3775,-0.54075 0.569,-1.266 0.569,-2.16925 0,-0.76675 -0.149,-1.41475 -0.4385,-1.94975 -0.29375,-0.53475 -0.713,-0.92725 -1.264,-1.171 -0.54925,-0.244 -1.7485,-0.3625 -3.585,-0.3625l-3.26425 0zm-5.72025 -15.4825l8.70675 0c1.964,0 3.43075,0.0935 4.396,0.2775 0.964,0.1835 1.826,0.56125 2.58825,1.14175 0.7625,0.58025 1.39125,1.349 1.90075,2.3155 0.50675,0.96175 0.7625,2.04525 0.7625,3.23825 0,1.29625 -0.31,2.49125 -0.936,3.5735 -0.62725,1.08475 -1.47875,1.8965 -2.5475,2.4385 1.50775,0.49 3.185,1.32925 3.994,2.50925 0.814,1.187 1.219,2.58 1.219,4.17975 0,1.258 -0.25875,2.48425 -0.7855,3.677 -0.5245,1.1875 -1.2425,2.1415 -2.14925,2.851 -0.907,0.7095 -2.02725,1.153 -3.36225,1.316 -0.831,0.1015 -2.848,0.187 -6.04275,0.187l-7.744 0 0 -27.705zm25.0253 -0.477c1.88525,0 3.41425,1.529 3.41425,3.41425 0,1.88525 -1.529,3.41425 -3.41425,3.41425 -1.88525,0 -3.41425,-1.529 -3.41425,-3.41425 0,-1.88525 1.529,-3.41425 3.41425,-3.41425zm-3.039 28.182l0 -19.2475 6.0065 0 0 19.2475 -6.0065 0zm10.9892 0l0 -14.585 -3.7525 0 0 -4.9895 3.7525 0 0 -5.927 6.0065 0 0 5.927 3.7525 0 0 4.9895 -3.7525 0 0 14.585 -6.0065 0zm79.6073 -9.97325c0,1.65125 0.425,2.876 1.28175,3.6615 0.85075,0.78975 1.892,1.18675 3.12475,1.18675 1.1775,0 2.15725,-0.36375 2.94,-1.08775 0.783,-0.72375 1.1775,-1.91525 1.1775,-3.56625 0,-1.54675 -0.40675,-2.692 -1.21425,-3.43925 -0.80725,-0.74725 -1.806,-1.121 -2.99525,-1.121 -1.239,0 -2.2685,0.364 -3.08825,1.1025 -0.81975,0.73275 -1.22625,1.8205 -1.22625,3.2635zm-6.3015 -9.55725l5.2035 0 0 2.8905c0.671,-0.993 1.5855,-1.79625 2.7375,-2.41 1.15175,-0.61975 2.4325,-0.92975 3.835,-0.92975 2.446,0 4.526,0.898 6.22675,2.68825 1.70775,1.79 2.56125,4.28875 2.56125,7.4895 0,3.28275 -0.8605,5.8385 -2.5745,7.66 -1.72125,1.822 -3.80825,2.733 -6.254,2.733 -1.1655,0 -2.225,-0.21175 -3.171,-0.6455 -0.94425,-0.4325 -1.557,-0.89675 -2.60725,-1.94675l0 9.63875 -5.95725 0 0 -27.168z"/>
 </g>
</svg>
