<?xml version="1.0" encoding="UTF-8"?>
<!DOCTYPE svg PUBLIC "-//W3C//DTD SVG 1.1//EN" "http://www.w3.org/Graphics/SVG/1.1/DTD/svg11.dtd">
<!-- Creator: CorelDRAW -->
<svg xmlns="http://www.w3.org/2000/svg" xml:space="preserve" width="13px" height="13px" shape-rendering="geometricPrecision" text-rendering="geometricPrecision" image-rendering="optimizeQuality" fill-rule="evenodd" clip-rule="evenodd"
viewBox="0 0 13 13">
 <g id="MasterLayer_x0020_1">
  <metadata id="CorelCorpID_0Corel-Layer"/>
  <path fill="#DEDEDD" d="M6.5 0.32474c3.41003,0 6.17526,2.76523 6.17526,6.17526 0,3.41003 -2.76523,6.17526 -6.17526,6.17526 -3.41003,0 -6.17526,-2.76523 -6.17526,-6.17526 0,-3.41003 2.76523,-6.17526 6.17526,-6.17526zm1.48616 6.60179l-2.28488 1.91815c-0.22503,0.18889 -0.56316,0.16003 -0.75244,-0.06591l0 0c-0.18902,-0.22477 -0.15951,-0.56329 0.06578,-0.75244l1.81818 -1.52633 -1.81844 -1.52646c-0.22503,-0.18902 -0.25454,-0.52754 -0.06552,-0.7527l0 0c0.18889,-0.22516 0.52741,-0.25467 0.7527,-0.06565l2.28475 1.91802c0.25324,0.21255 0.25311,0.64077 -0.00013,0.85332z"/>
 </g>
</svg>
