<?xml version="1.0" encoding="UTF-8"?>
<!DOCTYPE svg PUBLIC "-//W3C//DTD SVG 1.1//EN" "http://www.w3.org/Graphics/SVG/1.1/DTD/svg11.dtd">
<!-- Creator: CorelDRAW -->
<svg xmlns="http://www.w3.org/2000/svg" xml:space="preserve" width="200px" height="75px" style="shape-rendering:geometricPrecision; text-rendering:geometricPrecision; image-rendering:optimizeQuality; fill-rule:evenodd; clip-rule:evenodd"
viewBox="0 0 200 75">
 <defs>
  <style type="text/css">
   <![CDATA[
    .fil0 {fill:#838281}
    .fil1 {fill:#838281;fill-rule:nonzero}
   ]]>
  </style>
 </defs>
 <g id="Layer_x0020_1">
  <metadata id="CorelCorpID_0Corel-Layer"/>
  <path class="fil0" d="M35.5802 32.9048c0.12,0.8745 0.16775,1.85225 0.1485,2.8955 2.19325,1.259 4.68325,2.63675 6.8765,3.89575 -5.60525,2.15275 -8.21425,4.97925 -9.50425,7.92025 -2.12875,4.85275 -3.75525,9.8775 -5.11775,14.9875 -1.3625,-5.11 -2.989,-10.1348 -5.11775,-14.9875 -1.29,-2.941 -3.899,-5.7675 -9.50425,-7.92025 2.19325,-1.259 4.68325,-2.63675 6.8765,-3.89575 -0.01925,-1.04325 0.0285,-2.021 0.1485,-2.8955 -6.8995,0.1445 -9.0645,-5.32475 -6.33525,-10.2578 -1.28,-1.2695 -2.40325,-2.61125 -3.3705,-4.031 -2.988,3.7415 -2.5485,11.096 -2.6805,18.765 -0.135,7.82675 -2.25425,13.8807 -4.75225,18.7647 2.19325,-1.909 4.3865,-3.818 6.58,-5.727 1.6245,2.7215 3.24925,5.44275 4.874,8.164 1.7465,-1.6245 3.493,-3.24925 5.2395,-4.874 2.64,4.468 5.28,8.93575 8.042,13.4035 2.762,-4.46775 5.402,-8.9355 8.042,-13.4035 1.7465,1.62475 3.493,3.2495 5.2395,4.874 1.62475,-2.72125 3.2495,-5.4425 4.874,-8.164 2.1935,1.909 4.38675,3.818 6.58,5.727 -2.498,-4.884 -4.61725,-10.938 -4.75225,-18.7647 -0.132,-7.669 0.3075,-15.0235 -2.6805,-18.765 -0.96725,1.41975 -2.0905,2.7615 -3.3705,4.031 2.72925,4.933 0.56425,10.4023 -6.33525,10.2578zm-19.146 -8.1425c1.85225,1.4885 3.9555,2.85175 6.3095,4.08925m16.7885 -4.08925c-1.85225,1.4885 -3.9555,2.85175 -6.3095,4.08925m-16.8063 -4.104c-1.35775,3.72875 1.4495,5.92 6.34575,4.13575m16.7878 -4.13575c1.35775,3.72875 -1.4495,5.92 -6.34575,4.13575m-5.1905 -3.96125c-1.37625,0.06625 -2.5625,0.48925 -3.33875,1.5485 -7.58675,-4.3735 -13.4855,-9.3755 -15.8378,-15.6968 1.5095,1.5405 2.90625,3.36325 5.1385,3.097 4.4205,-4.5965 9.25975,-6.0125 14.038,-5.983 4.7785,-0.0295 9.6175,1.3865 14.038,5.983 2.2325,0.26625 3.629,-1.5565 5.1385,-3.097 -2.35225,6.32125 -8.25075,11.3233 -15.8378,15.6968 -0.77625,-1.05925 -1.9625,-1.48225 -3.33875,-1.5485zm0.03775 3.37725c-3.4205,0 -4.938,3.521 -4.70775,9.22975 -0.92125,0.683 -1.925,1.3245 -3.1095,1.8755 4.92875,2.9635 6.197,8.015 7.81725,12.8635 1.62,-4.8485 2.88825,-9.9 7.817,-12.8635 -1.1845,-0.551 -2.18825,-1.1925 -3.1095,-1.8755 0.23025,-5.70875 -1.28725,-9.22975 -4.7075,-9.22975z"/>
  <path class="fil1" d="M62.756 30.5878l4.66525 0c1.0505,0 1.85125,0.087 2.4045,0.264 0.74175,0.238 1.3775,0.663 1.9045,1.2745 0.5295,0.6085 0.93275,1.35525 1.2095,2.237 0.27375,0.88525 0.41225,1.97325 0.41225,3.27025 0,1.13625 -0.12975,2.118 -0.38875,2.942 -0.31475,1.00425 -0.76525,1.8185 -1.35375,2.43975 -0.44175,0.47325 -1.039,0.84025 -1.7925,1.104 -0.56225,0.1965 -1.31575,0.293 -2.2605,0.293l-4.8005 0 0 -13.8245zm2.55175 2.34l0 9.15425 1.90425 0c0.71225,0 1.22725,-0.042 1.54525,-0.132 0.412,-0.11275 0.7565,-0.30275 1.03025,-0.573 0.2735,-0.2705 0.4945,-0.71775 0.66825,-1.33575 0.1705,-0.618 0.259,-1.4645 0.259,-2.53325 0,-1.0685 -0.0885,-1.88625 -0.259,-2.459 -0.17375,-0.573 -0.41525,-1.0205 -0.72425,-1.339 -0.312,-0.322 -0.7065,-0.5375 -1.183,-0.65025 -0.35625,-0.09025 -1.054,-0.132 -2.09575,-0.132l-1.145 0z"/>
  <polygon class="fil1" points="75.518,44.4123 75.518,30.5878 84.8895,30.5878 84.8895,32.9278 78.0697,32.9278 78.0697,35.992 84.4155,35.992 84.4155,38.3192 78.0697,38.3192 78.0697,42.082 85.1308,42.082 85.1308,44.4123 "/>
  <polygon class="fil1" points="86.011,44.4123 90.3318,37.199 86.4172,30.5878 89.3988,30.5878 91.9357,35.0295 94.417,30.5878 97.375,30.5878 93.4428,37.302 97.7638,44.4123 94.685,44.4123 91.883,39.6325 89.072,44.4123 "/>
  <path class="fil1" d="M102.079 39.9705l1.5775 -0.1515c0.0735,0.69225 0.24725,1.25875 0.521,1.70275 0.27375,0.44425 0.6975,0.8015 1.2715,1.07525 0.574,0.2735 1.2215,0.40875 1.93975,0.40875 0.63875,0 1.20075,-0.103 1.6895,-0.309 0.4885,-0.20925 0.8535,-0.4925 1.092,-0.853 0.23825,-0.36375 0.35875,-0.7565 0.35875,-1.1845 0,-0.4345 -0.11475,-0.81125 -0.34725,-1.13625 -0.2295,-0.325 -0.609,-0.5955 -1.136,-0.81425 -0.34125,-0.145 -1.089,-0.37025 -2.2515,-0.676 -1.15975,-0.30575 -1.975,-0.59225 -2.44,-0.86275 -0.6035,-0.34425 -1.054,-0.77575 -1.351,-1.2875 -0.2945,-0.51175 -0.4415,-1.08475 -0.4415,-1.722 0,-0.69525 0.1795,-1.3485 0.5415,-1.95375 0.362,-0.60825 0.89175,-1.0685 1.58625,-1.384 0.69775,-0.31225 1.469,-0.47 2.3195,-0.47 0.939,0 1.763,0.16425 2.481,0.49575 0.7155,0.32825 1.266,0.81425 1.65125,1.45475 0.38275,0.6405 0.59175,1.368 0.62125,2.17925l-1.60425 0.132c-0.08825,-0.8725 -0.37975,-1.5355 -0.877,-1.97975 -0.4975,-0.44725 -1.23025,-0.6695 -2.2015,-0.6695 -1.0125,0 -1.7485,0.203 -2.2135,0.6085 -0.46225,0.4055 -0.69475,0.89475 -0.69475,1.4645 0,0.499 0.165,0.90775 0.4915,1.22625 0.324,0.322 1.16275,0.65025 2.5225,0.985 1.36,0.338 2.293,0.631 2.799,0.882 0.736,0.37325 1.2805,0.84325 1.63075,1.40975 0.35025,0.56975 0.524,1.22625 0.524,1.96675 0,0.737 -0.1915,1.429 -0.577,2.07925 -0.3855,0.65025 -0.939,1.1555 -1.66,1.51925 -0.721,0.3605 -1.5335,0.54075 -2.43425,0.54075 -1.14475,0 -2.10425,-0.18025 -2.8755,-0.54725 -0.77425,-0.36375 -1.3805,-0.91075 -1.82175,-1.64475 -0.43875,-0.73075 -0.67125,-1.561 -0.69175,-2.48475z"/>
  <path class="fil1" d="M123.444 39.5648l1.67475 0.4635c-0.35025,1.5 -0.983,2.646 -1.8925,3.43775 -0.9125,0.7885 -2.025,1.18125 -3.34375,1.18125 -1.36275,0 -2.46925,-0.3025 -3.323,-0.90775 -0.85325,-0.60825 -1.504,-1.487 -1.94825,-2.636 -0.4445,-1.1525 -0.668,-2.3885 -0.668,-3.708 0,-1.439 0.25,-2.69425 0.7535,-3.766 0.503,-1.072 1.21825,-1.88625 2.14825,-2.443 0.92725,-0.557 1.94875,-0.83375 3.064,-0.83375 1.26575,0 2.32825,0.35075 3.19075,1.05575 0.86225,0.705 1.46275,1.693 1.80125,2.971l-1.64525 0.42475c-0.29425,-1.0075 -0.71825,-1.738 -1.2775,-2.19825 -0.55625,-0.4605 -1.25675,-0.689 -2.10425,-0.689 -0.9715,0 -1.781,0.25425 -2.43425,0.763 -0.6535,0.51175 -1.11275,1.194 -1.37475,2.0535 -0.26475,0.85625 -0.39725,1.74125 -0.39725,2.65225 0,1.178 0.15625,2.2015 0.468,3.08025 0.315,0.8755 0.8005,1.53225 1.46275,1.96675 0.66225,0.4345 1.37775,0.65025 2.14875,0.65025 0.936,0 1.72775,-0.29625 2.37825,-0.88525 0.65025,-0.59225 1.089,-1.471 1.3185,-2.633z"/>
  <path class="fil1" d="M127.206 44.4123l0 -13.8245 5.604 0c1.12725,0 1.984,0.1255 2.5695,0.37325 0.58575,0.248 1.05375,0.68575 1.407,1.31325 0.35025,0.631 0.524,1.32625 0.524,2.08575 0,0.98175 -0.2885,1.80575 -0.87125,2.4785 -0.58,0.67275 -1.4775,1.10075 -2.69025,1.28425 0.44425,0.23175 0.78,0.46025 1.0095,0.689 0.4885,0.48925 0.95075,1.104 1.38925,1.83775l2.19875 3.76275 -2.1045 0 -1.672 -2.8775c-0.4885,-0.82725 -0.89175,-1.4645 -1.2095,-1.90225 -0.315,-0.441 -0.5975,-0.75 -0.8475,-0.92375 -0.2505,-0.17725 -0.5035,-0.2995 -0.7625,-0.37025 -0.19125,-0.04175 -0.5005,-0.0645 -0.933,-0.0645l-1.93975 0 0 6.13825 -1.67175 0zm1.67175 -7.72175l3.59675 0c0.7625,0 1.36275,-0.087 1.7925,-0.26075 0.43275,-0.17375 0.7595,-0.4505 0.983,-0.8305 0.22375,-0.37975 0.3355,-0.79175 0.3355,-1.23925 0,-0.65325 -0.21475,-1.19075 -0.65025,-1.6125 -0.43275,-0.42175 -1.1185,-0.63075 -2.0575,-0.63075l-4 0 0 4.57375z"/>
  <polygon class="fil1" points="139.968,44.4123 139.968,30.5878 149.107,30.5878 149.107,32.2197 141.64,32.2197 141.64,36.4522 148.633,36.4522 148.633,38.0745 141.64,38.0745 141.64,42.7803 149.401,42.7803 149.401,44.4123 "/>
  <polygon class="fil1" points="151.747,44.4123 151.747,30.5878 160.886,30.5878 160.886,32.2197 153.419,32.2197 153.419,36.4522 160.412,36.4522 160.412,38.0745 153.419,38.0745 153.419,42.7803 161.18,42.7803 161.18,44.4123 "/>
  <polygon class="fil1" points="163.473,44.4123 163.473,30.5878 165.189,30.5878 171.83,41.4412 171.83,30.5878 173.433,30.5878 173.433,44.4123 171.718,44.4123 165.077,33.549 165.077,44.4123 "/>
  <polygon class="fil1" points="176.28,44.4123 176.28,30.5878 185.418,30.5878 185.418,32.2197 177.952,32.2197 177.952,36.4522 184.945,36.4522 184.945,38.0745 177.952,38.0745 177.952,42.7803 185.713,42.7803 185.713,44.4123 "/>
  <path class="fil1" d="M188.05 44.4123l0 -13.8245 5.604 0c1.12725,0 1.984,0.1255 2.5695,0.37325 0.58575,0.248 1.05375,0.68575 1.407,1.31325 0.35025,0.631 0.524,1.32625 0.524,2.08575 0,0.98175 -0.2885,1.80575 -0.87125,2.4785 -0.58,0.67275 -1.4775,1.10075 -2.69025,1.28425 0.44425,0.23175 0.78,0.46025 1.0095,0.689 0.4885,0.48925 0.95075,1.104 1.38925,1.83775l2.19875 3.76275 -2.1045 0 -1.672 -2.8775c-0.4885,-0.82725 -0.89175,-1.4645 -1.2095,-1.90225 -0.315,-0.441 -0.5975,-0.75 -0.8475,-0.92375 -0.2505,-0.17725 -0.5035,-0.2995 -0.7625,-0.37025 -0.19125,-0.04175 -0.5005,-0.0645 -0.933,-0.0645l-1.93975 0 0 6.13825 -1.67175 0zm1.67175 -7.72175l3.59675 0c0.7625,0 1.36275,-0.087 1.7925,-0.26075 0.43275,-0.17375 0.7595,-0.4505 0.983,-0.8305 0.22375,-0.37975 0.3355,-0.79175 0.3355,-1.23925 0,-0.65325 -0.21475,-1.19075 -0.65025,-1.6125 -0.43275,-0.42175 -1.1185,-0.63075 -2.0575,-0.63075l-4 0 0 4.57375z"/>
 </g>
</svg>
