<?xml version="1.0" encoding="UTF-8"?>
<!DOCTYPE svg PUBLIC "-//W3C//DTD SVG 1.1//EN" "http://www.w3.org/Graphics/SVG/1.1/DTD/svg11.dtd">
<!-- Creator: CorelDRAW -->
<svg xmlns="http://www.w3.org/2000/svg" xml:space="preserve" width="200px" height="55px" style="shape-rendering:geometricPrecision; text-rendering:geometricPrecision; image-rendering:optimizeQuality; fill-rule:evenodd; clip-rule:evenodd"
viewBox="0 0 200 55">
 <defs>
  <style type="text/css">
   <![CDATA[
    .fil0 {fill:#838281}
    .fil1 {fill:#C2C1C1}
   ]]>
  </style>
 </defs>
 <g id="Layer_x0020_1">
  <metadata id="CorelCorpID_0Corel-Layer"/>
  <path class="fil0" d="M146.996 21.3355c-3.82975,0.476 -6.65325,2.6505 -7.692,5.896 -0.714,2.207 -0.62725,4.30575 0.2705,6.43675 1.06025,2.52075 3.34275,4.3165 6.372,4.998 0.87625,0.20575 3.13725,0.2165 4.046,0.04325 3.516,-0.69225 5.9715,-2.8775 6.9885,-6.188 0.238,-0.78975 0.2705,-1.02775 0.2705,-2.434 0,-1.4065 -0.0325,-1.6445 -0.2705,-2.43425 -1.006,-3.267 -3.37525,-5.41975 -6.76125,-6.13375 -0.70325,-0.14075 -2.62875,-0.24875 -3.22375,-0.184zm2.14175 4.29475c1.26575,0.3355 2.46675,1.15775 3.01825,2.1205 0.85475,1.4495 0.82225,3.3645 -0.06475,4.74925 -1.59025,2.499 -5.22525,2.91 -7.4105,0.833 -1.8175,-1.731 -1.8825,-4.47875 -0.1515,-6.3505 1.15775,-1.23325 2.99675,-1.76325 4.6085,-1.35225zm16.5737 -4.29475c-3.82975,0.476 -6.65325,2.6505 -7.69175,5.896 -0.714,2.207 -0.6275,4.30575 0.27025,6.43675 1.06025,2.52075 3.34275,4.3165 6.372,4.998 0.87625,0.20575 3.13725,0.2165 4.046,0.04325 3.516,-0.69225 5.9715,-2.8775 6.9885,-6.188 0.238,-0.78975 0.2705,-1.02775 0.2705,-2.434 0,-1.4065 -0.0325,-1.6445 -0.2705,-2.43425 -1.006,-3.267 -3.37525,-5.41975 -6.76125,-6.13375 -0.70325,-0.14075 -2.629,-0.24875 -3.22375,-0.184zm2.15275 4.29475c1.2765,0.3355 2.4665,1.15775 3.01825,2.1205 0.8545,1.4495 0.822,3.3645 -0.065,4.74925 -1.59025,2.499 -5.22525,2.91 -7.4105,0.833 -1.8175,-1.731 -1.88225,-4.47875 -0.1515,-6.3505 1.14675,-1.23325 2.986,-1.76325 4.60875,-1.35225zm23.0535 -4.2405c-2.2285,0.3245 -3.90525,1.7525 -4.44625,3.808 -0.51925,1.9365 -0.1515,3.916 0.88725,4.879 0.6165,0.57325 1.35225,0.90875 3.37525,1.55775 1.958,0.6275 2.4015,0.898 2.607,1.55775 0.22725,0.7575 -0.33525,1.666 -1.19,1.904 -0.465,0.13 -1.34125,0.13 -1.9255,-0.01075 -0.63825,-0.1515 -1.785,-0.714 -2.27175,-1.13575 -0.2165,-0.20575 -0.46525,-0.35725 -0.5085,-0.35725 -0.04325,0 -0.292,0.368 -0.53,0.82225 -0.3355,0.63825 -0.44375,0.779 -0.46525,0.60575l-0.0325 -0.21625 -2.60725 0 -2.59625 0 0 -6.55575 0 -6.556 -2.153 0 -2.15275 0 0 8.40575 0 8.40575 4.74925 0 4.74925 0 0 -0.46525c0,-0.24875 0.0215,-0.45425 0.04325,-0.45425 0.02175,0 0.411,0.18375 0.8655,0.3895 1.40625,0.65975 2.30425,0.8545 4.046,0.8545 1.6985,0 2.499,-0.1515 3.54825,-0.65975 0.833,-0.40025 1.958,-1.5145 2.33675,-2.2935 0.7465,-1.55775 0.85475,-3.6565 0.22725,-4.98725 -0.10825,-0.24875 -0.476,-0.7355 -0.82225,-1.071 -0.7355,-0.7355 -1.52525,-1.13575 -3.54825,-1.785 -0.8005,-0.24875 -1.60125,-0.55175 -1.785,-0.65975 -0.64925,-0.4005 -0.779,-1.27675 -0.2705,-1.8285 0.887,-0.95175 2.4665,-0.86525 4.111,0.22725l0.3245 0.20575 0.87625 -1.677c0.46525,-0.90875 0.8545,-1.67675 0.833,-1.6875 -0.09725,-0.09725 -1.31975,-0.58425 -2.01225,-0.8005 -1.4605,-0.4545 -2.99675,-0.61675 -4.2625,-0.422zm-120.948 6.31775l0 11.0777 3.91625 0c2.15275,0 4.403,-0.065 4.98725,-0.12975 4.8355,-0.595 8.40575,-3.52675 9.55225,-7.8325 0.37875,-1.428 0.46525,-3.93775 0.19475,-5.43075 -0.55175,-2.89925 -2.0555,-5.236 -4.3705,-6.8155 -1.0385,-0.714 -1.969,-1.1035 -3.46175,-1.5145 -1.1685,-0.31375 -1.35225,-0.31375 -6.00425,-0.3785l-4.80325 -0.05425 0 11.078 -0.01075 0zm8.5465 -6.55575c3.04,0.649 5.06275,3.19125 5.06275,6.37175 -0.01075,2.10975 -0.65975,3.927 -1.8715,5.128 -1.20075,1.2115 -2.98575,1.79575 -5.474,1.8065l-1.17925 0 0 -6.73975 0 -6.73975 1.309 0c0.71425,0 1.677,0.0865 2.153,0.17325zm11.9325 6.5665l0 11.067 9.32525 -0.01075 9.3145 0 2.4015 -3.37525c1.33075,-1.83925 2.445,-3.35375 2.47725,-3.35375 0.05425,0 1.1685,1.5145 2.48825,3.37525l2.4125 3.37525 3.02925 0.00025c1.65525,0 3.01825,-0.0435 3.01825,-0.07575 0,-0.0435 -1.785,-2.5315 -3.93775,-5.52825l-3.938 -5.45225 3.76475 -5.25775c2.077,-2.8775 3.88375,-5.355 4.00275,-5.4955 0.238,-0.238 0.238,-0.20575 0.238,2.012l0 2.25025 2.2935 0 2.2935 0 0 8.7735 0 8.7735 2.737 0.00025 2.737 0 0 -8.77375 0 -8.7735 2.672 -0.0215 2.66125 -0.04325 -1.428 -2.25025 -1.428 -2.25025 -9.34675 -0.01075 -9.358 0 -2.4015 3.37525c-1.33075,1.839 -2.445,3.35375 -2.47725,3.37525 -0.0435,0 -1.15775,-1.5145 -2.4775,-3.37525l-2.4125 -3.37525 -9.3145 0 -9.32525 0 0 11.0452 -0.0215 0zm16.4543 -5.53875c2.142,2.964 3.89475,5.45225 3.89475,5.528 0,0.07575 -1.75275,2.5855 -3.9055,5.57125l-3.91625 5.43075 -0.04325 -2.12025 -0.02175 -2.1205 -3.68875 0 -3.689 0 0 -2.488 0 -2.4775 2.98575 0 2.986 0 0 -2.09875 0 -2.09875 -2.986 0 -2.98575 0 0 -2.1635 0 -2.16375 3.689 0 3.689 0 0 -2.09875c0,-1.1575 0.0215,-2.09875 0.054,-2.09875 0.0325,0 1.796,2.43425 3.93775,5.3985z"/>
  <path class="fil1" d="M22.4905 4.2085c-3.1245,1.6305 -5.69225,3.00725 -5.6825,3.06575 0,0.1465 7.5085,3.9445 7.772,3.93475 0.11725,0 0.99575,-0.41 1.95275,-0.89825l1.73775 -0.8885 1.89425 0.9765 1.89425 0.9765 3.105 -1.39625c4.667,-2.09925 5.15525,-2.33375 5.077,-2.402 -0.0975,-0.1075 -1.777,-1.00575 -6.327,-3.39775 -2.19675,-1.15225 -4.32525,-2.2945 -4.73525,-2.51925 -0.41025,-0.23425 -0.80075,-0.41 -0.869,-0.41 -0.0685,0 -2.69475,1.328 -5.81925,2.9585zm-13.718 7.108l-3.26125 1.6795 0 7.3815c0,4.06175 0.03925,7.38125 0.09775,7.38125 0.04875,0 1.65,-0.69325 3.56375,-1.5425l3.466 -1.54275 0 -7.78175 1.68925 0.91775c1.30825,0.71275 2.607,1.41575 3.91525,2.1285l2.22625 1.201 0.986 -0.449c0.625,-0.28325 1.24,-0.5665 1.85525,-0.8495 0.47825,-0.2245 1.65,-0.752 2.60675,-1.17175 0.957,-0.41975 1.83575,-0.8495 1.96275,-0.947 0.16575,-0.127 -1.865,-1.24975 -7.5085,-4.1495 -4.257,-2.18725 -7.87925,-3.96425 -8.04525,-3.9545 -0.166,0.00975 -1.76725,0.77125 -3.554,1.69875zm32.0448 0.46875c-2.2165,1.0055 -4.0325,1.86475 -4.0325,1.91375 0,0.04875 1.21075,0.77125 2.685,1.60125 1.484,0.83 2.685,1.5525 2.685,1.611 0,0.0585 -1.30825,0.69325 -2.9095,1.406 -1.60125,0.7225 -5.6435,2.54825 -8.9925,4.06175l-11.199 5.0675c-2.82175,1.26925 -5.36025,2.42125 -5.6435,2.54825 -5.75075,2.607 -7.34225,3.3295 -7.557,3.4565 -0.215,0.12675 -0.26375,0.8495 -0.30275,4.49125l-0.04875 4.345 2.9095 1.484 2.9095 1.48425 4.04225 -1.826c2.2165,-1.00575 4.04225,-1.8745 4.04225,-1.943 0,-0.06825 -0.41,-0.332 -0.908,-0.5955 -0.498,-0.26375 -1.533,-0.8495 -2.30425,-1.2985 -0.7615,-0.44925 -1.523,-0.85925 -1.68925,-0.918 -0.16575,-0.0585 -0.3025,-0.14625 -0.3025,-0.21475 0,-0.0585 1.777,-0.908 3.95425,-1.8745 4.218,-1.8845 7.44,-3.33925 14.3625,-6.4735 3.09525,-1.39625 6.19025,-2.80225 9.29525,-4.1985 2.724,-1.23025 5.8875,-2.6655 7.02975,-3.19275l2.07975 -0.95675 0.049 -4.39375 0.04875 -4.39375 -2.94875 -1.50375c-1.621,-0.83 -3.017,-1.51325 -3.0855,-1.51325 -0.078,0 -1.95275,0.82975 -4.169,1.82575zm9.32425 15.8563c-0.43925,0.215 -1.2985,0.61525 -1.91375,0.8885 -0.615,0.2735 -1.78675,0.80075 -2.597,1.17175l-1.4745 0.67375 -0.02925 3.8565c-0.0195,2.11875 -0.0975,3.847 -0.17575,3.83725 -0.17575,-0.02925 -2.93875,-1.445 -5.7215,-2.939 -2.01125,-1.074 -2.13825,-1.12275 -2.607,-0.88825 -0.27325,0.1365 -1.90375,0.86875 -3.62225,1.62075 -1.7185,0.7615 -3.183,1.4255 -3.2515,1.49375 -0.06825,0.05875 3.38825,1.93325 7.694,4.16925l7.811 4.06175 3.33925 -1.72825c1.8355,-0.947 3.39775,-1.816 3.466,-1.9235 0.166,-0.244 0.1465,-14.714 -0.00975,-14.6945 -0.06825,0.00975 -0.47825,0.1855 -0.908,0.40025zm-18.4925 16.9795c-0.576,0.244 -1.162,0.49775 -1.738,0.75175 -1.74775,0.75175 -1.406,0.781 -3.4855,-0.254 -1.3865,-0.69325 -1.98225,-0.89825 -2.24575,-0.8005 -0.19525,0.078 -1.865,0.83 -3.72,1.6695 -1.8455,0.83975 -3.427,1.533 -3.50525,1.533 -0.781,0 0.5175,0.77125 5.497,3.28075l5.83875 2.9485 2.4605 -1.21075c1.3475,-0.66375 4.08125,-2.0015 6.0535,-2.96825 1.982,-0.9665 3.5735,-1.777 3.54425,-1.816 -0.02925,-0.02925 -1.689,-0.87875 -3.69075,-1.89425l-3.632 -1.8355 -1.37675 0.59575z"/>
 </g>
</svg>
