<?xml version="1.0" encoding="UTF-8"?>
<svg xmlns="http://www.w3.org/2000/svg" xmlns:xlink="http://www.w3.org/1999/xlink" width="50px" height="50px" viewBox="0 0 50 50" version="1.1">
<g id="surface1">
<path style=" stroke:none;fill-rule:evenodd;fill:rgb(29.803922%,63.529412%,100%);fill-opacity:1;" d="M 49.671875 25 C 49.671875 38.625 38.625 49.671875 25 49.671875 C 11.375 49.671875 0.328125 38.625 0.328125 25 C 0.328125 11.375 11.375 0.328125 25 0.328125 C 38.625 0.328125 49.671875 11.375 49.671875 25 Z M 49.671875 25 "/>
<path style=" stroke:none;fill-rule:evenodd;fill:rgb(100%,100%,100%);fill-opacity:1;" d="M 33.050781 22 C 34.449219 23.851562 35.28125 26.191406 35.28125 28.738281 C 35.28125 31.320312 34.421875 33.699219 32.980469 35.558594 L 32.859375 35.71875 L 32.828125 35.519531 C 32.800781 35.351562 32.769531 35.171875 32.730469 35 C 32.011719 31.671875 29.671875 28.820312 25.808594 26.511719 C 23.210938 24.949219 21.71875 23.078125 21.320312 20.949219 C 21.070312 19.570312 21.261719 18.191406 21.621094 17.011719 C 21.980469 15.828125 22.519531 14.828125 22.980469 14.238281 L 24.480469 12.308594 C 24.738281 11.96875 25.238281 11.96875 25.5 12.308594 Z M 35.429688 20.070312 L 25.371094 7.121094 C 25.179688 6.871094 24.820312 6.871094 24.628906 7.121094 L 14.570312 20.070312 L 14.539062 20.109375 C 12.691406 22.53125 11.578125 25.601562 11.578125 28.949219 C 11.578125 36.738281 17.589844 43.058594 25 43.058594 C 32.410156 43.058594 38.421875 36.738281 38.421875 28.949219 C 38.421875 25.601562 37.308594 22.53125 35.460938 20.109375 Z M 16.980469 21.960938 L 17.878906 20.800781 L 17.910156 21.011719 C 17.929688 21.179688 17.960938 21.351562 17.988281 21.519531 C 18.570312 24.738281 20.648438 27.421875 24.128906 29.488281 C 27.148438 31.300781 28.910156 33.378906 29.421875 35.671875 C 29.628906 36.621094 29.671875 37.558594 29.578125 38.378906 L 29.570312 38.429688 L 29.53125 38.449219 C 28.171875 39.148438 26.628906 39.550781 25.011719 39.550781 C 19.328125 39.550781 14.71875 34.710938 14.71875 28.730469 C 14.710938 26.171875 15.558594 23.820312 16.980469 21.960938 Z M 16.980469 21.960938 "/>
</g>
</svg>
