<?xml version="1.0" encoding="UTF-8"?>
<!DOCTYPE svg PUBLIC "-//W3C//DTD SVG 1.1//EN" "http://www.w3.org/Graphics/SVG/1.1/DTD/svg11.dtd">
<!-- Creator: CorelDRAW -->
<svg xmlns="http://www.w3.org/2000/svg" xml:space="preserve" width="32px" height="32px" shape-rendering="geometricPrecision" text-rendering="geometricPrecision" image-rendering="optimizeQuality" fill-rule="evenodd" clip-rule="evenodd"
viewBox="0 0 32 32">
 <g id="Layer_x0020_1">
  <metadata id="CorelCorpID_0Corel-Layer"/>
  <rect fill="#512728" width="32" height="32"/>
  <path fill="white" d="M21.104 32l-9.89851 -0.000914286c0.6208,-0.0237714 0.786743,-0.416 0.786743,-0.808229l0 -2.9408c-4.64137,1.01806 -5.63611,-2.26194 -5.63611,-2.26194 -0.773486,-1.92274 -1.8784,-2.48823 -1.8784,-2.48823 -1.54743,-1.01806 0.110629,-1.01806 0.110629,-1.01806 1.6576,0.113371 2.54171,1.69691 2.54171,1.69691 1.43634,2.60114 3.86789,1.80937 4.86217,1.3568 0.110629,-1.13097 0.552686,-1.80937 1.10537,-2.26194 -3.64709,-0.452114 -7.51497,-1.92274 -7.51497,-8.36937 0,-1.80937 0.663314,-3.39291 1.6576,-4.52389 -0.2208,-0.452571 -0.773486,-2.14903 0.110629,-4.52434 0,0 1.4368,-0.452114 4.5312,1.69691 1.32617,-0.339657 2.76251,-0.565943 4.19931,-0.565943 1.4368,0 2.87314,0.226286 4.19931,0.565943 3.20503,-2.14903 4.5312,-1.69691 4.5312,-1.69691 0.884114,2.37531 0.331429,4.07177 0.110629,4.52434 1.10491,1.13097 1.6576,2.71451 1.6576,4.52389 0,6.56 -3.86789,7.91726 -7.51497,8.36937 0.552686,0.565486 1.10537,1.58354 1.10537,3.16709l0 4.63726c0,0.388571 0.373486,0.9408 0.933486,0.922057z"/>
 </g>
</svg>
