<?xml version="1.0" encoding="UTF-8"?>
<!DOCTYPE svg PUBLIC "-//W3C//DTD SVG 1.1//EN" "http://www.w3.org/Graphics/SVG/1.1/DTD/svg11.dtd">
<!-- Creator: CorelDRAW -->
<svg xmlns="http://www.w3.org/2000/svg" xml:space="preserve" width="32px" height="32px" shape-rendering="geometricPrecision" text-rendering="geometricPrecision" image-rendering="optimizeQuality" fill-rule="evenodd" clip-rule="evenodd"
viewBox="0 0 32 32">
 <g id="Layer_x0020_1">
  <metadata id="CorelCorpID_0Corel-Layer"/>
  <polygon fill="#512728" points="0,0 0,32 32,32 32,0 "/>
  <path fill="white" d="M16 4.04251c-6.59337,0 -11.9575,5.36411 -11.9575,11.9575 0,2.2496 0.624914,4.43291 1.81074,6.32914 -0.472686,1.65486 -1.32526,4.78446 -1.33486,4.81783 -0.0438857,0.161371 0.0032,0.334629 0.124343,0.450743 0.121143,0.116114 0.295771,0.157714 0.454857,0.109257l4.73966 -1.45783c1.85646,1.11817 3.98263,1.70834 6.16274,1.70834 6.59337,0 11.9575,-5.36411 11.9575,-11.9575 0,-6.59337 -5.36411,-11.9575 -11.9575,-11.9575zm0.000457143 22.0613c-1.90171,0 -3.7568,-0.532114 -5.35817,-1.53737 -0.0699429,-0.0429714 -0.146743,-0.0644571 -0.225829,-0.0644571 -0.0406857,0 -0.0827429,0.00685714 -0.123429,0.0196571l-3.78697 1.16526c0.277486,-1.01531 0.779886,-2.83337 1.06834,-3.84411 0.0310857,-0.114743 0.0132571,-0.242743 -0.0525714,-0.346057 -1.06286,-1.63474 -1.6256,-3.53509 -1.6256,-5.49714 0,-5.56983 4.53349,-10.1033 10.1042,-10.1033 5.56983,0 10.1033,4.53349 10.1033,10.1033 0,5.57074 -4.53349,10.1042 -10.1033,10.1042z"/>
  <path fill="white" d="M22.1614 18.1915c-0.6656,-0.370286 -1.23337,-0.741029 -1.64709,-1.01166 -0.315886,-0.206629 -0.544457,-0.3552 -0.711771,-0.439314 -0.468114,-0.234057 -0.8224,-0.0690286 -0.957714,0.0676571 -0.0169143,0.0169143 -0.032,0.0352 -0.0448,0.0548571 -0.4864,0.729143 -1.12091,1.42674 -1.30651,1.46423 -0.214857,-0.0338286 -1.21966,-0.6048 -2.21851,-1.4368 -1.01989,-0.849371 -1.66126,-1.66309 -1.75543,-2.21714 0.654171,-0.673829 0.8896,-1.09714 0.8896,-1.57943 0,-0.496457 -1.15886,-2.57097 -1.36823,-2.78034 -0.210743,-0.210286 -0.684343,-0.2432 -1.40846,-0.0987429 -0.0694857,0.0141714 -0.133943,0.0484571 -0.184686,0.0987429 -0.0873143,0.0877714 -2.13897,2.1792 -1.16389,4.71451 1.07017,2.78217 3.81714,6.01646 7.31886,6.54171 0.398171,0.0589714 0.771657,0.0891429 1.12091,0.0891429 2.05989,0 3.27589,-1.0368 3.61829,-3.09349 0.0256,-0.1504 -0.0470857,-0.300343 -0.180571,-0.373943z"/>
 </g>
</svg>
