<?xml version="1.0" encoding="UTF-8"?>
<!DOCTYPE svg PUBLIC "-//W3C//DTD SVG 1.1//EN" "http://www.w3.org/Graphics/SVG/1.1/DTD/svg11.dtd">
<!-- Creator: CorelDRAW -->
<svg xmlns="http://www.w3.org/2000/svg" xml:space="preserve" width="32px" height="32px" shape-rendering="geometricPrecision" text-rendering="geometricPrecision" image-rendering="optimizeQuality" fill-rule="evenodd" clip-rule="evenodd"
viewBox="0 0 32 32"
 version="1.1"
 xmlns:xlink="http://www.w3.org/1999/xlink">
 <g id="Layer_x0020_1">
  <metadata id="CorelCorpID_0Corel-Layer"/>
  <polygon fill="#512728" points="0,0 0,32 32,32 32,0 "/>
  <path fill="white" d="M27.0638 7.08069l-3.75954 18.0846c-0.0886857,0.426971 -0.589257,0.620343 -0.942629,0.363429l-5.13234 -3.72617c-0.311314,-0.226286 -0.736457,-0.213943 -1.03451,0.0292571l-2.84571 2.31954c-0.330057,0.270171 -0.827886,0.119314 -0.954057,-0.287086l-1.97577 -6.35474 -5.10491 -1.90491c-0.5184,-0.194286 -0.522971,-0.926171 -0.00594286,-1.12549l20.9499 -8.08183c0.444343,-0.171886 0.9024,0.217143 0.805486,0.683429z"/>
  <path fill="#5E2730" d="M22.053 10.3511l-9.97669 6.14446c-0.382171,0.235886 -0.562286,0.6976 -0.438857,1.13006l1.07886 3.79017c0.0763429,0.268343 0.466286,0.240914 0.503314,-0.0365714l0.280686 -2.07817c0.0530286,-0.391314 0.239543,-0.752 0.528914,-1.02126l8.2336 -7.65349c0.154057,-0.143086 -0.0306286,-0.385371 -0.209829,-0.2752z"/>
 </g>
</svg>
