<?xml version="1.0" encoding="UTF-8"?>
<!DOCTYPE svg PUBLIC "-//W3C//DTD SVG 1.1//EN" "http://www.w3.org/Graphics/SVG/1.1/DTD/svg11.dtd">
<!-- Creator: CorelDRAW -->
<svg xmlns="http://www.w3.org/2000/svg" xml:space="preserve" width="32px" height="32px" shape-rendering="geometricPrecision" text-rendering="geometricPrecision" image-rendering="optimizeQuality" fill-rule="evenodd" clip-rule="evenodd"
viewBox="0 0 32 32"
 xmlns:xlink="http://www.w3.org/1999/xlink"
 version="1.1">
 <g id="Layer_x0020_1">
  <metadata id="CorelCorpID_0Corel-Layer"/>
  <rect fill="#512728" width="32" height="32"/>
  <g id="_351676704">
   <g>
    <path id="_185506776" fill="white" fill-rule="nonzero" d="M20.3845 27.4286l-8.76846 0c-3.88434,0 -7.04457,-3.16023 -7.04457,-7.04411l0 -8.76846c0,-3.88434 3.16023,-7.04457 7.04457,-7.04457l8.76846 0c3.88389,0 7.04411,3.16023 7.04411,7.04457l0 8.76846c0,3.88389 -3.16023,7.04411 -7.04411,7.04411zm-8.76846 -21.0793c-2.90423,0 -5.26674,2.36251 -5.26674,5.26674l0 8.76846c0,2.90377 2.36251,5.26629 5.26674,5.26629l8.76846 0c2.90377,0 5.26629,-2.36251 5.26629,-5.26629l0 -8.76846c0,-2.90423 -2.36251,-5.26674 -5.26629,-5.26674l-8.76846 0z"/>
    <path id="_185694864" fill="white" fill-rule="nonzero" d="M16.0649 22.4686c-3.53143,0 -6.40411,-2.87269 -6.40411,-6.40366 0,-3.53097 2.87314,-6.40411 6.40411,-6.40411 3.53051,0 6.40366,2.87314 6.40366,6.40411 0,3.53097 -2.87269,6.40366 -6.40366,6.40366zm0 -11.0299c-2.55086,0 -4.62629,2.07543 -4.62629,4.62629 0,2.55086 2.07543,4.62583 4.62629,4.62583 2.55086,0 4.62583,-2.07497 4.62583,-4.62583 0.000457143,-2.55086 -2.07497,-4.62629 -4.62583,-4.62629z"/>
    <circle id="_185694600" fill="white" fill-rule="nonzero" cx="22.4906" cy="9.63479" r="1.24362"/>
   </g>
  </g>
 </g>
</svg>
