<?xml version="1.0" encoding="UTF-8"?>
<!DOCTYPE svg PUBLIC "-//W3C//DTD SVG 1.1//EN" "http://www.w3.org/Graphics/SVG/1.1/DTD/svg11.dtd">
<!-- Creator: CorelDRAW -->
<svg xmlns="http://www.w3.org/2000/svg" xml:space="preserve" width="200px" height="62px" style="shape-rendering:geometricPrecision; text-rendering:geometricPrecision; image-rendering:optimizeQuality; fill-rule:evenodd; clip-rule:evenodd"
viewBox="0 0 200 62.5"
 version="1.1"
 xmlns:xlink="http://www.w3.org/1999/xlink">
 <defs>
  <style type="text/css">
   <![CDATA[
    .str0 {stroke:#1F1A17;stroke-width:0.1905}
    .fil18 {fill:none}
    .fil5 {fill:#1F1A17}
    .fil15 {fill:#383431}
    .fil2 {fill:#838281}
    .fil17 {fill:#969594}
    .fil16 {fill:#AAA9A9}
    .fil1 {fill:#C2C1C1}
    .fil4 {fill:white}
    .fil13 {fill:#0EACCD}
    .fil7 {fill:#1BAB7A}
    .fil10 {fill:#725037}
    .fil9 {fill:#87603F}
    .fil8 {fill:#976A49}
    .fil11 {fill:#CC2E80}
    .fil14 {fill:#E78329}
    .fil12 {fill:#8E3EF0}
    .fil0 {fill:#838281;fill-rule:nonzero}
    .fil3 {fill:url(#id1)}
    .fil6 {fill:url(#id2)}
   ]]>
  </style>
  <clipPath id="id0">
   <rect x="324" y="-325" width="488" height="731"/>
  </clipPath>
  <linearGradient id="id1" gradientUnits="userSpaceOnUse" x1="61.684" y1="2.08475" x2="22.9445" y2="40.8245">
   <stop offset="0" style="stop-color:#969594"/>
   <stop offset="1" style="stop-color:#838281"/>
  </linearGradient>
  <linearGradient id="id2" gradientUnits="userSpaceOnUse" x1="57.7357" y1="21.6687" x2="18.9822" y2="60.4225">
   <stop offset="0" style="stop-color:#72706F"/>
   <stop offset="1" style="stop-color:#DEDEDD"/>
  </linearGradient>
 </defs>
 <g id="Layer_x0020_1">
  <metadata id="CorelCorpID_0Corel-Layer"/>
  <path class="fil0" d="M83.7535 32.8815l13.4197 0 0 3.4995 -4.945 0 0 15.1453 -3.52625 0 0 -15.1453 -4.9485 0 0 -3.4995zm27.351 12.7527l-10.892 0c0.157,0.97775 0.58075,1.75625 1.263,2.336 0.6825,0.57975 1.55125,0.8695 2.61075,0.8695 1.26725,0 2.3565,-0.45425 3.2675,-1.35825l2.8565 1.37125c-0.712,1.0295 -1.56375,1.791 -2.55975,2.2885 -0.99175,0.493 -2.17,0.73975 -3.539,0.73975 -2.11875,0 -3.84375,-0.6835 -5.1745,-2.04625 -1.335,-1.367 -2.0005,-3.07575 -2.0005,-5.12625 0,-2.10675 0.6655,-3.85 1.992,-5.243 1.33075,-1.38875 2.99625,-2.08525 4.99675,-2.08525 2.1275,0 3.85675,0.6965 5.1915,2.08525 1.331,1.393 2.0005,3.227 2.0005,5.507l-0.01275 0.66175zm-3.40325 -2.72525c-0.2245,-0.77025 -0.66525,-1.393 -1.32225,-1.8775 -0.657,-0.48025 -1.424,-0.7225 -2.29275,-0.7225 -0.941,0 -1.7715,0.2725 -2.4835,0.81325 -0.445,0.3375 -0.8605,0.9345 -1.24175,1.78675l7.34025 0zm5.35275 -5.174l2.90325 0 0 1.739c0.31775,-0.6835 0.733,-1.2025 1.2545,-1.55725 0.521,-0.359 1.09325,-0.5365 1.71625,-0.5365 0.4365,0 0.89425,0.12125 1.3775,0.35475l-1.0555 2.9805c-0.39825,-0.20325 -0.7245,-0.30275 -0.983,-0.30275 -0.5215,0 -0.962,0.32875 -1.32225,0.98625 -0.3605,0.662 -0.5385,1.951 -0.5385,3.8805l0.01275 0.6705 0 5.57625 -3.365 0 0 -13.7913zm8.9 0l3.40325 0 0 1.58775c0.5805,-0.65325 1.22475,-1.13775 1.9325,-1.458 0.70775,-0.32 1.479,-0.4845 2.314,-0.4845 0.8435,0 1.60625,0.212 2.2845,0.636 0.678,0.424 1.22475,1.03825 1.64,1.8515 0.53825,-0.81325 1.1995,-1.4275 1.97925,-1.8515 0.784,-0.424 1.636,-0.636 2.564,-0.636 0.962,0 1.8055,0.2295 2.5345,0.688 0.72875,0.45425 1.25025,1.05125 1.568,1.7865 0.322,0.7355 0.47875,1.9295 0.47875,3.58625l0 8.08525 -3.4115 0 0 -6.995c0,-1.566 -0.19075,-2.62175 -0.57225,-3.1755 -0.38125,-0.5535 -0.9535,-0.8305 -1.712,-0.8305 -0.58075,0 -1.102,0.16875 -1.55975,0.50625 -0.46175,0.3375 -0.801,0.8045 -1.0255,1.4015 -0.22475,0.597 -0.335,1.553 -0.335,2.8725l0 6.22075 -3.416 0 0 -6.67925c0,-1.233 -0.08875,-2.1285 -0.26675,-2.68225 -0.178,-0.55375 -0.445,-0.9645 -0.801,-1.23275 -0.356,-0.2725 -0.78425,-0.40675 -1.2885,-0.40675 -0.5635,0 -1.0765,0.173 -1.534,0.51475 -0.45775,0.34175 -0.80525,0.822 -1.03,1.43625 -0.22875,0.61875 -0.34325,1.58775 -0.34325,2.91575l0 6.13425 -3.40325 0 0 -13.7913zm25.2593 -5.6755c0.59325,0 1.106,0.2205 1.534,0.6575 0.424,0.44125 0.63575,0.97325 0.63575,1.59625 0,0.6185 -0.2075,1.14625 -0.6315,1.579 -0.42375,0.43675 -0.928,0.65325 -1.513,0.65325 -0.606,0 -1.123,-0.22075 -1.547,-0.66625 -0.428,-0.44125 -0.63975,-0.982 -0.63975,-1.61375 0,-0.60975 0.21175,-1.129 0.6315,-1.5615 0.42375,-0.42825 0.93225,-0.6445 1.53,-0.6445zm-1.70375 5.6755l3.40325 0 0 13.7913 -3.40325 0 0 -13.7913zm6.46725 0l3.37775 0 0 1.41025c0.77125,-0.66175 1.4665,-1.12025 2.0935,-1.3755 0.62325,-0.25975 1.26325,-0.3895 1.91575,-0.3895 1.3435,0 2.47925,0.48025 3.416,1.43625 0.78825,0.809 1.17825,2.00725 1.17825,3.59925l0 9.1105 -3.3525 0 0 -6.0435c0,-1.648 -0.072,-2.7425 -0.216,-3.28325 -0.14425,-0.54075 -0.3985,-0.95175 -0.75875,-1.23725 -0.36025,-0.28125 -0.801,-0.424 -1.33075,-0.424 -0.69075,0 -1.27975,0.23375 -1.7715,0.70525 -0.4915,0.46725 -0.835,1.116 -1.02575,1.94225 -0.09725,0.4325 -0.14825,1.367 -0.14825,2.80325l0 5.53725 -3.37775 0 0 -13.7913zm25.2465 0l3.37775 0 0 13.7913 -3.37775 0 0 -1.458c-0.66125,0.64475 -1.3265,1.10325 -1.992,1.38875 -0.66975,0.28125 -1.39,0.424 -2.17,0.424 -1.746,0 -3.25475,-0.69225 -4.53025,-2.07225 -1.27575,-1.38 -1.9115,-3.09725 -1.9115,-5.15225 0,-2.12825 0.6145,-3.87175 1.84775,-5.23425 1.23325,-1.3585 2.7335,-2.042 4.4965,-2.042 0.8095,0 1.5725,0.16025 2.2845,0.4715 0.712,0.3115 1.36875,0.78325 1.975,1.406l0 -1.52275zm-3.56425 2.84225c-1.05125,0 -1.92425,0.37625 -2.61925,1.1335 -0.695,0.757 -1.0425,1.726 -1.0425,2.907 0,1.194 0.35175,2.1715 1.0595,2.9415 0.70775,0.77 1.58075,1.155 2.61475,1.155 1.06825,0 1.95375,-0.3805 2.6575,-1.13775 0.7035,-0.7525 1.05525,-1.74325 1.05525,-2.97175 0,-1.19825 -0.35175,-2.17175 -1.05525,-2.9115 -0.70375,-0.744 -1.59375,-1.116 -2.67,-1.116zm10.006 -8.16325l3.3905 0 0 19.1123 -3.3905 0 0 -19.1123z"/>
  <path id="XMLID_54_" class="fil1" d="M101.02 18.3535c0.74125,5.51525 -2.03025,11.2392 -8.6795,10.8395 -5.905,0 -9.45225,-4.6965 -9.45225,-10.3243 0,-5.62775 3.52725,-10.324 9.45225,-10.324 4.3,0 7.9265,2.2985 8.44175,6.7375l-3.36875 0c-0.337,-2.596 -2.59575,-3.92375 -5.073,-3.92375 -4.221,0 -5.9845,3.7255 -5.9845,7.51025 0,3.785 1.7635,7.5105 5.9845,7.5105 3.527,0.05925 5.46925,-2.08075 5.52875,-5.41l-5.25125 0 0 -2.61575 8.402 0zm5.7465 4.0425c0,2.23925 1.209,4.22075 3.8445,4.22075 1.82325,0 2.93275,-0.7925 3.48775,-2.37775l2.992 0c-0.6935,3.111 -3.34875,4.855 -6.46,4.855 -4.47825,0 -6.99525,-3.11125 -6.99525,-7.51025 0,-4.06225 2.6555,-7.53025 6.89625,-7.53025 4.49825,0 7.2725,4.06225 6.73725,8.3425l-10.5025 0zm7.352 -2.061c-0.119,-1.9815 -1.46625,-3.78475 -3.58675,-3.78475 -2.17975,0 -3.666,1.66475 -3.76525,3.78475l7.352 0zm15.1987 -1.10975c-0.2575,-1.7435 -1.52575,-2.675 -3.24975,-2.675 -1.62475,0 -3.9235,0.852 -3.9235,5.192 0,2.37775 1.05,4.8945 3.78475,4.8945 1.82325,0 3.0915,-1.20875 3.3885,-3.24975l3.131 0c-0.57475,3.7055 -2.87325,5.74675 -6.539,5.74675 -4.47875,0 -6.936,-3.17075 -6.936,-7.37175 0,-4.30025 2.3385,-7.669 7.03475,-7.669 3.30925,0 6.12325,1.6645 6.44025,5.172l-3.131 0 0 -0.03975zm5.7865 -10.2248l3.15075 0 0 11.2158 5.68725 -5.7665 3.86425 0 -5.4695 5.25125 5.9845 9.03625 -3.84425 0 -4.35975 -6.93575 -1.88225 1.82325 0 5.1125 -3.15075 0 0 -19.7368 0.01975 0zm14.0893 12.5633c0,-4.3595 2.61575,-7.51025 7.213,-7.51025 4.5775,0 7.213,3.15075 7.213,7.51025 0,4.39925 -2.61575,7.53025 -7.213,7.53025 -4.59725,0.01975 -7.213,-3.131 -7.213,-7.53025zm11.2753 0c0,-2.45725 -1.24825,-5.03325 -4.06225,-5.03325 -2.814,0 -4.06225,2.576 -4.06225,5.03325 0,2.477 1.24825,5.053 4.06225,5.053 2.814,0 4.06225,-2.55625 4.06225,-5.053z"/>
  <g id="_182628368">
   <path id="_182628032" class="fil2" d="M25.4223 34.5453c4.87075,0.018 6.281,-3.871 7.91025,-12.5543 4.33575,-2.23925 9.90925,-5.36075 14.2453,-7.6 2.97225,-5.035 7.0845,-3.96425 8.28975,-0.32175 5.11825,0.29275 9.6635,4.34625 5.0035,7.4685 -8.807,3.17 -14.6325,7.73725 -11.66,16.6633 0.6175,1.85425 0.368,3.53875 0.43925,5.49225 -2.78725,2.07275 -5.5745,4.14525 -8.36175,6.21775 -5.28875,-5.122 -10.5775,-10.2437 -15.8662,-15.3657z"/>
   <path id="_182627864" class="fil3" d="M63.237 38.608c4.032,-4.053 4.03,-10.6675 -0.01325,-14.711l-15.541 -15.541c-4.0455,-4.04575 -10.6752,-4.05475 -14.7115,0l-15.6118 15.684 7.375 7.3875 15.5925 -15.7555 22.91 22.936z"/>
   <path id="_182628464" class="fil4" d="M27.284 35.7785c2.575,-0.20725 4.492,-2.6575 5.11325,-6.6045 0.84875,-5.39425 1.76575,-9.2455 3.72275,-11.3978 2.2985,-2.5275 5.24025,-4.5435 11.0655,-4.2115 0.7895,-1.417 2.0385,-2.42925 3.71625,-2.2295 2.548,0.30325 3.46,1.754 3.716,3.2205 3.45525,0.62175 5.89175,1.7305 7.01925,3.38575 1.32675,1.9475 -0.827,4.05575 -3.726,5.03575 -6.936,2.3445 -8.821,4.20525 -10.3125,6.773 -1.62325,3.604 -1.66775,8.98325 -1.4865,14.6165l-5.11975 4.6245c-4.5695,-4.40425 -9.13875,-8.8085 -13.7083,-13.2128z"/>
   <path id="_182628512" class="fil5" d="M51.6855 12.7987c0.967,0.19925 1.98625,1.25975 1.98625,2.6575 0,1.398 -1.31475,2.93575 -2.93575,2.93575 -1.621,0 -2.93575,-1.3145 -2.93575,-2.93575 0,-0.44475 0.0995,-0.867 0.27675,-1.245 0.4145,0.42425 0.63275,0.6715 1.6325,0.68775 0.9995,0.01625 2.315,-0.83825 1.976,-2.10025z"/>
   <path id="_182628488" class="fil6" d="M56.0102 31.1842l7.32275 7.34875c-0.00225,0.0025 -0.005,0.00525 -0.00675,0.007l-15.6435 15.6093c-4.05,4.04125 -10.6658,4.04575 -14.7115,0l-15.541 -15.541c-4.0455,-4.0455 -4.0455,-10.6655 0,-14.7113l0.001 -0.00075 22.8958 22.937 15.6833 -15.649z"/>
  </g>
 </g>
 <g id="_184284800">
  <rect id="_184283048" class="fil7 str0" x="-109.723" y="-49.8702" width="44.8316" height="15.392"/>
  <rect id="_182626736" class="fil8 str0" x="-109.723" y="-34.4782" width="44.8316" height="15.392"/>
  <rect id="_182233424" class="fil9 str0" x="-109.723" y="-19.0862" width="44.8316" height="15.392"/>
  <rect id="_182627192" class="fil10 str0" x="-109.723" y="-3.69417" width="44.8316" height="15.392"/>
  <rect id="_182627120" class="fil11 str0" x="-109.723" y="11.6979" width="44.8316" height="15.392"/>
  <rect id="_181855488" class="fil12 str0" x="-109.723" y="27.0899" width="44.8316" height="15.392"/>
  <rect id="_184282664" class="fil13 str0" x="-109.723" y="42.4819" width="44.8316" height="15.392"/>
  <rect id="_184282712" class="fil14 str0" x="-109.723" y="57.8739" width="44.8316" height="15.392"/>
  <rect id="_184286768" class="fil5 str0" x="-109.723" y="73.266" width="44.8316" height="15.392"/>
  <rect id="_184283528" class="fil15 str0" x="-109.723" y="88.658" width="44.8316" height="15.392"/>
  <rect id="_184283936" class="fil16 str0" x="-64.8916" y="-49.8702" width="44.8316" height="15.392"/>
  <rect id="_184284032" class="fil16 str0" x="-64.8916" y="-34.4782" width="44.8316" height="15.392"/>
  <rect id="_184283648" class="fil1 str0" x="-64.8916" y="-19.0862" width="44.8316" height="15.392"/>
  <rect id="_184283672" class="fil17 str0" x="-64.8916" y="-3.69417" width="44.8316" height="15.392"/>
  <rect id="_184283912" class="fil1 str0" x="-64.8916" y="11.6979" width="44.8316" height="15.392"/>
  <rect id="_184284056" class="fil18 str0" x="-64.8916" y="27.0899" width="44.8316" height="15.392"/>
  <rect id="_184284416" class="fil18 str0" x="-64.8916" y="42.4819" width="44.8316" height="15.392"/>
  <rect id="_184284200" class="fil18 str0" x="-64.8916" y="57.8739" width="44.8316" height="15.392"/>
  <rect id="_184284224" class="fil18 str0" x="-64.8916" y="73.266" width="44.8316" height="15.392"/>
  <rect id="_184284776" class="fil2 str0" x="-64.8916" y="88.658" width="44.8316" height="15.392"/>
 </g>
 <g style="clip-path:url(#id0)">
  <image id="Embedding_x0020_30" transform="matrix(1 0 0 1 225.163 374.709)" x="100" y="-698.9" width="486.75" height="730.15" xlink:href="geckoTerminalLogo_Images\geckoTerminalLogo_ImgID1.png"/>
 </g>
 <g>
  <polygon class="fil18" points="325.163,-324.192 811.913,-324.192 811.913,405.959 325.163,405.959 "/>
 </g>
 <g>
  <rect class="fil18 str0" x="-188.574" y="-54.556" width="36.5185" height="15.9353"/>
  <rect class="fil18 str0" x="-188.574" y="-38.6208" width="36.5185" height="15.9353"/>
  <rect class="fil18 str0" x="-188.574" y="-22.6855" width="36.5185" height="15.9353"/>
  <rect class="fil18 str0" x="-188.574" y="-6.75025" width="36.5185" height="15.9353"/>
  <rect class="fil18 str0" x="-188.574" y="9.185" width="36.5185" height="15.9353"/>
  <rect class="fil18 str0" x="-188.574" y="25.1202" width="36.5185" height="15.9353"/>
  <rect class="fil18 str0" x="-188.574" y="41.0555" width="36.5185" height="15.9353"/>
  <rect class="fil18 str0" x="-188.574" y="56.9908" width="36.5185" height="15.9353"/>
  <rect class="fil18 str0" x="-188.574" y="72.926" width="36.5185" height="15.9353"/>
  <rect class="fil18 str0" x="-188.574" y="88.8612" width="36.5185" height="15.9353"/>
  <rect class="fil18 str0" x="-152.055" y="-54.556" width="36.5185" height="15.9353"/>
  <rect class="fil18 str0" x="-152.055" y="-38.6208" width="36.5185" height="15.9353"/>
  <rect class="fil18 str0" x="-152.055" y="-22.6855" width="36.5185" height="15.9353"/>
  <rect class="fil18 str0" x="-152.055" y="-6.75025" width="36.5185" height="15.9353"/>
  <rect class="fil18 str0" x="-152.055" y="9.185" width="36.5185" height="15.9353"/>
  <rect class="fil18 str0" x="-152.055" y="25.1202" width="36.5185" height="15.9353"/>
  <rect class="fil18 str0" x="-152.055" y="41.0555" width="36.5185" height="15.9353"/>
  <rect class="fil18 str0" x="-152.055" y="56.9908" width="36.5185" height="15.9353"/>
  <rect class="fil18 str0" x="-152.055" y="72.926" width="36.5185" height="15.9353"/>
  <rect class="fil18 str0" x="-152.055" y="88.8612" width="36.5185" height="15.9353"/>
 </g>
</svg>
