<?xml version="1.0" encoding="UTF-8"?>
<!DOCTYPE svg PUBLIC "-//W3C//DTD SVG 1.1//EN" "http://www.w3.org/Graphics/SVG/1.1/DTD/svg11.dtd">
<!-- Creator: CorelDRAW -->
<svg xmlns="http://www.w3.org/2000/svg" xml:space="preserve" width="210px" height="105px" style="shape-rendering:geometricPrecision; text-rendering:geometricPrecision; image-rendering:optimizeQuality; fill-rule:evenodd; clip-rule:evenodd"
viewBox="0 0 210 105">
 <defs>
  <style type="text/css">
   <![CDATA[
    .fil1 {fill:#383431}
    .fil0 {fill:#5F3A74}
   ]]>
  </style>
 </defs>
 <g id="Layer_x0020_1">
  <metadata id="CorelCorpID_0Corel-Layer"/>
  <g id="_182627024">
   <path id="_182626352" class="fil0" d="M54.6837 21.7975l3.30619 0c0.363825,0 0.661238,0.297413 0.661238,0.661237l0 3.93724 3.9375 0c0.363825,0 0.661237,0.297413 0.661237,0.661237l0 3.30645c0,0.363562 -0.297413,0.660975 -0.661237,0.660975l-3.9375 0 0 3.9375c0,0.363825 -0.297413,0.661237 -0.661238,0.661237l-3.30619 0c-0.363825,0 -0.661238,-0.297413 -0.661238,-0.661237l0 -3.9375 -3.93724 0c-0.363825,0 -0.661238,-0.297413 -0.661238,-0.6615l0 -3.30592c0,-0.363825 0.297413,-0.661237 0.661238,-0.661237l3.93724 0 0 -3.93724c0,-0.363825 0.297413,-0.661237 0.661238,-0.661237z"/>
   <path id="_182292448" class="fil0" d="M24.765 34.0717l14.9113 0c2.9358,0 5.7624,-2.92688 5.7624,-6.23674l-20.7118 -0.162487 0 0c-11.3859,0 -21.1318,10.0892 -21.1318,20.9604l0 2.11969c0,11.1707 10.0511,20.8572 21.1318,20.8572l10.9 -0.0973875 0 0c12.4772,0 12.3853,-19.0105 -0.112612,-19.0105l-9.97316 0c-1.35791,0 -2.64626,-1.32326 -2.64626,-2.69141l0 -0.261975c0,-1.33193 1.19411,-2.56935 2.59166,-2.56935l0 0 -0.0007875 -0.018375 10.3533 0c2.93606,0 6.39109,-3.25762 6.39109,-6.56749l-17.0846 -0.134137 -0.0328125 0.05145c-4.71844,0.0480375 -8.74125,4.23754 -8.74125,8.7507l0 0.884887c0,2.67199 1.41041,5.21614 3.54008,6.85676 2.10394,1.62094 4.83656,2.1882 7.44922,2.1756l8.27479 -0.0401625c1.54534,-0.00735 2.76885,1.29176 2.76885,2.77567l0 0.620288c0,1.53064 -1.39387,2.83657 -2.92005,2.77043l-10.8213 -0.013125c-7.7931,0 -14.862,-6.81292 -14.862,-14.6688l0 -1.49074c0,-7.64584 6.96728,-14.8604 14.9748,-14.8604l-0.011025 0z"/>
  </g>
  <path class="fil1" d="M101.662 40.2347l0 0c4.7922,0 8.71211,4.29529 8.71211,8.22281l0 9.42086c0,3.92752 -3.91991,8.0871 -8.71211,8.0871l0 0c-4.79194,0 -8.71185,-4.15879 -8.71185,-8.0871l0 -9.42086c0,-3.92831 3.91991,-8.22281 8.71185,-8.22281zm0 3.84956l0 0c2.71189,0 4.93027,2.25199 4.93027,5.00509l0 8.02174c0,2.75284 -2.21839,5.00509 -4.93027,5.00509l0 0c-2.71162,0 -4.93001,-2.25225 -4.93001,-5.00509l0 -8.02174c0,-2.7531 2.21839,-5.00509 4.93001,-5.00509zm67.7163 -3.51592l-3.7821 0.0002625 0 17.3098c0,3.92831 3.92018,8.0871 8.71211,8.0871l0 0c4.79194,0 8.71211,-4.1601 8.71211,-8.0871l0 -17.31 -3.7821 0.0002625 0 16.5425c0,2.75284 -2.21839,5.00509 -4.93001,5.00509l0 0c-2.71162,0 -4.93001,-2.25225 -4.93001,-5.00509l0 -16.5427zm-87.7065 11.2825l3.78184 0 0 3.71438 0 2.31315c0,3.92726 -3.91991,8.0871 -8.71185,8.0871l0 0c-4.79194,0 -8.71211,-4.15879 -8.71211,-8.0871l0 -9.42086c0,-3.92831 3.92018,-8.22281 8.71211,-8.22281l0 0c4.54834,0 8.31127,3.87004 8.68193,7.62195l-3.9081 -0.0147c-0.54915,-2.15434 -2.48588,-3.75769 -4.77383,-3.75769l0 0c-2.71189,0 -4.93027,2.25199 -4.93027,5.00509l0 8.02174c0,2.75284 2.21839,5.00509 4.93027,5.00509l0 0c2.71162,0 4.93001,-2.25225 4.93001,-5.00509l0 -1.54586 -4.93001 0 0 -3.71438 4.93001 0zm76.9298 10.3769l-11.6713 0 0 -21.6594 -3.82357 0 0 25.2192 1.65139 0 2.17219 0 11.6713 0 0 -3.55976zm-31.0973 -18.0626l-5.09696 0 0 8.15194 5.18726 0 -0.0002625 0.0034125c2.94158,0.0105 4.40606,-1.74773 4.41604,-4.29844 0.009975,-2.59193 -1.51699,-3.90941 -4.5045,-3.85166l-0.001575 -0.00525zm-0.501375 11.7117l-4.59559 0 0 1.1403 0 8.77039 -3.82358 0c0,-8.39396 0,-16.7884 0,-25.1821l7.76291 0c5.56001,-0.0711375 9.2862,2.37274 9.2673,7.2198 -0.0189,4.88303 -2.88698,8.18265 -8.61105,8.05219l0 -0.000525zm62.5892 6.69585c0.806925,-0.957337 1.61359,-1.91467 2.42025,-2.87201 1.80075,2.04382 8.39685,3.28781 10.0624,1.98188 1.66583,-1.30568 2.77883,-4.4268 -0.259612,-6.07031 -1.59416,-0.862575 -5.70859,-0.105 -8.79979,-2.70007 -3.09146,-2.59508 -2.54494,-7.34816 -0.7245,-9.70121 2.84655,-3.67946 9.52849,-3.7611 14.4425,-0.189 -0.69615,1.03136 -1.3923,2.06273 -2.08845,3.09409 -2.31814,-1.70494 -7.44371,-3.29306 -9.64451,-0.0149625 -0.8379,1.24819 -0.844463,4.87069 3.88369,5.10274 4.45646,0.218663 7.17019,1.83698 8.08316,4.78669 0.950513,3.07046 0.52605,5.84614 -1.58051,7.99286 -4.14435,3.51041 -12.5121,2.04619 -15.7946,-1.41068z"/>
 </g>
</svg>
