<?xml version="1.0" encoding="UTF-8"?>
<!DOCTYPE svg PUBLIC "-//W3C//DTD SVG 1.1//EN" "http://www.w3.org/Graphics/SVG/1.1/DTD/svg11.dtd">
<!-- Creator: CorelDRAW -->
<svg xmlns="http://www.w3.org/2000/svg" xml:space="preserve" width="200px" height="62px" style="shape-rendering:geometricPrecision; text-rendering:geometricPrecision; image-rendering:optimizeQuality; fill-rule:evenodd; clip-rule:evenodd"
viewBox="0 0 200 62.5">
 <defs>
  <style type="text/css">
   <![CDATA[
    .fil1 {fill:#838281}
    .fil0 {fill:#AAA9A9}
   ]]>
  </style>
 </defs>
 <g id="Layer_x0020_1">
  <metadata id="CorelCorpID_0Corel-Layer"/>
  <g id="_182627024">
   <path id="_182626352" class="fil0" d="M51.5833 7.52975l3.14875 0c0.3465,0 0.62975,0.28325 0.62975,0.62975l0 3.74975 3.75 0c0.3465,0 0.62975,0.28325 0.62975,0.62975l0 3.149c0,0.34625 -0.28325,0.6295 -0.62975,0.6295l-3.75 0 0 3.75c0,0.3465 -0.28325,0.62975 -0.62975,0.62975l-3.14875 0c-0.3465,0 -0.62975,-0.28325 -0.62975,-0.62975l0 -3.75 -3.74975 0c-0.3465,0 -0.62975,-0.28325 -0.62975,-0.63l0 -3.1485c0,-0.3465 0.28325,-0.62975 0.62975,-0.62975l3.74975 0 0 -3.74975c0,-0.3465 0.28325,-0.62975 0.62975,-0.62975z"/>
   <path id="_182292448" class="fil0" d="M23.0892 19.2195l14.2013 0c2.796,0 5.488,-2.7875 5.488,-5.93975l-19.7255 -0.15475 0 0c-10.8438,0 -20.1255,9.60875 -20.1255,19.9622l0 2.01875c0,10.6387 9.5725,19.864 20.1255,19.864l10.381 -0.09275 0 0c11.883,0 11.7955,-18.1053 -0.10725,-18.1053l-9.49825 0c-1.29325,0 -2.52025,-1.26025 -2.52025,-2.56325l0 -0.2495c0,-1.2685 1.13725,-2.447 2.46825,-2.447l0 0 -0.00075 -0.0175 9.86025 0c2.79625,0 6.08675,-3.1025 6.08675,-6.25475l-16.271 -0.12775 -0.03125 0.049c-4.49375,0.04575 -8.325,4.03575 -8.325,8.334l0 0.84275c0,2.54475 1.34325,4.96775 3.3715,6.53025 2.00375,1.54375 4.60625,2.084 7.0945,2.072l7.88075 -0.03825c1.47175,-0.007 2.637,1.23025 2.637,2.6435l0 0.59075c0,1.45775 -1.3275,2.7015 -2.781,2.6385l-10.306 -0.0125c-7.422,0 -14.1543,-6.4885 -14.1543,-13.9703l0 -1.41975c0,-7.28175 6.6355,-14.1528 14.2618,-14.1528l-0.0105 0z"/>
  </g>
  <path class="fil1" d="M96.3243 25.089l0 0c4.564,0 8.29725,4.09075 8.29725,7.83125l0 8.97225c0,3.7405 -3.73325,7.702 -8.29725,7.702l0 0c-4.56375,0 -8.297,-3.96075 -8.297,-7.702l0 -8.97225c0,-3.74125 3.73325,-7.83125 8.297,-7.83125zm0 3.66625l0 0c2.58275,0 4.6955,2.14475 4.6955,4.76675l0 7.63975c0,2.62175 -2.11275,4.76675 -4.6955,4.76675l0 0c-2.5825,0 -4.69525,-2.145 -4.69525,-4.76675l0 -7.63975c0,-2.622 2.11275,-4.76675 4.69525,-4.76675zm64.4917 -3.3485l-3.602 0.00025 0 16.4855c0,3.74125 3.7335,7.702 8.29725,7.702l0 0c4.56375,0 8.29725,-3.962 8.29725,-7.702l0 -16.4857 -3.602 0.00025 0 15.7547c0,2.62175 -2.11275,4.76675 -4.69525,4.76675l0 0c-2.5825,0 -4.69525,-2.145 -4.69525,-4.76675l0 -15.755zm-83.53 10.7453l3.60175 0 0 3.5375 0 2.203c0,3.74025 -3.73325,7.702 -8.297,7.702l0 0c-4.56375,0 -8.29725,-3.96075 -8.29725,-7.702l0 -8.97225c0,-3.74125 3.7335,-7.83125 8.29725,-7.83125l0 0c4.33175,0 7.9155,3.68575 8.2685,7.259l-3.722 -0.014c-0.523,-2.05175 -2.3675,-3.57875 -4.5465,-3.57875l0 0c-2.58275,0 -4.6955,2.14475 -4.6955,4.76675l0 7.63975c0,2.62175 2.11275,4.76675 4.6955,4.76675l0 0c2.5825,0 4.69525,-2.145 4.69525,-4.76675l0 -1.47225 -4.69525 0 0 -3.5375 4.69525 0zm73.2665 9.88275l-11.1155 0 0 -20.628 -3.6415 0 0 24.0182 1.57275 0 2.06875 0 11.1155 0 0 -3.39025zm-29.6165 -17.2025l-4.85425 0 0 7.76375 4.94025 0 -0.00025 0.00325c2.8015,0.01 4.19625,-1.6645 4.20575,-4.09375 0.0095,-2.4685 -1.44475,-3.72325 -4.29,-3.66825l-0.0015 -0.005zm-0.4775 11.154l-4.37675 0 0 1.086 0 8.35275 -3.6415 0c0,-7.99425 0,-15.989 0,-23.983l7.39325 0c5.29525,-0.06775 8.844,2.25975 8.826,6.876 -0.018,4.6505 -2.7495,7.793 -8.201,7.66875l0 -0.0005zm59.6088 6.377c0.7685,-0.91175 1.53675,-1.8235 2.305,-2.73525 1.715,1.9465 7.997,3.13125 9.58325,1.8875 1.5865,-1.2435 2.6465,-4.216 -0.24725,-5.78125 -1.51825,-0.8215 -5.43675,-0.1 -8.38075,-2.5715 -2.94425,-2.4715 -2.42375,-6.99825 -0.69,-9.23925 2.711,-3.50425 9.07475,-3.582 13.7548,-0.18 -0.663,0.98225 -1.326,1.9645 -1.989,2.94675 -2.20775,-1.62375 -7.08925,-3.13625 -9.18525,-0.01425 -0.798,1.18875 -0.80425,4.63875 3.69875,4.85975 4.24425,0.20825 6.82875,1.7495 7.69825,4.55875 0.90525,2.92425 0.501,5.56775 -1.50525,7.61225 -3.947,3.34325 -11.9163,1.94875 -15.0425,-1.3435z"/>
 </g>
</svg>
