<?xml version="1.0" encoding="UTF-8"?>
<!DOCTYPE svg PUBLIC "-//W3C//DTD SVG 1.1//EN" "http://www.w3.org/Graphics/SVG/1.1/DTD/svg11.dtd">
<!-- Creator: CorelDRAW -->
<svg xmlns="http://www.w3.org/2000/svg" xml:space="preserve" width="28px" height="28px" shape-rendering="geometricPrecision" text-rendering="geometricPrecision" image-rendering="optimizeQuality" fill-rule="evenodd" clip-rule="evenodd"
viewBox="0 0 28 28">
 <g id="Layer_x0020_1">
  <metadata id="CorelCorpID_0Corel-Layer"/>
  <path fill="#1F1A17" d="M15.6672 5.83499c0.62412,0.12677 1.23655,0.32536 1.82392,0.59598l0.03738 0.01743 0.03367 0.01582 0.00049 0.00021 0.00224 0.00112 0.02338 0.01106 0.00042 0.00028 0.00224 0.00105 0.00203 0.00098 0.00322 0.00154 0.00336 0.00161 0.00217 0.00105 0.02912 0.014 0.00553 0.00266 0.00217 0.00112 0.0021 0.00098 0.00217 0.00112 0.0021 0.00098 0.00224 0.00112 0.00644 0.00315 0.00217 0.00112 0.0021 0.00098 0.00224 0.00112 0.00203 0.00098 0.00217 0.00112 0.03794 0.01869 0.0182 0.00903 0.01547 0.00777 0.00154 0.00084 0.00903 0.00455 7e-005 0 0.00154 0.00084 0.0105 0.00525 0.00021 7e-005 0.00154 0.00084 0.0105 0.00532 0.00014 0 0.00154 0.00084 0.01057 0.00532 7e-005 7e-005 0.00154 0.00084 0.02275 0.01162 0.00154 0.00084 0.01022 0.00518 0.00042 0.00021 0.00154 0.00084 0.00154 0.00084 0.00154 0.00077 0.00147 0.00077 0.00154 0.00077 0.00147 0.00077 0.00154 0.00084 7e-005 0 0.00924 0.00483 0.00161 0.00077 0.00077 0.00049 0.00077 0.00035 0.00154 0.00077 0.00154 0.00084 0.00154 0.00077 0.00154 0.00084 0.00161 0.00084 0.00154 0.00084 0.00154 0.00084 0.00154 0.00077 0.00035 0.00014 0.0091 0.00476 0.00154 0.00077 0.00154 0.00084 0.00154 0.00077 0.00154 0.00084 0.00154 0.00084 0.00154 0.00077 0.00154 0.00091 0.00154 0.00077 0.00154 0.00084 0.00224 0.00112 0.00259 0.00133 0.00161 0.00084 0.00063 0.00035 0.00091 0.00042 0.00154 0.00084 0.00154 0.00077 0.00154 0.00084 0.00154 0.00084 0.00154 0.00084 0.04256 0.02282 0.00021 7e-005 0.00105 0.00056 0.00301 0.00161 0.00028 0.00021 0.00112 0.00049 0.00105 0.00056 0.00168 0.00098 0.00161 0.00091 0.00112 0.00049 0.00154 0.00084 0.00175 0.00098 0.00112 0.00063 0.00112 0.00056 0 0 0.00875 0.00469 0.00112 0.0007 0.00112 0.00049 0.00112 0.00056 0.00175 0.00098 0.00147 0.00084 0.00119 0.00063 0.00112 0.00056 0.00014 7e-005 0.00315 0.00175 0.00105 0.00056 0.00042 0.00021 0.00182 0.00105 0.00105 0.00056 0.00182 0.00098 0.00042 0.00028 0.00105 0.00056 0.00322 0.00175 7e-005 7e-005 0.00112 0.00049 0.00329 0.00189 0 7e-005 0.00112 0.00056c0.22358,0.12159 0.44079,0.25347 0.65121,0.39585l0.00315 -0.00329c0.08533,0.05719 0.16982,0.11592 0.25347,0.17668l2.29166 -1.81895 1.37452 1.37445 -1.82658 2.27843c0.06622,0.09051 0.13034,0.18207 0.19243,0.27461l-0.00434 0.0049 0.02639 0.03976 -0.00021 0.00021c0.2639,0.39851 0.49455,0.82082 0.68796,1.26322l0.00098 0.00238 0.00056 0.00126 0.01197 0.02765 0.00938 0.02191 0.00259 0.00595 0.01134 0.02674 0.00049 0.00119 0.01183 0.02786 0.00098 0.00245 0.01057 0.02548 0.0112 0.02702 0.00042 0.00105 0.01148 0.028 0.00532 0.01316 0.00063 0.00168 0.01148 0.02842 0.02737 0.06951 0.01071 0.02751 0.00035 0.00084 0.01078 0.02835 0.00511 0.01351c0.01316,0.03458 0.02604,0.06923 0.03871,0.10409l0.0007 0.00217 0.00084 0.00224 0.00084 0.00231 0.00077 0.00224 0.0098 0.02702 0 0.00014c0.01302,0.03619 0.02576,0.07252 0.03815,0.10885l0.02401 0.07189c0.01155,0.03465 0.02275,0.0693 0.03381,0.10395 0.01134,0.03577 0.02247,0.07161 0.03325,0.10752 0.0077,0.02548 0.01533,0.05103 0.02289,0.07665 0.01316,0.04529 0.02604,0.09086 0.0385,0.13636l0.01162 0.04284c0.01435,0.0539 0.02835,0.10787 0.04165,0.16198l0.00658 0.02695c0.01449,0.06013 0.02856,0.12026 0.04172,0.18067l0.0007 0.00329c0.01183,0.05446 0.02296,0.1092 0.03381,0.16387l0.00455 0.00035c0.02079,0.10479 0.03983,0.21021 0.05656,0.31633l2.90668 0.33425 0 1.9439 -2.90269 0.31941c-0.01715,0.11095 -0.03654,0.22099 -0.0581,0.33026l-0.00651 0.00042c-0.12992,0.65849 -0.33985,1.30473 -0.62979,1.92241 -0.18046,0.38325 -0.38899,0.75047 -0.62349,1.09907l0.00336 0.00322c-0.05712,0.08526 -0.11599,0.16989 -0.17675,0.2534l1.81895 2.29166 -1.37445 1.37459 -2.27843 -1.82665c-0.1036,0.07574 -0.20839,0.14847 -0.31444,0.21882l-0.00504 -0.00455c-0.53277,0.35287 -1.10817,0.64638 -1.71703,0.87052l-0.0322 0.01169c-0.04809,0.01757 -0.09646,0.03458 -0.14497,0.0511l-0.07189 0.02401c-0.03465,0.01155 -0.0693,0.02275 -0.10395,0.03381 -0.03577,0.01134 -0.07161,0.02247 -0.10752,0.03325 -0.02548,0.0077 -0.05103,0.01533 -0.07665,0.02289 -0.04529,0.01316 -0.09086,0.02604 -0.13636,0.0385l-0.04284 0.01162c-0.0539,0.01435 -0.10787,0.02835 -0.16198,0.04165l-0.02695 0.00658c-0.06013,0.01449 -0.12026,0.02856 -0.18067,0.04172l-0.00329 0.0007c-0.05446,0.01183 -0.1092,0.02296 -0.16387,0.03381l-0.00035 0.00455c-0.07819,0.01554 -0.15673,0.02996 -0.23569,0.04326l-0.0021 0.00042c-0.02618,0.00434 -0.05236,0.00875 -0.07854,0.01288l-7e-005 7e-005 -0.33418 2.90661 -0.48601 0 -1.45789 0 -0.31941 -2.90269c-1.31236,-0.22582 -2.52812,-0.70595 -3.60885,-1.49128l-2.29166 1.81895 -1.37445 -1.37459 1.82658 -2.27829c-0.76846,-1.05028 -1.29437,-2.31889 -1.49723,-3.60633l-2.90668 -0.33425 -7e-005 -1.9439 2.90276 -0.31941c0.0196,-0.12677 0.04228,-0.25235 0.06755,-0.37702l0.00679 -0.00042c0.12726,-0.62622 0.32655,-1.24061 0.59864,-1.8298l0.01442 -0.03094c0.0217,-0.04634 0.04389,-0.09254 0.06636,-0.1386l0.03381 -0.06783c0.01631,-0.03262 0.03297,-0.06503 0.0497,-0.09744 0.01729,-0.03332 0.03472,-0.0665 0.05243,-0.09947 0.0126,-0.02352 0.02527,-0.04697 0.03815,-0.07042 0.02268,-0.04137 0.04578,-0.08267 0.06916,-0.12362l0.02212 -0.0385c0.02786,-0.0483 0.05621,-0.09632 0.08505,-0.14399l0.01435 -0.02373c0.03227,-0.05278 0.06489,-0.10528 0.09821,-0.15722l0.00189 -0.00287c0.0301,-0.0469 0.06097,-0.09345 0.09198,-0.13979l-0.00315 -0.00357c0.05943,-0.08876 0.12061,-0.17668 0.18382,-0.26362l-1.81895 -2.29166 1.37459 -1.37445 2.27829 1.82658c0.09051,-0.06622 0.18221,-0.13034 0.27475,-0.19236l0.00476 0.00427c0.55762,-0.37387 1.16291,-0.68229 1.80467,-0.91406 0.49679,-0.17864 1.00296,-0.29428 1.51935,-0.39508l0.33705 -2.90668 1.94383 0 0.31948 2.90269c0.11088,0.01715 0.22092,0.03654 0.33026,0.05803l0.00042 0.00658 0.04676 0.00945 0 0.00028m0.60011 -1.04566c0.05068,0.01246 0.10143,0.02513 0.1519,0.03843l0.00476 0.00126c0.09261,0.0245 0.18466,0.05047 0.27622,0.07763 0.03304,0.00987 0.06608,0.01932 0.09905,0.02947 0.02506,0.00777 0.05005,0.01596 0.07504,0.02394 0.05005,0.01575 0.10003,0.03199 0.1498,0.04858l0.03976 0.01365c0.06265,0.02128 0.12495,0.04326 0.18704,0.06587l0.01302 0.00469c0.57904,0.21168 1.14156,0.48174 1.67853,0.80997l2.35774 -1.92675 2.7489 2.7489 -1.93305 2.36544c0.06216,0.10283 0.12236,0.20657 0.18032,0.31115l0.00994 0.01806 0.01638 0.02975 0.02198 0.04032 0.00105 0.00189 0.02065 0.03843 0.01477 0.02779c0.01659,0.03122 0.03297,0.06258 0.04914,0.09394l0.00084 0.00168c0.34951,0.67739 0.61201,1.38803 0.78743,2.11561l3.03142 0.30506 7e-005 3.88745 -3.03926 0.30569c-0.22806,0.93142 -0.5992,1.8347 -1.11328,2.67547l1.9264 2.35746 -2.74883 2.7489 -2.36537 -1.93298c-0.04466,0.02709 -0.08946,0.05411 -0.13454,0.08029l-0.00427 0.00252c-0.08281,0.04816 -0.16625,0.09485 -0.25018,0.14035 -0.03031,0.01645 -0.06041,0.03311 -0.09093,0.04928 -0.02317,0.01225 -0.04662,0.02408 -0.06993,0.03619 -0.04662,0.02415 -0.09331,0.04802 -0.14035,0.07147l-0.0378 0.01855c-0.05922,0.02919 -0.11879,0.05768 -0.17878,0.08568l-0.01253 0.00581c-0.55916,0.25984 -1.14779,0.46662 -1.75952,0.61418l-0.30492 3.02953 -3.88745 7e-005 -0.30569 -3.03926c-0.93135,-0.22806 -1.83477,-0.59934 -2.6754,-1.11328l-2.35753 1.9264 -2.7489 -2.74883 1.93291 -2.36523 -0.00777 -0.01295 -0.00154 -0.00245 -0.00049 -0.00077c-0.49553,-0.82796 -0.8666,-1.71626 -1.0948,-2.66287l-3.02918 -0.30485 -7e-005 -3.88745 3.03933 -0.30576 0.0028 -0.01057 0.00147 -0.00602 0.00056 -0.00238 7e-005 -0.00021 0.0035 -0.01407 0.00056 -0.00238 0.00098 -0.00378 0.00077 -0.00308 7e-005 -0.00021 0.00063 -0.00252 7e-005 -0.00021 0.00084 -0.0035 0.00035 -0.00105 0.00056 -0.00231c0.00826,-0.03325 0.01645,-0.06657 0.0252,-0.09961l0.00126 -0.00476c0.02023,-0.07644 0.04172,-0.15239 0.06377,-0.22806l0.00021 -0.00084 0.00056 -0.00203 0.00063 -0.00224 0.01246 -0.04305c0.00987,-0.03304 0.01932,-0.06608 0.02947,-0.09905 0.00777,-0.02506 0.01596,-0.05005 0.02394,-0.07504 0.01575,-0.05005 0.03199,-0.10003 0.04858,-0.1498l0.01365 -0.03976c0.02128,-0.06265 0.04326,-0.12495 0.06587,-0.18704l0.00469 -0.01302c0.21168,-0.57911 0.48167,-1.14156 0.80997,-1.67846l-1.92668 -2.35781 2.74883 -2.7489 2.36523 1.93291c0.81984,-0.49735 1.72116,-0.8736 2.67911,-1.10439l0.30471 -3.02946 3.88752 0 0.30576 3.03933zm-2.26422 3.73443c3.02309,0 5.47477,2.45168 5.47477,5.47477 0,1.11041 -0.33124,2.14347 -0.89957,3.0065l-0.01239 0.01883c-0.01967,0.02961 -0.03962,0.05887 -0.05978,0.08799l-0.01953 0.02814c-0.01624,0.02317 -0.03276,0.04613 -0.04928,0.06902 -0.01183,0.01624 -0.02366,0.03255 -0.03563,0.04872 -0.01232,0.01659 -0.02485,0.03304 -0.03731,0.04949 -0.0161,0.02114 -0.0322,0.04228 -0.04858,0.06328l-0.02149 0.02709c-0.02135,0.02702 -0.04291,0.0539 -0.06489,0.08064l-0.01008 0.01204c-0.1092,0.13216 -0.22554,0.26054 -0.3493,0.38423 -2.13759,2.13759 -5.60476,2.13759 -7.74242,-7e-005 -2.10735,-2.10735 -2.13703,-5.5069 -0.08925,-7.65086 0.0182,-0.01911 0.03675,-0.0378 0.05523,-0.05663 0.01141,-0.01162 0.02254,-0.02345 0.03409,-0.035l0.00126 -0.00126c0.99113,-0.9926 2.36103,-1.60692 3.87415,-1.60692zm3.05907 2.41759c1.68973,1.6898 1.68973,4.42988 0,6.11947 -0.62048,0.62069 -1.38278,1.01304 -2.18295,1.17754l-0.0175 0.00378c-0.02737,0.00553 -0.05495,0.01078 -0.08246,0.01575l-0.0266 0.00462c-0.02205,0.00378 -0.04417,0.0077 -0.06622,0.01113 -0.01568,0.00252 -0.03129,0.00511 -0.04697,0.00742 -0.01624,0.00238 -0.03241,0.00455 -0.04872,0.00679 -0.02072,0.0028 -0.04137,0.00574 -0.06251,0.00812l-0.02695 0.00308c-0.02723,0.00336 -0.05425,0.00623 -0.08155,0.00889l-0.01225 0.00112c-0.13496,0.01281 -0.27167,0.01953 -0.40985,0.01953 -2.38938,0 -4.32712,-1.93781 -4.32712,-4.32719 0,-2.35557 1.88328,-4.27203 4.22604,-4.32579 0.02065,-0.00042 0.04179,-0.00049 0.06237,-0.00077 0.01281,-7e-005 0.02583,-0.00049 0.03871,-0.00049l0.00133 0c1.10887,-0.00084 2.21753,0.42147 3.0632,1.267z"/>
 </g>
</svg>
