<?xml version="1.0" encoding="UTF-8"?>
<!DOCTYPE svg PUBLIC "-//W3C//DTD SVG 1.1//EN" "http://www.w3.org/Graphics/SVG/1.1/DTD/svg11.dtd">
<!-- Creator: CorelDRAW -->
<svg xmlns="http://www.w3.org/2000/svg" xml:space="preserve" width="28px" height="28px" shape-rendering="geometricPrecision" text-rendering="geometricPrecision" image-rendering="optimizeQuality" fill-rule="evenodd" clip-rule="evenodd"
viewBox="0 0 28 28">
 <g id="Layer_x0020_1">
  <metadata id="CorelCorpID_0Corel-Layer"/>
  <path fill="#1F1A17" d="M10.8342 16.157c0.22925,-0.22918 0.55601,-0.13181 0.76797,0.08029 0.21189,0.21203 0.30968,0.53872 0.08022,0.76804l-1.42856 1.42842 1.42863 1.4287c0.22932,0.22932 0.13174,0.55608 -0.08029,0.76797 -0.21196,0.21189 -0.53872,0.30947 -0.76804,0.08022l-1.42842 -1.42856 -1.4287 1.42863c-0.22932,0.22932 -0.55601,0.13167 -0.76797,-0.08029 -0.21189,-0.21203 -0.30947,-0.53872 -0.08022,-0.76804l1.42856 -1.42842 -1.42863 -1.4287c-0.22918,-0.22925 -0.13181,-0.55594 0.08029,-0.76797 0.21203,-0.21189 0.53872,-0.30968 0.76804,-0.08022l1.42842 1.42856 1.4287 -1.42863zm-1.76162 -8.4413c0,-0.32417 0.29988,-0.48636 0.59983,-0.48636 0.29981,0 0.59983,0.16205 0.59983,0.48636l0 2.02027 2.02034 0c0.32424,0 0.48629,0.30009 0.48629,0.59983 0,0.29981 -0.16212,0.59983 -0.48629,0.59983l-2.02034 0 0 2.02034c0,0.32424 -0.30002,0.48629 -0.59983,0.48629 -0.29974,0 -0.59983,-0.16212 -0.59983,-0.48629l0 -2.02034 -2.02027 0c-0.32424,0 -0.48636,-0.29988 -0.48636,-0.59983 0,-0.29974 0.16205,-0.59983 0.48636,-0.59983l2.02027 0 0 -2.02027zm6.67569 3.21993c-0.32417,0 -0.48629,-0.29988 -0.48629,-0.59983 0,-0.29974 0.16205,-0.59983 0.48629,-0.59983l5.24027 0c0.32431,0 0.48636,0.30009 0.48636,0.59983 0,0.29981 -0.16219,0.59983 -0.48636,0.59983 -1.11692,0 -4.12335,0 -5.24027,0zm-10.9163 -7.45311l18.3361 0c1.11755,0 2.03196,0.91588 2.03196,2.03196l0 16.9709c0,1.11601 -0.91588,2.03196 -2.03196,2.03196l-18.3361 0c-1.11615,0 -2.03196,-0.91441 -2.03196,-2.03196l0 -16.9709c0,-1.11769 0.91434,-2.03196 2.03196,-2.03196zm0.51695 1.13218l17.3627 0c0.707,0 1.28541,0.58772 1.28541,1.30242l0 16.1562c0,0.7147 -0.58002,1.30242 -1.28541,1.30242l-17.3627 0c-0.70546,0 -1.28541,-0.58618 -1.28541,-1.30242l0 -16.1562c0,-0.71617 0.57848,-1.30242 1.28541,-1.30242zm10.5291 15.4944c-0.32417,0 -0.48629,-0.29988 -0.48629,-0.59983 0,-0.29974 0.16205,-0.59976 0.48629,-0.59976l4.98645 0c0.32424,0 0.48629,0.30002 0.48629,0.59976 0,0.29981 -0.16212,0.59983 -0.48629,0.59983 -1.11692,0 -3.86946,0 -4.98645,0zm0.05082 -2.10665c-0.32417,0 -0.48636,-0.29981 -0.48636,-0.59976 0,-0.29981 0.16205,-0.59983 0.48636,-0.59983l4.93563 0c0.32424,0 0.48629,0.30002 0.48629,0.59983 0,0.29974 -0.16212,0.59976 -0.48629,0.59976 -1.11692,0 -3.81871,0 -4.93563,0z"/>
 </g>
</svg>
