<?xml version="1.0" encoding="UTF-8"?>
<!DOCTYPE svg PUBLIC "-//W3C//DTD SVG 1.1//EN" "http://www.w3.org/Graphics/SVG/1.1/DTD/svg11.dtd">
<!-- Creator: CorelDRAW -->
<svg xmlns="http://www.w3.org/2000/svg" xml:space="preserve" width="28px" height="28px" shape-rendering="geometricPrecision" text-rendering="geometricPrecision" image-rendering="optimizeQuality" fill-rule="evenodd" clip-rule="evenodd"
viewBox="0 0 28 28">
 <g id="Layer_x0020_1">
  <metadata id="CorelCorpID_0Corel-Layer"/>
  <path fill="#1F1A17" d="M10.8693 20.6587c0.86317,0 1.56359,0.7 1.56359,1.56317 0,0.86331 -0.70042,1.56359 -1.56359,1.56359 -0.86331,0 -1.56366,-0.69986 -1.56366,-1.56359 0,-0.86317 0.69993,-1.56317 1.56366,-1.56317zm11.3732 0.00329l-0.13335 0c-0.83223,0.03486 -1.49681,0.72065 -1.49681,1.56163 0,0.86331 0.7,1.56352 1.56373,1.56352 0.86317,0 1.56359,-0.69979 1.56359,-1.56352 0,-0.84098 -0.66451,-1.52677 -1.49674,-1.56163l-0.00042 0zm-8.62169 -7.81634l0.31444 3.81885 -4.00862 0.00546 -0.93191 -3.82459 4.62609 0 0 0.00028zm5.31475 -0.00567l-0.29841 3.82452 -3.53367 0 -0.31437 -3.82452 4.14645 0zm4.28295 3.82452l-3.43126 0 0.29561 -3.82452 4.04173 0.00567 -0.90608 3.81885zm-10.0457 -8.70331l0.31549 3.72855 -4.76469 0 -0.89691 -3.72855 5.34639 0 -0.00028 0zm6.14348 0l-0.29099 3.72855 -4.33958 0 -0.31542 -3.72855 4.94599 0zm6.01377 0l-0.89173 3.72855 -4.23367 0 0.31556 -3.72855 4.80984 0zm-17.797 -1.20687l18.1185 -0.00553c0.73346,0 1.0535,0.53151 0.88753,1.24516l-2.14921 9.00438c-0.10507,0.45283 -0.31927,0.82467 -0.85085,0.82467l-13.3318 -0.00553c0.25991,0.9905 0.34412,1.66831 1.63317,1.66831l10.4322 -0.00882c1.46825,-0.00126 2.64222,1.267 2.64222,2.74694 0,1.51207 -1.22612,2.73812 -2.73812,2.73812 -1.512,0 -2.73812,-1.22605 -2.73812,-2.73812 0,-0.37786 0.07672,-0.7378 0.21371,-1.06211 0.0679,-0.16149 0.15554,-0.32172 0.25431,-0.46788l-6.76172 0.00203c0.09576,0.14819 0.18088,0.30436 0.24941,0.46585 0.13734,0.32396 0.21371,0.68334 0.21371,1.06015 0,1.512 -1.22605,2.73812 -2.73805,2.73812 -1.51207,0 -2.73812,-1.22612 -2.73812,-2.73812 0,-1.02249 0.56098,-1.91401 1.39167,-2.38441 -0.09492,-0.2443 -0.1792,-0.49119 -0.24031,-0.74473l-3.38037 -14.0452c-0.1316,-0.54712 -0.52136,-0.76363 -1.04566,-0.76363l-0.70175 0 -1.90589 -0.00287c-0.34811,-0.00378 -0.62517,-0.28091 -0.62517,-0.62258 0,-0.34174 0.27706,-0.6188 0.65709,-0.62048l2.82989 0.03731c0.45157,0.0063 0.80675,0.10696 1.11475,0.30653 0.3206,0.20937 0.60858,0.4879 0.70567,0.88886l0.6013 2.4836z"/>
 </g>
</svg>
