<?xml version="1.0" encoding="UTF-8"?>
<!DOCTYPE svg PUBLIC "-//W3C//DTD SVG 1.1//EN" "http://www.w3.org/Graphics/SVG/1.1/DTD/svg11.dtd">
<!-- Creator: CorelDRAW -->
<svg xmlns="http://www.w3.org/2000/svg" xml:space="preserve" width="24px" height="12px" shape-rendering="geometricPrecision" text-rendering="geometricPrecision" image-rendering="optimizeQuality" fill-rule="evenodd" clip-rule="evenodd"
viewBox="0 0 24 12">
 <g id="Layer_x0020_1">
  <metadata id="CorelCorpID_0Corel-Layer"/>
  <path fill="#6D609E" d="M1.887 3.6972l2.25432 -2.53236c0.50124,-0.56316 1.09464,-1.02264 1.7652,-1.02192l16.4485 0.02184c0.77916,0.00096 1.43916,0.51156 1.43916,1.34904l0 8.99412c0,0.94392 -0.31248,1.34916 -1.34916,1.34916l-16.4034 0c-0.88584,0 -1.5786,-0.40752 -2.11356,-1.03428l-3.14796 -3.6876c-0.61332,-0.71856 -0.63348,-1.4832 -0.02976,-2.16132l0.5178 -0.58164 0.61884 -0.69504zm1.54416 1.51836c0.44892,-0.44892 1.17696,-0.44892 1.62588,-0.00012 0.44892,0.44892 0.44892,1.17696 0,1.62588 -0.44892,0.44892 -1.17696,0.44892 -1.62588,0 -0.4488,-0.44892 -0.4488,-1.17696 0,-1.62576z"/>
  <path fill="white" d="M7.29888 8.64144l0 -4.68216 0.92016 0 1.9164 3.1266 0 -3.1266 0.87864 0 0 4.68216 -0.94932 0 -1.88724 -3.05352 0 3.05352 -0.87864 0zm4.71516 0l0 -4.68216 3.471 0 0 0.79248 -2.526 0 0 1.03776 2.35056 0 0 0.78828 -2.35056 0 0 1.2744 2.6154 0 0 0.78924 -3.5604 0zm5.02668 0l-1.11744 -4.68216 0.96708 0 0.70632 3.216 0.85584 -3.216 1.12392 0 0.82104 3.27036 0.71856 -3.27036 0.9516 0 -1.13724 4.68216 -1.00284 0 -0.93204 -3.50052 -0.92988 3.50052 -1.02492 0z"/>
 </g>
</svg>
