<?xml version="1.0" encoding="UTF-8"?>
<!DOCTYPE svg PUBLIC "-//W3C//DTD SVG 1.1//EN" "http://www.w3.org/Graphics/SVG/1.1/DTD/svg11.dtd">
<!-- Creator: CorelDRAW -->
<svg xmlns="http://www.w3.org/2000/svg" xml:space="preserve" width="160px" height="50px" shape-rendering="geometricPrecision" text-rendering="geometricPrecision" image-rendering="optimizeQuality" fill-rule="evenodd" clip-rule="evenodd"
viewBox="0 0 160 50">
 <g id="Layer_x0020_1">
  <metadata id="CorelCorpID_0Corel-Layer"/>
  <path fill="#AAA9A9" fill-rule="nonzero" d="M66.9668 16.3482c2.0958,0 3.6676,0.492 4.7156,1.4758 1.0478,0.984 1.5718,2.3238 1.5718,4.0198 0,1.6798 -0.524,3.0116 -1.5718,3.9956 -1.048,0.984 -2.6198,1.4758 -4.7156,1.4758l-3.4558 0 0 5.8316 -3.1438 0 0 -16.7986 6.5996 0zm-0.12 8.2074c1.0558,0 1.8438,-0.236 2.3638,-0.708 0.52,-0.472 0.7798,-1.14 0.7798,-2.0038 0,-0.88 -0.2598,-1.556 -0.7798,-2.0278 -0.52,-0.472 -1.308,-0.708 -2.3638,-0.708l-3.3358 0 0 5.4476 3.3358 0zm9.3592 -5.6396c-0.48,0 -0.892,-0.164 -1.236,-0.492 -0.344,-0.328 -0.5158,-0.724 -0.5158,-1.1878 0,-0.48 0.1718,-0.884 0.5158,-1.212 0.344,-0.328 0.756,-0.492 1.236,-0.492 0.464,0 0.8678,0.164 1.2118,0.492 0.344,0.328 0.516,0.732 0.516,1.212 0,0.4638 -0.172,0.8598 -0.516,1.1878 -0.344,0.328 -0.7478,0.492 -1.2118,0.492zm-1.536 1.7518l3.0718 0 0 12.479 -3.0718 0 0 -12.479zm12.335 -0.24c1.296,0 2.3438,0.408 3.1438,1.224 0.8,0.8158 1.2,2.0318 1.2,3.6476l0 7.8474 -3.0718 0 0 -7.1274c0,-1.008 -0.216,-1.7678 -0.648,-2.2798 -0.432,-0.512 -1.0638,-0.768 -1.8958,-0.768 -0.88,0 -1.5838,0.26 -2.1118,0.78 -0.528,0.52 -0.792,1.2758 -0.792,2.2678l0 7.1274 -3.0718 0 0 -12.479 3.0718 0 0 2.5678 0.096 0c0.096,-0.416 0.304,-0.84 0.624,-1.2718 0.32,-0.432 0.772,-0.796 1.3558,-1.092 0.584,-0.296 1.284,-0.444 2.0998,-0.444zm15.2148 12.719l-4.2476 -5.1836 -1.512 1.5838 0 3.5998 -3.0718 0 0 -16.7986 3.0718 0 0 9.9112 5.0876 -5.5916 3.4078 0 -5.1116 5.3516 5.7834 7.1274 -3.4076 0zm10.847 0.24c-2.1438,0 -3.8238,-0.492 -5.0396,-1.4758 -1.216,-0.984 -1.8238,-2.348 -1.8238,-4.0918l3.2396 0c0.048,0.88 0.372,1.588 0.972,2.1238 0.6,0.536 1.4918,0.804 2.6758,0.804 1.0718,0 1.8878,-0.212 2.4478,-0.636 0.5598,-0.424 0.8398,-1.0278 0.8398,-1.8118 0,-0.64 -0.216,-1.14 -0.6478,-1.4998 -0.432,-0.36 -1.072,-0.62 -1.92,-0.78l-2.3518 -0.456c-1.5038,-0.288 -2.6796,-0.8 -3.5276,-1.5358 -0.848,-0.736 -1.272,-1.7838 -1.272,-3.1438 0,-1.5198 0.556,-2.6918 1.668,-3.5156 1.1118,-0.824 2.6198,-1.236 4.5236,-1.236 1.9358,0 3.4876,0.436 4.6556,1.308 1.1678,0.8718 1.7518,2.0918 1.7518,3.6596l-3.2396 0c0,-0.736 -0.28,-1.3078 -0.84,-1.7158 -0.56,-0.408 -1.32,-0.612 -2.2798,-0.612 -0.992,0 -1.7278,0.208 -2.2078,0.624 -0.48,0.416 -0.72,0.9438 -0.72,1.5838 0,0.512 0.172,0.96 0.516,1.344 0.344,0.3838 0.9078,0.6478 1.6918,0.7918l2.2318 0.432c1.8558,0.352 3.2038,0.904 4.0438,1.6558 0.8398,0.752 1.2598,1.784 1.2598,3.0958 0,1.6638 -0.608,2.9278 -1.8238,3.7916 -1.216,0.864 -2.8238,1.296 -4.8236,1.296zm13.7748 -12.959c1.8078,0 3.1198,0.332 3.9358,0.996 0.8158,0.664 1.2238,1.6998 1.2238,3.1078l0 8.6152 -2.9278 0 0 -2.2078 -0.12 0c-0.064,0.288 -0.256,0.624 -0.5758,1.0078 -0.32,0.384 -0.784,0.72 -1.392,1.008 -0.608,0.288 -1.3358,0.432 -2.1838,0.432 -1.1358,0 -2.0878,-0.284 -2.8558,-0.852 -0.7678,-0.568 -1.1518,-1.4278 -1.1518,-2.5798 0,-1.1518 0.384,-1.9838 1.1518,-2.4958 0.768,-0.5118 1.8078,-0.8558 3.1198,-1.0318l2.4478 -0.336c0.56,-0.064 0.936,-0.18 1.1278,-0.348 0.192,-0.168 0.288,-0.436 0.288,-0.804l0 -0.2638c0,-0.736 -0.188,-1.248 -0.5638,-1.536 -0.376,-0.288 -0.924,-0.432 -1.644,-0.432 -1.5358,0 -2.3038,0.592 -2.3038,1.776l0 0.144 -2.8968 -0.7012c0.1246,-2.3322 1.8982,-3.4986 5.3206,-3.4986zm2.0878 6.8634c-0.064,0.128 -0.196,0.224 -0.396,0.288 -0.1998,0.064 -0.5158,0.128 -0.9478,0.192l-1.7758 0.24c-0.672,0.112 -1.172,0.288 -1.5,0.528 -0.328,0.24 -0.492,0.584 -0.492,1.0318 0,0.464 0.168,0.84 0.504,1.128 0.336,0.288 0.856,0.432 1.56,0.432 0.6558,0 1.2118,-0.124 1.6678,-0.372 0.456,-0.248 0.8,-0.548 1.0318,-0.9 0.232,-0.3518 0.348,-0.6878 0.348,-1.0078l0 -1.56zm5.1116 -10.943l3.0718 0 0 16.7986 -3.0718 0 0 -16.7986zm16.4628 10.5352c0,0.3038 -0.024,0.5758 -0.072,0.8158l-8.9992 0c0.0958,1.184 0.4358,2.0518 1.0198,2.6038 0.584,0.552 1.3958,0.828 2.4358,0.828 0.736,0 1.32,-0.152 1.7518,-0.456 0.432,-0.304 0.752,-0.768 0.96,-1.3918l2.7358 0c-0.32,1.3758 -0.98,2.4158 -1.9798,3.1196 -1,0.704 -2.2198,1.056 -3.6598,1.056 -1.1358,0 -2.1678,-0.228 -3.0958,-0.684 -0.9278,-0.456 -1.6718,-1.1678 -2.2318,-2.1358 -0.5598,-0.968 -0.8398,-2.1958 -0.8398,-3.6836 0,-1.488 0.276,-2.7198 0.8278,-3.6958 0.552,-0.9758 1.288,-1.6918 2.2078,-2.1478 0.92,-0.456 1.948,-0.684 3.0838,-0.684 1.7438,0 3.1558,0.528 4.2356,1.584 1.08,1.0558 1.62,2.6798 1.62,4.8716zm-2.9038 -0.888c-0.032,-0.992 -0.296,-1.7758 -0.792,-2.3518 -0.496,-0.576 -1.2318,-0.864 -2.2078,-0.864 -0.9278,0 -1.6638,0.272 -2.2078,0.816 -0.544,0.544 -0.864,1.3438 -0.9598,2.3998l6.1674 0z"/>
  <circle fill="#DEDEDD" cx="29.7423" cy="24.9999" r="20.2463"/>
  <path fill="#72706F" d="M22.2578 17.2638l4.5254 0c0.3088,0 0.5614,0.245 0.5614,0.5444l0 0c0,0.2994 -0.2526,0.5444 -0.5614,0.5444l-4.5254 0c-0.3088,0 -0.5614,-0.245 -0.5614,-0.5444l0 0c0,-0.2994 0.2526,-0.5444 0.5614,-0.5444zm10.5104 0l4.5254 0c0.3088,0 0.5614,0.245 0.5614,0.5444l0 0c0,0.2994 -0.2526,0.5444 -0.5614,0.5444l-4.5254 0c-0.3088,0 -0.5614,-0.245 -0.5614,-0.5444l0 0c0,-0.2994 0.2526,-0.5444 0.5614,-0.5444zm-8.554 2.586l0 0c0.6362,0 1.1568,0.5304 1.1568,1.179l0 4.447c0,0.6484 -0.5206,1.179 -1.1568,1.179l0 0c-0.6362,0 -1.1568,-0.5306 -1.1568,-1.179l0 -4.447c0,-0.6486 0.5206,-1.179 1.1568,-1.179zm11.1944 0.3062l0 0c0.6362,0 1.1568,0.5306 1.1568,1.179l0 4.447c0,0.6484 -0.5206,1.179 -1.1568,1.179l0 0c-0.6364,0 -1.157,-0.5306 -1.157,-1.179l0 -4.447c0,-0.6484 0.5206,-1.179 1.157,-1.179zm-16.5874 2.756c1.5124,0 2.739,1.2266 2.739,2.739 0,1.5124 -1.2266,2.739 -2.739,2.739 -1.5124,0 -2.739,-1.2266 -2.739,-2.739 0,-1.5124 1.2266,-2.739 2.739,-2.739zm22.0144 0.034c1.5124,0 2.739,1.2266 2.739,2.739 0,1.5124 -1.2266,2.739 -2.739,2.739 -1.5124,0 -2.739,-1.2266 -2.739,-2.739 0,-1.5124 1.2266,-2.739 2.739,-2.739zm1.802 -8.373l-0.8284 3.1132 -2.4604 0.8032 2.4854 0.8788 0.8536 2.7366 0.8286 -2.7366 2.4602 -0.9038 -2.4602 -0.8284 -0.8788 -3.063zm-18.5156 17.179c-0.6642,-0.5226 0.128,-1.8562 0.9196,-1.2798 2.76,2.0096 6.4324,1.829 9.7712,0.0576 1.0708,-0.3458 1.3538,1.007 0.7492,1.3324 -3.9088,2.104 -7.7502,2.2136 -11.44,-0.1102z"/>
 </g>
</svg>
