<?xml version="1.0" encoding="UTF-8"?>
<!DOCTYPE svg PUBLIC "-//W3C//DTD SVG 1.1//EN" "http://www.w3.org/Graphics/SVG/1.1/DTD/svg11.dtd">
<!-- Creator: CorelDRAW -->
<svg xmlns="http://www.w3.org/2000/svg" xml:space="preserve" width="160px" height="50px" shape-rendering="geometricPrecision" text-rendering="geometricPrecision" image-rendering="optimizeQuality" fill-rule="evenodd" clip-rule="evenodd"
viewBox="0 0 160 50">
 <g id="Layer_x0020_1">
  <metadata id="CorelCorpID_0Corel-Layer"/>
  <path fill="#969594" d="M18.718 31.1665l1.9037 0 0 7.3356c5.0143,-0.3349 9.2789,-3.4097 11.3104,-7.7396l1.8077 0c-2.149,5.2612 -7.1729,9.0447 -13.1181,9.3978l0 2.6767 -1.9037 0 0 -2.6818c-7.5727,-0.491 -13.6298,-6.5483 -14.1204,-14.121l-2.9304 0 0 -1.9029 2.9252 0c0.4513,-7.6118 6.526,-13.7111 14.1256,-14.2034l0 -2.7649 1.9037 0 0 2.7591c6.0523,0.3596 11.1483,4.2734 13.2304,9.6826l-1.7907 0c-1.9755,-4.4794 -6.3165,-7.6818 -11.4397,-8.0233l0 7.252 -1.9037 0 0 -7.2469c-6.6858,0.4868 -12.0198,5.8473 -12.4669,12.5448l7.0874 0 0 1.9029 -7.0821 0c0.4844,6.6585 5.8036,11.9773 12.4616,12.4621l0 -7.3298zm16.441 -1.6685c-2.0919,0.4238 -4.1917,0.4501 -6.4484,0 -4.8372,-0.9649 -4.6487,-8.3067 0.1776,-9.0439 2.1294,-0.3246 4.1486,-0.2955 6.0936,0 4.8258,0.7343 5.0114,8.0639 0.1772,9.0439zm20.1498 -1.4188l0 1.5959c2.6964,0 6.6849,0.741 9.2193,-0.2009 1.6299,-0.6054 2.1857,-2.9927 1.0913,-4.3511 -1.805,-2.239 -5.456,0.044 -7.6265,-1.1787 -1.0578,-0.5952 -0.4829,-1.8038 0.5085,-2.0103 2.1924,-0.4576 4.8525,-0.0609 7.0918,-0.0609l0 -1.596c-2.5868,0 -6.4321,-0.7171 -8.865,0.1718 -1.7011,0.6218 -2.2065,3.2306 -0.9662,4.5466 1.8785,1.9914 5.3605,-0.1941 7.502,1.0123 1.1794,0.6641 0.3457,1.8945 -0.6852,2.0379 -2.3375,0.3257 -4.9101,0.0334 -7.27,0.0334zm-15.9586 -7.6251l0 9.221 2.128 0 0 -9.221 -2.128 0m3.9007 0l0 9.221 2.1276 0 0 -6.3839c2.5061,2.5068 4.9527,6.3839 8.689,6.3839l0 -9.221 -2.3052 0 0 6.2069c-2.4733,-2.4732 -4.8235,-6.2069 -8.5114,-6.2069m24.1157 0l0 9.221 2.1278 0 0 -6.3839c2.5063,2.5068 4.9525,6.3839 8.6884,6.3839l0 -9.221 -2.3053 0 0 6.2069c-2.4729,-2.4732 -4.8234,-6.2069 -8.5109,-6.2069m12.412 0l0 9.221 2.1288 0 0 -9.221 -2.1288 0m3.9015 0l0 9.221 2.1276 0 0 -3.3688c2.0645,0 5.6057,0.6772 7.4405,-0.3405 1.754,-0.9727 1.754,-4.1981 0,-5.1711 -0.9384,-0.5205 -2.1502,-0.3406 -3.1843,-0.3406l-6.3838 0m12.0579 0l0 9.221 10.2846 0 0 -1.5959 -8.1567 0 0 -2.3047 7.4475 0 0 -1.5967 -7.4475 0 0 -2.1276 8.1567 0 0 -1.5961 -10.2846 0m11.5254 0l0 9.221 2.1286 0 0 -3.3688 4.0108 0.1818 2.1113 3.005 2.5664 0.182 -2.1277 -3.3688c2.3395,-0.6952 3.1856,-4.4392 0.7063,-5.6008 -0.9415,-0.4411 -2.1768,-0.2514 -3.1889,-0.2514l-6.2068 0m15.9595 0l0 9.221 2.1276 0 0 -6.3839c2.5061,2.5068 4.953,6.3839 8.6888,6.3839l0 -9.221 -2.3051 0 0 6.2069c-2.4731,-2.4732 -4.8241,-6.2069 -8.5113,-6.2069m12.4121 0l0 9.221 10.2848 0 0 -1.5959 -8.1567 0 0 -2.3047 7.4474 0 0 -1.5967 -7.4474 0 0 -2.1276 8.1567 0 0 -1.5961 -10.2848 0m11.1714 0l0 4.788 2.3052 0 0 -3.015 2.1278 0 0 7.448 2.1279 0 0 -7.448 2.6598 0 0 3.015 2.3057 0 0 -4.788 -11.5264 0zm-37.4144 1.773l0 2.3054c1.2782,0 6.339,0.7333 6.4661,-1.0663 0.1405,-1.9935 -5.1905,-1.2391 -6.4661,-1.2391m-23.5843 0l0 2.3054c1.2757,0 6.6071,0.7548 6.4666,-1.2383 -0.1268,-1.7994 -5.1883,-1.0671 -6.4666,-1.0671m-58.3385 1.9288l8.9611 0c-1.0124,-3.3806 -7.8433,-3.1732 -8.9611,0m0 1.7956c1.126,3.4653 8.0052,3.6905 9.0251,0l-9.0251 0m92.0291 1.9505l0 1.7731 2.3056 0 0 -1.7731 -2.3056 0zm-94.6885 1.7731c-2.2103,0.0132 -4.9552,0.4521 -7.0749,-0.2639 -4.148,-1.3991 -4.3127,-6.8156 -0.5418,-8.5884 2.1976,-1.0337 5.2583,-0.5419 7.6167,-0.5456l0 1.596c-1.9522,0 -5.3046,-0.6412 -7.0259,0.4545 -1.6125,1.0265 -1.5276,4.3404 0.1728,5.2375 1.7819,0.9404 4.8998,0.514 6.8531,0.514l0 1.5959z"/>
 </g>
</svg>
