<?xml version="1.0" encoding="UTF-8"?>
<!DOCTYPE svg PUBLIC "-//W3C//DTD SVG 1.1//EN" "http://www.w3.org/Graphics/SVG/1.1/DTD/svg11.dtd">
<!-- Creator: CorelDRAW -->
<svg xmlns="http://www.w3.org/2000/svg" xml:space="preserve" width="160px" height="50px" shape-rendering="geometricPrecision" text-rendering="geometricPrecision" image-rendering="optimizeQuality" fill-rule="evenodd" clip-rule="evenodd"
viewBox="0 0 160 50">
 <g id="MasterLayer_x0020_1">
  <metadata id="CorelCorpID_0Corel-Layer"/>
  <path fill="#C2C1C1" d="M40.111 23.5402l-2.6506 12.6908 8.755 -14.4579 -6.1044 1.7671zm-0.3213 -0.9639l-0.9639 -5.5422 6.9077 4.0161 -5.9438 1.5261zm-7.3896 -4.1767l6.5864 3.8555 -1.6065 -5.5422 -4.9799 1.6867zm-5.9438 8.8354l9.7189 11.2451 3.1326 -14.8596 -12.8515 3.6145zm4.498 -8.5944l-4.5783 7.7912 12.3695 -3.4538 -7.7912 -4.3374zm-11.0844 10.3615l5.6225 -1.5261 8.6748 9.7992 -14.2973 -8.2731zm3.3735 -7.6306l-3.8554 7.0683 5.8635 -1.767 -2.0081 -5.3013zm0.9639 -0.7229l1.6867 5.7029 3.8555 -7.47 -5.5422 1.7671z"/>
  <polygon fill="#DEDEDD" points="24.2073,9.8052 24.2073,6.9136 25.7334,9.002 28.7856,9.002 26.2153,11.0903 26.5366,13.8213 24.6089,11.3313 21.9583,11.4919 "/>
  <polygon fill="#DEDEDD" points="13.9449,20.147 13.6765,17.8373 15.0894,19.3637 17.5274,19.0804 15.6682,20.9871 16.1783,23.1387 14.4074,21.3287 12.3051,21.7031 "/>
  <polygon fill="#DEDEDD" points="44.5622,11.0964 44.9858,9.0989 45.7341,10.7651 47.8426,11.2121 45.7612,12.2783 45.5832,14.2119 44.6162,12.2095 42.7616,11.9322 "/>
  <polygon fill="white" points="31.1953,20.4077 33.6852,23.4599 36.1752,22.8173 "/>
  <polygon fill="white" points="34.2475,26.2711 35.6933,36.0704 37.2997,25.3073 "/>
  <polygon fill="white" points="40.9945,24.1828 40.2716,29.4037 43.7255,23.6205 "/>
  <polygon fill="white" points="40.7536,19.6848 40.8339,21.2912 42.9222,20.9699 "/>
  <polygon fill="#DEDEDD" points="36.1799,17.9665 37.062,14.6746 38.1623,17.5176 41.6371,18.4487 38.0739,20.0421 37.6066,23.2491 36.1716,19.8264 33.105,19.2007 "/>
  <path fill="#DEDEDD" d="M21.7121 19.8435l-4.3694 7.9116c-0.7245,1.3119 -0.1185,2.1772 1.2704,3.0135l17.0068 10.2402c1.0933,0.6583 1.8277,0.4718 2.3811,-0.4844l9.7675 -16.8791c1.691,-2.9222 0.8878,-3.3992 -0.5873,-4.2901l-7.4643 -4.508c-1.4926,-0.8125 -1.5999,-1.0442 -3.1796,-0.5819l-12.0977 3.5409c-1.2287,0.3595 -2.1537,0.9983 -2.7275,2.0373zm-1.2106 -1.4147l-4.8463 8.5896c-1.039,1.8414 -1.1499,3.5175 1.0417,4.7933l18.2401 10.6186c1.6834,0.9799 3.1215,0.9545 4.0914,-0.7064l10.3616 -17.7433c1.4955,-2.5609 1.3685,-4.3582 -0.8498,-5.6542l-8.5313 -4.9843c-1.0807,-0.6314 -2.1968,-0.9602 -3.4188,-0.5748l-13.7409 3.8424c-0.9673,0.2704 -1.7993,0.8473 -2.3477,1.8191z"/>
  <path fill="#C2C1C1" d="M65.851 26.2149l-0.0011 -0.0075 3.174 0c-0.089,1.3155 -0.3122,2.5064 -1.0576,3.6397 -0.4476,0.6805 -1.0044,1.1931 -1.6677,1.538 -0.6634,0.348 -1.5079,0.5189 -2.531,0.5189 -1.2442,0 -2.2618,-0.2113 -3.0477,-0.6307 -0.7886,-0.4226 -1.4706,-1.1652 -2.0434,-2.2278 -0.5702,-1.0626 -0.8579,-2.4205 -0.8579,-4.0765 0,-2.2092 0.5035,-3.9088 1.5106,-5.0926 1.007,-1.1869 2.4324,-1.7804 4.2733,-1.7804 1.4413,0 2.5735,0.3387 3.3994,1.0191 0.8103,0.6676 1.4154,1.6854 1.8154,3.0528l0.0145 -0.004 0.1105 0.8645 -3.1101 0 -0.1144 0.0297c-0.1092,-0.407 -0.2238,-0.7053 -0.3437,-0.8949 -0.1972,-0.3138 -0.4396,-0.5561 -0.7246,-0.727 -0.2878,-0.1709 -0.6075,-0.2548 -0.9618,-0.2548 -0.7992,0 -1.4146,0.3759 -1.8409,1.1278 -0.3224,0.5593 -0.4849,1.4355 -0.4849,2.6318 0,1.4821 0.1945,2.495 0.5781,3.0449 0.3864,0.55 0.9272,0.8234 1.6225,0.8234 0.6767,0 1.1882,-0.2206 1.5345,-0.6649 0.3464,-0.4412 0.5968,-1.0843 0.754,-1.9295zm69.18 -7.8921l4.6515 0 1.7957 8.1189 1.7877 -8.1189 4.6355 0 0 13.3451 -2.8879 0 0 -10.1758 -2.2406 10.1758 -2.6135 0 -2.2325 -10.1758 0 10.1758 -2.8959 0 0 -13.3451zm-10.8187 0l9.4736 0 0 2.8493 -5.9303 0 0 2.1221 5.5014 0 0 2.7219 -5.5014 0 0 2.6286 6.1035 0 0 3.0232 -9.6468 0 0 -13.3451zm-6.8625 8.5104l0 -2.7746 5.4615 0 0 5.6891c-1.0444,0.8296 -1.9689,1.3982 -2.7734,1.6965 -0.8046,0.3014 -1.7584,0.4505 -2.8613,0.4505 -1.3587,0 -2.4643,-0.2703 -3.3195,-0.8109 -0.8579,-0.5376 -1.5212,-1.3423 -1.9901,-2.4112 -0.4716,-1.0688 -0.7087,-2.293 -0.7087,-3.6757 0,-1.4572 0.2584,-2.7249 0.7726,-3.8031 0.5169,-1.0751 1.2708,-1.8922 2.2645,-2.4515 0.7753,-0.4319 1.8196,-0.6463 3.1304,-0.6463 1.2628,0 2.2085,0.1336 2.8373,0.4008 0.6261,0.2672 1.1456,0.6805 1.5612,1.2429 0.413,0.5593 0.7246,1.2708 0.9324,2.1346l-3.4101 0.7084c-0.1412,-0.5033 -0.381,-0.8886 -0.7166,-1.1559 -0.3331,-0.2672 -0.762,-0.4008 -1.2815,-0.4008 -0.7752,0 -1.3933,0.3138 -1.8542,0.9415 -0.4609,0.6307 -0.6927,1.6219 -0.6927,2.9828 0,1.4448 0.2344,2.4764 0.7007,3.0947 0.4635,0.6183 1.1136,0.929 1.9475,0.929 0.3943,0 0.7726,-0.0683 1.1295,-0.2019 0.3597,-0.1337 0.7726,-0.3605 1.2336,-0.6805l0 -1.2584 -2.3631 0zm-17.2207 0.4195l3.3648 -0.2455c0.0719,0.637 0.2211,1.1217 0.4449,1.4572 0.3624,0.5407 0.8845,0.8079 1.5612,0.8079 0.5035,0 0.8925,-0.1367 1.1669,-0.4132 0.2717,-0.2766 0.4076,-0.5966 0.4076,-0.9602 0,-0.3449 -0.1279,-0.6556 -0.389,-0.929 -0.2611,-0.2734 -0.8631,-0.5313 -1.8116,-0.7736 -1.5505,-0.4071 -2.6562,-0.9446 -3.3168,-1.6188 -0.666,-0.6743 -0.999,-1.5319 -0.999,-2.5758 0,-0.6867 0.1704,-1.3361 0.5114,-1.9451 0.3411,-0.609 0.8525,-1.0875 1.5372,-1.4386 0.6847,-0.348 1.6225,-0.522 2.8134,-0.522 1.4626,0 2.5788,0.3169 3.3461,0.9508 0.7673,0.6338 1.2229,1.6437 1.3694,3.0263l-3.3329 0.2268c-0.0879,-0.5996 -0.2743,-1.0377 -0.5594,-1.3112 -0.2824,-0.2703 -0.6741,-0.407 -1.1722,-0.407 -0.413,0 -0.722,0.0994 -0.9298,0.3045 -0.2078,0.202 -0.3117,0.4505 -0.3117,0.7426 0,0.2113 0.0853,0.4008 0.2557,0.5717 0.1679,0.1771 0.5622,0.3387 1.1882,0.4909 1.5453,0.3884 2.6509,0.783 3.3196,1.1808 0.6686,0.3977 1.1562,0.8886 1.4599,1.4789 0.3037,0.5873 0.4583,1.246 0.4583,1.9761 0,0.8545 -0.2052,1.6437 -0.6101,2.3645 -0.405,0.724 -0.9725,1.2709 -1.7024,1.6437 -0.7273,0.3729 -1.6465,0.5593 -2.7547,0.5593 -1.9449,0 -3.2929,-0.435 -4.0416,-1.3112 -0.7512,-0.8731 -1.1748,-1.9823 -1.2734,-3.3308zm-11.983 -8.9299l3.3036 0 4.3079 7.3826 0 -7.3826 3.3328 0 0 13.3451 -3.3328 0 -4.2866 -7.3266 0 7.3266 -3.3249 0 0 -13.3451zm-5.4105 0l3.5433 0 0 13.3451 -3.5433 0 0 -13.3451zm-13.2084 6.6803c0,-2.1781 0.5221,-3.8745 1.5612,-5.0863 1.0416,-1.2149 2.4909,-1.8208 4.3478,-1.8208 1.9049,0 3.3728,0.5966 4.4038,1.7897 1.0284,1.19 1.5453,2.8616 1.5453,5.0087 0,1.5598 -0.2265,2.8399 -0.6767,3.8373 -0.4503,0.9974 -1.1004,1.7741 -1.9502,2.3303 -0.8525,0.5561 -1.9102,0.8327 -3.181,0.8327 -1.2894,0 -2.3577,-0.2392 -3.2049,-0.7177 -0.8446,-0.4817 -1.5292,-1.2398 -2.0568,-2.2775 -0.5248,-1.0378 -0.7885,-2.3366 -0.7885,-3.8964zm3.538 0.0187c0,1.3485 0.2131,2.3148 0.642,2.9051 0.4289,0.5873 1.015,0.8824 1.753,0.8824 0.7593,0 1.3481,-0.2889 1.7637,-0.8638 0.4156,-0.5779 0.626,-1.6126 0.626,-3.1039 0,-1.2584 -0.2185,-2.175 -0.6527,-2.756 -0.4343,-0.578 -1.023,-0.8669 -1.769,-0.8669 -0.7113,0 -1.2841,0.292 -1.7157,0.8824 -0.4316,0.5872 -0.6473,1.5628 -0.6473,2.9207z"/>
 </g>
</svg>
