<?xml version="1.0" encoding="UTF-8"?>
<!DOCTYPE svg PUBLIC "-//W3C//DTD SVG 1.1//EN" "http://www.w3.org/Graphics/SVG/1.1/DTD/svg11.dtd">
<!-- Creator: CorelDRAW -->
<svg xmlns="http://www.w3.org/2000/svg" xml:space="preserve" width="160px" height="50px" shape-rendering="geometricPrecision" text-rendering="geometricPrecision" image-rendering="optimizeQuality" fill-rule="evenodd" clip-rule="evenodd"
viewBox="0 0 160 50">
 <g id="MasterLayer_x0020_1">
  <metadata id="CorelCorpID_0Corel-Layer"/>
  <g id="_191704512">
   <path id="_183094832" fill="#717477" d="M31.1461 13.1004c-3.1363,1.7714 -4.4186,4.2159 -4.4186,7.0427l0 10.3224c0,2.3841 0.9299,4.5003 3.3702,5.8376l9.5757 5.2476c2.7832,1.5252 5.2713,1.4735 7.9072,0l9.8451 -5.504c1.9022,-1.0633 3.0233,-2.9247 3.0233,-5.2713l0 -12.016c0,-1.9995 -1.1255,-3.9917 -3.1783,-5.1161l-9.7676 -5.349c-2.564,-1.4041 -5.7219,-1.2004 -7.9847,0.0775l-8.3723 4.7289 0 -0.0003zm3.3424 20.8051l6.1106 -0.0228c5.1279,-0.0192 8.2139,-2.8514 8.3204,-7.7691l-3.9142 0c-0.3476,2.7779 -1.5564,4.07 -4.5943,4.0644l-1.9222 -0.0035 0 -4.0609 -4.0003 0 0 7.7919zm3.6198 -18.053l6.1104 0.0228c5.3725,0.0202 8.5039,3.1279 8.3155,8.4867l-3.8421 -0.0283c-0.2341,-3.2542 -1.3825,-4.7597 -4.6615,-4.7537l-1.922 0.0035 0 4.7785 -4.0003 0 0.0002 -8.5095 -0.0002 0z"/>
   <path id="_183490352" fill="#AAABAE" fill-rule="nonzero" d="M102.351 26.8468c-0.0824,-0.6898 -0.2947,-1.1837 -0.6376,-1.4793 -0.8137,-0.7009 -2.2236,-0.5733 -2.9215,0.2276 -0.2466,0.2807 -0.4046,0.6958 -0.4698,1.2517l4.0286 0 0.0003 0zm4.3314 2.1134l-8.4457 0c-0.0239,2.005 2.5582,3.1277 4.0219,1.0276l4.0092 0.0097c-0.3694,3.1372 -3.3138,4.0467 -5.9817,4.0467 -3.7539,0 -6.3358,-2.1772 -6.3358,-6.1923 0,-3.7256 2.4795,-6.2383 6.2123,-6.2383 2.4271,0 4.6795,0.6923 5.8059,3.0119 0.6584,1.351 0.7139,2.863 0.7139,4.3347zm-28.215 -9.1517l0 10.4818 1.9999 0c4.8611,0 5.8149,-1.9791 5.9501,-5.1829 0.1332,-3.1639 -1.1892,-5.2989 -5.9134,-5.2989l-2.0366 0zm-4.6228 -3.9068l8.0422 0c1.692,0 3.0534,0.2432 4.1084,0.6666 4.7952,1.925 6.0659,8.7806 4.1896,12.9032 -1.4644,3.2182 -5.4557,4.6467 -8.9667,4.6152l-7.3735 -0.0659 0 -18.1193 0 0.0002zm54.9042 5.224l4.2994 0 0 12.9303 -4.2994 0 0 -12.9303zm2.1837 -5.3571c1.2921,0 2.3403,1.0479 2.3403,2.3402 0,1.2921 -1.048,2.3403 -2.3403,2.3403 -1.2923,0 -2.3403,-1.048 -2.3403,-2.3403 0,-1.2923 1.048,-2.3402 2.3403,-2.3402zm-17.7536 0.1271l12.2271 0 0 3.9026 -7.6215 0 0 3.702 7.0988 0 0 3.5695 -7.0988 0 0 6.9865 -4.6056 0 0 -18.1604 0 -0.0002zm-5.0978 15.8154l2.5536 0 0 2.3927 -2.5536 0 0 -2.3927z"/>
  </g>
 </g>
</svg>
