<?xml version="1.0" encoding="UTF-8"?>
<!DOCTYPE svg PUBLIC "-//W3C//DTD SVG 1.1//EN" "http://www.w3.org/Graphics/SVG/1.1/DTD/svg11.dtd">
<!-- Creator: CorelDRAW -->
<svg xmlns="http://www.w3.org/2000/svg" xml:space="preserve" width="160px" height="50px" shape-rendering="geometricPrecision" text-rendering="geometricPrecision" image-rendering="optimizeQuality" fill-rule="evenodd" clip-rule="evenodd"
viewBox="0 0 160 50">
 <g id="MasterLayer_x0020_1">
  <metadata id="CorelCorpID_0Corel-Layer"/>
  <g id="_188206592">
   <g id="_189378456">
    <path id="_189378672" fill="#717477" d="M13.2371 33.4288l0 -26.8078c1.3794,4.2502 2.6028,8.5543 4.1383,12.7508 0.5641,1.5418 1.0755,2.9455 1.1524,4.4325 0.1082,2.0954 0,4.1965 0,6.2949 -0.0492,1.3836 0.0635,2.8142 1.0638,3.5456 4.2509,3.108 3.4529,6.1236 1.6842,9.4882 -4.8202,-1.0331 -8.0389,-5.074 -8.0389,-9.7038l0.0002 -0.0004z"/>
    <path id="_189377304" fill="#95979A" d="M13.2371 6.621c2.6795,3.7479 5.2224,7.5974 8.039,11.2435 1.2559,1.6261 1.8509,3.1761 2.0389,4.8758 0.127,1.1486 0.1814,2.3048 0.266,3.4574 0.1502,2.0488 1.0032,3.4898 2.3937,4.3439 0.8464,0.52 1.8321,0.7682 2.7482,1.1524 1.3739,0.7686 2.7547,1.3944 3.0141,4.5212 0.1991,2.3997 0.5299,4.7737 0.796,7.1673l0.5453 -0.0022c5.1159,0 8.6279,-4.0668 9.4135,-8.6455 -0.7027,-1.1749 -1.4839,-2.3359 -2.0669,-3.5727 -0.7402,-1.5703 -1.7751,-2.012 -2.9255,-2.3936 -1.198,-0.3974 -2.4275,-0.695 -3.6346,-1.0638 -1.8915,-0.5777 -3.6738,-1.6728 -4.0779,-3.7234 -0.3749,-1.9034 -1.5121,-3.4433 -2.9255,-4.7872 -4.4784,-4.2582 -9.0826,-8.3824 -13.6238,-12.5733l-0.0005 0.0002z"/>
    <path id="_189378144" fill="#B5B7BA" d="M39.1612 25.0519c2.9696,2.5034 3.9214,6.2381 3.3273,9.6838 -0.7091,-1.1809 -1.4775,-2.3297 -2.0638,-3.5736 -0.7402,-1.5703 -1.7751,-2.012 -2.9255,-2.3936 -1.198,-0.3974 -2.4276,-0.695 -3.6346,-1.0638 -1.8915,-0.5777 -3.6739,-1.6728 -4.0779,-3.7234 -0.3749,-1.9034 -1.5121,-3.4433 -2.9255,-4.7872 -4.4784,-4.2582 -9.0826,-8.3824 -13.6239,-12.5733l25.9241 18.4309 -0.0002 0.0002z"/>
    <path id="_189380448" fill="#828588" d="M21.2522 43.1275c1.7923,-3.3622 2.5903,-6.3752 -1.6606,-9.4832 -1.0003,-0.7313 -1.113,-2.1619 -1.0638,-3.5455 0,-2.0983 0.1082,-4.1996 0,-6.2949 -0.0769,-1.487 -0.5883,-2.8907 -1.1524,-4.4326 -1.5355,-4.1962 -2.7589,-8.5005 -4.1383,-12.7507 2.6795,3.7479 5.2224,7.5974 8.039,11.2434 1.2559,1.6261 1.8509,3.1762 2.0389,4.8759 0.127,1.1486 0.1814,2.3047 0.266,3.4573 0.1502,2.0489 1.0032,3.4898 2.3937,4.344 0.8464,0.52 1.8321,0.7682 2.7482,1.1524 1.3739,0.7686 2.7547,1.3944 3.0141,4.5211 0.1991,2.4 0.5319,4.7872 0.7819,7.1729l-8.8285 -0.0077c-0.8592,0 -1.6819,-0.0886 -2.4377,-0.2531l-0.0005 0.0007z"/>
    <path id="_189381720" fill="#B5B7BA" d="M39.1612 25.0519c7.5965,-6.9077 1.7101,-18.4309 -5.851,-18.4309l-20.0731 0 25.9241 18.4309z"/>
    <path id="_189375456" fill="#828588" d="M39.1643 25.0592l-25.9274 -18.4382c1.1522,-0.0928 2.4053,0.5857 3.3582,1.1907 1.8961,1.204 3.3657,0.3812 5.0354,0.5674 3.4106,0.3805 4.5503,2.0672 6.4715,2.8369 3.3608,1.3461 7.168,1.4198 10.4607,2.9255 3.7909,1.7334 2.2874,7.2317 0.6016,10.9179l0 -0.0002z"/>
   </g>
   <g id="_189376272">
    <path id="_189378360" fill="#95979A" fill-rule="nonzero" d="M125.923 29.0812l-8.3772 -0.0017c0.5613,2.1998 4.2588,3.3409 5.7695,0.9179l1.9085 1.3087c-0.346,0.5444 -0.811,1.022 -1.3952,1.4285 -0.9372,0.6531 -2.1113,0.9783 -3.5241,0.9783 -1.694,0 -3.0574,-0.5171 -4.0905,-1.5519 -1.0329,-1.0309 -1.5493,-2.4291 -1.5493,-4.1944 0,-1.6756 0.5205,-3.0626 1.5618,-4.1608 1.0411,-1.0982 2.4542,-1.6494 4.2349,-1.6494 3.9046,0 5.5735,3.0697 5.4703,6.6362l-0.0085 0.2889 -0.0002 -0.0003zm-2.7249 -2.0992c-0.0084,-0.7431 -0.2784,-1.3502 -0.8098,-1.8213 -0.5312,-0.4675 -1.1848,-0.7047 -1.9693,-0.7047 -0.7756,0 -1.421,0.2196 -1.9394,0.6594 -0.5188,0.4398 -0.8226,1.0606 -0.9152,1.8666l5.6337 0zm7.7646 6.5067l-2.9785 0 0 -11.0574 2.693 0 0 2.3777c0.4415,-1.2195 1.9013,-2.7432 3.3009,-2.7432 0.0981,0 0.2276,0.0038 0.3925,0.0115l0 3.1218c-1.516,0 -2.1774,0.4161 -2.6678,1.252 -0.4903,0.8359 -0.7401,1.6452 -0.7401,2.4271l0 4.6103 0 0.0002zm-54.6938 -16.0865c0.9883,0 1.7897,0.8014 1.7897,1.7897 0,0.9882 -0.8014,1.7896 -1.7897,1.7896 -0.9883,0 -1.7897,-0.8014 -1.7897,-1.7896 0,-0.9883 0.8014,-1.7897 1.7897,-1.7897zm-14.7711 15.8698l0 -15.4062 5.7745 0c1.0182,0 1.8589,0.1039 2.5299,0.3159 0.671,0.2119 1.2522,0.6521 1.7393,1.3214 0.4887,0.6715 0.7365,1.4563 0.7365,2.3577 0,0.8516 -0.0123,1.5925 -0.5068,2.2191 -0.4962,0.6288 -0.5735,1.0285 -1.4487,1.2019 1.0873,0.1887 1.2939,0.629 1.8538,1.3214 0.5584,0.6905 0.8368,1.5103 0.8368,2.458 0,1.1905 -0.3893,2.1882 -1.1683,2.9973 -0.7829,0.8092 -1.9823,1.2135 -3.602,1.2135l-6.7447 0 -0.0003 0zm2.9004 -8.9378l3.0014 0c0.6148,0 1.0994,-0.1842 1.4548,-0.5497 0.3585,-0.3688 0.5357,-0.8368 0.5357,-1.4036 0,-0.625 -0.2046,-1.0859 -0.6107,-1.383 -0.4064,-0.297 -0.8845,-0.4474 -1.4309,-0.4474l-2.95 0 0 3.7837 -0.0003 0zm0 6.4388l3.2707 0c0.6913,0 1.2386,-0.1801 1.6383,-0.5475 0.4005,-0.3638 0.6003,-0.8583 0.6003,-1.4801 0,-0.5934 -0.2037,-1.0775 -0.6107,-1.4589 -0.4072,-0.3781 -0.9472,-0.5688 -1.6177,-0.5688l-3.2811 0 0 4.0553 0.0002 0zm13.3429 2.499l-2.9786 0 0 -10.9533 2.9786 0 0 10.9533zm9.1279 -2.281l0 2.3012c-0.8872,0.1611 -1.5739,0.2397 -2.0599,0.2397 -0.8026,0 -1.2496,-0.1297 -1.8242,-0.3969 -0.576,-0.2681 -0.9943,-0.6326 -1.2619,-1.097 -0.2674,-0.4643 -0.3968,-1.1792 -0.3968,-2.145l0 -4.8728 -1.8902 0 0 -2.8057 1.8193 0 0.0231 -2.0867 2.6924 -0.9832 0 3.0699 2.653 0 0 2.8057 -2.653 0 0 4.1924c0,0.6925 0.1516,1.1681 0.4503,1.4189 0.3031,0.2543 0.8694,0.378 1.7034,0.378 0.2363,0 0.4861,-0.0075 0.7445,-0.0188l0 0.0003zm12.6965 7.0352l-2.7107 0 0 -6.0713c-1.3979,2.9662 -6.2232,2.0399 -7.8123,-0.2163 -0.833,-1.1831 -1.2486,-2.558 -1.2486,-4.1221 0,-3.182 2.3058,-5.5517 5.5112,-5.5517 1.6142,0 2.6007,0.6126 3.5639,1.8299l-0.0212 -1.591 2.7174 0 0 15.7225 0.0003 0zm-5.6133 -13.3354c-1.0263,-0.1504 -1.8456,0.2831 -2.3999,0.8434 -0.5542,0.5632 -0.8337,1.3311 -0.8337,2.3001 0,0.9976 0.2845,1.7715 0.853,2.3253 0.5688,0.5507 1.2916,0.8275 2.1687,0.8275 0.8,0 1.4941,-0.2329 2.0771,-0.7047 0.5829,-0.469 0.9029,-1.1144 0.8723,-1.9322 -0.0468,-1.2438 0.0617,-3.2493 -2.7375,-3.6596l0 0.0002zm18.5622 8.5903l-2.65 0 0 -1.9849c-0.995,4.157 -7.7406,2.9542 -7.7406,-1.3051l0 -7.6727 2.9146 0 0 6.4096c0,2.2495 2.2268,3.0046 3.6611,1.9298 0.642,-0.4808 0.9644,-1.5043 0.9644,-3.075l0 -5.2646 2.8505 0 0 10.9625 0 0.0004z"/>
    <path id="_189379392" fill="#95979A" fill-rule="nonzero" d="M146.763 22.0901l-4.7065 12.2355c-0.9282,2.4136 -2.9669,3.4448 -5.3579,3.2835l0 -2.5735c1.8637,-0.2252 3.5957,-0.9154 2.7466,-2.8678l-4.3839 -10.0777 3.1562 0 2.9831 7.4422 2.546 -7.5656 3.0164 0.1234z"/>
   </g>
  </g>
 </g>
</svg>
