<?xml version="1.0" encoding="UTF-8"?>
<!DOCTYPE svg PUBLIC "-//W3C//DTD SVG 1.1//EN" "http://www.w3.org/Graphics/SVG/1.1/DTD/svg11.dtd">
<!-- Creator: CorelDRAW -->
<svg xmlns="http://www.w3.org/2000/svg" xml:space="preserve" width="160px" height="50px" shape-rendering="geometricPrecision" text-rendering="geometricPrecision" image-rendering="optimizeQuality" fill-rule="evenodd" clip-rule="evenodd"
viewBox="0 0 160 50">
 <g id="Layer_x0020_1">
  <metadata id="CorelCorpID_0Corel-Layer"/>
  <path fill="#AAA9A9" d="M10.0099 36.9129c0,1.3158 -1.0667,2.3826 -2.3825,2.3826 -1.3159,0 -2.3826,-1.0668 -2.3826,-2.3826l0 -18.1076c0,-1.3159 1.0667,-2.3826 2.3826,-2.3826 1.3158,0 2.3825,1.0667 2.3825,2.3826l0 18.1076z"/>
  <path fill="#AAA9A9" d="M23.8289 13.0871c0,-1.3158 1.0667,-2.3826 2.3825,-2.3826 1.3159,0 2.3827,1.0668 2.3827,2.3826l0 18.1076c0,1.3159 -1.0668,2.3826 -2.3827,2.3826 -1.3158,0 -2.3825,-1.0667 -2.3825,-2.3826l0 -18.1076z"/>
  <path fill="#838281" d="M16.2047 25.4765c0,1.3159 -1.0667,2.3827 -2.3827,2.3827 -1.3158,0 -2.3825,-1.0668 -2.3825,-2.3827l0 -6.6712c0,-1.3159 1.0667,-2.3825 2.3825,-2.3825 1.316,0 2.3827,1.0666 2.3827,2.3825l0 6.6712z"/>
  <path fill="#838281" d="M17.6342 24.5235c0,-1.3158 1.0667,-2.3825 2.3826,-2.3825 1.3159,0 2.3826,1.0667 2.3826,2.3825l0 6.6712c0,1.3159 -1.0667,2.3826 -2.3826,2.3826 -1.3159,0 -2.3826,-1.0667 -2.3826,-2.3826l0 -6.6712z"/>
  <path fill="#969594" d="M36.545 20.2751l0 -2.0929 9.8639 0 0 2.0929 -3.6882 0 0 10.1727 -2.4875 0 0 -10.1727 -3.6882 0zm11.6311 1.3724l0 1.4066 0.0514 0c0.2745,-0.5146 0.5776,-0.892 0.9093,-1.1322 0.3315,-0.2516 0.749,-0.3774 1.2522,-0.3774 0.2402,0 0.4231,0.0229 0.549,0.0687l0 2.0413 -0.0515 0c-0.7891,-0.08 -1.4238,0.0915 -1.9041,0.5147 -0.4804,0.4231 -0.7206,1.0864 -0.7206,1.9899l0 4.2887 -2.333 0 0 -8.8003 2.2473 0zm8.7134 8.8003c-0.1144,-0.1487 -0.2058,-0.4746 -0.2745,-0.9778l-0.0343 0c-0.2515,0.3773 -0.5718,0.669 -0.9606,0.8748 -0.3889,0.2059 -0.9321,0.3088 -1.6297,0.3088 -0.9263,0 -1.6697,-0.2345 -2.2301,-0.7033 -0.5604,-0.4689 -0.8405,-1.1322 -0.8405,-1.99 0,-0.892 0.3087,-1.5439 0.9263,-1.9556 0.6176,-0.4231 1.4867,-0.7147 2.6075,-0.8749 0.8234,-0.1144 1.3838,-0.2287 1.6812,-0.3431 0.2973,-0.1258 0.4459,-0.343 0.4459,-0.6519 0,-0.3202 -0.1258,-0.5717 -0.3773,-0.7547 -0.2517,-0.1944 -0.6177,-0.2917 -1.0979,-0.2917 -1.0637,0 -1.6298,0.4118 -1.6983,1.2351l-2.0757 0c0.0342,-0.8348 0.3716,-1.5266 1.0121,-2.0756 0.6404,-0.549 1.5668,-0.8234 2.779,-0.8234 2.4703,0 3.7054,1.0807 3.7054,3.2421l0 4.4774c0,0.6633 0.103,1.0693 0.3088,1.218l0 0.0858 -2.2473 0zm-2.333 -1.4239c0.6404,0 1.1436,-0.1658 1.5096,-0.4975 0.3774,-0.3316 0.5661,-0.7262 0.5661,-1.1836l0 -1.3209c-0.2516,0.1487 -0.7948,0.3202 -1.6297,0.5146 -0.6633,0.1487 -1.1322,0.3202 -1.4066,0.5146 -0.2746,0.183 -0.4117,0.469 -0.4117,0.8578 0,0.7433 0.4574,1.115 1.3723,1.115zm8.7053 1.6812c-1.1094,0 -2.0071,-0.4174 -2.6933,-1.2523 -0.6862,-0.8463 -1.0293,-1.9785 -1.0293,-3.3966 0,-1.3724 0.3488,-2.4874 1.0465,-3.3452 0.709,-0.8691 1.6125,-1.3037 2.7104,-1.3037 1.0979,0 1.927,0.4346 2.4874,1.3037l0.0515 0 0 -4.5288 2.333 0 0 12.2656 -2.2473 0 0 -1.1494 -0.0343 0c-0.5717,0.9378 -1.4467,1.4067 -2.6246,1.4067zm0.5146 -1.9556c0.6862,0 1.2066,-0.2345 1.5611,-0.7034 0.366,-0.4689 0.5489,-1.1151 0.5489,-1.9385 0,-1.8755 -0.6804,-2.8133 -2.0414,-2.8133 -0.6289,0 -1.1093,0.2516 -1.4409,0.7548 -0.3317,0.5032 -0.4975,1.1722 -0.4975,2.0071 0,0.8577 0.1601,1.521 0.4803,1.9899 0.3317,0.4689 0.7948,0.7034 1.3895,0.7034zm5.565 1.6983l0 -8.8003 2.3331 0 0 8.8003 -2.3331 0zm0 -10.1727l0 -2.0929 2.3331 0 0 2.0929 -2.3331 0zm5.7749 1.3724l0 1.2008 0.0514 0c0.6061,-0.9607 1.4753,-1.441 2.6075,-1.441 0.9035,0 1.6353,0.3087 2.1956,0.9264 0.5604,0.6061 0.8405,1.3952 0.8405,2.3673l0 5.7468 -2.3327 0 0 -5.4037c0,-0.4803 -0.1373,-0.8692 -0.4118,-1.1665 -0.263,-0.2974 -0.6347,-0.4461 -1.115,-0.4461 -0.5147,0 -0.9435,0.1887 -1.2866,0.5662 -0.3316,0.3773 -0.4975,0.8634 -0.4975,1.4581l0 4.992 -2.333 0 0 -8.8003 2.2816 0zm10.6669 11.8023c-1.1889,0 -2.1442,-0.2402 -2.8647,-0.7205 -0.7086,-0.4803 -1.1266,-1.1551 -1.2518,-2.0242l2.3154 0c0.229,0.6519 0.8175,0.9778 1.767,0.9778 1.3038,0 1.956,-0.6119 1.956,-1.8356l0 -0.9606 -0.0519 0c-0.6063,0.6861 -1.3719,1.0293 -2.2984,1.0293 -1.0406,0 -1.9501,-0.3832 -2.7276,-1.1494 -0.7664,-0.7663 -1.1496,-1.784 -1.1496,-3.0535 0,-1.3037 0.3543,-2.3444 1.0637,-3.1222 0.7093,-0.789 1.6239,-1.1836 2.7446,-1.1836 1.0636,0 1.8759,0.3889 2.4363,1.1665l0.0341 0 0 -0.9263 2.2472 0 0 8.1312c0,1.1436 -0.3491,2.0357 -1.0465,2.6761 -0.7093,0.6634 -1.767,0.995 -3.1738,0.995zm-0.0341 -5.4037c0.6975,0 1.2178,-0.223 1.561,-0.669 0.3431,-0.4461 0.5151,-1.0179 0.5151,-1.7155 0,-0.6862 -0.1831,-1.2522 -0.5492,-1.6983 -0.3543,-0.4574 -0.8695,-0.6862 -1.5439,-0.6862 -0.5945,0 -1.0755,0.2173 -1.4409,0.6519 -0.355,0.4346 -0.5322,1.0179 -0.5322,1.7498 0,0.7434 0.1772,1.3266 0.5322,1.7497 0.3654,0.4117 0.8516,0.6176 1.4579,0.6176zm12.8922 2.6761c-1.658,0 -2.9447,-0.3488 -3.8593,-1.0464 -0.9154,-0.7091 -1.3957,-1.7155 -1.4416,-3.0192l2.4362 0c0.0801,0.7319 0.3373,1.258 0.7724,1.5782 0.4454,0.3203 1.1088,0.4804 1.9893,0.4804 0.6982,0 1.2697,-0.1258 1.7158,-0.3775 0.4462,-0.263 0.6686,-0.6632 0.6686,-1.2008 0,-0.1944 -0.0282,-0.366 -0.0852,-0.5146 -0.046,-0.1601 -0.149,-0.2973 -0.3091,-0.4117 -0.1601,-0.1258 -0.2972,-0.223 -0.4114,-0.2916 -0.1149,-0.0801 -0.3261,-0.1601 -0.6352,-0.2402 -0.3083,-0.0915 -0.5432,-0.1544 -0.7033,-0.1887 -0.1601,-0.0457 -0.4574,-0.1201 -0.8917,-0.223 -0.5262,-0.1258 -0.9606,-0.2345 -1.3038,-0.3259 -0.332,-0.0915 -0.7033,-0.2345 -1.1154,-0.4289 -0.4003,-0.1945 -0.7205,-0.406 -0.9606,-0.6347 -0.2283,-0.2402 -0.4232,-0.549 -0.5833,-0.9264 -0.1601,-0.3888 -0.2402,-0.8291 -0.2402,-1.3209 0,-1.1779 0.4292,-2.0814 1.2867,-2.7104 0.8694,-0.6405 2.0072,-0.9607 3.4139,-0.9607 1.3949,0 2.5104,0.3317 3.345,0.995 0.8353,0.6633 1.2986,1.6068 1.3898,2.8305l-2.3845 0c-0.0689,-0.5947 -0.3202,-1.0521 -0.7552,-1.3724 -0.4225,-0.3202 -0.9606,-0.4803 -1.6121,-0.4803 -0.6745,0 -1.2126,0.1315 -1.6128,0.3946 -0.4003,0.263 -0.6004,0.6118 -0.6004,1.0463 0,0.469 0.1949,0.8121 0.5833,1.0293 0.4003,0.2174 1.0977,0.4347 2.0931,0.6519 0.5945,0.1259 1.0807,0.2459 1.4579,0.3603 0.3773,0.1029 0.7835,0.2573 1.2178,0.4632 0.4462,0.1944 0.7894,0.4117 1.0295,0.6519 0.252,0.2401 0.4573,0.5603 0.6174,0.9606 0.172,0.3888 0.2572,0.8406 0.2572,1.3552 0,1.2123 -0.4403,2.1614 -1.3208,2.8476 -0.8805,0.6862 -2.0301,1.0293 -3.448,1.0293zm5.1246 -7.5308l0 -1.5439 1.2178 0 0 -2.7448 2.2813 0 0 2.7448 1.5098 0 0 1.5439 -1.5098 0 0 4.666c0,0.5833 0.2921,0.8749 0.8754,0.8749l0.6863 -0.0171 0 1.7154c-0.355,0.0228 -0.8405,0.0343 -1.4586,0.0343 -0.6745,0 -1.2408,-0.1601 -1.6981,-0.4803 -0.4573,-0.3317 -0.6863,-0.8749 -0.6863,-1.6297l0 -5.1635 -1.2178 0zm8.1145 -1.5439l0 1.4066 0.0519 0c0.2742,-0.5146 0.5774,-0.892 0.9087,-1.1322 0.3321,-0.2516 0.7493,-0.3774 1.2526,-0.3774 0.2402,0 0.4232,0.0229 0.5485,0.0687l0 2.0413 -0.0512 0c-0.7893,-0.08 -1.4238,0.0915 -1.9041,0.5147 -0.4803,0.4231 -0.7204,1.0864 -0.7204,1.9899l0 4.2887 -2.3333 0 0 -8.8003 2.2473 0zm8.7134 8.8003c-0.1141,-0.1487 -0.206,-0.4746 -0.2742,-0.9778l-0.0341 0c-0.252,0.3773 -0.5722,0.669 -0.9613,0.8748 -0.3884,0.2059 -0.9317,0.3088 -1.6292,0.3088 -0.9265,0 -1.6699,-0.2345 -2.2302,-0.7033 -0.5603,-0.4689 -0.8405,-1.1322 -0.8405,-1.99 0,-0.892 0.3083,-1.5439 0.9265,-1.9556 0.6174,-0.4231 1.4868,-0.7147 2.6075,-0.8749 0.8234,-0.1144 1.3838,-0.2287 1.681,-0.3431 0.2972,-0.1258 0.4462,-0.343 0.4462,-0.6519 0,-0.3202 -0.126,-0.5717 -0.378,-0.7547 -0.2513,-0.1944 -0.6174,-0.2917 -1.0977,-0.2917 -1.0636,0 -1.6299,0.4118 -1.6981,1.2351l-2.076 0c0.0348,-0.8348 0.372,-1.5266 1.0124,-2.0756 0.6404,-0.549 1.5669,-0.8234 2.7787,-0.8234 2.4704,0 3.706,1.0807 3.706,3.2421l0 4.4774c0,0.6633 0.1022,1.0693 0.3083,1.218l0 0.0858 -2.2473 0zm-2.3325 -1.4239c0.6404,0 1.1429,-0.1658 1.509,-0.4975 0.3773,-0.3316 0.5663,-0.7262 0.5663,-1.1836l0 -1.3209c-0.2512,0.1487 -0.7945,0.3202 -1.6298,0.5146 -0.6634,0.1487 -1.1318,0.3202 -1.4068,0.5146 -0.2743,0.183 -0.4114,0.469 -0.4114,0.8578 0,0.7433 0.4573,1.115 1.3727,1.115zm4.7288 -5.8325l0 -1.5439 1.2185 0 0 -2.7448 2.2814 0 0 2.7448 1.5098 0 0 1.5439 -1.5098 0 0 4.666c0,0.5833 0.2913,0.8749 0.8746,0.8749l0.6863 -0.0171 0 1.7154c-0.3543,0.0228 -0.8405,0.0343 -1.4579,0.0343 -0.6752,0 -1.2408,-0.1601 -1.6988,-0.4803 -0.4573,-0.3317 -0.6856,-0.8749 -0.6856,-1.6297l0 -5.1635 -1.2185 0zm9.9178 7.5137c-1.4179,0 -2.5326,-0.4346 -3.345,-1.3037 -0.8116,-0.8807 -1.2177,-2.0014 -1.2177,-3.3624 0,-1.3151 0.4061,-2.4131 1.2177,-3.2937 0.8124,-0.892 1.853,-1.338 3.1226,-1.338 1.3839,0 2.4526,0.4803 3.2079,1.441 0.7545,0.9606 1.1318,2.2473 1.1318,3.8598l-6.3816 0c0.0919,0.6976 0.3261,1.2408 0.7034,1.6296 0.3772,0.3775 0.8924,0.5662 1.5439,0.5662 0.8583,0 1.4238,-0.3603 1.6987,-1.0808l2.2985 0c-0.1712,0.8234 -0.6063,1.5096 -1.3038,2.0585 -0.6974,0.549 -1.5898,0.8235 -2.6764,0.8235zm-0.1883 -7.4966c-1.1325,0 -1.8129,0.6291 -2.0412,1.8871l3.9112 0c-0.0348,-0.5605 -0.2231,-1.0122 -0.5662,-1.3553 -0.3432,-0.3545 -0.7775,-0.5318 -1.3038,-0.5318zm8.9195 10.2413c-1.1896,0 -2.1443,-0.2402 -2.8647,-0.7205 -0.7093,-0.4803 -1.1266,-1.1551 -1.2526,-2.0242l2.3162 0c0.2283,0.6519 0.8175,0.9778 1.767,0.9778 1.3038,0 1.9553,-0.6119 1.9553,-1.8356l0 -0.9606 -0.0512 0c-0.6063,0.6861 -1.3727,1.0293 -2.2992,1.0293 -1.0406,0 -1.95,-0.3832 -2.7275,-1.1494 -0.7664,-0.7663 -1.1489,-1.784 -1.1489,-3.0535 0,-1.3037 0.3543,-2.3444 1.0636,-3.1222 0.7086,-0.789 1.624,-1.1836 2.7447,-1.1836 1.0636,0 1.8752,0.3889 2.4355,1.1665l0.0348 0 0 -0.9263 2.2466 0 0 8.1312c0,1.1436 -0.3484,2.0357 -1.0458,2.6761 -0.7093,0.6634 -1.767,0.995 -3.1738,0.995zm-0.0341 -5.4037c0.6975,0 1.2178,-0.223 1.5609,-0.669 0.3432,-0.4461 0.5144,-1.0179 0.5144,-1.7155 0,-0.6862 -0.183,-1.2522 -0.5492,-1.6983 -0.3543,-0.4574 -0.8687,-0.6862 -1.5439,-0.6862 -0.5944,0 -1.0747,0.2173 -1.4408,0.6519 -0.3544,0.4346 -0.5315,1.0179 -0.5315,1.7498 0,0.7434 0.1771,1.3266 0.5315,1.7497 0.3661,0.4117 0.8523,0.6176 1.4586,0.6176zm5.6019 5.2836l0 -1.8355 0.8235 0c0.8694,0 1.3037,-0.4003 1.3037,-1.2008 0,-0.3889 -0.2231,-1.1837 -0.6693,-2.3845l-2.3674 -6.2614 2.4534 0 1.3037 3.9627 0.5663 1.9213 0.0341 0c0.1601,-0.7434 0.332,-1.3838 0.5144,-1.9213l1.2355 -3.9627 2.3503 0 -3.0707 9.0233c-0.3432,1.0064 -0.7323,1.6983 -1.1666,2.0757 -0.4233,0.3888 -1.0695,0.5832 -1.9382,0.5832l-1.3727 0z"/>
 </g>
</svg>
