<?xml version="1.0" encoding="UTF-8"?>
<!DOCTYPE svg PUBLIC "-//W3C//DTD SVG 1.1//EN" "http://www.w3.org/Graphics/SVG/1.1/DTD/svg11.dtd">
<!-- Creator: CorelDRAW -->
<svg xmlns="http://www.w3.org/2000/svg" xml:space="preserve" width="160px" height="50px" shape-rendering="geometricPrecision" text-rendering="geometricPrecision" image-rendering="optimizeQuality" fill-rule="evenodd" clip-rule="evenodd"
viewBox="0 0 160 50">
 <g id="MasterLayer_x0020_1">
  <metadata id="CorelCorpID_0Corel-Layer"/>
  <rect fill="none" stroke="#1F1A17" stroke-width="0.0762" width="160" height="50"/>
  <g id="_191487760">
   <path id="_190000544" fill="#717477" d="M45.8705 29.3894c-0.5993,-0.6746 -1.3177,-1.262 -2.1194,-1.7344 0.2819,-0.3414 0.8534,-1.7026 0.9089,-1.9209 0.1706,-0.6827 0.1866,-1.4051 0.0754,-2.0995 -0.4246,-2.6633 -2.8179,-3.8499 -4.8937,-5.124 -1.4924,-0.9168 -2.9768,-2.2465 -3.4809,-3.9809 -0.3213,-1.0994 -0.119,-2.2862 0.4209,-3.2784 0.2778,-0.512 0.6468,-0.9804 1.0834,-1.3653 0.381,-0.3373 0.8573,-0.5437 0.9963,-1.0795 0.508,-1.9568 -3.7348,-1.3892 -4.6954,-1.2265 -3.3061,0.5677 -6.2987,2.4926 -8.7991,4.6477 -1.1271,0.9724 -2.2663,1.925 -3.1434,3.1394 -0.4287,0.5955 -0.7979,1.2384 -1.0479,1.9289 -0.0634,0.1747 -0.4524,2.1631 -0.3532,2.1433 -0.492,0.0874 -0.9683,0.2421 -1.4248,0.4605 -1.8654,0.9008 -3.1315,2.8654 -3.5443,4.8539 -0.3096,1.5003 -0.1191,3.203 0.8177,4.4572 -0.0556,-0.0715 -0.9685,0.6867 -1.0599,0.766 -1.659,1.4526 -2.4885,3.7863 -2.032,5.9574 0.2222,1.0597 0.7422,2.0441 1.4764,2.8417 1.909,2.0719 4.854,2.7864 7.5252,3.2426 4.1674,0.7145 8.5214,0.7343 12.7284,0.3733 4.0564,-0.3455 9.1842,-1.0082 11.514,-4.7827 1.7464,-2.818 1.0398,-5.9813 -0.9526,-8.2198z"/>
   <path id="_190001024" fill="#95979A" d="M42.4572 31.1041c-0.5556,-0.9407 -1.3177,-1.8178 -2.0479,-2.5005 -0.5239,-0.0952 -1.0439,-0.1944 -1.5241,-0.4088 -0.3493,-0.1548 -0.6589,-0.4485 -0.7303,-0.8255 -0.1389,-0.7501 0.5874,-1.1669 1.2462,-1.155 0.4684,0.004 0.7224,0.1389 1.3415,0.3414 0.2104,-0.1826 -0.0277,-1.286 -0.0754,-1.54 -0.3334,-1.8575 -2.0043,-2.9688 -3.318,-4.1396 -1.1391,-1.0161 -2.437,-2.0163 -3.2466,-3.3101 -0.7938,-1.2661 -1.2463,-2.7466 -1.2463,-4.2429 0,-1.2859 0.3374,-2.5599 0.9645,-3.6792 -1.2026,0.2898 -2.3417,0.7779 -3.4133,1.3772 -2.0639,1.9091 -3.5284,4.3421 -4.9215,6.7751 -0.3811,0.6112 -0.5875,1.3375 -0.6192,2.0479 0.004,0 0.0119,0.004 0.0159,0.004 0.6152,0.1587 1.3455,0.381 1.6907,0.9605 0.4604,0.762 -0.3373,1.6114 -1.1232,1.4288 -0.6469,-0.1508 -1.2462,-0.385 -1.8614,-0.5795 -1.663,0.1667 -3.0283,1.54 -3.6157,3.0482 -0.4049,1.1391 -0.2858,2.3417 0.3651,3.3458 0.2381,-0.0079 0.4723,0 0.7105,0.0159 0.6985,0.0556 1.5717,0.1985 2.1869,0.5477 0.5437,0.3096 0.8731,0.9566 0.4643,1.5201 -0.5913,0.8137 -1.4883,0.135 -2.1948,-0.0317 -0.0635,-0.0159 -0.127,-0.0278 -0.1905,-0.0357 -2.9609,0.7699 -3.7547,4.3976 -2.2306,6.7393 0.4565,0.7025 1.0439,1.3058 1.671,1.8575 0.4643,0.4088 1.3335,1.3097 1.9408,1.4248 2.2544,0.4287 4.604,0.5954 6.8187,0.6351 3.5323,0.0595 7.0687,-0.2977 10.5257,-1.0201 0.3254,-0.0674 0.6509,-0.1429 0.9763,-0.2262 0.3056,-0.0794 0.7899,-0.8573 0.9843,-1.1074 1.6193,-2.0876 1.7979,-5.0008 0.4564,-7.2671z"/>
   <g>
    <path id="_190000808" fill="#969594" d="M38.8852 39.939c0.0952,-0.0159 0.1905,-0.0357 0.2857,-0.0516 -0.0952,0.0159 -0.1905,0.0317 -0.2857,0.0516z"/>
    <path id="_190000904" fill="#969594" d="M40.0282 28.5282c-0.0079,0 -0.0158,-0.0039 -0.0238,-0.0039 0.008,0.0039 0.0159,0.0039 0.0238,0.0039z"/>
    <path id="_190000736" fill="#969594" d="M38.2779 40.0461c0.0993,-0.0158 0.1985,-0.0357 0.3017,-0.0515 -0.0993,0.0158 -0.1985,0.0317 -0.3017,0.0515z"/>
    <path id="_190000976" fill="#969594" d="M38.1946 27.5082c0.0159,0.0436 0.0357,0.0833 0.0555,0.127 -0.0238,-0.0397 -0.0396,-0.0833 -0.0555,-0.127z"/>
    <path id="_190000688" fill="#969594" d="M38.1589 27.3772c0.0079,0.0437 0.0198,0.0873 0.0357,0.131 -0.0159,-0.0437 -0.0278,-0.0873 -0.0357,-0.131z"/>
    <path id="_190000496" fill="#969594" d="M38.2501 27.6392c0.0199,0.0397 0.0477,0.0794 0.0715,0.1151 -0.0238,-0.0357 -0.0476,-0.0754 -0.0715,-0.1151z"/>
    <path id="_190000856" fill="#969594" d="M39.5758 26.2223c-0.004,0 -0.0119,0 -0.0199,0 0.008,0 0.0159,0 0.0199,0z"/>
    <path id="_190000760" fill="#969594" d="M39.8377 28.4885c-0.0119,-0.0039 -0.0277,-0.0079 -0.0436,-0.0079 0.0119,0.004 0.0278,0.0079 0.0436,0.0079z"/>
    <path id="_190000400" fill="#969594" d="M39.5004 26.2183c-0.004,0 -0.008,0 -0.0159,0 0.004,0 0.0079,0 0.0159,0z"/>
    <path id="_190000184" fill="#969594" d="M39.6433 28.4449c-0.0159,-0.004 -0.0358,-0.008 -0.0516,-0.0119 0.0158,0.0039 0.0357,0.0079 0.0516,0.0119z"/>
    <path id="_190000088" fill="#969594" d="M39.4845 39.8239c0.0794,-0.0159 0.1587,-0.0318 0.2381,-0.0476 -0.0793,0.0158 -0.1587,0.0317 -0.2381,0.0476z"/>
    <path id="_190000064" fill="#969594" d="M38.4129 27.8654c-0.0318,-0.0318 -0.0596,-0.0675 -0.0874,-0.1072 0.0278,0.0358 0.0556,0.0715 0.0874,0.1072z"/>
    <path id="_189999848" fill="#969594" d="M39.1948 28.3139c0.0198,0.0079 0.0436,0.0159 0.0635,0.0198 -0.0199,-0.0039 -0.0397,-0.0119 -0.0635,-0.0198z"/>
    <path id="_190000208" fill="#969594" d="M39.0003 28.2425c0.0238,0.0079 0.0436,0.0198 0.0674,0.0277 -0.0198,-0.0079 -0.0436,-0.0198 -0.0674,-0.0277z"/>
    <path id="_189999728" fill="#828588" d="M35.6743 9.3661c-0.7898,0.0436 -1.5519,0.1865 -2.2941,0.3969 0.1469,-0.0397 0.2937,-0.0794 0.4445,-0.1151 -0.6271,1.1192 -0.9644,2.3933 -0.9644,3.6792 0,1.4963 0.4564,2.9767 1.2462,4.2428 0.8097,1.2979 2.1115,2.2981 3.2467,3.3102 1.3137,1.1708 2.9846,2.2821 3.318,4.1396 0.0437,0.254 0.2818,1.3573 0.0754,1.5399 -0.3294,-0.1071 -0.5556,-0.1984 -0.766,-0.258 0.4048,0.1151 0.8772,0.3374 2.044,0.6113 0.0794,0.0198 0.4009,-0.8216 0.4366,-0.905 0.127,-0.3135 0.2501,-0.6271 0.3136,-0.9605 0.1548,-0.7937 0.0317,-1.659 -0.4247,-2.3337 -0.5041,-0.7501 -1.3058,-1.2542 -2.0797,-1.6868 -2.695,-1.5201 -5.3899,-3.2546 -5.9654,-6.5567 -0.2699,-1.5797 -0.1191,-4.1238 1.3693,-5.1041z"/>
    <path id="_190000040" fill="#969594" d="M39.3892 28.3774c0.0199,0.004 0.0397,0.0119 0.0596,0.0159 -0.0199,-0.004 -0.0397,-0.0119 -0.0596,-0.0159z"/>
    <path id="_189999680" fill="#969594" d="M38.7621 28.1353c0.0397,0.0198 0.0794,0.0397 0.1191,0.0595 -0.0397,-0.0198 -0.0794,-0.0397 -0.1191,-0.0595z"/>
    <path id="_189999656" fill="#969594" d="M38.524 27.9686c0.0318,0.0278 0.0675,0.0556 0.1032,0.0794 -0.0357,-0.0238 -0.0714,-0.0516 -0.1032,-0.0794z"/>
    <path id="_189999872" fill="#969594" d="M38.5161 27.9607c-0.0318,-0.0278 -0.0675,-0.0596 -0.0953,-0.0913 0.0278,0.0317 0.0595,0.0635 0.0953,0.0913z"/>
    <path id="_189999704" fill="#969594" d="M38.6391 28.0599c0.0357,0.0238 0.0754,0.0476 0.1111,0.0714 -0.0357,-0.0238 -0.0754,-0.0476 -0.1111,-0.0714z"/>
    <path id="_191486320" fill="#969594" d="M38.1549 27.0478c0.0556,-0.3413 0.3175,-0.5874 0.643,-0.7224 -0.3295,0.135 -0.5874,0.3811 -0.643,0.7224z"/>
    <path id="_191486992" fill="#969594" d="M32.515 10.0448c0.0873,-0.0318 0.1707,-0.0596 0.258,-0.0913 -0.0873,0.0278 -0.1747,0.0595 -0.258,0.0913z"/>
    <path id="_191486944" fill="#969594" d="M32.3166 10.1202c-0.0715,0.0278 -0.1429,0.0516 -0.2144,0.0833l0 0c0.0715,-0.0278 0.1429,-0.0555 0.2144,-0.0833z"/>
    <path id="_191486584" fill="#969594" d="M32.4078 40.6852c0.0516,-0.004 0.1072,-0.004 0.1628,-0.008 -0.0556,0.004 -0.1112,0.008 -0.1628,0.008z"/>
    <path id="_191486752" fill="#969594" d="M34.4995 40.5423c0.0635,-0.004 0.1309,-0.0119 0.1945,-0.0159 -0.0636,0.004 -0.131,0.0119 -0.1945,0.0159z"/>
    <path id="_191486728" fill="#969594" d="M33.285 9.7908c-0.1151,0.0317 -0.2263,0.0674 -0.3414,0.1032 0.1151,-0.0358 0.2263,-0.0715 0.3414,-0.1032z"/>
    <path id="_191486536" fill="#969594" d="M32.9913 40.6574c0.0476,-0.004 0.0952,-0.004 0.1429,-0.008 -0.0477,0 -0.0953,0.004 -0.1429,0.008z"/>
    <path id="_191486776" fill="#969594" d="M41.0125 39.4865c-0.1468,0.0397 -0.2937,0.0754 -0.4405,0.1072 0.1468,-0.0357 0.2937,-0.0715 0.4405,-0.1072z"/>
    <path id="_191486872" fill="#969594" d="M31.8442 40.709c0.0437,0 0.0874,-0.004 0.135,-0.004 -0.0437,0 -0.0913,0.004 -0.135,0.004z"/>
    <path id="_191486704" fill="#828588" d="M42.1358 29.068c-0.5517,-0.254 -1.1391,-0.3572 -1.7266,-0.4644 0.7343,0.6827 1.4924,1.5598 2.048,2.5005 1.3415,2.2663 1.1629,5.1795 -0.4524,7.2711 -0.1945,0.2501 -0.6748,1.024 -0.9804,1.1074 0.9169,-0.2422 1.8099,-0.5676 2.6037,-1.0756 1.2542,-0.8097 2.1035,-2.0957 2.2861,-3.58 0.3215,-2.6116 -1.5399,-4.731 -3.7784,-5.759z"/>
    <path id="_191486128" fill="#969594" d="M39.6552 26.2342c-0.004,0 -0.008,0 -0.0119,0 0.0039,-0.004 0.0079,-0.004 0.0119,0z"/>
    <path id="_191485888" fill="#969594" d="M40.5164 39.6056c-0.131,0.0317 -0.2659,0.0595 -0.4008,0.0873 0.1349,-0.0278 0.2698,-0.0556 0.4008,-0.0873z"/>
    <path id="_191486176" fill="#969594" d="M39.8099 26.258c-0.0119,0 -0.0198,-0.004 -0.0317,-0.008 0.0119,0.004 0.0198,0.008 0.0317,0.008z"/>
    <path id="_191486152" fill="#969594" d="M35.0551 40.4867c0.0834,-0.0079 0.1628,-0.0159 0.2461,-0.0238 -0.0833,0.0079 -0.1667,0.0159 -0.2461,0.0238z"/>
    <path id="_191485816" fill="#969594" d="M39.9766 26.2977c-0.0158,-0.004 -0.0357,-0.008 -0.0515,-0.0119 0.0198,0.0039 0.0357,0.0079 0.0515,0.0119z"/>
    <path id="_191486080" fill="#969594" d="M39.7425 26.2461c-0.008,0 -0.0199,-0.004 -0.0278,-0.004 0.0079,0 0.0198,0 0.0278,0.004z"/>
    <path id="_191486032" fill="#969594" d="M39.9211 26.2818c-0.0278,-0.0079 -0.0556,-0.0119 -0.0794,-0.0198 0.0238,0.0079 0.0516,0.0158 0.0794,0.0198z"/>
    <path id="_191485840" fill="#969594" d="M35.6386 40.4232c0.0873,-0.0079 0.1786,-0.0198 0.2659,-0.0318 -0.0873,0.012 -0.1746,0.0239 -0.2659,0.0318z"/>
    <path id="_191486224" fill="#969594" d="M37.6667 40.1454c0.1072,-0.0159 0.2104,-0.0318 0.3136,-0.0516 -0.1032,0.0198 -0.2064,0.0357 -0.3136,0.0516z"/>
    <path id="_191485744" fill="#969594" d="M36.2339 40.3518c0.0992,-0.0119 0.1985,-0.0278 0.2977,-0.0397 -0.0992,0.0158 -0.1985,0.0277 -0.2977,0.0397z"/>
    <path id="_191486056" fill="#969594" d="M37.3809 40.189c-0.1508,0.0239 -0.3016,0.0437 -0.4564,0.0675 0.1548,-0.0198 0.3056,-0.0436 0.4564,-0.0675z"/>
   </g>
   <g>
    <path id="_191485360" fill="#C2C1C1" d="M23.7118 30.1436c0.0239,-0.0357 0.0477,-0.0715 0.0675,-0.1072 -0.0198,0.0358 -0.0436,0.0715 -0.0675,0.1072 -0.3175,0.4405 -0.7263,0.4445 -1.143,0.3294 0.4167,0.1151 0.8216,0.1111 1.143,-0.3294z"/>
    <path id="_191485216" fill="#B5B7BA" d="M25.4939 17.7962c1.3891,-2.433 2.8577,-4.866 4.9215,-6.7751 0.131,-0.0754 0.2659,-0.1468 0.4009,-0.2183 -1.794,0.9447 -3.4054,2.2306 -4.8064,3.5046 -1.4408,1.3138 -3.2546,3.0006 -3.203,5.12 0,0.0357 1.8257,0.3612 2.0678,0.4168 0.0318,-0.7105 0.2382,-1.4368 0.6192,-2.048z"/>
    <path id="_191484856" fill="#C2C1C1" d="M23.2435 28.6235c-0.0317,-0.0159 -0.0635,-0.0357 -0.0953,-0.0516 0.0318,0.0159 0.0636,0.0317 0.0953,0.0516 0.0198,0.0119 0.0357,0.0238 0.0556,0.0357 -0.0159,-0.0119 -0.0358,-0.0238 -0.0556,-0.0357z"/>
    <path id="_191485312" fill="#C2C1C1" d="M25.4582 22.2374c0.25,0.0595 0.504,0.0119 0.7144,-0.1032 -0.2143,0.1151 -0.4644,0.1628 -0.7144,0.1032 -0.647,-0.1508 -1.2463,-0.385 -1.8615,-0.5795 0.6113,0.1945 1.2145,0.4327 1.8615,0.5795z"/>
    <path id="_191485408" fill="#C2C1C1" d="M31.0822 10.6679c-0.0873,0.0436 -0.1786,0.0873 -0.2659,0.1349 0.0913,-0.0476 0.1786,-0.0912 0.2659,-0.1349z"/>
    <path id="_191485024" fill="#C2C1C1" d="M25.101 19.9076c0.1825,0.0516 0.3691,0.1112 0.5517,0.1866 -0.1826,-0.0794 -0.3691,-0.1389 -0.5517,-0.1866z"/>
    <path id="_191484952" fill="#C2C1C1" d="M32.1022 10.2035l0 0c-0.0039,0 -0.0079,0.004 -0.0158,0.004 0.0039,0 0.0119,-0.004 0.0158,-0.004z"/>
    <path id="_191484880" fill="#C2C1C1" d="M31.8561 10.3067c-0.0674,0.0278 -0.1349,0.0556 -0.1984,0.0834 0.0675,-0.0278 0.131,-0.0556 0.1984,-0.0834z"/>
    <path id="_191485072" fill="#C2C1C1" d="M31.4553 10.4893c-0.0715,0.0357 -0.1469,0.0675 -0.2223,0.1032 0.0754,-0.0357 0.1469,-0.0715 0.2223,-0.1032z"/>
    <path id="_191484928" fill="#B5B7BA" d="M22.7037 40.0938c-0.6033,-0.1151 -1.4764,-1.0161 -1.9408,-1.4249 -0.6231,-0.5517 -1.2105,-1.155 -1.6709,-1.8575 -1.5281,-2.3417 -0.7343,-5.9693 2.2266,-6.7353 -0.6073,-0.1072 -1.2423,-0.0635 -1.8377,0.0913 -2.4528,0.6509 -4.7746,3.0204 -3.9015,5.7113 0.5477,1.6789 2.1671,2.8021 3.838,3.3737 1.7106,0.5794 3.5562,0.9485 5.4137,1.1748 -0.7105,-0.0913 -1.4249,-0.1985 -2.1274,-0.3334z"/>
    <path id="_191488696" fill="#C2C1C1" d="M26.0376 40.5502c-0.254,-0.0238 -0.504,-0.0476 -0.758,-0.0754 0.254,0.0278 0.508,0.0516 0.758,0.0754z"/>
    <path id="_191488624" fill="#C2C1C1" d="M24.839 40.4232c0.1429,0.0159 0.2818,0.0317 0.4247,0.0476 -0.1429,-0.0119 -0.2858,-0.0317 -0.4247,-0.0476z"/>
    <path id="_191488744" fill="#C2C1C1" d="M30.3916 40.7367c0.0476,0 0.0953,0 0.1469,0 -0.0516,0 -0.0993,0 -0.1469,0z"/>
    <path id="_191488120" fill="#C2C1C1" d="M26.7243 40.6058c0.1587,0.0119 0.3175,0.0238 0.4723,0.0317 -0.1588,-0.0079 -0.3136,-0.0198 -0.4723,-0.0317z"/>
    <path id="_191488072" fill="#B5B7BA" d="M19.8104 28.0916c0.1786,-0.0198 0.3572,-0.0317 0.5358,-0.0357 -0.647,-1.0041 -0.77,-2.2067 -0.3652,-3.3458 0.5874,-1.5122 1.9488,-2.8815 3.6157,-3.0482 -0.5834,-0.1825 -1.1787,-0.3254 -1.8376,-0.3135 -3.0958,0.0635 -5.6081,4.7072 -3.191,7.033 0.0396,0.0357 1.0994,-0.2699 1.2423,-0.2898z"/>
    <path id="_191487880" fill="#C2C1C1" d="M28.8239 40.7129c0.0476,0 0.0992,0.004 0.1468,0.004 -0.0516,0 -0.0992,-0.004 -0.1468,-0.004z"/>
    <path id="_191488480" fill="#C2C1C1" d="M26.1647 40.5621c0.1151,0.008 0.2341,0.0199 0.3492,0.0278 -0.1151,-0.0079 -0.2341,-0.0199 -0.3492,-0.0278z"/>
    <path id="_191488000" fill="#C2C1C1" d="M27.5022 40.6574c0.0794,0.0039 0.1627,0.0079 0.2461,0.0119 -0.0834,-0.004 -0.1667,-0.008 -0.2461,-0.0119z"/>
    <path id="_191488144" fill="#C2C1C1" d="M28.1809 40.6891c0.0516,0 0.1032,0.004 0.1548,0.008 -0.0516,-0.004 -0.1032,-0.004 -0.1548,-0.008z"/>
   </g>
   <g>
    <path id="_191488264" fill="#717477" d="M27.4466 34.2713c0.2461,0.2064 0.5438,0.3652 0.7978,0.4842 1.6551,0.7779 3.6991,0.7819 5.3303,-0.0595 0.4326,-0.2223 0.9843,-0.4763 1.2423,-0.9129 0.2977,-0.508 0.0119,-1.2462 -0.5596,-1.405 -0.2263,-0.0635 -0.4684,-0.0357 -0.6906,0.0397 -0.6589,0.2183 -1.0796,0.6271 -1.7662,0.7978 -0.6152,0.1508 -1.2701,0.1389 -1.8813,-0.0238 -0.5993,-0.1628 -1.2661,-0.6668 -1.8694,-0.7621 -0.4525,-0.0714 -0.889,0.2778 -1.0478,0.6866 -0.1627,0.4485 0.1032,0.8732 0.4445,1.155z"/>
   </g>
   <g>
    <path id="_191488360" fill="#717477" d="M26.2321 27.5042c-0.0674,0.897 0.5358,1.8615 1.5321,1.7861 0.9327,-0.0715 1.5121,-1.0796 1.3296,-1.9488 -0.2422,-1.1589 -1.7424,-1.6868 -2.5322,-0.7065 -0.1985,0.2461 -0.3057,0.5557 -0.3295,0.8692z"/>
   </g>
   <g>
    <path id="_191488024" fill="#717477" d="M32.769 27.5042c-0.0675,0.897 0.5358,1.8615 1.532,1.7861 0.9327,-0.0715 1.5122,-1.0796 1.3296,-1.9488 -0.2421,-1.1589 -1.7424,-1.6868 -2.5322,-0.7065 -0.1984,0.2461 -0.3056,0.5557 -0.3294,0.8692z"/>
   </g>
   <path id="_191487808" fill="#95979A" d="M65.1036 24.8909c0.2237,0 0.5159,0.0172 0.6192,0.0172 1.2554,0 1.9603,-0.5503 1.9603,-1.5479 0,-0.9284 -0.8082,-1.6163 -1.8916,-1.6163l-0.6879 0 0 3.147 0 0zm-5.5543 -7.3601c0.7395,-0.0515 1.2898,-0.0859 1.6853,-0.1203 1.1693,-0.0859 2.9578,-0.1548 3.5768,-0.1548 3.3016,0 4.9696,0.4128 6.2766,1.5993 1.221,1.066 1.8916,2.6309 1.8916,4.3162 0,3.6973 -2.6483,5.9328 -7.016,5.9328 -0.1891,0 -0.5158,0 -0.8598,-0.0172l0 3.508 -5.5545 -0.0001 0 -15.0639 0 0zm24.969 5.2793c0.9974,0.9285 1.5477,2.2011 1.6336,3.7143 0.2236,3.7317 -2.5794,6.4314 -6.6722,6.4314 -2.0463,0 -3.7315,-0.6018 -4.8666,-1.7368 -0.9973,-0.9974 -1.6335,-2.5106 -1.6335,-3.9207 0,-3.5767 2.4763,-6.0014 6.3281,-6.225 1.9776,-0.1031 3.9381,0.5331 5.2106,1.7368zm-6.4488 4.1787c0.0689,1.1693 0.7223,2.0119 1.5649,2.0119 0.9459,0 1.4962,-0.8254 1.3585,-2.098 -0.1203,-1.0834 -0.7393,-1.8055 -1.5477,-1.8055 -0.8426,-0.0001 -1.4443,0.7738 -1.3757,1.8916zm20.1196 -4.1787c0.9975,0.9285 1.5479,2.2011 1.6337,3.7143 0.2236,3.7317 -2.5794,6.4314 -6.6722,6.4314 -2.0463,0 -3.7315,-0.6018 -4.8665,-1.7368 -0.9974,-0.9974 -1.6336,-2.5106 -1.6336,-3.9207 0,-3.5767 2.4762,-6.0014 6.3282,-6.225 1.9776,-0.1031 3.938,0.5331 5.2104,1.7368zm-6.4312 4.1787c0.0689,1.1693 0.7223,2.0119 1.5649,2.0119 0.9457,0 1.496,-0.8254 1.3584,-2.098 -0.1203,-1.0834 -0.7394,-1.8055 -1.5476,-1.8055 -0.8426,-0.0001 -1.4446,0.7738 -1.3757,1.8916zm19.466 -3.9553c-0.8254,-0.6706 -1.4616,-0.9284 -2.3558,-0.9284 -1.5305,0 -2.6483,1.2209 -2.6483,2.8889 0,1.6681 1.2726,2.9749 2.8375,2.9749 0.9973,0 1.754,-0.2922 2.6825,-0.9973l2.3732 4.299c-1.9605,1.3585 -4.0068,1.9432 -6.2767,1.7713 -4.4539,-0.2923 -7.4976,-3.594 -7.4976,-8.1683 0,-2.0463 0.8254,-4.1614 2.2183,-5.5371 1.4618,-1.4616 3.6972,-2.356 5.8296,-2.356 2.287,0 3.869,0.516 5.7264,1.8229l-2.8891 4.2301zm13.9634 -0.2234c0.9973,0.9285 1.5476,2.2011 1.6337,3.7143 0.2234,3.7317 -2.5796,6.4314 -6.6722,6.4314 -2.0463,0 -3.7317,-0.6018 -4.8665,-1.7368 -0.9974,-0.9974 -1.6338,-2.5106 -1.6338,-3.9207 0,-3.5767 2.4764,-6.0014 6.3283,-6.225 1.9777,-0.1031 3.9379,0.5331 5.2105,1.7368zm-6.4314 4.1787c0.0689,1.1693 0.7223,2.0119 1.5649,2.0119 0.9458,0 1.496,-0.8254 1.3584,-2.098 -0.1203,-1.0834 -0.7395,-1.8055 -1.5476,-1.8055 -0.8426,-0.0001 -1.4446,0.7738 -1.3757,1.8916zm14.0665 5.6059l-5.2104 0 0 -11.0572 5.2104 0 0 11.0572zm-0.2923 -13.6882c0,1.2037 -0.8253,1.9776 -2.0979,1.9776 -1.2554,0 -2.098,-0.8083 -2.098,-1.9776 0,-1.1693 0.8598,-1.9775 2.098,-1.9775 1.2381,0 2.0979,0.8082 2.0979,1.9775zm5.1933 2.2699c0.6878,0.4298 0.8942,0.8082 1.0662,1.7712 1.0834,-1.2725 2.3214,-1.8743 3.9723,-1.8743 1.496,0 2.8202,0.7393 3.3876,1.8916 0.2922,0.5675 0.3955,1.2553 0.3955,2.4935l0 7.1364 -5.2104 -0.0001 0 -5.7436c0,-0.9457 -0.2923,-1.3413 -1.0662,-1.3413 -0.3954,0 -0.791,0.1892 -1.1521,0.5676l0 6.5173 -5.2105 0 0 -6.8785c0,-2.4248 -0.0859,-2.8891 -0.6534,-3.7144l4.471 -0.8254z"/>
  </g>
 </g>
</svg>
