<?xml version="1.0" encoding="UTF-8"?>
<!DOCTYPE svg PUBLIC "-//W3C//DTD SVG 1.1//EN" "http://www.w3.org/Graphics/SVG/1.1/DTD/svg11.dtd">
<!-- Creator: CorelDRAW -->
<svg xmlns="http://www.w3.org/2000/svg" xml:space="preserve" width="160px" height="50px" shape-rendering="geometricPrecision" text-rendering="geometricPrecision" image-rendering="optimizeQuality" fill-rule="evenodd" clip-rule="evenodd"
viewBox="0 0 160 50">
 <g id="MasterLayer_x0020_1">
  <metadata id="CorelCorpID_0Corel-Layer"/>
  <g id="_188204912">
   <path id="_188797960" fill="#72706F" d="M64.3528 19.3668c3.0906,0 5.5968,2.5062 5.5968,5.5966 0,3.0906 -2.5062,5.5968 -5.5968,5.5968 -1.2753,0 -2.4507,-0.4271 -3.3919,-1.1458l1.2332 -2.0338 1.6149 1.6423 2.1922 -5.3087 0.7638 0.3819 -0.2189 -2.6276 -2.0802 1.4781 0.83 0.415 -1.8154 4.2106 -1.5601 -1.697 -1.7904 2.7603c-0.8555,-0.9829 -1.3738,-2.267 -1.3738,-3.6721 0,-3.0904 2.5062,-5.5966 5.5966,-5.5966z"/>
   <path id="_188349536" fill="#969594" d="M2.5744 30.9168l0 -11.8336 2.2966 0 0 9.6359 6.0037 0 0 2.1977 -8.3003 0zm10.0719 0l0 -11.8336 2.2966 0 0 11.8336 -2.2966 0zm4.1666 -11.8336l2.4769 0 3.7237 8.3173 3.7236 -8.3173 2.477 0 -5.364 11.8336 -1.6568 0 -5.3804 -11.8336zm22.1614 0l0 2.1977 -6.1022 0 0 2.6203 5.8725 0 0 2.1976 -5.8725 0 0 2.6203 6.3154 0 0 2.1977 -8.612 0 0 -11.8336 8.3988 0zm6.4139 5.9168c0,-0.9354 0.1285,-1.7751 0.3854,-2.5189 0.257,-0.7438 0.6315,-1.3749 1.1236,-1.8934 0.4922,-0.5184 1.0909,-0.9128 1.7962,-1.1833 0.7054,-0.2705 1.5065,-0.4057 2.4032,-0.4057 1.4326,0 2.6137,0.3297 3.5432,0.9889 0.555,0.3936 1.0006,0.8949 1.3373,1.5034l-1.6873 1.7002 -0.0273 0c-0.4374,-1.3299 -1.4873,-1.9949 -3.1495,-1.9949 -2.3184,0 -3.4776,1.2679 -3.4776,3.8037 0,2.5358 1.1592,3.8036 3.4776,3.8036 1.6622,0 2.7121,-0.6593 3.1495,-1.9779l0.0934 0 1.7393 1.4641c-0.348,0.7069 -0.8328,1.2811 -1.4554,1.7226 -0.9295,0.6592 -2.1106,0.9889 -3.5432,0.9889 -0.8967,0 -1.6978,-0.1381 -2.4032,-0.4142 -0.7053,-0.2761 -1.304,-0.6705 -1.7962,-1.1833 -0.4921,-0.5128 -0.8666,-1.1411 -1.1236,-1.8849 -0.2569,-0.7438 -0.3854,-1.5835 -0.3854,-2.5189zm26.9677 5.9168l0 -11.8336 2.2965 0 0 11.8336 -2.2965 0zm13.7955 0l-5.9874 -7.5566 0 7.5566 -2.2965 0 0 -11.8336 1.7552 0 6.0037 7.5566 0 -7.5566 2.2966 0 0 11.8336 -1.7716 0zm8.2018 -11.8336l2.477 0 2.3785 7.7087 2.5754 -7.7087 1.624 0 2.5754 7.7087 2.3949 -7.7087 2.4606 0 -3.8878 11.8336 -1.8864 0 -2.4605 -7.4044 -2.4605 7.4044 -1.9029 0 -3.8877 -11.8336zm16.6498 11.8336l5.3805 -11.8336 1.5747 0 5.364 11.8336 -2.3293 0 -1.1483 -2.5696 -5.3476 0 -1.1483 2.5696 -2.3457 0zm4.4126 -4.632l3.5104 0 -1.7552 -3.922 -1.7552 3.922zm8.0707 -7.2016l9.8094 0 0 2.1977 -3.7565 0 0 9.6359 -2.2965 0 0 -9.6359 -3.7564 0 0 -2.1977zm10.6624 5.9168c0,-0.9354 0.1285,-1.7751 0.3854,-2.5189 0.257,-0.7438 0.6316,-1.3749 1.1237,-1.8934 0.4921,-0.5184 1.0908,-0.9128 1.7962,-1.1833 0.7054,-0.2705 1.5064,-0.4057 2.4031,-0.4057 1.4326,0 2.6137,0.3297 3.5433,0.9889 0.3934,0.2791 0.7318,0.6124 1.0156,0.9995l-1.6026 1.7043c-0.521,-0.9966 -1.5009,-1.4951 -2.9399,-1.4951 -2.3183,0 -3.4775,1.2679 -3.4775,3.8037 0,2.5358 1.1592,3.8036 3.4775,3.8036 1.4826,0 2.478,-0.5243 2.9861,-1.5733l1.7306 1.532c-0.3158,0.4948 -0.7124,0.9114 -1.1898,1.2501 -0.9296,0.6592 -2.1107,0.9889 -3.5433,0.9889 -0.8967,0 -1.6977,-0.1381 -2.4031,-0.4142 -0.7054,-0.2761 -1.3041,-0.6705 -1.7962,-1.1833 -0.4921,-0.5128 -0.8667,-1.1411 -1.1237,-1.8849 -0.2569,-0.7438 -0.3854,-1.5835 -0.3854,-2.5189zm15.5507 -5.9168l0 4.818 5.4296 0 0 -4.818 2.2965 0 0 11.8336 -2.2965 0 0 -4.818 -5.4296 0 0 4.818 -2.2965 0 0 -11.8336 2.2965 0z"/>
  </g>
 </g>
</svg>
