<?xml version="1.0" encoding="UTF-8"?>
<!DOCTYPE svg PUBLIC "-//W3C//DTD SVG 1.1//EN" "http://www.w3.org/Graphics/SVG/1.1/DTD/svg11.dtd">
<!-- Creator: CorelDRAW -->
<svg xmlns="http://www.w3.org/2000/svg" xml:space="preserve" width="160px" height="50px" shape-rendering="geometricPrecision" text-rendering="geometricPrecision" image-rendering="optimizeQuality" fill-rule="evenodd" clip-rule="evenodd"
viewBox="0 0 160 50">
 <g id="MasterLayer_x0020_1">
  <metadata id="CorelCorpID_0Corel-Layer"/>
  <g id="_188620080">
   <path id="_189219392" fill="#C2C1C1" d="M26.8035 8.1291c0.2017,0 0.4033,0 0.605,0 0.251,2.6686 1.1249,5.1223 2.6217,7.3609 -2.557,-0.4226 -4.54,-1.7335 -5.9493,-3.9325 -0.0435,-0.6761 0.1582,-1.2811 0.6051,-1.8151 0.6652,-0.6152 1.3711,-1.153 2.1175,-1.6133zm10.4868 -2.2184c1.5636,-0.0799 3.1098,0.021 4.6384,0.3025 1.0665,0.6951 1.6715,1.6699 1.8151,2.9243 0.0909,0.9552 0.2255,1.8964 0.4034,2.8233 0.0332,0.6756 -0.0005,1.3478 -0.1009,2.0168 -0.0468,0.2495 -0.1476,0.4512 -0.3025,0.6049 -0.1486,1.5931 -0.9553,2.7023 -2.4201,3.3276 -1.7479,0.1344 -3.4955,0.1344 -5.2434,0 -0.7752,-0.2716 -1.3131,-0.7757 -1.6133,-1.5125 -0.7148,-0.3566 -1.5215,-0.5247 -2.4201,-0.5042 -0.2487,-0.3361 -0.5177,-0.6386 -0.8067,-0.9075 -0.8053,-1.0062 -1.3431,-2.149 -1.6133,-3.4284 0.0347,-0.2 -0.0327,-0.3344 -0.2017,-0.4034 -0.581,-1.1163 -0.8499,-2.3263 -0.8067,-3.63 2.0548,0.1124 4.0715,-0.022 6.0501,-0.4034 0.7418,-0.6731 1.6156,-1.0765 2.6217,-1.21zm-2.0167 6.2518c-0.2767,-1.5733 0.1267,-2.9178 1.2101,-4.0334 0.1663,-0.1786 0.368,-0.2459 0.6049,-0.2016 -0.7977,2.6163 -0.7977,5.238 0,7.8651 -0.4273,0.0065 -0.6961,-0.1952 -0.8066,-0.605 -0.3701,-0.1256 -0.6055,-0.3945 -0.7058,-0.8068 -0.2495,-0.7179 -0.3504,-1.4573 -0.3026,-2.2183zm5.2435 -3.4284c0.0131,-0.0883 -0.0204,-0.1556 -0.1009,-0.2017 -0.3634,0.26 -0.5988,0.5962 -0.7058,1.0084 -0.7353,1.6474 -0.8027,3.328 -0.2017,5.0417 0.3228,0.3096 0.6591,0.5449 1.0084,0.7059 -0.2354,-0.5042 -0.4705,-1.0084 -0.7059,-1.5125 -0.1652,-1.2466 -0.1317,-2.4567 0.1008,-3.6301 0.2493,-0.4334 0.451,-0.904 0.6051,-1.4117zm1.4116 1.6134c0.2316,0.9037 0.2653,1.8448 0.1009,2.8233 -0.0787,0.5253 -0.2468,0.9958 -0.5042,1.4117 -0.153,1.0552 -0.7581,1.4249 -1.815,1.1092 -0.31,-0.2238 -0.4443,-0.5262 -0.4033,-0.9075 -0.452,-0.1613 -0.6537,-0.4974 -0.6051,-1.0083 -0.3686,-0.9283 -0.4358,-1.8694 -0.2017,-2.8234 -0.0187,-1.1036 0.3175,-2.0783 1.0084,-2.9242 0.9886,-0.1849 1.661,0.1848 2.0167,1.1092 0.3174,0.3229 0.4519,0.7263 0.4033,1.21zm-18.1503 3.2267c1.8185,2.0525 4.104,3.2625 6.8568,3.6301 0,1.2772 0,2.5545 0,3.8317 -2.3565,-0.4229 -4.642,-0.2213 -6.8568,0.605 -0.1429,0.1823 -0.3446,0.2495 -0.605,0.2017 -0.0337,-2.8914 0,-5.782 0.1009,-8.6719 0.3276,-0.1838 0.4959,-0.0494 0.5041,0.4034zm15.1253 23.1921c-0.4508,0.5628 -0.8541,1.1679 -1.21,1.815 -0.3073,0.7466 -0.7442,1.4189 -1.3109,2.0167 -0.439,0.6097 -1.0105,1.013 -1.7142,1.2101 -3.8801,2.8985 -7.8461,3.0667 -11.8985,0.5041 -0.7829,-0.6834 -1.5896,-1.3222 -2.4201,-1.9158 -1.1964,0.9 -2.4736,1.6393 -3.8317,2.2183 -0.3985,0.3048 -0.869,0.4727 -1.4117,0.5042 -1.1125,0.1647 -2.1881,0.1313 -3.2267,-0.1008 -0.0673,0 -0.1345,0 -0.2017,0 -0.9619,-0.0387 -1.9031,-0.2067 -2.8234,-0.5042 -0.1121,-0.0772 -0.1793,-0.1781 -0.2016,-0.3026 -0.6591,-0.3295 -1.3313,-0.6657 -2.0167,-1.0083 -0.1768,0.0265 -0.3112,-0.0407 -0.4034,-0.2017 1.7427,-0.2012 3.4904,-0.2683 5.2435,-0.2016 3.5294,-0.1382 5.9831,-1.8189 7.3609,-5.0417 0.7078,-0.8296 1.548,-0.9976 2.5208,-0.5043 1.1349,1.6056 2.4794,3.0172 4.0335,4.2352 2.4158,1.3216 4.9032,1.456 7.4618,0.4032 2.0012,-0.8288 3.8162,-1.938 5.4451,-3.3275 0.2688,-0.289 0.5713,-0.558 0.9075,-0.8066 0.1208,0.4103 0.02,0.7463 -0.3025,1.0083zm-10.8902 -7.6635c-1.4849,0.3784 -2.2916,1.3532 -2.42,2.9242 0.6336,2.8728 2.3815,3.8812 5.2434,3.0251 1.5496,-0.8694 2.3563,-2.2138 2.4201,-4.0334 -0.3145,-2.4661 -1.6588,-4.0794 -4.0335,-4.8401 -2.9982,-0.4001 -5.4517,0.5746 -7.3609,2.9242 -1.3805,2.0883 -2.8594,4.105 -4.4368,6.0501 -1.8106,2.1995 -4.1298,3.4766 -6.9576,3.8318 -1.1829,-0.1154 -2.3257,-0.3844 -3.4284,-0.8067 -0.354,-0.1154 -0.6901,-0.2836 -1.0084,-0.5042 1.3353,0.0664 2.6798,0.1 4.0335,0.1008 0.8665,-0.1302 1.6732,-0.4328 2.42,-0.9075 0.7785,-0.7784 1.5516,-1.5516 2.3192,-2.3192 1.6134,-2.6888 3.2267,-5.378 4.8401,-8.0668 3.6772,-4.2982 8.0805,-5.2729 13.2094,-2.9242 3.9067,2.8467 4.9485,6.5105 3.1258,10.991 -2.4371,3.8356 -5.6975,4.7431 -9.781,2.7225 -2.6487,-2.1548 -3.0857,-4.6757 -1.3108,-7.5626 1.3113,-1.3238 2.8238,-1.6599 4.5376,-1.0083 0.4122,0.107 0.7484,0.3424 1.0083,0.7058 -0.0671,0.0337 -0.1345,0.0672 -0.2016,0.1009 -0.6958,-0.3478 -1.4353,-0.4822 -2.2184,-0.4034z"/>
   <path id="_189218984" fill="#969594" fill-rule="nonzero" d="M64.7221 33.0711c-0.7223,0.3913 -1.4596,0.6734 -2.212,0.8464 -0.7524,0.1731 -1.4897,0.2596 -2.212,0.2596 -1.0232,0 -1.9938,-0.1693 -2.9117,-0.5078 -0.9179,-0.3386 -1.7191,-0.8389 -2.4038,-1.501 -0.6847,-0.6621 -1.2301,-1.4822 -1.6364,-2.4603 -0.4063,-0.9781 -0.6094,-2.0991 -0.6094,-3.3631 0,-1.0985 0.1768,-2.1518 0.5304,-3.16 0.3536,-1.0081 0.869,-1.8922 1.5461,-2.6521 0.6771,-0.7599 1.501,-1.3655 2.4716,-1.817 0.9705,-0.4514 2.0727,-0.6771 3.3066,-0.6771 0.6772,0 1.3167,0.0564 1.9186,0.1693 0.6019,0.1128 1.2113,0.2821 1.8283,0.5078l-0.4289 1.6929c-0.5718,-0.301 -1.1398,-0.5154 -1.7041,-0.6433 -0.5643,-0.1279 -1.1098,-0.1919 -1.6364,-0.1919 -0.7975,0 -1.5424,0.1505 -2.2346,0.4515 -0.6922,0.3009 -1.2941,0.7298 -1.8057,1.2865 -0.5116,0.5568 -0.9141,1.2339 -1.2075,2.0314 -0.2935,0.7976 -0.4402,1.7004 -0.4402,2.7086 0,0.948 0.1129,1.8245 0.3386,2.6295 0.2257,0.8051 0.568,1.501 1.027,2.0879 0.4589,0.5868 1.0345,1.0458 1.7267,1.3768 0.6922,0.331 1.4972,0.4966 2.4151,0.4966 0.8727,0 1.6138,-0.1242 2.2233,-0.3725 0.6094,-0.2482 1.1549,-0.5454 1.6364,-0.8915l0.474 1.6928z"/>
   <path id="_189218984" fill="#969594" fill-rule="nonzero" d="M65.9635 28.3086c0,-0.9028 0.1242,-1.7267 0.3724,-2.4715 0.2483,-0.7449 0.6057,-1.3844 1.0722,-1.9186 0.4664,-0.5342 1.0345,-0.9518 1.7041,-1.2527 0.6696,-0.3009 1.4333,-0.4514 2.291,-0.4514 0.8577,0 1.6213,0.1392 2.291,0.4175 0.6696,0.2784 1.2376,0.6697 1.7041,1.1737 0.4665,0.5041 0.8238,1.1173 1.0721,1.8396 0.2483,0.7223 0.3724,1.5348 0.3724,2.4377 0,0.9028 -0.1241,1.7267 -0.3724,2.4715 -0.2483,0.7449 -0.6056,1.3844 -1.0721,1.9186 -0.4665,0.5342 -1.0345,0.9517 -1.7041,1.2527 -0.6697,0.3009 -1.4333,0.4514 -2.291,0.4514 -0.8577,0 -1.6214,-0.1392 -2.291,-0.4176 -0.6696,-0.2783 -1.2377,-0.6696 -1.7041,-1.1737 -0.4665,-0.504 -0.8239,-1.1172 -1.0722,-1.8395 -0.2482,-0.7223 -0.3724,-1.5349 -0.3724,-2.4377zm2.0991 -0.1129c0,0.6019 0.0602,1.1813 0.1806,1.738 0.1204,0.5568 0.3122,1.0458 0.5756,1.4672 0.2633,0.4213 0.6056,0.7561 1.027,1.0044 0.4213,0.2483 0.9404,0.3724 1.5574,0.3724 0.6169,0 1.1361,-0.1241 1.5574,-0.3724 0.4213,-0.2483 0.7636,-0.5831 1.027,-1.0044 0.2633,-0.4214 0.4552,-0.9104 0.5755,-1.4672 0.1204,-0.5567 0.1806,-1.1361 0.1806,-1.738 0,-0.6019 -0.0602,-1.1812 -0.1806,-1.7379 -0.1203,-0.5568 -0.3122,-1.0458 -0.5755,-1.4672 -0.2634,-0.4213 -0.6057,-0.7561 -1.027,-1.0044 -0.4213,-0.2483 -0.9405,-0.3724 -1.5574,-0.3724 -0.617,0 -1.1361,0.1354 -1.5574,0.4063 -0.4214,0.2708 -0.7637,0.6244 -1.027,1.0608 -0.2634,0.4364 -0.4552,0.9292 -0.5756,1.4784 -0.1204,0.5493 -0.1806,1.0947 -0.1806,1.6364z"/>
   <path id="_189218984" fill="#969594" fill-rule="nonzero" d="M79.9126 33.9514l0 -11.4662 2.0314 0 0 11.4662 -2.0314 0zm-0.2257 -14.6261c0,-0.3461 0.1203,-0.6396 0.3611,-0.8803 0.2408,-0.2408 0.5342,-0.3612 0.8803,-0.3612 0.3461,0 0.6395,0.1204 0.8802,0.3612 0.2408,0.2407 0.3612,0.5342 0.3612,0.8803 0,0.3461 -0.1204,0.6395 -0.3612,0.8802 -0.2407,0.2408 -0.5341,0.3612 -0.8802,0.3612 -0.3461,0 -0.6395,-0.1204 -0.8803,-0.3612 -0.2408,-0.2407 -0.3611,-0.5341 -0.3611,-0.8802z"/>
   <path id="_189218984" fill="#969594" fill-rule="nonzero" d="M87.835 22.4852l0 1.3317c0.4213,-0.5266 0.9781,-0.9179 1.6703,-1.1737 0.6922,-0.2558 1.4144,-0.3837 2.1668,-0.3837 1.3844,0 2.3662,0.395 2.9456,1.185 0.5793,0.79 0.869,1.8697 0.869,3.239l0 7.2679 -2.0315 0 0 -6.7714c0,-0.5116 -0.0263,-0.978 -0.079,-1.3994 -0.0526,-0.4213 -0.1617,-0.7862 -0.3272,-1.0947 -0.1656,-0.3085 -0.4063,-0.5492 -0.7223,-0.7223 -0.316,-0.173 -0.7449,-0.2595 -1.2866,-0.2595 -0.1354,0 -0.3724,0.0263 -0.711,0.079 -0.3385,0.0526 -0.6846,0.2031 -1.0382,0.4514 -0.3537,0.2483 -0.6659,0.6245 -0.9367,1.1286 -0.2709,0.504 -0.4063,1.215 -0.4063,2.1329l0 6.4554 -2.0314 0 0 -11.4662 1.9185 0z"/>
   <path id="_189218984" fill="#969594" fill-rule="nonzero" d="M98.5563 31.8523c0.2559,0.1655 0.4966,0.3047 0.7223,0.4175 0.2257,0.1129 0.4514,0.2069 0.6772,0.2822 0.2257,0.0752 0.4627,0.1279 0.711,0.158 0.2482,0.0301 0.5229,0.0451 0.8238,0.0451 0.2859,0 0.5793,-0.0376 0.8803,-0.1128 0.3009,-0.0753 0.5793,-0.1919 0.8351,-0.3499 0.2558,-0.158 0.4665,-0.3574 0.632,-0.5981 0.1655,-0.2408 0.2483,-0.5342 0.2483,-0.8803 0,-0.1956 -0.0226,-0.3799 -0.0677,-0.553 -0.0452,-0.173 -0.1317,-0.3386 -0.2596,-0.4966 -0.1279,-0.158 -0.3085,-0.3047 -0.5417,-0.4401 -0.2332,-0.1354 -0.5304,-0.2633 -0.8916,-0.3837l-1.106 -0.3611c-0.6319,-0.2107 -1.136,-0.4364 -1.5122,-0.6772 -0.3762,-0.2407 -0.6659,-0.4928 -0.869,-0.7561 -0.2032,-0.2633 -0.3348,-0.538 -0.395,-0.8239 -0.0602,-0.2859 -0.0903,-0.5868 -0.0903,-0.9028 0,-0.5718 0.143,-1.0872 0.4289,-1.5461 0.2859,-0.459 0.7448,-0.8389 1.3768,-1.1399 0.3912,-0.1956 0.8013,-0.331 1.2301,-0.4063 0.4289,-0.0752 0.8615,-0.1128 1.2979,-0.1128 1.0533,0 2.069,0.1805 3.0471,0.5417l-0.4966 1.738c-0.8125,-0.5869 -1.6928,-0.8803 -2.6408,-0.8803 -0.2408,0 -0.4891,0.0263 -0.7449,0.079 -0.2558,0.0527 -0.4928,0.1429 -0.711,0.2708 -0.2181,0.1279 -0.3949,0.2935 -0.5304,0.4966 -0.1354,0.2032 -0.2031,0.4627 -0.2031,0.7787 0,0.3913 0.1429,0.7185 0.4288,0.9819 0.2859,0.2633 0.7825,0.5153 1.4897,0.7561l1.0609 0.3611c0.4514,0.1505 0.8502,0.3123 1.1963,0.4853 0.346,0.1731 0.6395,0.3837 0.8802,0.632 0.2408,0.2483 0.4214,0.5417 0.5417,0.8803 0.1204,0.3386 0.1806,0.7486 0.1806,1.2301 0,0.617 -0.1354,1.1512 -0.4063,1.6026 -0.2708,0.4514 -0.6282,0.8238 -1.0721,1.1172 -0.4439,0.2935 -0.9442,0.5154 -1.501,0.6659 -0.5567,0.1505 -1.121,0.2257 -1.6928,0.2257 -0.5718,0 -1.1549,-0.0414 -1.7493,-0.1241 -0.5944,-0.0828 -1.1549,-0.2295 -1.6816,-0.4402l0.474 -1.7605z"/>
   <path id="_189218984" fill="#969594" fill-rule="nonzero" d="M113.611 34.1771c-0.8125,0 -1.5499,-0.1354 -2.2119,-0.4063 -0.6621,-0.2708 -1.2302,-0.6545 -1.7042,-1.1511 -0.474,-0.4966 -0.8389,-1.0947 -1.0947,-1.7944 -0.2558,-0.6997 -0.3837,-1.4859 -0.3837,-2.3587 0,-0.8577 0.1279,-1.6665 0.3837,-2.4264 0.2558,-0.7599 0.6245,-1.422 1.106,-1.9863 0.4815,-0.5643 1.0797,-1.0119 1.7944,-1.343 0.7148,-0.331 1.5311,-0.4965 2.449,-0.4965 0.4514,0 0.9066,0.0338 1.3656,0.1015 0.4589,0.0678 0.9141,0.1994 1.3655,0.395l-0.4288 1.6026c-0.4364,-0.2859 -0.8577,-0.4627 -1.264,-0.5304 -0.4063,-0.0677 -0.7223,-0.1016 -0.948,-0.1016 -0.617,0 -1.1587,0.1166 -1.6251,0.3499 -0.4665,0.2332 -0.854,0.553 -1.1625,0.9592 -0.3084,0.4063 -0.5379,0.8878 -0.6884,1.4446 -0.1505,0.5567 -0.2257,1.1586 -0.2257,1.8057 0,0.632 0.0715,1.2188 0.2144,1.7605 0.143,0.5417 0.3649,1.012 0.6659,1.4107 0.3009,0.3988 0.6846,0.7148 1.1511,0.948 0.4665,0.2333 1.0157,0.3499 1.6477,0.3499 0.4665,0 0.9104,-0.0865 1.3317,-0.2596 0.4213,-0.173 0.8276,-0.3875 1.2189,-0.6433l0.4288 1.6252c-0.5116,0.2558 -1.0458,0.4439 -1.6025,0.5642 -0.5568,0.1204 -1.1512,0.1806 -1.7832,0.1806z"/>
   <path id="_189218984" fill="#969594" fill-rule="nonzero" d="M118.329 28.3086c0,-0.9028 0.1242,-1.7267 0.3724,-2.4715 0.2483,-0.7449 0.6057,-1.3844 1.0722,-1.9186 0.4664,-0.5342 1.0345,-0.9518 1.7041,-1.2527 0.6696,-0.3009 1.4333,-0.4514 2.291,-0.4514 0.8577,0 1.6213,0.1392 2.291,0.4175 0.6696,0.2784 1.2376,0.6697 1.7041,1.1737 0.4665,0.5041 0.8238,1.1173 1.0721,1.8396 0.2483,0.7223 0.3724,1.5348 0.3724,2.4377 0,0.9028 -0.1241,1.7267 -0.3724,2.4715 -0.2483,0.7449 -0.6056,1.3844 -1.0721,1.9186 -0.4665,0.5342 -1.0345,0.9517 -1.7041,1.2527 -0.6697,0.3009 -1.4333,0.4514 -2.291,0.4514 -0.8577,0 -1.6214,-0.1392 -2.291,-0.4176 -0.6696,-0.2783 -1.2377,-0.6696 -1.7041,-1.1737 -0.4665,-0.504 -0.8239,-1.1172 -1.0722,-1.8395 -0.2482,-0.7223 -0.3724,-1.5349 -0.3724,-2.4377zm2.0991 -0.1129c0,0.6019 0.0602,1.1813 0.1806,1.738 0.1204,0.5568 0.3122,1.0458 0.5756,1.4672 0.2633,0.4213 0.6056,0.7561 1.027,1.0044 0.4213,0.2483 0.9404,0.3724 1.5574,0.3724 0.6169,0 1.1361,-0.1241 1.5574,-0.3724 0.4213,-0.2483 0.7636,-0.5831 1.027,-1.0044 0.2633,-0.4214 0.4552,-0.9104 0.5755,-1.4672 0.1204,-0.5567 0.1806,-1.1361 0.1806,-1.738 0,-0.6019 -0.0602,-1.1812 -0.1806,-1.7379 -0.1203,-0.5568 -0.3122,-1.0458 -0.5755,-1.4672 -0.2634,-0.4213 -0.6057,-0.7561 -1.027,-1.0044 -0.4213,-0.2483 -0.9405,-0.3724 -1.5574,-0.3724 -0.617,0 -1.1361,0.1354 -1.5574,0.4063 -0.4214,0.2708 -0.7637,0.6244 -1.027,1.0608 -0.2634,0.4364 -0.4552,0.9292 -0.5756,1.4784 -0.1204,0.5493 -0.1806,1.0947 -0.1806,1.6364z"/>
   <path id="_189218984" fill="#969594" fill-rule="nonzero" d="M132.278 22.4852l1.9185 0 0 1.3317c0.4514,-0.5266 0.9969,-0.9179 1.6364,-1.1737 0.6395,-0.2558 1.3204,-0.3837 2.0427,-0.3837 1.4747,0 2.5844,0.5003 3.3293,1.501 0.7448,1.0007 1.1172,2.3361 1.1172,4.0064 0,0.9781 -0.1429,1.8584 -0.4288,2.6408 -0.2859,0.7825 -0.6959,1.4446 -1.2301,1.9863 -0.5342,0.5417 -1.1775,0.9555 -1.9299,1.2414 -0.7523,0.2859 -1.595,0.4289 -2.5279,0.4289 -0.316,0 -0.6283,-0.0151 -0.9368,-0.0452 -0.3084,-0.0301 -0.6282,-0.0677 -0.9592,-0.1128l0 5.3268 -2.0314 0 0 -16.7479zm2.0314 9.8636c0.1504,0.0753 0.3235,0.1317 0.5191,0.1693 0.1956,0.0376 0.3912,0.0677 0.5869,0.0903 0.1956,0.0226 0.3761,0.0376 0.5417,0.0452 0.1655,0.0075 0.2934,0.0112 0.3837,0.0112 0.7072,0 1.3053,-0.1316 1.7944,-0.395 0.489,-0.2633 0.8878,-0.6131 1.1963,-1.0495 0.3084,-0.4364 0.5342,-0.9442 0.6771,-1.5236 0.143,-0.5793 0.2144,-1.185 0.2144,-1.817 0,-0.4514 -0.0414,-0.9216 -0.1241,-1.4107 -0.0828,-0.489 -0.2332,-0.9404 -0.4514,-1.3542 -0.2182,-0.4138 -0.5117,-0.7524 -0.8803,-1.0157 -0.3687,-0.2634 -0.8389,-0.395 -1.4107,-0.395 -0.5417,0 -1.0044,0.1053 -1.3881,0.316 -0.3838,0.2106 -0.696,0.4965 -0.9367,0.8577 -0.2408,0.3611 -0.4176,0.7749 -0.5305,1.2414 -0.1128,0.4665 -0.1768,0.948 -0.1918,1.4446l0 4.785z"/>
   <path id="_189218984" fill="#969594" fill-rule="nonzero" d="M144.511 28.2635c0,-0.7825 0.1016,-1.5349 0.3047,-2.2572 0.2032,-0.7222 0.5116,-1.3655 0.9254,-1.9298 0.4139,-0.5643 0.933,-1.0157 1.5575,-1.3543 0.6244,-0.3385 1.358,-0.5078 2.2007,-0.5078 0.8125,0 1.5009,0.1279 2.0652,0.3837 0.5643,0.2558 1.027,0.6245 1.3881,1.106 0.3612,0.4815 0.6208,1.0721 0.7788,1.7718 0.158,0.6997 0.237,1.486 0.237,2.3587l0 0.6546 -7.2905 0c0,0.5266 0.0526,1.042 0.158,1.5461 0.1053,0.5041 0.2821,0.9555 0.5304,1.3543 0.2483,0.3987 0.5868,0.7185 1.0157,0.9592 0.4288,0.2408 0.9743,0.3612 1.6364,0.3612 0.5868,0 1.1586,-0.1016 1.7154,-0.3047 0.5568,-0.2032 1.0608,-0.4703 1.5123,-0.8013l0.4514 1.6928c-0.647,0.3311 -1.2678,0.5606 -1.8621,0.6885 -0.5944,0.1279 -1.2302,0.1918 -1.9073,0.1918 -1.7455,0 -3.0772,-0.5229 -3.9951,-1.5687 -0.9179,-1.0458 -1.3919,-2.4941 -1.422,-4.3449zm4.9431 -4.6949c-0.8727,0 -1.5273,0.3236 -1.9637,0.9706 -0.4364,0.6471 -0.6922,1.4671 -0.7674,2.4603l5.0785 0c0,-1.1737 -0.1956,-2.039 -0.5868,-2.5957 -0.3913,-0.5568 -0.9781,-0.8352 -1.7606,-0.8352z"/>
  </g>
 </g>
</svg>
