<?xml version="1.0" encoding="UTF-8"?>
<!DOCTYPE svg PUBLIC "-//W3C//DTD SVG 1.1//EN" "http://www.w3.org/Graphics/SVG/1.1/DTD/svg11.dtd">
<!-- Creator: CorelDRAW -->
<svg xmlns="http://www.w3.org/2000/svg" xml:space="preserve" width="160px" height="50px" shape-rendering="geometricPrecision" text-rendering="geometricPrecision" image-rendering="optimizeQuality" fill-rule="evenodd" clip-rule="evenodd"
viewBox="0 0 160 50">
 <g id="MasterLayer_x0020_1">
  <metadata id="CorelCorpID_0Corel-Layer"/>
  <g id="_188541576">
   <path id="_188417624" fill="#C2C1C1" fill-rule="nonzero" d="M55.1001 30.6071c-1.6479,0 -3.0353,-0.5528 -4.1622,-1.6585 -1.1057,-1.1269 -1.6585,-2.5143 -1.6585,-4.1621 0,-1.6585 0.5528,-3.0405 1.6585,-4.1462 1.1163,-1.1163 2.5037,-1.6745 4.1622,-1.6745 1.6797,0 3.0671,0.5582 4.1621,1.6745 1.1163,1.095 1.6744,2.4771 1.6744,4.1462 0,1.3927 -0.4039,2.6047 -1.2119,3.6359 0.3757,0.3758 0.7515,0.7516 1.1273,1.1273 0.2886,0.2887 -1.1302,1.774 -1.4656,1.4347l-1.1926 -1.2065c-0.9356,0.5528 -1.9668,0.8292 -3.0937,0.8292zm33.1298 -7.1833l1.0029 0c1.2201,-0.0643 0.4892,-1.2076 0.1098,-1.8178 -0.4508,-0.7248 -1.0569,-1.3143 -1.8118,-1.779 -0.927,-0.5706 -1.9668,-0.8612 -3.1256,-0.8612 -1.6585,0 -3.0459,0.5582 -4.1622,1.6745 -1.1056,1.1057 -1.6585,2.4877 -1.6585,4.1462 0,1.6478 0.5529,3.0352 1.6585,4.1621 1.127,1.1057 2.5143,1.6585 4.1622,1.6585 1.1482,0 2.1901,-0.2817 3.1256,-0.8451 0.8593,-0.5273 1.5167,-1.216 1.9724,-2.0662 0.2375,-0.4434 0.6084,-1.1465 -0.0407,-1.1471l-1.4363 -0.0013c-0.506,0 -0.4604,0.1674 -0.7384,0.5505 -0.2774,0.3819 -0.6244,0.6959 -1.0407,0.9418 -0.5582,0.3295 -1.1721,0.4943 -1.8419,0.4943 -1.0312,0 -1.8871,-0.3561 -2.5674,-1.0684 -0.6805,-0.7123 -1.0207,-1.6053 -1.0207,-2.6791 0,-1.0738 0.3402,-1.9668 1.0207,-2.6791 0.691,-0.7229 1.5468,-1.0844 2.5674,-1.0844 0.6698,0 1.2837,0.1675 1.8419,0.5023 0.5171,0.3104 0.927,0.7234 1.2297,1.239 0.2939,0.5012 -0.0049,0.6595 0.7531,0.6595zm-35.6973 -1.3164c-0.6804,0.7123 -1.0206,1.6053 -1.0206,2.6791 0,1.0738 0.3402,1.9668 1.0206,2.6791 0.6804,0.7123 1.5362,1.0684 2.5675,1.0684 0.5315,0 1.0365,-0.1063 1.5149,-0.3189 -0.5003,-0.505 -1.0006,-1.0101 -1.5009,-1.5152 -0.3525,-0.3046 1.0577,-1.7823 1.4597,-1.4142l1.5721 1.558c0.3721,-0.6167 0.5582,-1.3024 0.5582,-2.0572 0,-1.0631 -0.3455,-1.9562 -1.0366,-2.6791 -0.691,-0.7229 -1.5468,-1.0844 -2.5674,-1.0844 -1.0207,0 -1.8765,0.3615 -2.5675,1.0844zm17.7844 3.7794l0 -6.3998c0,-0.5063 2.1369,-0.5217 2.1369,0.0082l0 6.3916c0,1.3396 -0.4678,2.4612 -1.4034,3.3649 -0.9143,0.9036 -2.0731,1.3554 -3.4764,1.3554 -1.3821,0 -2.5409,-0.4518 -3.4764,-1.3554 -0.925,-0.9143 -1.3874,-2.036 -1.3874,-3.3649l0 -6.4048c0,-0.5058 2.1369,-0.4942 2.1369,-0.0059l0 6.4107c0,0.7868 0.2604,1.4406 0.7814,1.9615 0.5209,0.521 1.1694,0.7814 1.9455,0.7814 0.7867,0 1.4405,-0.2604 1.9615,-0.7814 0.5209,-0.5209 0.7814,-1.1747 0.7814,-1.9615zm4.2135 4.2487l0 -10.6485c0,-0.5063 2.1369,-0.5217 2.1369,0.0082l0 10.6403c0,0.4236 -2.1369,0.4236 -2.1369,0zm16.9268 0.0087l0 -10.6689c0,-0.4905 2.1369,-0.4904 2.1369,-0.0001l0 3.9562 3.9829 -3.958c0.2982,-0.3525 3.7592,-0.4782 3.1765,0.2114l-3.9104 3.816 4.6605 6.6325c0.382,0.5436 -2.5834,0.3532 -2.8354,-0.0117l-3.5518 -5.1435 -1.5223 1.4206 0 3.7308c0,0.445 -2.1369,0.412 -2.1369,0.0147zm14.5596 -0.011l0 -10.6445c0,-0.5139 2.1369,-0.5139 2.1369,0l0 10.6445c0,0.4276 -2.1369,0.4277 -2.1369,0zm4.357 -0.0057l0 -10.6334c0,-0.5773 1.7864,-0.4308 2.118,-0.0085l5.6641 7.2145 0 -7.2215c0,-0.4892 2.0572,-0.5104 2.0572,0.0114l0 10.6387c0,0.4763 -1.7927,0.3727 -2.0868,-0.0011l-5.6953 -7.2388 0 7.2432c0,0.4264 -2.0572,0.436 -2.0572,-0.0045zm15.2169 -8.945l-3.1798 0c-0.6748,0 -0.6748,-1.9774 0,-1.9774l8.5496 0c0.7521,0 0.7263,1.9774 0.0232,1.9774l-3.2401 0 0 8.955c0,0.4201 -2.1529,0.4201 -2.1529,0l0 -8.955zm7.5305 -1.9774l8.1027 0c0.4805,0 0.5259,1.9774 -0.026,1.9774l-5.9398 0 0 2.5515 5.271 0c0.5249,0 0.5491,1.9774 -0.0147,1.9774l-5.2563 0 0 2.6791 5.9571 0c0.4881,0 0.5093,1.9774 -0.0118,1.9774l-8.0822 0 0 -11.1628zm12.2827 0.2769l0 8.9085 5.5678 0c0.5955,0 0.5955,1.9774 0,1.9774l-7.7047 0 0 -10.8859c0,-0.5022 2.1369,-0.5022 2.1369,0z"/>
   <path id="_188036440" fill="#AAA9A9" d="M24.9167 28.1648l0 0c1.2755,0 2.319,1.0652 2.319,2.3671l0 2.5502c5.4567,-1.0588 9.5783,-5.8632 9.5783,-11.6288 0,-4.1425 -2.131,-7.7831 -5.3508,-9.9042 -0.644,-0.4241 -1.1436,-0.63 -1.4284,-1.4373 -0.6156,-1.7451 1.2224,-3.893 3.1997,-2.7995 4.9676,2.7472 8.1166,8.0584 8.1166,14.141 0,8.2771 -6.1418,15.1215 -14.1154,16.2267l0 2.9379c0,1.3019 -1.0435,2.3671 -2.319,2.3671l0 0c-1.2754,0 -2.3189,-1.0652 -2.3189,-2.3671l0 -2.952c-7.9245,-1.1487 -14.0146,-7.9704 -14.0146,-16.2126 0,-0.8534 -0.0461,-2.594 0.3518,-3.3583 0.0273,-0.0523 0.0563,-0.1033 0.0869,-0.1528 1.3569,-2.1942 4.6632,-0.9283 4.2567,1.5908 -0.106,0.6358 -0.1583,1.272 -0.1583,1.9203 0,5.7302 4.0708,10.5115 9.4775,11.6095l0 -2.5309c0,-1.3019 1.0435,-2.3671 2.3189,-2.3671z"/>
  </g>
 </g>
</svg>
