<?xml version="1.0" encoding="UTF-8"?>
<!DOCTYPE svg PUBLIC "-//W3C//DTD SVG 1.1//EN" "http://www.w3.org/Graphics/SVG/1.1/DTD/svg11.dtd">
<!-- Creator: CorelDRAW -->
<svg xmlns="http://www.w3.org/2000/svg" xml:space="preserve" width="160px" height="50px" shape-rendering="geometricPrecision" text-rendering="geometricPrecision" image-rendering="optimizeQuality" fill-rule="evenodd" clip-rule="evenodd"
viewBox="0 0 160 50">
 <g id="MasterLayer_x0020_1">
  <metadata id="CorelCorpID_0Corel-Layer"/>
  <g id="_191702184">
   <g>
    <path id="_191697936" fill="#DEDEDD" d="M40.3629 32.6108c-0.6693,4.889 -5.1244,8.6697 -10.5185,8.6697 -5.8561,0 -10.6057,-4.4555 -10.6057,-9.9478l-2.2161 1.5234 0.415 1.4757 -1.0145 0.9684 -1.2911 -0.9223 -0.9426 0.9458c1.7617,5.5989 6.9947,9.6606 13.1743,9.6606 7.198,0 13.1112,-5.511 13.7508,-12.5427 0.0262,-0.291 0.238,-1.367 -0.2816,-1.2615 -0.5411,0.1099 -0.4112,0.9985 -0.47,1.4307zm-20.3695 0.1535c0.0742,0.3447 0.172,0.6824 0.2918,1.0116 1.1794,3.8016 5.027,6.5896 9.5897,6.5896 5.3702,0 9.7498,-3.8625 9.9523,-8.6933 0.0198,-0.4807 -0.2434,-0.5604 -0.2826,-0.0206 -0.2403,3.3028 -3.623,5.9229 -7.7581,5.9229 -4.2913,0 -7.7597,-2.694 -7.7597,-6.1719l0.1092 -2.0995 -2.0759 1.5198 0.1093 1.9427 -1.2175 -0.611 -0.9203 0.6241m-4.5237 4.7461l0 -0.0001c-0.1248,-0.1434 -0.1096,-0.3627 0.0338,-0.4875l1.2261 -1.0672c0.1434,-0.1247 0.3628,-0.1095 0.4875,0.0339l0.0002 0c0.1247,0.1434 0.1095,0.3627 -0.0339,0.4876l-1.2261 1.067c-0.1434,0.1249 -0.3627,0.1097 -0.4876,-0.0337zm5.4736 -2.6194l-0.0002 0c-0.0827,-0.0952 -0.0726,-0.2407 0.0226,-0.3235l0.8132 -0.7078c0.0952,-0.0828 0.2406,-0.0726 0.3233,0.0224l0.0002 0.0001c0.0827,0.0951 0.0726,0.2406 -0.0224,0.3234l-0.8134 0.7078c-0.095,0.0829 -0.2406,0.0728 -0.3233,-0.0224zm-3.2901 0.7094l0 -0.0001c-0.1094,-0.1257 -0.0961,-0.3181 0.0296,-0.4276l1.0751 -0.9357c0.1258,-0.1094 0.3182,-0.0961 0.4276,0.0296l0 0.0001c0.1095,0.1257 0.0961,0.318 -0.0296,0.4276l-1.0751 0.9357c-0.1257,0.1094 -0.3182,0.0961 -0.4276,-0.0296zm4.6699 -1.8007l-0.0002 0c-0.0998,-0.1147 -0.0876,-0.2903 0.0271,-0.3902l0.9811 -0.8539c0.1147,-0.0998 0.2902,-0.0877 0.3902,0.027l0 0.0002c0.0998,0.1147 0.0877,0.2903 -0.0271,0.3901l-0.981 0.8539c-0.1148,0.0998 -0.2903,0.0877 -0.3901,-0.0271z"/>
    <path id="_191697480" fill="#969594" d="M34.712 29.7271c-0.0742,-0.3447 -0.172,-0.6824 -0.2919,-1.0116 -1.1793,-3.8016 -5.0269,-6.5896 -9.5896,-6.5896 -5.3702,0 -9.7498,3.8625 -9.9523,8.6932 -0.0198,0.4808 0.2434,0.5605 0.2826,0.0207 0.2403,-3.3029 3.6229,-5.9229 7.7581,-5.9229 4.2912,0 7.7596,2.694 7.7596,6.1719l-0.1091 2.0995 2.0759 -1.5198 -0.1093 -1.9428 1.2175 0.6111 0.9465 -0.5988m-0.9758 -2.1524l0 0c0.0826,0.0958 0.0722,0.2411 -0.0224,0.3238l-0.8133 0.708c-0.0954,0.0826 -0.2411,0.0722 -0.3233,-0.0224l0 0c-0.083,-0.0953 -0.0726,-0.2411 0.022,-0.3236l0.8132 -0.7081c0.0955,-0.0825 0.241,-0.0722 0.3238,0.0223zm-1.3798 1.0917l0 0c0.0998,0.1147 0.0874,0.2902 -0.0271,0.3902l-0.981 0.8539c-0.1151,0.0997 -0.2906,0.0876 -0.3903,-0.0271l0 0c-0.0999,-0.1146 -0.0875,-0.2902 0.0269,-0.3902l0.9811 -0.8539c0.115,-0.1 0.2905,-0.0876 0.3904,0.0271z"/>
    <path id="_191697384" fill="#DEDEDD" d="M30.8318 10.7766c0.03,-0.9301 -1.0871,-1.0479 -1.144,-0.3065 -0.0915,1.1888 -0.3224,2.2086 -1.4842,3.0147 -1.1959,0.8299 -1.2537,2.0327 -1.2523,3.1539 0.3813,0.102 0.7626,0.2043 1.1441,0.3065 -0.0015,-1.1211 0.0563,-2.3239 1.2522,-3.1539 1.1618,-0.806 1.4458,-1.8229 1.4842,-3.0147z"/>
    <polygon id="_191697768" fill="#C2C1C1" points="31.3924,5.5581 31.1753,7.7927 32.7447,7.0406 31.5375,8.8568 33.2398,9.0658 31.3658,9.977 32.7447,11.0908 30.7064,10.8527 31.3924,12.5736 29.7356,11.2502 29.5449,13.116 28.7138,11.0618 27.6974,12.5736 27.9145,10.3389 26.345,11.091 27.5524,9.2747 25.8499,9.0658 27.7239,8.1547 26.345,7.0406 28.3834,7.2787 27.6974,5.5581 29.3542,6.8815 29.5449,5.0156 30.376,7.0698 "/>
    <path id="_191697624" fill="#AAA9A9" d="M37.0142 26.8766l0 0c0.1093,0.1258 0.0957,0.3181 -0.0297,0.4276l-1.0751 0.9358c-0.1258,0.1093 -0.3184,0.0959 -0.4276,-0.0296l0 0c-0.1095,-0.1256 -0.0959,-0.3181 0.0295,-0.4277l1.0751 -0.9357c0.1258,-0.1096 0.3184,-0.096 0.4278,0.0296zm2.1835 -1.9102l0 0c0.1246,0.1436 0.1091,0.3629 -0.0339,0.488l-1.2261 1.067c-0.1434,0.1246 -0.3629,0.1094 -0.4875,-0.0337l0 0c-0.1249,-0.1433 -0.1096,-0.363 0.0336,-0.4878l1.2261 -1.0672c0.1434,-0.1249 0.3629,-0.1093 0.4878,0.0337zm-13.5673 -7.3535l0.8742 -1.8982 2.3322 0 0.9232 2.0046c5.0966,0.9008 9.2295,4.5969 10.7559,9.4483l-0.9425 0.9459 -1.2912 -0.9223 -1.0145 0.9684 0.415 1.4756 -2.2161 1.5235c0,-5.4923 -4.7496,-9.9479 -10.6056,-9.9479 -5.3941,0 -9.8492,3.7808 -10.5186,8.6698 -0.0587,0.4322 0.0712,1.3208 -0.4699,1.4307 -0.5196,0.1054 -0.3079,-0.9705 -0.2816,-1.2616 0.5881,-6.4653 5.6352,-11.6446 12.0395,-12.4368z"/>
   </g>
   <path id="_191703504" fill="#C2C1C1" fill-rule="nonzero" d="M130.162 27.3766c0,-4.7772 7.2525,-6.2381 9.5207,-2.938 0.4874,-0.4825 1.0378,-0.8592 1.6514,-1.1268 0.6167,-0.2677 1.2235,-0.4031 1.8272,-0.4031 1.0743,0 1.8968,0.2742 2.464,0.8193 0.567,0.5452 0.8488,1.3615 0.8488,2.4518l0 2.2468 0 4.9859c-0.0065,0 -0.0332,0.0166 -0.0829,0.0462 -0.0497,0.033 -0.0996,0.0628 -0.1492,0.0893 -0.0531,0.0265 -0.1261,0.0561 -0.2254,0.0958 -0.0963,0.0396 -0.1991,0.0727 -0.3052,0.0959 -0.1062,0.0263 -0.2355,0.0494 -0.388,0.0693 -0.1526,0.0198 -0.3118,0.0297 -0.4809,0.0297 -0.5173,0 -0.9384,-0.1222 -1.2633,-0.3634 -0.325,-0.2413 -0.4874,-0.5782 -0.4874,-1.0111l0 -4.4937 0 -0.707c0,-0.9483 -0.4346,-1.4207 -1.31,-1.4207 -0.5837,0 -1.1706,0.2544 -1.7577,0.7633l0 1.8205 0 4.9859c-0.0065,0 -0.0363,0.0166 -0.0829,0.0462 -0.0496,0.033 -0.0993,0.0628 -0.1525,0.0893 -0.0498,0.0265 -0.126,0.0561 -0.2221,0.0958 -0.0962,0.0396 -0.1989,0.0727 -0.3051,0.0959 -0.1095,0.0263 -0.2388,0.0494 -0.3881,0.0693 -0.1524,0.0198 -0.3148,0.0297 -0.4808,0.0297 -0.5207,0 -0.9417,-0.1222 -1.2634,-0.3634 -0.325,-0.2413 -0.4874,-0.5782 -0.4874,-1.0111l0 -4.4937 0 -0.707c0,-0.9483 -0.4377,-1.4207 -1.31,-1.4207 -0.5769,0 -1.1738,0.2709 -1.7873,0.8127l0 1.315 0 5.442c-0.0067,0 -0.0365,0.0166 -0.0831,0.0462 -0.0497,0.033 -0.0993,0.0628 -0.1524,0.0893 -0.0499,0.0265 -0.1259,0.0561 -0.2222,0.0958 -0.0961,0.0396 -0.1989,0.0727 -0.3052,0.0959 -0.1092,0.0263 -0.2385,0.0494 -0.3912,0.0693 -0.1492,0.0198 -0.3116,0.0297 -0.4808,0.0297 -0.5174,0 -0.9379,-0.123 -1.2602,-0.3634 -0.3243,-0.242 -0.4874,-0.5782 -0.4874,-1.0111l0 -5.0876zm-8.9668 0.9905c0,-1.9726 0.6566,-2.9605 1.963,-2.9605 1.3033,0 1.9532,0.9879 1.9532,2.9605 0,1.9693 -0.6499,2.9539 -1.9532,2.9539 -1.3064,0 -1.963,-0.9846 -1.963,-2.9539zm7.3154 0c0,-0.9417 -0.136,-1.7711 -0.4113,-2.4847 -0.2753,-0.717 -0.6567,-1.2952 -1.1473,-1.7281 -0.4875,-0.4361 -1.0513,-0.7632 -1.6913,-0.978 -0.6368,-0.2181 -1.3364,-0.3238 -2.1025,-0.3238 -0.7627,0 -1.4657,0.1057 -2.1023,0.3238 -0.6402,0.2148 -1.2038,0.5419 -1.6946,0.978 -0.4941,0.4329 -0.8788,1.0111 -1.1541,1.7281 -0.2752,0.7136 -0.4111,1.543 -0.4111,2.4847 0,0.9384 0.1359,1.7644 0.4111,2.4781 0.2753,0.7169 0.66,1.2953 1.1541,1.7281 0.4908,0.4361 1.0544,0.7633 1.6946,0.9846 0.6366,0.2181 1.3396,0.327 2.1023,0.327 0.7661,0 1.4657,-0.1089 2.1025,-0.327 0.64,-0.2213 1.2038,-0.5485 1.6913,-0.9846 0.4906,-0.4328 0.872,-1.0112 1.1473,-1.7281 0.2753,-0.7137 0.4113,-1.5397 0.4113,-2.4781zm-19.1476 0c0,-1.9726 0.6568,-2.9605 1.9632,-2.9605 1.3033,0 1.9532,0.9879 1.9532,2.9605 0,1.9693 -0.6499,2.9539 -1.9532,2.9539 -1.3064,0 -1.9632,-0.9846 -1.9632,-2.9539zm7.3156 0c0,-0.9417 -0.136,-1.7711 -0.4113,-2.4847 -0.2753,-0.717 -0.6567,-1.2952 -1.1473,-1.7281 -0.4875,-0.4361 -1.0513,-0.7632 -1.6913,-0.978 -0.6368,-0.2181 -1.3364,-0.3238 -2.1025,-0.3238 -0.7627,0 -1.4657,0.1057 -2.1023,0.3238 -0.6402,0.2148 -1.2038,0.5419 -1.6946,0.978 -0.4941,0.4329 -0.8788,1.0111 -1.1541,1.7281 -0.2752,0.7136 -0.4111,1.543 -0.4111,2.4847 0,0.9384 0.1359,1.7644 0.4111,2.4781 0.2753,0.7169 0.66,1.2953 1.1541,1.7281 0.4908,0.4361 1.0544,0.7633 1.6946,0.9846 0.6366,0.2181 1.3396,0.327 2.1023,0.327 0.7661,0 1.4657,-0.1089 2.1025,-0.327 0.64,-0.2213 1.2038,-0.5485 1.6913,-0.9846 0.4906,-0.4328 0.872,-1.0112 1.1473,-1.7281 0.2753,-0.7137 0.4113,-1.5397 0.4113,-2.4781zm-17.7016 2.9836c0.7063,0 1.2999,-0.2445 1.7841,-0.7302 0.4808,-0.489 0.7229,-1.2456 0.7229,-2.27 0,-0.9746 -0.2023,-1.7049 -0.6102,-2.1839 -0.4079,-0.4825 -0.9352,-0.7204 -1.5753,-0.7204 -0.5238,0 -0.9682,0.162 -1.3297,0.4825l0 5.3427c0.3417,0.0528 0.6798,0.0793 1.0082,0.0793zm1.4094 -8.4817c0.965,0 1.7873,0.2445 2.4672,0.727 0.6797,0.4857 1.1805,1.1234 1.5022,1.9229 0.3216,0.7963 0.4809,1.7116 0.4809,2.7425 0,0.988 -0.1494,1.8503 -0.4479,2.5838 -0.2983,0.7369 -0.7161,1.3249 -1.2534,1.7678 -0.5372,0.4426 -1.1541,0.7698 -1.8537,0.9813 -0.6997,0.2147 -1.4824,0.3205 -2.3411,0.3205 -1.4392,0 -2.8918,-0.2776 -4.3542,-0.8327l0 -13.6758c0.6466,-0.1123 1.207,-0.1652 1.6812,-0.1652 0.471,0 1.038,0.0529 1.7012,0.1652l0 4.2492c0.6798,-0.5254 1.4856,-0.7865 2.4176,-0.7865zm-7.9854 3.3901l0 1.761 0 5.4386c-0.0067,0 -0.0363,0.0166 -0.083,0.0496 -0.0496,0.033 -0.0993,0.0628 -0.1524,0.086 -0.0499,0.0264 -0.1261,0.0594 -0.2222,0.099 -0.0961,0.0397 -0.1989,0.0695 -0.3051,0.0958 -0.1093,0.0265 -0.2388,0.0496 -0.3912,0.0695 -0.1527,0.0165 -0.3118,0.0263 -0.4809,0.0263 -0.5174,0 -0.9385,-0.1189 -1.2635,-0.36 -0.3217,-0.2446 -0.4841,-0.5816 -0.4841,-1.0145l0 -3.988 0 -1.054c0,-0.5287 -0.126,-0.9218 -0.3748,-1.1763 -0.2487,-0.2543 -0.5903,-0.3833 -1.0246,-0.3833 -0.5704,0 -1.1904,0.261 -1.8637,0.7864l0 1.3249 0 5.4386c-0.0066,0 -0.0365,0.0166 -0.0829,0.0496 -0.0499,0.033 -0.0995,0.0628 -0.1526,0.086 -0.0497,0.0264 -0.1259,0.0594 -0.2222,0.099 -0.0961,0.0397 -0.1989,0.0695 -0.3051,0.0958 -0.1093,0.0265 -0.2386,0.0496 -0.3913,0.0695 -0.1492,0.0165 -0.3116,0.0263 -0.4808,0.0263 -0.5174,0 -0.9384,-0.1189 -1.26,-0.36 -0.3252,-0.2446 -0.4876,-0.5816 -0.4876,-1.0145l0 -6.2804c0,-2.7038 3.0403,-3.3775 5.2294,-3.3775 1.5811,0 2.7738,0.2875 3.5829,0.8657 0.8089,0.5781 1.2157,1.4241 1.2157,2.5409zm-15.5957 -3.1852c0.6465,-0.109 1.2069,-0.1652 1.681,-0.1652 0.471,0 1.038,0.0562 1.7013,0.1652l0 10.3386c-0.0065,0 -0.0365,0.0166 -0.0829,0.0462 -0.0497,0.033 -0.0995,0.0628 -0.1525,0.0893 -0.0498,0.0265 -0.126,0.0561 -0.2222,0.0958 -0.0962,0.0396 -0.199,0.0727 -0.3051,0.0959 -0.1094,0.0263 -0.2387,0.0494 -0.3914,0.0693 -0.1492,0.0198 -0.3116,0.0297 -0.4807,0.0297 -0.5174,0 -0.9384,-0.1222 -1.2601,-0.3634 -0.325,-0.2413 -0.4874,-0.5782 -0.4874,-1.0111l0 -9.3903zm1.681 -1.6058c-1.1969,0 -1.7972,-0.532 -1.7972,-1.5893 0,-1.0011 0.6003,-1.5001 1.7972,-1.5001 1.2106,0 1.8175,0.499 1.8175,1.5001 0,1.0573 -0.6069,1.5893 -1.8175,1.5893zm-10.648 6.899c0,-1.9726 0.6566,-2.9605 1.9632,-2.9605 1.3031,0 1.9532,0.9879 1.9532,2.9605 0,1.9693 -0.6501,2.9539 -1.9532,2.9539 -1.3066,0 -1.9632,-0.9846 -1.9632,-2.9539zm7.3154 0c0,-0.9417 -0.136,-1.7711 -0.4112,-2.4847 -0.2753,-0.717 -0.6566,-1.2952 -1.1474,-1.7281 -0.4875,-0.4361 -1.0512,-0.7632 -1.6912,-0.978 -0.6368,-0.2181 -1.3365,-0.3238 -2.1024,-0.3238 -0.7627,0 -1.4658,0.1057 -2.1025,0.3238 -0.6401,0.2148 -1.2038,0.5419 -1.6946,0.978 -0.494,0.4329 -0.8787,1.0111 -1.154,1.7281 -0.2752,0.7136 -0.4111,1.543 -0.4111,2.4847 0,0.9384 0.1359,1.7644 0.4111,2.4781 0.2753,0.7169 0.66,1.2953 1.154,1.7281 0.4908,0.4361 1.0545,0.7633 1.6946,0.9846 0.6367,0.2181 1.3398,0.327 2.1025,0.327 0.7659,0 1.4656,-0.1089 2.1024,-0.327 0.64,-0.2213 1.2037,-0.5485 1.6912,-0.9846 0.4908,-0.4328 0.8721,-1.0112 1.1474,-1.7281 0.2752,-0.7137 0.4112,-1.5397 0.4112,-2.4781zm-16.2723 5.5178c1.2933,0 2.3378,-0.2379 3.1305,-0.7202 0.7958,-0.479 1.1904,-1.1169 1.1904,-1.913 0,-0.3205 -0.0564,-0.5981 -0.1691,-0.8262 -0.1128,-0.228 -0.2122,-0.3667 -0.2951,-0.413 -0.2851,0.2842 -0.7262,0.5486 -1.3166,0.7865 -0.5936,0.2379 -1.2237,0.3568 -1.8902,0.3568 -1.1341,0 -1.9864,-0.3568 -2.56,-1.0705 -0.5736,-0.7104 -0.859,-1.7281 -0.859,-3.053 0,-1.2192 0.2986,-2.1908 0.8987,-2.9176 0.597,-0.7269 1.4558,-1.0903 2.5701,-1.0903 0.6666,0 1.2801,0.1189 1.8437,0.3535 0.5638,0.2345 0.9883,0.4956 1.2735,0.7797 0.0829,-0.0462 0.1824,-0.1816 0.2951,-0.4064 0.116,-0.2247 0.1724,-0.4988 0.1724,-0.8227 0,-0.7996 -0.3912,-1.4407 -1.1706,-1.923 -0.7825,-0.479 -1.8205,-0.7203 -3.1138,-0.7203 -1.9499,0 -3.4687,0.5914 -4.5564,1.7776 -1.0876,1.1829 -1.6348,2.8382 -1.6348,4.9595 0,2.1576 0.5271,3.8394 1.575,5.0487 1.0481,1.2093 2.5867,1.8139 4.6162,1.8139z"/>
  </g>
 </g>
</svg>
