<?xml version="1.0" encoding="UTF-8"?>
<!DOCTYPE svg PUBLIC "-//W3C//DTD SVG 1.1//EN" "http://www.w3.org/Graphics/SVG/1.1/DTD/svg11.dtd">
<!-- Creator: CorelDRAW -->
<svg xmlns="http://www.w3.org/2000/svg" xml:space="preserve" width="160px" height="50px" shape-rendering="geometricPrecision" text-rendering="geometricPrecision" image-rendering="optimizeQuality" fill-rule="evenodd" clip-rule="evenodd"
viewBox="0 0 160 50"
 xmlns:xlink="http://www.w3.org/1999/xlink"
 focusable="false"
 aria-label="DexView">
 <g id="Layer_x0020_1">
  <metadata id="CorelCorpID_0Corel-Layer"/>
  <g id="_191451680">
   <g>
    <path id="_315409448" fill="#AAA9A9" d="M16.4808 23.7136c-0.8942,0 -1.6194,0.7248 -1.6194,1.6192 0,0.894 0.725,1.619 1.6194,1.619 0.8942,0 1.619,-0.7252 1.619,-1.619 0,-0.8942 -0.725,-1.6192 -1.619,-1.6192z"/>
    <path id="_315409424" fill="#AAA9A9" d="M28.7756 26.952c0.8942,0 1.6192,-0.7252 1.6192,-1.6192 0,-0.8942 -0.725,-1.619 -1.6192,-1.619 -0.8944,0 -1.6192,0.7248 -1.6192,1.619 0,0.894 0.725,1.6192 1.6192,1.6192z"/>
    <path id="_315410168" fill="#AAA9A9" d="M40.5152 25.3252c0,-9.8766 -7.8608,-17.883 -17.558,-17.883 -9.6966,0 -17.5576,8.0064 -17.5576,17.883 0,8.2166 5.4412,15.1382 12.8536,17.2328 1.45,-3.579 2.4542,-8.0194 2.8816,-12.4066 -7.0416,-0.304 -12.4844,-2.346 -12.4844,-4.8186 0,-1.7208 2.6362,-3.2328 6.611,-4.0956l2.1322 -7.2382 1.9536 6.6332c0.582,-0.0524 1.179,-0.0912 1.7874,-0.1182 0.597,-0.025 1.2054,-0.0384 1.8226,-0.0384 0.6174,0 1.2258,0.0134 1.8228,0.0384 0.6084,0.027 1.2056,0.0658 1.7874,0.1182l1.9534 -6.6332 2.132 7.2382c3.975,0.863 6.6114,2.3748 6.6114,4.0956 0,2.4728 -5.443,4.5146 -12.4844,4.8186 0.4272,4.3872 1.4314,8.8276 2.8816,12.4066 7.4126,-2.0946 12.8538,-9.0164 12.8538,-17.2328z"/>
   </g>
   <g>
    <path id="_315410672" fill="#AAA9A9" d="M49.8152 33.252l0 -16.818 6.2082 0c5.1324,0 8.3104,3.1534 8.3104,8.4008 0,5.2556 -3.178,8.417 -8.3022,8.417l-6.2164 0 0 0.0002zm6.0602 -3.4654c2.8332,0 4.385,-1.3138 4.385,-4.9518 0,-3.6214 -1.5518,-4.9354 -4.4424,-4.9354l-1.938 0 0 9.8872 1.9954 0z"/>
    <polygon id="_315410096" fill="#AAA9A9" points="66.699,16.434 78.4258,16.434 78.4258,19.7352 70.7638,19.7352 70.7638,23.1842 77.826,23.1842 77.826,26.4936 70.7638,26.4936 70.7638,29.9508 78.4258,29.9508 78.4258,33.252 66.699,33.252 "/>
    <polygon id="_315411224" fill="#AAA9A9" points="88.157,21.7472 88.2882,21.7472 91.3922,16.434 95.9416,16.434 90.8668,24.8432 96.1062,33.252 91.4418,33.252 88.2884,27.8814 88.1572,27.8814 85.0038,33.252 80.3722,33.252 85.587,24.8432 80.5036,16.434 85.086,16.434 "/>
    <polygon id="_315411560" fill="#AAA9A9" points="105.632,28.7518 105.772,28.7518 109.533,16.434 114.082,16.434 108.408,33.2518 102.996,33.2518 97.3216,16.434 101.871,16.434 "/>
    <path id="_315410960" fill="#AAA9A9" d="M115.848 17.247c0,-1.0594 0.928,-1.9132 2.0614,-1.9132 1.1412,0 2.061,0.8538 2.061,1.9132 0,1.0594 -0.9198,1.9216 -2.061,1.9216 -1.1334,0 -2.0614,-0.8622 -2.0614,-1.9216zm0.0494 3.3916l4.0156 0 0 12.6134 -4.0156 0 0 -12.6134z"/>
    <path id="_315411440" fill="#AAA9A9" d="M121.974 26.9946c0,-3.909 2.4472,-6.5202 6.2576,-6.5202 3.5802,0 6.1094,2.2826 6.1094,6.438l0 1.0018 -8.409 0 0 0.1066c0,1.5438 0.9528,2.5706 2.4966,2.5706 1.051,0 1.8724,-0.4518 2.1842,-1.2894l3.6872 0.107c-0.4596,2.48 -2.636,4.0812 -5.9454,4.0812 -3.9664,0 -6.3806,-2.4554 -6.3806,-6.4956zm8.6304 -1.4124c-0.0162,-1.2892 -0.9686,-2.2092 -2.2908,-2.2092 -1.3306,0 -2.3242,0.9528 -2.3816,2.2092l4.6724 0z"/>
    <polygon id="_315411488" fill="#AAA9A9" points="135.343,20.6386 139.375,20.6386 141.075,28.719 141.182,28.719 143.005,20.6386 146.938,20.6386 148.811,28.6616 148.918,28.6616 150.568,20.6386 154.6,20.6386 151.307,33.252 147.013,33.252 145.042,25.9024 144.902,25.9024 142.931,33.252 138.628,33.252 "/>
   </g>
  </g>
 </g>
</svg>
