<?xml version="1.0" encoding="UTF-8"?>
<!DOCTYPE svg PUBLIC "-//W3C//DTD SVG 1.1//EN" "http://www.w3.org/Graphics/SVG/1.1/DTD/svg11.dtd">
<!-- Creator: CorelDRAW -->
<svg xmlns="http://www.w3.org/2000/svg" xml:space="preserve" width="160px" height="50px" shape-rendering="geometricPrecision" text-rendering="geometricPrecision" image-rendering="optimizeQuality" fill-rule="evenodd" clip-rule="evenodd"
viewBox="0 0 160 50">
 <g id="MasterLayer_x0020_1">
  <metadata id="CorelCorpID_0Corel-Layer"/>
  <g id="_189898712">
   <path id="_189899144" fill="#969594" fill-rule="nonzero" d="M81.0186 27.7186l4.619 4.7716c0.2974,0.307 0.4462,0.656 0.4462,1.0467 0,0.3907 -0.1488,0.7397 -0.4462,1.0467 -0.2705,0.279 -0.6084,0.4187 -1.014,0.4187 -0.4055,0 -0.7436,-0.1397 -1.0138,-0.4187l-4.6238 -4.7729 -4.6643 4.8566c-0.1353,0.1117 -0.2703,0.1953 -0.4055,0.2512 -0.1352,0.0558 -0.311,0.0838 -0.5275,0.0838 -0.2161,0 -0.3987,-0.028 -0.5474,-0.0838 -0.1486,-0.0559 -0.2907,-0.1395 -0.4259,-0.2512 -0.2974,-0.307 -0.453,-0.6699 -0.4663,-1.0886 -0.0135,-0.4186 0.1284,-0.7815 0.4259,-1.0885l4.6179 -4.7645c1.5349,-1.6102 2.3979,-1.7567 4.0257,-0.0071z"/>
   <path id="_190561168" fill="#C2C1C1" d="M81.0186 27.7186c-1.6278,-1.7496 -2.4908,-1.6031 -4.0258,0.0071l-4.6178 -4.7811c-0.2975,-0.307 -0.4462,-0.6489 -0.4462,-1.0258 0,-0.3768 0.1487,-0.7188 0.4462,-1.0258 0.2702,-0.307 0.6015,-0.4605 0.9935,-0.4605 0.3921,0 0.7369,0.1535 1.0343,0.4605l4.5832 4.7729 4.6238 -4.7729c0.2974,-0.307 0.6353,-0.4605 1.0138,-0.4605 0.3786,0 0.7166,0.1535 1.014,0.4605 0.2974,0.307 0.4462,0.649 0.4462,1.0258 0,0.3769 -0.1488,0.7188 -0.4462,1.0258l-4.619 4.774zm-18.5401 -7.2443c0.9733,0 1.8928,0.1885 2.758,0.5653 0.8652,0.3769 1.6222,0.8932 2.2712,1.5491 0.6489,0.6558 1.156,1.4235 1.5211,2.3027 0.3649,0.8792 0.5475,1.8212 0.5475,2.8259l0 5.9033c0,0.3908 -0.1419,0.7328 -0.4259,1.0258 -0.2838,0.293 -0.6151,0.4396 -0.9938,0.4396 -0.4055,0 -0.7501,-0.1466 -1.0341,-0.4396 -0.284,-0.293 -0.4258,-0.635 -0.4258,-1.0258l0 -5.9033c0,-0.586 -0.1083,-1.1373 -0.3245,-1.6536 -0.2165,-0.5164 -0.5138,-0.9769 -0.8923,-1.3816 -0.3786,-0.4048 -0.8248,-0.7188 -1.3384,-0.9421 -0.5138,-0.2232 -1.0681,-0.3349 -1.663,-0.3349 -0.5679,0 -1.1085,0.1117 -1.6223,0.3349 -0.5138,0.2233 -0.96,0.5373 -1.3384,0.9421 -0.3786,0.4047 -0.6762,0.8652 -0.8923,1.3816 -0.2164,0.5163 -0.3245,1.0676 -0.3245,1.6536l0 5.6521c0,0.0856 -0.0055,0.1678 -0.0174,0.2481 -0.0183,0.3571 -0.1601,0.6725 -0.4242,0.9452 -0.2838,0.293 -0.6286,0.4396 -1.0343,0.4396 -0.3784,0 -0.7097,-0.1466 -0.9936,-0.4396 -0.284,-0.2932 -0.4258,-0.6351 -0.4258,-1.0258l0 -11.5972c0,-0.4187 0.1418,-0.7675 0.4258,-1.0467 0.2839,-0.279 0.6152,-0.4187 0.9936,-0.4187 0.4057,0 0.7505,0.1397 1.0343,0.4187 0.2733,0.2687 0.4153,0.6015 0.4256,0.9994 0.4471,-0.3371 0.9322,-0.6211 1.4558,-0.8528 0.8517,-0.3768 1.7642,-0.5653 2.7377,-0.5653zm-10.2615 14.528c-0.3784,0 -0.7097,-0.1466 -0.9936,-0.4396 -0.284,-0.2932 -0.4258,-0.6351 -0.4258,-1.0258l0 -11.5972c0,-0.4187 0.1418,-0.7675 0.4258,-1.0467 0.2839,-0.279 0.6152,-0.4187 0.9936,-0.4187 0.4057,0 0.7505,0.1397 1.0343,0.4187 0.2839,0.2792 0.426,0.628 0.426,1.0467l0 11.5972c0,0.3907 -0.1421,0.7326 -0.426,1.0258 -0.2838,0.293 -0.6286,0.4396 -1.0343,0.4396zm-10.7073 -2.889c1.1896,0 2.1901,-0.4185 3.0012,-1.2558 0.8112,-0.8374 1.2168,-1.8701 1.2168,-3.0982 0,-0.5862 -0.1081,-1.1444 -0.3245,-1.6747 -0.2163,-0.5304 -0.5136,-0.9978 -0.8923,-1.4025 -0.3784,-0.4048 -0.8246,-0.7188 -1.3384,-0.9421 -0.5138,-0.2232 -1.0681,-0.3349 -1.6628,-0.3349 -0.5949,0 -1.1492,0.1117 -1.663,0.3349 -0.5138,0.2233 -0.96,0.5373 -1.3385,0.9421 -0.3786,0.4047 -0.6759,0.8721 -0.8922,1.4025 -0.2164,0.5303 -0.3246,1.0885 -0.3246,1.6747 0,1.2281 0.4057,2.2608 1.2168,3.0982 0.8113,0.8373 1.8117,1.2558 3.0015,1.2558zm0 -11.639c0.9733,0 1.8926,0.1885 2.7579,0.5653 0.8653,0.3769 1.6223,0.9001 2.2713,1.57 0.6489,0.6699 1.1559,1.4445 1.521,2.3237 0.365,0.8792 0.5475,1.8211 0.5475,2.826 0,1.0047 -0.1825,1.9538 -0.5475,2.847 -0.3651,0.893 -0.8721,1.6676 -1.521,2.3235 -0.649,0.656 -1.406,1.1793 -2.2713,1.57 -0.8653,0.3908 -1.7846,0.5862 -2.7579,0.5862 -0.9735,0 -1.8928,-0.1954 -2.7582,-0.5862 -0.8652,-0.3907 -1.6222,-0.914 -2.2712,-1.57 -0.6489,-0.6559 -1.156,-1.4305 -1.5209,-2.3235 -0.3651,-0.8932 -0.5476,-1.8423 -0.5476,-2.847 0,-1.0049 0.1825,-1.9468 0.5476,-2.826 0.3649,-0.8792 0.872,-1.6538 1.5209,-2.3237 0.649,-0.6699 1.406,-1.1931 2.2712,-1.57 0.8654,-0.3768 1.7847,-0.5653 2.7582,-0.5653zm-14.5201 0c1.1897,0 2.2982,0.2792 3.3257,0.8374 1.0275,0.5582 1.8794,1.3537 2.5552,2.3864 0.2164,0.3351 0.2705,0.7048 0.1623,1.1095 -0.1083,0.4047 -0.3244,0.7326 -0.6489,0.984 -0.2975,0.1953 -0.6422,0.2511 -1.0343,0.1673 -0.392,-0.0837 -0.6961,-0.279 -0.9125,-0.586 -0.3785,-0.642 -0.872,-1.1304 -1.4804,-1.4654 -0.6084,-0.3349 -1.2641,-0.5024 -1.9671,-0.5024 -0.5679,0 -1.1087,0.1117 -1.6225,0.3349 -0.5137,0.2233 -0.9665,0.5373 -1.3585,0.9421 -0.3921,0.4047 -0.6964,0.8652 -0.9127,1.3816 -0.2162,0.5163 -0.3244,1.0676 -0.3244,1.6536 0,0.5862 0.1082,1.1444 0.3244,1.6748 0.2163,0.5303 0.5206,0.9978 0.9127,1.4024 0.392,0.4049 0.8448,0.7188 1.3585,0.9422 0.5138,0.2231 1.0546,0.3348 1.6225,0.3348 0.6217,0 1.2235,-0.1395 1.8047,-0.4187 0.5816,-0.279 1.0749,-0.6837 1.4806,-1.214l0 0.0418c0.2433,-0.3348 0.5541,-0.5163 0.9329,-0.5442 0.3785,-0.028 0.7299,0.0697 1.0544,0.293 0.2976,0.279 0.4665,0.621 0.5071,1.0258 0.0404,0.4047 -0.0609,0.7605 -0.3041,1.0675 -0.6762,0.8374 -1.4873,1.4934 -2.4338,1.9677 -0.9463,0.4746 -1.9603,0.7119 -3.0418,0.7119 -0.9735,0 -1.886,-0.1884 -2.7377,-0.5653 -0.8517,-0.3768 -1.6022,-0.9001 -2.2511,-1.57 -0.649,-0.6698 -1.1558,-1.4444 -1.5209,-2.3236 -0.3651,-0.8792 -0.5474,-1.8212 -0.5474,-2.8261 0,-1.0047 0.1823,-1.9467 0.5474,-2.8259 0.3651,-0.8792 0.8719,-1.6469 1.5209,-2.3027 0.6489,-0.6559 1.3994,-1.1722 2.2511,-1.5491 0.8517,-0.3768 1.7642,-0.5653 2.7377,-0.5653zm25.3417 -4.462c0.939,0 1.7009,0.7619 1.7009,1.7008 0,0.9393 -0.7619,1.701 -1.7009,1.701 -0.9391,0 -1.7008,-0.7617 -1.7008,-1.701 0,-0.9389 0.7617,-1.7008 1.7008,-1.7008zm84.8568 11.705c0,-0.586 -0.1083,-1.1373 -0.3246,-1.6536 -0.2164,-0.5164 -0.5138,-0.9769 -0.8922,-1.3816 -0.3786,-0.4048 -0.8248,-0.7188 -1.3384,-0.9421 -0.5138,-0.2232 -1.0546,-0.3349 -1.6225,-0.3349 -0.5678,0 -1.1087,0.1117 -1.6224,0.3349 -0.5137,0.2233 -0.9599,0.5373 -1.3383,0.9421 -0.3785,0.4047 -0.6761,0.8652 -0.8922,1.3816 -0.2165,0.5163 -0.3246,1.0676 -0.3246,1.6536 0,0.028 -0.0068,0.0559 -0.0203,0.0839 -0.0137,0.0278 -0.0203,0.0696 -0.0203,0.1255l0 5.6102c0,0.3907 -0.142,0.7326 -0.4259,1.0258 -0.2838,0.293 -0.6151,0.4396 -0.9937,0.4396 -0.4055,0 -0.7502,-0.1467 -1.034,-0.4396 -0.2839,-0.2932 -0.426,-0.6351 -0.426,-1.0258l0 -18.2836c0,-0.3907 0.1421,-0.7326 0.426,-1.0258 0.2838,-0.2928 0.6285,-0.4396 1.034,-0.4396 0.3786,0 0.71,0.1466 0.9937,0.4396 0.2839,0.2931 0.4259,0.6353 0.4259,1.0258l0 6.6864c0.5948,-0.4745 1.2506,-0.8373 1.967,-1.0885 0.7167,-0.2512 1.467,-0.3769 2.2511,-0.3769 0.9735,0 1.886,0.1885 2.7377,0.5653 0.8519,0.3769 1.602,0.8932 2.251,1.5491 0.6489,0.6558 1.1561,1.4235 1.521,2.3027 0.365,0.8792 0.5476,1.8212 0.5476,2.8259l0 5.9033c0,0.3908 -0.1419,0.7328 -0.4259,1.0258 -0.2839,0.293 -0.6152,0.4396 -0.9938,0.4396 -0.4055,0 -0.7501,-0.1466 -1.0342,-0.4396 -0.284,-0.293 -0.4257,-0.635 -0.4257,-1.0258l0 -5.9033zm-20.7257 4.3542c0.5949,0 1.1492,-0.1117 1.663,-0.3348 0.5136,-0.2234 0.9598,-0.5373 1.3384,-0.9422 0.3785,-0.4046 0.6758,-0.8721 0.8923,-1.4024 0.2162,-0.5304 0.3245,-1.0886 0.3245,-1.6748 0,-0.586 -0.1083,-1.1373 -0.3245,-1.6536 -0.2165,-0.5164 -0.5138,-0.9769 -0.8923,-1.3816 -0.3786,-0.4048 -0.8248,-0.7188 -1.3384,-0.9421 -0.5138,-0.2232 -1.0681,-0.3349 -1.663,-0.3349 -0.5678,0 -1.1087,0.1117 -1.6224,0.3349 -0.5138,0.2233 -0.9599,0.5373 -1.3383,0.9421 -0.3786,0.4047 -0.6762,0.8652 -0.8923,1.3816 -0.2164,0.5163 -0.3245,1.0676 -0.3245,1.6536 0,0.5862 0.1081,1.1444 0.3245,1.6748 0.2161,0.5303 0.5137,0.9978 0.8923,1.4024 0.3784,0.4049 0.8245,0.7188 1.3383,0.9422 0.5137,0.2231 1.0546,0.3348 1.6224,0.3348zm7.0978 1.8962c0,1.0441 -0.1826,1.9864 -0.5475,2.8654 -0.365,0.8792 -0.8723,1.6538 -1.5211,2.3237 -0.6488,0.6699 -1.406,1.1931 -2.2712,1.57 -0.8652,0.3768 -1.7847,0.5653 -2.758,0.5653 -0.9735,0 -1.886,-0.1885 -2.7377,-0.5653 -0.8517,-0.3769 -1.6023,-0.9001 -2.2511,-1.57 -0.6488,-0.6699 -1.156,-1.4445 -1.5209,-2.3237 -0.0541,-0.1303 -0.1331,-0.2589 -0.1397,-0.4315 -0.0175,-0.4541 0.1529,-0.8104 0.4367,-1.1034 0.2839,-0.2928 0.6287,-0.4396 1.0342,-0.4396 0.3786,0 0.7101,0.1468 0.9937,0.4396 0.1328,0.1373 0.2496,0.2805 0.3188,0.4185 0.2443,0.4879 0.5268,0.9631 0.9053,1.3676 0.3784,0.4045 0.8245,0.7189 1.3383,0.9421 0.5136,0.2232 1.0546,0.3349 1.6224,0.3349 0.5949,0 1.1494,-0.1117 1.663,-0.3349 0.5136,-0.2232 0.96,-0.5373 1.3384,-0.9421 0.3785,-0.4045 0.676,-0.8721 0.8923,-1.4025 0.2162,-0.5302 0.3245,-1.0885 0.3245,-1.6464l0 -0.4567c-0.595,0.4187 -1.2507,0.7607 -1.9673,1.0258 -0.7163,0.2652 -1.4668,0.3978 -2.2509,0.3978 -0.9735,0 -1.886,-0.1884 -2.7377,-0.5653 -0.8517,-0.3768 -1.6022,-0.9001 -2.2511,-1.57 -0.649,-0.6698 -1.1558,-1.4444 -1.5209,-2.3236 -0.3651,-0.8792 -0.5474,-1.8212 -0.5474,-2.8261 0,-1.0047 0.1823,-1.9467 0.5474,-2.8259 0.3651,-0.8792 0.8719,-1.6469 1.5209,-2.3027 0.6489,-0.6559 1.3994,-1.1722 2.2511,-1.5491 0.8517,-0.3768 1.7642,-0.5653 2.7377,-0.5653 0.9733,0 1.8928,0.1885 2.758,0.5653 0.8652,0.3769 1.6223,0.8932 2.2712,1.5491 0.6489,0.6558 1.1561,1.4235 1.5211,2.3027 0.3649,0.8791 0.5475,1.8214 0.5475,2.8259l0 6.2504zm-17.3593 1.0346c-0.3784,0 -0.7097,-0.1466 -0.9936,-0.4396 -0.284,-0.2932 -0.4257,-0.6351 -0.4257,-1.0258l0 -11.5972c0,-0.4187 0.1417,-0.7675 0.4257,-1.0467 0.2839,-0.279 0.6152,-0.4187 0.9936,-0.4187 0.4057,0 0.7505,0.1397 1.0343,0.4187 0.2839,0.2792 0.4258,0.628 0.4258,1.0467l0 11.5972c0,0.3907 -0.1419,0.7326 -0.4258,1.0258 -0.2838,0.293 -0.6286,0.4396 -1.0343,0.4396zm-6.4893 -7.285c0,-0.586 -0.1081,-1.1373 -0.3245,-1.6536 -0.2164,-0.5164 -0.5138,-0.9769 -0.8923,-1.3816 -0.3786,-0.4048 -0.8248,-0.7188 -1.3384,-0.9421 -0.5138,-0.2232 -1.0544,-0.3349 -1.6224,-0.3349 -0.5679,0 -1.1085,0.1117 -1.6223,0.3349 -0.5136,0.2233 -0.96,0.5373 -1.3385,0.9421 -0.3784,0.4047 -0.6761,0.8652 -0.8922,1.3816 -0.2164,0.5163 -0.3245,1.0676 -0.3245,1.6536 0,0.028 -0.0068,0.0559 -0.0203,0.0839 -0.0135,0.0278 -0.0203,0.0696 -0.0203,0.1255l0 5.6102c0,0.3907 -0.1421,0.7326 -0.4259,1.0258 -0.2839,0.293 -0.615,0.4396 -0.9938,0.4396 -0.4055,0 -0.7501,-0.1467 -1.034,-0.4396 -0.2838,-0.2932 -0.4259,-0.6351 -0.4259,-1.0258l0 -18.2836c0,-0.3907 0.1421,-0.7326 0.4259,-1.0258 0.2839,-0.2928 0.6285,-0.4396 1.034,-0.4396 0.3788,0 0.7101,0.1466 0.9938,0.4396 0.2838,0.2931 0.4259,0.6353 0.4259,1.0258l0 6.6864c0.5949,-0.4745 1.2506,-0.8373 1.9671,-1.0885 0.7165,-0.2512 1.467,-0.3769 2.251,-0.3769 0.9735,0 1.886,0.1885 2.7378,0.5653 0.8517,0.3769 1.6019,0.8932 2.2508,1.5491 0.649,0.6558 1.1561,1.4235 1.5211,2.3027 0.3649,0.8792 0.5476,1.8212 0.5476,2.8259l0 5.9033c0,0.3908 -0.142,0.7328 -0.426,1.0258 -0.2838,0.293 -0.6151,0.4396 -0.9937,0.4396 -0.4054,0 -0.7502,-0.1466 -1.034,-0.4396 -0.284,-0.293 -0.426,-0.635 -0.426,-1.0258l0 -5.9033zm6.4485 -11.705c0.939,0 1.7009,0.7619 1.7009,1.7008 0,0.9393 -0.7619,1.701 -1.7009,1.701 -0.9391,0 -1.7008,-0.7617 -1.7008,-1.701 0,-0.9389 0.7617,-1.7008 1.7008,-1.7008z"/>
  </g>
 </g>
</svg>
