<?xml version="1.0" encoding="UTF-8"?>
<!DOCTYPE svg PUBLIC "-//W3C//DTD SVG 1.1//EN" "http://www.w3.org/Graphics/SVG/1.1/DTD/svg11.dtd">
<!-- Creator: CorelDRAW -->
<svg xmlns="http://www.w3.org/2000/svg" xml:space="preserve" width="160px" height="50px" shape-rendering="geometricPrecision" text-rendering="geometricPrecision" image-rendering="optimizeQuality" fill-rule="evenodd" clip-rule="evenodd"
viewBox="0 0 160 50">
 <g id="Layer_x0020_1">
  <metadata id="CorelCorpID_0Corel-Layer"/>
  <path fill="#838281" d="M29.1822 10.1303c4.5237,1.1483 8.2459,4.3066 10.161,8.4678l-3.9322 3.9322c-1.1086,-4.5008 -5.172,-7.84 -10.0145,-7.84 -5.6953,0 -10.314,4.6187 -10.314,10.314 0,5.6953 4.6187,10.314 10.314,10.314 4.8563,0 8.929,-3.3584 10.0238,-7.8786l3.938 3.9379c-1.9094,4.1748 -5.6358,7.3454 -10.1676,8.4985l0.012 0.012 -3.7704 3.7704 -3.767 -3.767c-5.4713,-1.3675 -9.7796,-5.6725 -11.1524,-11.1415l-0.0007 0.0007 -3.7704 -3.7704 3.7704 -3.7704 0.0101 0.0101c1.3831,-5.4509 5.6844,-9.7385 11.1425,-11.1029l-0.0051 -0.0052 3.7704 -3.7704 3.7704 3.7704 -0.0183 0.0184zm11.3496 11.0796l3.7704 3.7704 -3.7704 3.7704 -3.7704 -3.7704 3.7704 -3.7704z"/>
  <path fill="#969594" fill-rule="nonzero" d="M66.1958 27.7856c-0.0708,0.8854 -0.276,1.6857 -0.6192,2.4087 -0.3398,0.7191 -0.8139,1.3377 -1.4225,1.8557 -0.6086,0.5181 -1.3481,0.9163 -2.2185,1.1947 -0.8705,0.2784 -1.8684,0.4214 -2.9865,0.4214 -1.1464,0 -2.1797,-0.1856 -3.0996,-0.5567 -0.92,-0.3712 -1.702,-0.9047 -2.3424,-1.6045 -0.6441,-0.6959 -1.1359,-1.5426 -1.4826,-2.5401 -0.3468,-0.9975 -0.5202,-2.1264 -0.5202,-3.3868l0 -0.7616c0,-1.2527 0.1805,-2.3816 0.5343,-3.383 0.3574,-1.0052 0.8599,-1.8557 1.5144,-2.5555 0.6547,-0.6998 1.4438,-1.2333 2.3744,-1.6083 0.9306,-0.3751 1.9673,-0.5606 3.1137,-0.5606 1.1217,0 2.1089,0.1507 2.9616,0.4523 0.8528,0.3016 1.5782,0.723 2.1761,1.2565 0.598,0.5374 1.0652,1.1715 1.3978,1.9022 0.3361,0.7346 0.5449,1.5349 0.6298,2.4048l-3.6091 0c-0.0461,-0.4485 -0.1452,-0.8351 -0.2903,-1.1676 -0.145,-0.3325 -0.3538,-0.6109 -0.6333,-0.8351 -0.276,-0.2204 -0.6263,-0.3867 -1.0544,-0.4949 -0.4282,-0.1121 -0.9554,-0.1663 -1.5782,-0.1663 -0.6546,0 -1.2243,0.0812 -1.709,0.2436 -0.4848,0.1624 -0.8882,0.4292 -1.2066,0.8042 -0.322,0.375 -0.5626,0.8622 -0.7218,1.4614 -0.1593,0.5993 -0.2372,1.3416 -0.2372,2.2269l0 0.781c0,0.8892 0.0673,1.6393 0.2053,2.2424 0.138,0.6031 0.3609,1.0903 0.6652,1.4537 0.3043,0.3673 0.6936,0.6302 1.1712,0.7887 0.4777,0.1585 1.058,0.2358 1.7409,0.2358 0.6157,0 1.1394,-0.0463 1.5746,-0.1391 0.4352,-0.0967 0.7962,-0.2436 1.0827,-0.4485 0.2867,-0.2049 0.5096,-0.464 0.6653,-0.781 0.1557,-0.317 0.2619,-0.6998 0.3149,-1.1444l3.6092 0z"/>
  <path fill="#969594" fill-rule="nonzero" d="M67.9261 27.198c0,-0.9009 0.1415,-1.7321 0.4245,-2.4937 0.2831,-0.7617 0.6936,-1.4189 1.2349,-1.9757 0.5379,-0.5567 1.1996,-0.9897 1.9851,-1.3029 0.782,-0.3131 1.6807,-0.4717 2.6892,-0.4717 1.0155,0 1.9178,0.1586 2.7068,0.4717 0.7856,0.3132 1.4508,0.7462 1.9958,1.3029 0.5413,0.5568 0.9518,1.214 1.2313,1.9757 0.2795,0.7616 0.4211,1.5928 0.4211,2.4937l0 0.2358c0,0.9008 -0.1416,1.7282 -0.4211,2.486 -0.2795,0.7616 -0.69,1.4189 -1.2279,1.9717 -0.5377,0.5568 -1.203,0.9898 -1.9885,1.3029 -0.789,0.3132 -1.6879,0.4717 -2.6963,0.4717 -1.0084,0 -1.9072,-0.1585 -2.6963,-0.4717 -0.7855,-0.3131 -1.4507,-0.7461 -1.9956,-1.3029 -0.5413,-0.5528 -0.9554,-1.2101 -1.2385,-1.9717 -0.283,-0.7578 -0.4245,-1.5852 -0.4245,-2.486l0 -0.2358zm3.4711 0.2358c0,0.433 0.0531,0.8351 0.1557,1.2062 0.1062,0.3751 0.2724,0.6998 0.506,0.9743 0.23,0.2784 0.5273,0.491 0.8953,0.6457 0.3644,0.1546 0.8066,0.232 1.3268,0.232 0.5095,0 0.9483,-0.0774 1.3127,-0.232 0.361,-0.1547 0.6583,-0.3673 0.8847,-0.6457 0.2264,-0.2745 0.3963,-0.5992 0.5024,-0.9743 0.1062,-0.3711 0.1628,-0.7732 0.1628,-1.2062l0 -0.2358c0,-0.4176 -0.0531,-0.8119 -0.1557,-1.1831 -0.1062,-0.375 -0.2725,-0.7037 -0.5059,-0.982 -0.23,-0.2784 -0.5273,-0.4988 -0.8953,-0.6611 -0.3644,-0.1624 -0.8068,-0.2436 -1.3269,-0.2436 -0.5096,0 -0.9483,0.0812 -1.3128,0.2436 -0.3608,0.1623 -0.6581,0.3827 -0.8845,0.6611 -0.2265,0.2783 -0.3963,0.607 -0.5025,0.982 -0.1061,0.3712 -0.1628,0.7655 -0.1628,1.1831l0 0.2358z"/>
  <path fill="#969594" fill-rule="nonzero" d="M86.6053 33.438l-3.4817 0 0 -12.2559 3.4817 0 0 12.2559zm-3.6799 -15.4029c0,-0.2977 0.046,-0.5645 0.1345,-0.8042 0.092,-0.2436 0.2194,-0.4524 0.3891,-0.6263 0.1699,-0.1701 0.3752,-0.3093 0.6122,-0.406 0.2406,-0.0966 0.506,-0.1469 0.8032,-0.1469 0.2973,0 0.5662,0.0503 0.8103,0.1469 0.2407,0.0967 0.4459,0.2359 0.6157,0.406 0.1699,0.1739 0.3008,0.3827 0.3893,0.6263 0.0884,0.2397 0.1344,0.5065 0.1344,0.8042 0,0.2938 -0.046,0.5606 -0.1344,0.8041 -0.0885,0.2397 -0.2194,0.4485 -0.3893,0.6225 -0.1698,0.174 -0.375,0.3093 -0.6157,0.4059 -0.2441,0.1006 -0.513,0.147 -0.8103,0.147 -0.2972,0 -0.5626,-0.0464 -0.8032,-0.147 -0.237,-0.0966 -0.4423,-0.2319 -0.6122,-0.4059 -0.1697,-0.174 -0.2971,-0.3828 -0.3891,-0.6225 -0.0885,-0.2435 -0.1345,-0.5103 -0.1345,-0.8041z"/>
  <path fill="#969594" fill-rule="nonzero" d="M89.6022 21.1821l3.2766 0 0.092 1.2914c0.4777,-0.4988 1.0403,-0.8777 1.6878,-1.1328 0.6511,-0.2552 1.3729,-0.3867 2.1691,-0.3867 0.6404,0 1.2243,0.0812 1.7515,0.2436 0.5237,0.1624 0.9765,0.4369 1.3517,0.8158 0.3785,0.3827 0.6687,0.8815 0.8704,1.4962 0.2052,0.6147 0.3078,1.3764 0.3078,2.2811l0 7.6473 -3.4959 0 0 -7.6551c0,-0.3479 -0.046,-0.634 -0.138,-0.8505 -0.0956,-0.2204 -0.2336,-0.3905 -0.4211,-0.5104 -0.1875,-0.1198 -0.414,-0.201 -0.6828,-0.2435 -0.269,-0.0426 -0.5804,-0.0619 -0.9342,-0.0619 -0.5379,0 -1.0085,0.0889 -1.4048,0.2668 -0.3963,0.1778 -0.7147,0.4252 -0.9588,0.7423l0 8.3123 -3.4713 0 0 -12.2559z"/>
  <path fill="#969594" fill-rule="nonzero" d="M103.855 16.0401l3.4712 0 0 6.4102c0.4565,-0.4756 0.9872,-0.8429 1.5852,-1.1019 0.6016,-0.2629 1.2774,-0.3944 2.024,-0.3944 0.6617,0 1.2667,0.089 1.8081,0.2668 0.5413,0.1779 1.0085,0.464 1.4012,0.8583 0.3892,0.3905 0.69,0.9008 0.8987,1.531 0.2124,0.6341 0.3185,1.3996 0.3185,2.3081l0 7.5198 -3.4959 0 0 -7.543c0,-0.3634 -0.0461,-0.6611 -0.138,-0.8892 -0.092,-0.232 -0.2336,-0.4137 -0.4211,-0.5451 -0.184,-0.1315 -0.414,-0.2204 -0.6829,-0.2707 -0.2689,-0.0502 -0.5803,-0.0734 -0.9341,-0.0734 -0.5591,0 -1.0332,0.085 -1.426,0.2552 -0.3893,0.1701 -0.7006,0.402 -0.9377,0.6959l0 8.3703 -3.4712 0 0 -17.3979z"/>
  <path fill="#969594" fill-rule="nonzero" d="M121.537 21.1821l0 7.9528c0,0.2165 0.0531,0.4098 0.1521,0.5761 0.0991,0.1662 0.2371,0.3093 0.4141,0.4291 0.1769,0.1237 0.3821,0.2127 0.6156,0.2745 0.2371,0.058 0.4883,0.089 0.7572,0.089 0.6865,0 1.2349,-0.0851 1.656,-0.2591 0.4175,-0.174 0.736,-0.4137 0.9589,-0.7152l0 -8.3472 3.4818 0 0 12.2559 -3.266 0 -0.0813 -1.2101c-0.4247,0.4523 -0.9377,0.8041 -1.5392,1.0555 -0.6051,0.2551 -1.3234,0.3827 -2.1514,0.3827 -0.6652,0 -1.2702,-0.0851 -1.8223,-0.2552 -0.5484,-0.1701 -1.019,-0.4407 -1.4118,-0.8041 -0.3963,-0.3673 -0.7006,-0.839 -0.9129,-1.4189 -0.2158,-0.5761 -0.322,-1.2681 -0.322,-2.0762l0 -7.9296 3.4712 0z"/>
  <path fill="#969594" fill-rule="nonzero" d="M132.321 21.1821l3.2766 0 0.092 1.2914c0.4777,-0.4988 1.0403,-0.8777 1.6878,-1.1328 0.6511,-0.2552 1.3729,-0.3867 2.1691,-0.3867 0.6404,0 1.2243,0.0812 1.7515,0.2436 0.5237,0.1624 0.9765,0.4369 1.3517,0.8158 0.3785,0.3827 0.6687,0.8815 0.8704,1.4962 0.2052,0.6147 0.3078,1.3764 0.3078,2.2811l0 7.6473 -3.4959 0 0 -7.6551c0,-0.3479 -0.046,-0.634 -0.138,-0.8505 -0.0956,-0.2204 -0.2336,-0.3905 -0.4211,-0.5104 -0.1875,-0.1198 -0.414,-0.201 -0.6828,-0.2435 -0.269,-0.0426 -0.5804,-0.0619 -0.9342,-0.0619 -0.5379,0 -1.0085,0.0889 -1.4048,0.2668 -0.3963,0.1778 -0.7147,0.4252 -0.9588,0.7423l0 8.3123 -3.4713 0 0 -12.2559z"/>
  <path fill="#969594" fill-rule="nonzero" d="M145.318 21.1821l2.0629 0 0 -3.0697 3.4747 0 0 3.0697 2.2894 0 0 2.8417 -2.2894 0 0 5.2232c0,0.4678 0.1168,0.7887 0.3503,0.9589 0.2371,0.1701 0.5697,0.2513 1.0084,0.2513 0.2053,0 0.4034,0 0.591,-0.0078 0.1839,-0.0077 0.3361,-0.0232 0.4529,-0.0464l-0.0071 2.9113c-0.2937,0.1198 -0.6051,0.2088 -0.9412,0.2667 -0.3326,0.0542 -0.7289,0.0851 -1.1853,0.0851 -0.5591,0 -1.0686,-0.0735 -1.5286,-0.2242 -0.4601,-0.1469 -0.8528,-0.3751 -1.1819,-0.6882 -0.329,-0.3132 -0.5838,-0.7114 -0.7643,-1.1947 -0.1769,-0.4832 -0.2689,-1.0632 -0.2689,-1.7359l0 -5.7993 -2.0629 0 0 -2.8417z"/>
 </g>
</svg>
