<?xml version="1.0" encoding="UTF-8"?>
<!DOCTYPE svg PUBLIC "-//W3C//DTD SVG 1.1//EN" "http://www.w3.org/Graphics/SVG/1.1/DTD/svg11.dtd">
<!-- Creator: CorelDRAW -->
<svg xmlns="http://www.w3.org/2000/svg" xml:space="preserve" width="240px" height="75px" shape-rendering="geometricPrecision" text-rendering="geometricPrecision" image-rendering="optimizeQuality" fill-rule="evenodd" clip-rule="evenodd"
viewBox="0 0 240 75">
 <g id="Layer_x0020_1">
  <metadata id="CorelCorpID_0Corel-Layer"/>
  <path fill="#969594" d="M23.6202 11.8281l17.5398 0c9.2961,0 16.9017,7.6059 16.9017,16.902l0 17.5398c0,9.2961 -7.6056,16.902 -16.9017,16.902l-17.5398 0c-9.2961,0 -16.902,-7.6059 -16.902,-16.902l0 -17.5398c0,-9.2961 7.6059,-16.902 16.902,-16.902z"/>
  <path fill="white" d="M24.3132 26.3709c2.553,-2.5695 6.7464,-2.5695 9.309,-0.0069l6.4911 6.4797 2.1696 -2.1696c2.5629,-2.5629 6.7563,-2.5629 9.309,0.0066l-6.8283 6.8046 6.8136 6.8016c-2.553,2.5695 -6.7464,2.5695 -9.309,0.0066l-17.955 -17.9226zm14.4543 17.1087l-5.1795 5.1696c-2.5437,2.5437 -6.7065,2.5437 -9.2502,0l-11.1426 -11.1429c-0.0096,-0.0093 -0.0096,-0.0246 0,-0.0339l9.7704 -9.7686 4.6488 4.6332 -5.1519 5.1525 6.5004 6.5004 5.1621 -5.1633 4.6425 4.653z"/>
  <path fill="#C2C1C1" fill-rule="nonzero" d="M87.9438 32.9412l5.8239 0c0.0246,-1.6668 -0.2226,-3.1347 -0.7419,-4.404 -0.5193,-1.2693 -1.2552,-2.3334 -2.2071,-3.1923 -0.9522,-0.8592 -2.0838,-1.5066 -3.3945,-1.9425 -1.3104,-0.4359 -2.7324,-0.6537 -4.2657,-0.6537 -2.2257,0 -4.2351,0.4485 -6.0279,1.3461 -1.7931,0.8976 -3.3138,2.109 -4.5627,3.6345 -1.2489,1.5258 -2.2071,3.2886 -2.8749,5.2887 -0.6678,2.0001 -1.0017,4.1157 -1.0017,6.3465 0,3.9231 1.0203,6.9231 3.0603,9 2.0403,2.0769 4.9401,3.1155 8.6988,3.1155 1.4343,0 2.7636,-0.1857 3.9879,-0.5577 1.224,-0.3717 2.337,-0.9744 3.3387,-1.8075 1.0014,-0.8337 1.9041,-1.917 2.7078,-3.2502 0.8037,-1.3335 1.5021,-2.9616 2.0958,-4.8849l-5.8239 0c-0.1236,0.7182 -0.3708,1.4103 -0.7419,2.0772 -0.3708,0.6666 -0.8283,1.2498 -1.3725,1.7499 -0.5442,0.5001 -1.1685,0.8976 -1.8732,1.1925 -0.705,0.2946 -1.4529,0.4422 -2.2446,0.4422 -1.0632,0 -1.9722,-0.1923 -2.7261,-0.5769 -0.7545,-0.3846 -1.3728,-0.9039 -1.8549,-1.5579 -0.4824,-0.6537 -0.8409,-1.4037 -1.0758,-2.25 -0.2349,-0.8463 -0.3525,-1.7436 -0.3525,-2.6922 0,-1.308 0.1731,-2.6475 0.5196,-4.0194 0.3462,-1.3719 0.8715,-2.6154 1.5762,-3.7308 0.705,-1.1154 1.6077,-2.0259 2.7081,-2.7309 1.1004,-0.7053 2.3925,-1.0578 3.8763,-1.0578 1.4097,0 2.5536,0.4296 3.4314,1.2885 0.8781,0.8589 1.317,2.1348 1.317,3.8271zm12.501 9.8847c0,-0.846 0.1113,-1.7499 0.3339,-2.7114 0.2223,-0.9615 0.5562,-1.8528 1.0014,-2.6733 0.4452,-0.8205 1.02,-1.5063 1.725,-2.0577 0.7047,-0.5514 1.5396,-0.8271 2.5038,-0.8271 1.4097,0 2.4051,0.3975 2.9862,1.1925 0.5811,0.795 0.8718,1.8591 0.8718,3.1923 0,0.8463 -0.1113,1.7565 -0.3339,2.7309 -0.2226,0.9744 -0.5628,1.8783 -1.0203,2.7117 -0.4575,0.8334 -1.0386,1.5255 -1.7433,2.0769 -0.7047,0.5514 -1.5519,0.8271 -2.541,0.8271 -0.6183,0 -1.1622,-0.1221 -1.6323,-0.3657 -0.4698,-0.2433 -0.8655,-0.5703 -1.1871,-0.9807 -0.3213,-0.4101 -0.5625,-0.8847 -0.723,-1.4232 -0.1608,-0.5382 -0.2412,-1.1025 -0.2412,-1.6923zm-5.2674 0c0,2.8464 0.7974,4.9809 2.3925,6.4041 1.5951,1.4232 3.7281,2.1345 6.3987,2.1345 1.7559,0 3.3201,-0.3204 4.6926,-0.9615 1.3725,-0.6408 2.541,-1.5255 3.5055,-2.6538 0.9645,-1.1283 1.7001,-2.4552 2.2071,-3.9807 0.507,-1.5258 0.7605,-3.1605 0.7605,-4.9041 0,-1.4361 -0.2163,-2.6796 -0.6492,-3.7308 -0.4326,-1.0515 -1.0449,-1.9233 -1.8363,-2.6154 -0.7911,-0.6924 -1.737,-1.2117 -2.8377,-1.5579 -1.1004,-0.3462 -2.3058,-0.5193 -3.6168,-0.5193 -1.7061,0 -3.2394,0.327 -4.5996,0.9807 -1.3602,0.654 -2.5164,1.545 -3.4683,2.6733 -0.9522,1.1283 -1.6818,2.4423 -2.1888,3.9426 -0.507,1.5 -0.7602,3.096 -0.7602,4.7883zm31.1595 -14.9235l0.9645 -4.5 -5.3046 0 -0.9642 4.5 5.3043 0zm-5.898 3.0771l-4.0434 19.8852 5.2677 0 4.0803 -19.8852 -5.3046 0zm9.5334 0l-3.969 19.8852 5.2302 0 2.1516 -10.5774c0.1482,-0.6921 0.3648,-1.3716 0.6492,-2.0382 0.2844,-0.6669 0.6429,-1.2567 1.0755,-1.7694 0.4329,-0.5127 0.9522,-0.9294 1.5582,-1.2501 0.606,-0.3204 1.3044,-0.4809 2.0958,-0.4809 0.6183,0 1.1934,0.1926 1.725,0.5772 0.5316,0.3846 0.7974,0.8718 0.7974,1.4616 0,0.282 -0.0432,0.6795 -0.1296,1.1922 -0.0867,0.513 -0.1548,0.9231 -0.2043,1.2309l-2.337 11.6541 5.2677 0 2.3739 -11.6541c0.0249,-0.1797 0.0681,-0.4167 0.1299,-0.7116 0.0621,-0.2949 0.1236,-0.609 0.1854,-0.9423 0.0621,-0.3333 0.1176,-0.6603 0.1671,-0.981 0.0495,-0.3204 0.0741,-0.5832 0.0741,-0.7884 0,-3.564 -1.8672,-5.3463 -5.6013,-5.3463 -2.7699,0 -5.0076,1.1028 -6.7143,3.3078l-0.0741 0 0.5934 -2.7693 -5.0448 0zm39.7287 1.9617l5.8239 0c0.0249,-1.6668 -0.2226,-3.1347 -0.7419,-4.404 -0.5193,-1.2693 -1.2549,-2.3334 -2.2071,-3.1923 -0.9522,-0.8592 -2.0835,-1.5066 -3.3942,-1.9425 -1.3107,-0.4359 -2.7327,-0.6537 -4.266,-0.6537 -2.2257,0 -4.2348,0.4485 -6.0279,1.3461 -1.7928,0.8976 -3.3138,2.109 -4.5627,3.6345 -1.2489,1.5258 -2.2071,3.2886 -2.8746,5.2887 -0.6678,2.0001 -1.0017,4.1157 -1.0017,6.3465 0,3.9231 1.02,6.9231 3.0603,9 2.0403,2.0769 4.9398,3.1155 8.6988,3.1155 1.4343,0 2.7636,-0.1857 3.9876,-0.5577 1.2243,-0.3717 2.337,-0.9744 3.3387,-1.8075 1.0014,-0.8337 1.9041,-1.917 2.7078,-3.2502 0.8037,-1.3335 1.5024,-2.9616 2.0958,-4.8849l-5.8236 0c-0.1239,0.7182 -0.3711,1.4103 -0.7419,2.0772 -0.3711,0.6666 -0.8286,1.2498 -1.3728,1.7499 -0.5439,0.5001 -1.1685,0.8976 -1.8732,1.1925 -0.7047,0.2946 -1.4529,0.4422 -2.2443,0.4422 -1.0632,0 -1.9722,-0.1923 -2.7264,-0.5769 -0.7542,-0.3846 -1.3725,-0.9039 -1.8546,-1.5579 -0.4824,-0.6537 -0.8409,-1.4037 -1.0758,-2.25 -0.2349,-0.8463 -0.3525,-1.7436 -0.3525,-2.6922 0,-1.308 0.1731,-2.6475 0.5193,-4.0194 0.3462,-1.3719 0.8718,-2.6154 1.5765,-3.7308 0.7047,-1.1154 1.6074,-2.0259 2.7078,-2.7309 1.1007,-0.7053 2.3928,-1.0578 3.8766,-1.0578 1.4097,0 2.5533,0.4296 3.4314,1.2885 0.8778,0.8589 1.3167,2.1348 1.3167,3.8271zm9.0885 4.077l4.9335 0c0.1731,-0.9999 0.6306,-1.7373 1.3725,-2.2116 0.7419,-0.4743 1.5828,-0.7116 2.5224,-0.7116 0.3462,0 0.711,0.0321 1.0944,0.0963 0.3831,0.0639 0.7419,0.1857 1.0758,0.3651 0.3336,0.1797 0.612,0.4233 0.8346,0.7308 0.2226,0.3078 0.3339,0.7182 0.3339,1.2309 0,0.6411 -0.1485,1.1217 -0.4452,1.4424 -0.2967,0.3207 -0.7482,0.564 -1.3539,0.7308 -0.606,0.1668 -1.3665,0.2883 -2.2815,0.3654 -0.915,0.0768 -1.9908,0.1923 -3.2271,0.3462 -2.3247,0.282 -4.1238,0.9999 -5.3973,2.154 -1.2738,1.1538 -1.9107,2.6922 -1.9107,4.6155 0,0.6921 0.1239,1.3524 0.3711,1.9806 0.2475,0.6282 0.6306,1.1796 1.1499,1.6539 0.5193,0.4743 1.1685,0.8526 1.9476,1.1346 0.7788,0.282 1.6878,0.423 2.7264,0.423 1.113,0 2.1885,-0.1986 3.2271,-0.5961 1.0389,-0.3972 1.9167,-1.0191 2.634,-1.8654l0 1.9617 5.2674 0c-0.1236,-0.4359 -0.1854,-0.8205 -0.1854,-1.1538 0,-0.3846 0.0186,-0.8397 0.0555,-1.3656 0.0372,-0.5256 0.1053,-0.9678 0.204,-1.3269l1.7064 -8.0001c0.2721,-1.2822 0.408,-2.3976 0.408,-3.3465 0.0249,-1.128 -0.2163,-2.0319 -0.7233,-2.7114 -0.507,-0.6795 -1.1562,-1.2051 -1.9473,-1.5771 -0.7914,-0.3717 -1.6569,-0.6219 -2.5968,-0.75 -0.9396,-0.1281 -1.8423,-0.1923 -2.7078,-0.1923 -1.0884,0 -2.139,0.1089 -3.1533,0.327 -1.0137,0.2178 -1.929,0.5835 -2.745,1.0962 -0.816,0.5127 -1.5084,1.1859 -2.0772,2.0193 -0.5688,0.8334 -0.9396,1.8783 -1.1127,3.1347zm11.1282 4.3077l-0.5193 1.9233c-0.1482,0.5385 -0.3336,1.0767 -0.5565,1.6152 -0.2223,0.5385 -0.5253,1.0194 -0.9087,1.4424 -0.3831,0.423 -0.8532,0.7692 -1.4094,1.0386 -0.5565,0.2691 -1.2429,0.4038 -2.0589,0.4038 -0.7665,0 -1.4406,-0.186 -2.0217,-0.5577 -0.5811,-0.3717 -0.8718,-0.9297 -0.8718,-1.6731 0,-0.6153 0.1113,-1.1217 0.3339,-1.5192 0.2226,-0.3975 0.513,-0.7116 0.8718,-0.9423 0.3585,-0.231 0.7728,-0.4041 1.2426,-0.5193 0.4698,-0.1155 0.9522,-0.1989 1.4466,-0.2502 0.7668,-0.051 1.5333,-0.1218 2.3001,-0.2115 0.7665,-0.0897 1.4838,-0.3396 2.1513,-0.75zm11.4996 -10.3464l-3.969 19.8852 5.2302 0 1.7805 -8.808c0.1731,-0.8463 0.402,-1.6602 0.6864,-2.4423 0.2844,-0.7821 0.6675,-1.4808 1.1499,-2.0961 0.4821,-0.6156 1.0758,-1.1028 1.7805,-1.4619 0.7047,-0.3588 1.5642,-0.5382 2.5782,-0.5382 0.3711,0 0.7419,0.0384 1.113,0.1152 0.3708,0.0771 0.7419,0.1539 1.1127,0.2307l1.0758 -5.3076c-0.5442,-0.0768 -1.0881,-0.1155 -1.6323,-0.1155 -1.4097,0 -2.7141,0.3525 -3.9135,1.0578 -1.1994,0.705 -2.0958,1.7499 -2.6895,3.1347l-0.0741 -0.0771 0.7791 -3.5769 -5.0079 0zm14.2074 0l-5.49 26.847 5.2302 0 2.0031 -9.6156 0.1116 0c0.1977,0.5382 0.4884,1.0062 0.8718,1.4037 0.3831,0.3975 0.816,0.7245 1.2981,0.9807 0.4821,0.2565 1.0017,0.4488 1.5579,0.5769 0.5565,0.1284 1.1067,0.1923 1.6509,0.1923 1.7805,0 3.3198,-0.3717 4.6182,-1.1154 1.2984,-0.7434 2.3802,-1.7307 3.246,-2.9613 0.8655,-1.2309 1.5084,-2.6283 1.929,-4.1925 0.4203,-1.5642 0.6303,-3.1668 0.6303,-4.8078 0,-2.4105 -0.6303,-4.3206 -1.8918,-5.7309 -1.2612,-1.4103 -3.054,-2.1156 -5.3787,-2.1156 -1.1871,0 -2.2938,0.2436 -3.3201,0.7308 -1.0263,0.4872 -1.836,1.2693 -2.4297,2.3463l-0.0741 -0.0771 0.5193 -2.4615 -5.082 0zm8.6433 3.5769c0.618,0 1.1622,0.1221 1.632,0.3657 0.4698,0.2436 0.8595,0.564 1.1685,0.9615 0.3093,0.3975 0.5439,0.8652 0.705,1.4037 0.1605,0.5385 0.2409,1.1028 0.2409,1.6923 0,0.8718 -0.1113,1.7949 -0.3336,2.7696 -0.2229,0.9741 -0.5691,1.8717 -1.0389,2.6922 -0.4698,0.8205 -1.0635,1.5 -1.7805,2.0385 -0.7173,0.5385 -1.5828,0.8079 -2.5968,0.8079 -1.2858,0 -2.238,-0.3912 -2.8563,-1.1733 -0.618,-0.7821 -0.9273,-1.827 -0.9273,-3.1347 0,-0.846 0.1176,-1.7628 0.3525,-2.7501 0.2349,-0.987 0.5934,-1.9038 1.0758,-2.7501 0.4821,-0.846 1.0818,-1.5447 1.7991,-2.0961 0.717,-0.5514 1.5702,-0.8271 2.5596,-0.8271z"/>
 </g>
</svg>
