<?xml version="1.0" encoding="UTF-8"?>
<!DOCTYPE svg PUBLIC "-//W3C//DTD SVG 1.1//EN" "http://www.w3.org/Graphics/SVG/1.1/DTD/svg11.dtd">
<!-- Creator: CorelDRAW -->
<svg xmlns="http://www.w3.org/2000/svg" xml:space="preserve" width="30px" height="30px" shape-rendering="geometricPrecision" text-rendering="geometricPrecision" image-rendering="optimizeQuality" fill-rule="evenodd" clip-rule="evenodd"
viewBox="0 0 30 30">
 <g id="Layer_x0020_1">
  <metadata id="CorelCorpID_0Corel-Layer"/>
  <path id="_181936592" fill="#383431" d="M4.1122 2.1145l21.8799 0.049 -0.0295 17.1019 -21.8803 -0.049 0.0294 -17.1015 0.0005 -0.0004zm-1.113 20.1281l23.9672 0.0548 -0.0095 5.6552 -23.9668 -0.0544 0.0095 -5.6552 -0.0004 -0.0004zm17.3663 2.0595l5.4534 0.0123 -0.0018 1.0101 -5.453 -0.0123 0.0014 -1.0101zm4.5177 -4.0969l-19.7931 -0.0449 -0.0018 1.1447 19.7931 0.0449 0.0018 -1.1447zm-21.7793 -19.0359l23.8997 0.0539 -0.0331 18.9865 -1.2123 -0.0027 -0.0018 1.1447 2.2214 0.005 -0.0136 7.5406 -25.9864 -0.0589 0.0131 -7.5406 2.2219 0.0045 0.0023 -1.1443 -1.1443 -0.0027 0.0331 -18.986 0 0z"/>
 </g>
</svg>
