<?xml version="1.0" encoding="UTF-8"?>
<!DOCTYPE svg PUBLIC "-//W3C//DTD SVG 1.1//EN" "http://www.w3.org/Graphics/SVG/1.1/DTD/svg11.dtd">
<!-- Creator: CorelDRAW -->
<svg xmlns="http://www.w3.org/2000/svg" xml:space="preserve" width="200px" height="62px" shape-rendering="geometricPrecision" text-rendering="geometricPrecision" image-rendering="optimizeQuality" fill-rule="evenodd" clip-rule="evenodd"
viewBox="0 0 200 62.5">
 <g id="Layer_x0020_1">
  <metadata id="CorelCorpID_0Corel-Layer"/>
  <path fill="#838281" fill-rule="nonzero" d="M48.2952 40.4412l-10.3382 -7.176 -5.3515 18.609 15.6898 -11.433zm-36.2905 0l10.3383 -7.176 5.3515 18.609 -15.6898 -11.433zm2.7975 -5.244l10.3383 -15.8117 -3.527 11.1898 -6.81125 4.622zm30.6955 0l-10.3383 -15.8117 3.527 11.1898 6.81125 4.622zm-15.3478 -5.20275l5.3745 0 -5.3745 -15.9075m0 35.644l5.4265 -16.9768 -5.4265 0m0 -2.75975l-5.3745 0 5.3745 -15.9075m0 35.644l-5.4265 -16.9768 5.4265 0m0 -26.984l-22.5237 35.2652 22.5237 15.6942m0 -50.9595l22.5238 35.2652 -22.5238 15.6942"/>
  <path fill="#838281" fill-rule="nonzero" d="M77.1838 34.0003l2.26575 -7.4825 2.33875 7.44 -4.6045 0.0425zm12.7548 7.796l-7.66275 -21.0925 -5.62 0 -7.66275 21.0925 5.428 0 1.26725 -3.52125 7.555 0 1.26725 3.52125 5.428 0zm13.7622 -11.2163l2.20725 0c1.234,0 2.79025,0.1985 3.46475,-1.07 0.47825,-0.91675 0.4945,-2.4665 0,-3.381 -0.681,-1.236 -2.13025,-1.02 -3.34425,-1.02l-2.32775 0 0 5.471zm6.65325 3.18275c0.53925,0.53525 1.671,2.53275 2.531,3.9155l2.5615 4.118 -5.30975 0 -2.002 -3.877c-1.271,-2.463 -1.7755,-3.11825 -4.434,-3.19125l0 7.06825 -4.657 0 0 -21.0925 7.27375 0c1.85025,0 3.37275,0.215 4.28425,0.6395 1.84625,0.86 3.68,3.94975 3.68,5.98425 0,2.62275 -1.22525,5.5795 -3.92775,6.43525zm14.5247 8.0335l0 -21.0925 4.6355 0 0 9.08175 6.1995 -9.08175 5.61225 0 -7.1665 10.1915 7.7575 10.901 -5.5105 0 -6.8275 -9.96075 -0.06475 9.96075 -4.6355 0zm26.1215 0l0 -21.0925 12.7262 0 0 4.38025 -8.05925 0 0 3.865 7.402 0 0 4.36075 -7.402 0 0 3.71575 8.371 0 0 4.77075 -13.038 0zm23.3013 0l0 -21.0925 3.632 0 7.95925 11.3115 0 -11.3115 4.78225 0 0 21.0925 -3.40475 0 -8.126 -11.5253 0 11.5253 -4.84275 0z"/>
 </g>
</svg>
