<?xml version="1.0" encoding="UTF-8"?>
<!DOCTYPE svg PUBLIC "-//W3C//DTD SVG 1.1//EN" "http://www.w3.org/Graphics/SVG/1.1/DTD/svg11.dtd">
<!-- Creator: CorelDRAW -->
<svg xmlns="http://www.w3.org/2000/svg" xml:space="preserve" width="160px" height="50px" shape-rendering="geometricPrecision" text-rendering="geometricPrecision" image-rendering="optimizeQuality" fill-rule="evenodd" clip-rule="evenodd"
viewBox="0 0 160 50">
 <g id="MasterLayer_x0020_1">
  <metadata id="CorelCorpID_0Corel-Layer"/>
  <path fill="#969594" d="M26.9456 6.7252c0.2185,0 0.4369,0 0.6553,0 0.272,2.8907 1.2186,5.5485 2.8399,7.9735 -2.7697,-0.4579 -4.9178,-1.8778 -6.4443,-4.2598 -0.0472,-0.7324 0.1713,-1.3877 0.6554,-1.9661 0.7206,-0.6665 1.4852,-1.249 2.2937,-1.7476zm11.3595 -2.403c1.6936,-0.0865 3.3685,0.0227 5.0244,0.3277 1.1552,0.7529 1.8105,1.8088 1.9661,3.1676 0.0985,1.0347 0.2442,2.0542 0.4369,3.0583 0.036,0.7318 -0.0005,1.46 -0.1092,2.1845 -0.0507,0.2704 -0.1599,0.4888 -0.3277,0.6554 -0.161,1.7256 -1.0348,2.9271 -2.6214,3.6044 -1.8934,0.1456 -3.7865,0.1456 -5.6798,0 -0.8397,-0.2942 -1.4224,-0.8403 -1.7476,-1.6383 -0.7742,-0.3864 -1.6481,-0.5684 -2.6214,-0.5462 -0.2694,-0.3641 -0.5608,-0.6917 -0.8739,-0.983 -0.8723,-1.09 -1.4548,-2.3278 -1.7475,-3.7137 0.0375,-0.2166 -0.0355,-0.3623 -0.2185,-0.4369 -0.6294,-1.2093 -0.9206,-2.52 -0.8739,-3.9322 2.2259,0.1218 4.4104,-0.0238 6.5536,-0.4369 0.8035,-0.7291 1.75,-1.166 2.8399,-1.3107zm-2.1845 6.772c-0.2997,-1.7042 0.1372,-3.1605 1.3107,-4.369 0.1802,-0.1935 0.3987,-0.2663 0.6553,-0.2184 -0.8641,2.834 -0.8641,5.6739 0,8.5196 -0.4628,0.0071 -0.754,-0.2114 -0.8738,-0.6553 -0.4008,-0.136 -0.6558,-0.4273 -0.7645,-0.8739 -0.2702,-0.7777 -0.3795,-1.5786 -0.3277,-2.403zm5.6798 -3.7136c0.0142,-0.0957 -0.0221,-0.1686 -0.1093,-0.2185 -0.3936,0.2816 -0.6486,0.6457 -0.7646,1.0922 -0.7964,1.7846 -0.8694,3.6051 -0.2184,5.4614 0.3497,0.3352 0.7139,0.5901 1.0923,0.7646 -0.255,-0.5462 -0.5097,-1.0923 -0.7647,-1.6384 -0.1789,-1.3504 -0.1426,-2.6611 0.1093,-3.9322 0.27,-0.4694 0.4884,-0.9792 0.6554,-1.5291zm1.5291 1.7476c0.2508,0.9789 0.2873,1.9983 0.1092,3.0583 -0.0852,0.5689 -0.2673,1.0786 -0.5461,1.5292 -0.1658,1.143 -0.8212,1.5434 -1.9661,1.2014 -0.3357,-0.2424 -0.4813,-0.57 -0.4368,-0.983 -0.4896,-0.1747 -0.7081,-0.5388 -0.6554,-1.0922 -0.3993,-1.0055 -0.4721,-2.0249 -0.2185,-3.0584 -0.0203,-1.1954 0.3439,-2.2512 1.0923,-3.1675 1.0708,-0.2003 1.7992,0.2002 2.1845,1.2015 0.3438,0.3498 0.4896,0.7867 0.4369,1.3107zm-19.6607 3.4952c1.9698,2.2233 4.4455,3.534 7.4274,3.9321 0,1.3836 0,2.7672 0,4.1506 -2.5526,-0.458 -5.0283,-0.2396 -7.4274,0.6554 -0.1548,0.1975 -0.3733,0.2702 -0.6553,0.2184 -0.0365,-3.1319 0,-6.2631 0.1092,-9.3934 0.355,-0.1992 0.5372,-0.0536 0.5461,0.4369zm16.3839 25.122c-0.4883,0.6097 -0.9251,1.2651 -1.3107,1.966 -0.3329,0.8088 -0.8061,1.5371 -1.4199,2.1846 -0.4756,0.6604 -1.0947,1.0973 -1.8569,1.3107 -4.2029,3.1398 -8.499,3.322 -12.8887,0.5461 -0.848,-0.7403 -1.7218,-1.4322 -2.6214,-2.0753 -1.2959,0.975 -2.6795,1.7758 -4.1506,2.403 -0.4316,0.3301 -0.9413,0.5121 -1.5291,0.5462 -1.2051,0.1784 -2.3702,0.1421 -3.4953,-0.1093 -0.0728,0 -0.1456,0 -0.2184,0 -1.042,-0.0419 -2.0615,-0.2239 -3.0583,-0.5461 -0.1215,-0.0837 -0.1943,-0.1929 -0.2185,-0.3277 -0.7139,-0.357 -1.4421,-0.7211 -2.1845,-1.0923 -0.1914,0.0287 -0.3371,-0.0441 -0.4369,-0.2184 1.8877,-0.218 3.7809,-0.2907 5.6798,-0.2184 3.8231,-0.1497 6.481,-1.9703 7.9735,-5.4613 0.7666,-0.8986 1.6768,-1.0806 2.7306,-0.5462 1.2293,1.7391 2.6856,3.2682 4.369,4.5875 2.6169,1.4317 5.3112,1.5773 8.0828,0.4369 2.1677,-0.8978 4.1337,-2.0993 5.8981,-3.6045 0.2912,-0.313 0.6189,-0.6044 0.9831,-0.8737 0.1309,0.4445 0.0217,0.8084 -0.3277,1.0922zm-11.7964 -8.3012c-1.6084,0.4099 -2.4823,1.4659 -2.6214,3.1676 0.6864,3.1119 2.5797,4.2041 5.6798,3.2767 1.6785,-0.9417 2.5524,-2.3979 2.6214,-4.369 -0.3406,-2.6712 -1.7968,-4.4188 -4.3691,-5.2428 -3.2477,-0.4335 -5.9054,0.6224 -7.9735,3.1675 -1.4953,2.2621 -3.0972,4.4466 -4.8059,6.5536 -1.9613,2.3824 -4.4735,3.7659 -7.5367,4.1506 -1.2812,-0.125 -2.5192,-0.4164 -3.7136,-0.8738 -0.3835,-0.125 -0.7476,-0.3072 -1.0923,-0.5462 1.4464,0.0719 2.9028,0.1083 4.3691,0.1093 0.9387,-0.1411 1.8125,-0.4688 2.6214,-0.9831 0.8433,-0.8432 1.6807,-1.6807 2.5122,-2.5121 1.7477,-2.9127 3.4952,-5.8256 5.2429,-8.7382 3.9832,-4.6558 8.7529,-5.7116 14.3086,-3.1675 4.2318,3.0836 5.3603,7.0523 3.3859,11.9057 -2.64,4.1547 -6.1717,5.1377 -10.5949,2.949 -2.8691,-2.3341 -3.3424,-5.0648 -1.4199,-8.1919 1.4204,-1.434 3.0587,-1.7981 4.9152,-1.0922 0.4465,0.1159 0.8106,0.3708 1.0922,0.7645 -0.0727,0.0365 -0.1457,0.0727 -0.2184,0.1092 -0.7537,-0.3766 -1.5547,-0.5223 -2.403,-0.4369z"/>
  <path fill="#838281" fill-rule="nonzero" d="M64.7221 33.0711c-0.7223,0.3913 -1.4596,0.6734 -2.212,0.8464 -0.7524,0.1731 -1.4897,0.2596 -2.212,0.2596 -1.0232,0 -1.9938,-0.1693 -2.9117,-0.5078 -0.9179,-0.3386 -1.7191,-0.8389 -2.4038,-1.501 -0.6847,-0.6621 -1.2301,-1.4822 -1.6364,-2.4603 -0.4063,-0.9781 -0.6094,-2.0991 -0.6094,-3.3631 0,-1.0985 0.1768,-2.1518 0.5304,-3.16 0.3536,-1.0081 0.869,-1.8922 1.5461,-2.6521 0.6771,-0.7599 1.501,-1.3655 2.4716,-1.817 0.9705,-0.4514 2.0727,-0.6771 3.3066,-0.6771 0.6772,0 1.3167,0.0564 1.9186,0.1693 0.6019,0.1128 1.2113,0.2821 1.8283,0.5078l-0.4289 1.6929c-0.5718,-0.301 -1.1398,-0.5154 -1.7041,-0.6433 -0.5643,-0.1279 -1.1098,-0.1919 -1.6364,-0.1919 -0.7975,0 -1.5424,0.1505 -2.2346,0.4515 -0.6922,0.3009 -1.2941,0.7298 -1.8057,1.2865 -0.5116,0.5568 -0.9141,1.2339 -1.2075,2.0314 -0.2935,0.7976 -0.4402,1.7004 -0.4402,2.7086 0,0.948 0.1129,1.8245 0.3386,2.6295 0.2257,0.8051 0.568,1.501 1.027,2.0879 0.4589,0.5868 1.0345,1.0458 1.7267,1.3768 0.6922,0.331 1.4972,0.4966 2.4151,0.4966 0.8727,0 1.6138,-0.1242 2.2233,-0.3725 0.6094,-0.2482 1.1549,-0.5454 1.6364,-0.8915l0.474 1.6928zm1.2414 -4.7625c0,-0.9028 0.1242,-1.7267 0.3724,-2.4715 0.2483,-0.7449 0.6057,-1.3844 1.0722,-1.9186 0.4664,-0.5342 1.0345,-0.9518 1.7041,-1.2527 0.6696,-0.3009 1.4333,-0.4514 2.291,-0.4514 0.8577,0 1.6213,0.1392 2.291,0.4175 0.6696,0.2784 1.2376,0.6697 1.7041,1.1737 0.4665,0.5041 0.8238,1.1173 1.0721,1.8396 0.2483,0.7223 0.3724,1.5348 0.3724,2.4377 0,0.9028 -0.1241,1.7267 -0.3724,2.4715 -0.2483,0.7449 -0.6056,1.3844 -1.0721,1.9186 -0.4665,0.5342 -1.0345,0.9517 -1.7041,1.2527 -0.6697,0.3009 -1.4333,0.4514 -2.291,0.4514 -0.8577,0 -1.6214,-0.1392 -2.291,-0.4176 -0.6696,-0.2783 -1.2377,-0.6696 -1.7041,-1.1737 -0.4665,-0.504 -0.8239,-1.1172 -1.0722,-1.8395 -0.2482,-0.7223 -0.3724,-1.5349 -0.3724,-2.4377zm2.0991 -0.1129c0,0.6019 0.0602,1.1813 0.1806,1.738 0.1204,0.5568 0.3122,1.0458 0.5756,1.4672 0.2633,0.4213 0.6056,0.7561 1.027,1.0044 0.4213,0.2483 0.9404,0.3724 1.5574,0.3724 0.6169,0 1.1361,-0.1241 1.5574,-0.3724 0.4213,-0.2483 0.7636,-0.5831 1.027,-1.0044 0.2633,-0.4214 0.4552,-0.9104 0.5755,-1.4672 0.1204,-0.5567 0.1806,-1.1361 0.1806,-1.738 0,-0.6019 -0.0602,-1.1812 -0.1806,-1.7379 -0.1203,-0.5568 -0.3122,-1.0458 -0.5755,-1.4672 -0.2634,-0.4213 -0.6057,-0.7561 -1.027,-1.0044 -0.4213,-0.2483 -0.9405,-0.3724 -1.5574,-0.3724 -0.617,0 -1.1361,0.1354 -1.5574,0.4063 -0.4214,0.2708 -0.7637,0.6244 -1.027,1.0608 -0.2634,0.4364 -0.4552,0.9292 -0.5756,1.4784 -0.1204,0.5493 -0.1806,1.0947 -0.1806,1.6364zm11.85 5.7557l0 -11.4662 2.0314 0 0 11.4662 -2.0314 0zm-0.2257 -14.6261c0,-0.3461 0.1203,-0.6396 0.3611,-0.8803 0.2408,-0.2408 0.5342,-0.3612 0.8803,-0.3612 0.3461,0 0.6395,0.1204 0.8802,0.3612 0.2408,0.2407 0.3612,0.5342 0.3612,0.8803 0,0.3461 -0.1204,0.6395 -0.3612,0.8802 -0.2407,0.2408 -0.5341,0.3612 -0.8802,0.3612 -0.3461,0 -0.6395,-0.1204 -0.8803,-0.3612 -0.2408,-0.2407 -0.3611,-0.5341 -0.3611,-0.8802zm8.1481 3.1599l0 1.3317c0.4213,-0.5266 0.9781,-0.9179 1.6703,-1.1737 0.6922,-0.2558 1.4144,-0.3837 2.1668,-0.3837 1.3844,0 2.3662,0.395 2.9456,1.185 0.5793,0.79 0.869,1.8697 0.869,3.239l0 7.2679 -2.0315 0 0 -6.7714c0,-0.5116 -0.0263,-0.978 -0.079,-1.3994 -0.0526,-0.4213 -0.1617,-0.7862 -0.3272,-1.0947 -0.1656,-0.3085 -0.4063,-0.5492 -0.7223,-0.7223 -0.316,-0.173 -0.7449,-0.2595 -1.2866,-0.2595 -0.1354,0 -0.3724,0.0263 -0.711,0.079 -0.3385,0.0526 -0.6846,0.2031 -1.0382,0.4514 -0.3537,0.2483 -0.6659,0.6245 -0.9367,1.1286 -0.2709,0.504 -0.4063,1.215 -0.4063,2.1329l0 6.4554 -2.0314 0 0 -11.4662 1.9185 0zm10.7213 9.3671c0.2559,0.1655 0.4966,0.3047 0.7223,0.4175 0.2257,0.1129 0.4514,0.2069 0.6772,0.2822 0.2257,0.0752 0.4627,0.1279 0.711,0.158 0.2482,0.0301 0.5229,0.0451 0.8238,0.0451 0.2859,0 0.5793,-0.0376 0.8803,-0.1128 0.3009,-0.0753 0.5793,-0.1919 0.8351,-0.3499 0.2558,-0.158 0.4665,-0.3574 0.632,-0.5981 0.1655,-0.2408 0.2483,-0.5342 0.2483,-0.8803 0,-0.1956 -0.0226,-0.3799 -0.0677,-0.553 -0.0452,-0.173 -0.1317,-0.3386 -0.2596,-0.4966 -0.1279,-0.158 -0.3085,-0.3047 -0.5417,-0.4401 -0.2332,-0.1354 -0.5304,-0.2633 -0.8916,-0.3837l-1.106 -0.3611c-0.6319,-0.2107 -1.136,-0.4364 -1.5122,-0.6772 -0.3762,-0.2407 -0.6659,-0.4928 -0.869,-0.7561 -0.2032,-0.2633 -0.3348,-0.538 -0.395,-0.8239 -0.0602,-0.2859 -0.0903,-0.5868 -0.0903,-0.9028 0,-0.5718 0.143,-1.0872 0.4289,-1.5461 0.2859,-0.459 0.7448,-0.8389 1.3768,-1.1399 0.3912,-0.1956 0.8013,-0.331 1.2301,-0.4063 0.4289,-0.0752 0.8615,-0.1128 1.2979,-0.1128 1.0533,0 2.069,0.1805 3.0471,0.5417l-0.4966 1.738c-0.8125,-0.5869 -1.6928,-0.8803 -2.6408,-0.8803 -0.2408,0 -0.4891,0.0263 -0.7449,0.079 -0.2558,0.0527 -0.4928,0.1429 -0.711,0.2708 -0.2181,0.1279 -0.3949,0.2935 -0.5304,0.4966 -0.1354,0.2032 -0.2031,0.4627 -0.2031,0.7787 0,0.3913 0.1429,0.7185 0.4288,0.9819 0.2859,0.2633 0.7825,0.5153 1.4897,0.7561l1.0609 0.3611c0.4514,0.1505 0.8502,0.3123 1.1963,0.4853 0.346,0.1731 0.6395,0.3837 0.8802,0.632 0.2408,0.2483 0.4214,0.5417 0.5417,0.8803 0.1204,0.3386 0.1806,0.7486 0.1806,1.2301 0,0.617 -0.1354,1.1512 -0.4063,1.6026 -0.2708,0.4514 -0.6282,0.8238 -1.0721,1.1172 -0.4439,0.2935 -0.9442,0.5154 -1.501,0.6659 -0.5567,0.1505 -1.121,0.2257 -1.6928,0.2257 -0.5718,0 -1.1549,-0.0414 -1.7493,-0.1241 -0.5944,-0.0828 -1.1549,-0.2295 -1.6816,-0.4402l0.474 -1.7605zm15.055 2.3248c-0.8125,0 -1.5499,-0.1354 -2.2119,-0.4063 -0.6621,-0.2708 -1.2302,-0.6545 -1.7042,-1.1511 -0.474,-0.4966 -0.8389,-1.0947 -1.0947,-1.7944 -0.2558,-0.6997 -0.3837,-1.4859 -0.3837,-2.3587 0,-0.8577 0.1279,-1.6665 0.3837,-2.4264 0.2558,-0.7599 0.6245,-1.422 1.106,-1.9863 0.4815,-0.5643 1.0797,-1.0119 1.7944,-1.343 0.7148,-0.331 1.5311,-0.4965 2.449,-0.4965 0.4514,0 0.9066,0.0338 1.3656,0.1015 0.4589,0.0678 0.9141,0.1994 1.3655,0.395l-0.4288 1.6026c-0.4364,-0.2859 -0.8577,-0.4627 -1.264,-0.5304 -0.4063,-0.0677 -0.7223,-0.1016 -0.948,-0.1016 -0.617,0 -1.1587,0.1166 -1.6251,0.3499 -0.4665,0.2332 -0.854,0.553 -1.1625,0.9592 -0.3084,0.4063 -0.5379,0.8878 -0.6884,1.4446 -0.1505,0.5567 -0.2257,1.1586 -0.2257,1.8057 0,0.632 0.0715,1.2188 0.2144,1.7605 0.143,0.5417 0.3649,1.012 0.6659,1.4107 0.3009,0.3988 0.6846,0.7148 1.1511,0.948 0.4665,0.2333 1.0157,0.3499 1.6477,0.3499 0.4665,0 0.9104,-0.0865 1.3317,-0.2596 0.4213,-0.173 0.8276,-0.3875 1.2189,-0.6433l0.4288 1.6252c-0.5116,0.2558 -1.0458,0.4439 -1.6025,0.5642 -0.5568,0.1204 -1.1512,0.1806 -1.7832,0.1806zm4.7174 -5.8685c0,-0.9028 0.1242,-1.7267 0.3724,-2.4715 0.2483,-0.7449 0.6057,-1.3844 1.0722,-1.9186 0.4664,-0.5342 1.0345,-0.9518 1.7041,-1.2527 0.6696,-0.3009 1.4333,-0.4514 2.291,-0.4514 0.8577,0 1.6213,0.1392 2.291,0.4175 0.6696,0.2784 1.2376,0.6697 1.7041,1.1737 0.4665,0.5041 0.8238,1.1173 1.0721,1.8396 0.2483,0.7223 0.3724,1.5348 0.3724,2.4377 0,0.9028 -0.1241,1.7267 -0.3724,2.4715 -0.2483,0.7449 -0.6056,1.3844 -1.0721,1.9186 -0.4665,0.5342 -1.0345,0.9517 -1.7041,1.2527 -0.6697,0.3009 -1.4333,0.4514 -2.291,0.4514 -0.8577,0 -1.6214,-0.1392 -2.291,-0.4176 -0.6696,-0.2783 -1.2377,-0.6696 -1.7041,-1.1737 -0.4665,-0.504 -0.8239,-1.1172 -1.0722,-1.8395 -0.2482,-0.7223 -0.3724,-1.5349 -0.3724,-2.4377zm2.0991 -0.1129c0,0.6019 0.0602,1.1813 0.1806,1.738 0.1204,0.5568 0.3122,1.0458 0.5756,1.4672 0.2633,0.4213 0.6056,0.7561 1.027,1.0044 0.4213,0.2483 0.9404,0.3724 1.5574,0.3724 0.6169,0 1.1361,-0.1241 1.5574,-0.3724 0.4213,-0.2483 0.7636,-0.5831 1.027,-1.0044 0.2633,-0.4214 0.4552,-0.9104 0.5755,-1.4672 0.1204,-0.5567 0.1806,-1.1361 0.1806,-1.738 0,-0.6019 -0.0602,-1.1812 -0.1806,-1.7379 -0.1203,-0.5568 -0.3122,-1.0458 -0.5755,-1.4672 -0.2634,-0.4213 -0.6057,-0.7561 -1.027,-1.0044 -0.4213,-0.2483 -0.9405,-0.3724 -1.5574,-0.3724 -0.617,0 -1.1361,0.1354 -1.5574,0.4063 -0.4214,0.2708 -0.7637,0.6244 -1.027,1.0608 -0.2634,0.4364 -0.4552,0.9292 -0.5756,1.4784 -0.1204,0.5493 -0.1806,1.0947 -0.1806,1.6364zm11.85 -5.7105l1.9185 0 0 1.3317c0.4514,-0.5266 0.9969,-0.9179 1.6364,-1.1737 0.6395,-0.2558 1.3204,-0.3837 2.0427,-0.3837 1.4747,0 2.5844,0.5003 3.3293,1.501 0.7448,1.0007 1.1172,2.3361 1.1172,4.0064 0,0.9781 -0.1429,1.8584 -0.4288,2.6408 -0.2859,0.7825 -0.6959,1.4446 -1.2301,1.9863 -0.5342,0.5417 -1.1775,0.9555 -1.9299,1.2414 -0.7523,0.2859 -1.595,0.4289 -2.5279,0.4289 -0.316,0 -0.6283,-0.0151 -0.9368,-0.0452 -0.3084,-0.0301 -0.6282,-0.0677 -0.9592,-0.1128l0 5.3268 -2.0314 0 0 -16.7479zm2.0314 9.8636c0.1504,0.0753 0.3235,0.1317 0.5191,0.1693 0.1956,0.0376 0.3912,0.0677 0.5869,0.0903 0.1956,0.0226 0.3761,0.0376 0.5417,0.0452 0.1655,0.0075 0.2934,0.0112 0.3837,0.0112 0.7072,0 1.3053,-0.1316 1.7944,-0.395 0.489,-0.2633 0.8878,-0.6131 1.1963,-1.0495 0.3084,-0.4364 0.5342,-0.9442 0.6771,-1.5236 0.143,-0.5793 0.2144,-1.185 0.2144,-1.817 0,-0.4514 -0.0414,-0.9216 -0.1241,-1.4107 -0.0828,-0.489 -0.2332,-0.9404 -0.4514,-1.3542 -0.2182,-0.4138 -0.5117,-0.7524 -0.8803,-1.0157 -0.3687,-0.2634 -0.8389,-0.395 -1.4107,-0.395 -0.5417,0 -1.0044,0.1053 -1.3881,0.316 -0.3838,0.2106 -0.696,0.4965 -0.9367,0.8577 -0.2408,0.3611 -0.4176,0.7749 -0.5305,1.2414 -0.1128,0.4665 -0.1768,0.948 -0.1918,1.4446l0 4.785zm10.2021 -4.0853c0,-0.7825 0.1016,-1.5349 0.3047,-2.2572 0.2032,-0.7222 0.5116,-1.3655 0.9254,-1.9298 0.4139,-0.5643 0.933,-1.0157 1.5575,-1.3543 0.6244,-0.3385 1.358,-0.5078 2.2007,-0.5078 0.8125,0 1.5009,0.1279 2.0652,0.3837 0.5643,0.2558 1.027,0.6245 1.3881,1.106 0.3612,0.4815 0.6208,1.0721 0.7788,1.7718 0.158,0.6997 0.237,1.486 0.237,2.3587l0 0.6546 -7.2905 0c0,0.5266 0.0526,1.042 0.158,1.5461 0.1053,0.5041 0.2821,0.9555 0.5304,1.3543 0.2483,0.3987 0.5868,0.7185 1.0157,0.9592 0.4288,0.2408 0.9743,0.3612 1.6364,0.3612 0.5868,0 1.1586,-0.1016 1.7154,-0.3047 0.5568,-0.2032 1.0608,-0.4703 1.5123,-0.8013l0.4514 1.6928c-0.647,0.3311 -1.2678,0.5606 -1.8621,0.6885 -0.5944,0.1279 -1.2302,0.1918 -1.9073,0.1918 -1.7455,0 -3.0772,-0.5229 -3.9951,-1.5687 -0.9179,-1.0458 -1.3919,-2.4941 -1.422,-4.3449zm4.9431 -4.6949c-0.8727,0 -1.5273,0.3236 -1.9637,0.9706 -0.4364,0.6471 -0.6922,1.4671 -0.7674,2.4603l5.0785 0c0,-1.1737 -0.1956,-2.039 -0.5868,-2.5957 -0.3913,-0.5568 -0.9781,-0.8352 -1.7606,-0.8352z"/>
 </g>
</svg>
