<?xml version="1.0" encoding="UTF-8"?>
<!DOCTYPE svg PUBLIC "-//W3C//DTD SVG 1.1//EN" "http://www.w3.org/Graphics/SVG/1.1/DTD/svg11.dtd">
<!-- Creator: CorelDRAW -->
<svg xmlns="http://www.w3.org/2000/svg" xml:space="preserve" width="160px" height="50px" shape-rendering="geometricPrecision" text-rendering="geometricPrecision" image-rendering="optimizeQuality" fill-rule="evenodd" clip-rule="evenodd"
viewBox="0 0 160 50">
 <g id="MasterLayer_x0020_1">
  <metadata id="CorelCorpID_0Corel-Layer"/>
  <polygon fill="#C2C1C1" fill-rule="nonzero" points="73.0207,33.6568 73.0207,16.0563 85.089,16.0563 85.089,19.0355 76.5776,19.0355 76.5776,23.199 83.9252,23.199 83.9252,26.1781 76.5776,26.1781 76.5776,33.6568 "/>
  <polygon fill="#C2C1C1" fill-rule="nonzero" points="87.5845,33.6568 87.5845,16.0563 90.9571,16.0563 90.9571,33.6568 "/>
  <path fill="#C2C1C1" fill-rule="nonzero" d="M93.2231 27.1002c0,-1.1188 0.2787,-2.2047 0.8278,-3.2538 0.5532,-1.0449 1.3359,-1.8481 2.3481,-2.3972 1.0121,-0.5533 2.1432,-0.8319 3.393,-0.8319 1.926,0 3.5078,0.627 4.7413,1.8809 1.2335,1.254 1.8482,2.8358 1.8482,4.7495 0,1.926 -0.6229,3.5242 -1.8646,4.7945 -1.2458,1.2704 -2.8112,1.9015 -4.7003,1.9015 -1.172,0 -2.2825,-0.2623 -3.3439,-0.7909 -1.0613,-0.5287 -1.8686,-1.3032 -2.4218,-2.3236 -0.5491,-1.0203 -0.8278,-2.262 -0.8278,-3.729zm3.4586 0.1803c0,1.2662 0.2992,2.2333 0.9016,2.9054 0.5983,0.672 1.34,1.0081 2.221,1.0081 0.8811,0 1.6187,-0.3361 2.2129,-1.0081 0.5983,-0.6721 0.8974,-1.6474 0.8974,-2.93 0,-1.2458 -0.2991,-2.2088 -0.8974,-2.8808 -0.5942,-0.6721 -1.3318,-1.0081 -2.2129,-1.0081 -0.881,0 -1.6227,0.336 -2.221,1.0081 -0.6024,0.672 -0.9016,1.6432 -0.9016,2.9054z"/>
  <path fill="#C2C1C1" fill-rule="nonzero" d="M107.832 27.1002c0,-1.1188 0.2787,-2.2047 0.8278,-3.2538 0.5532,-1.0449 1.3359,-1.8481 2.3481,-2.3972 1.0121,-0.5533 2.1432,-0.8319 3.393,-0.8319 1.926,0 3.5078,0.627 4.7413,1.8809 1.2335,1.254 1.8482,2.8358 1.8482,4.7495 0,1.926 -0.6229,3.5242 -1.8646,4.7945 -1.2458,1.2704 -2.8112,1.9015 -4.7003,1.9015 -1.172,0 -2.2825,-0.2623 -3.3439,-0.7909 -1.0613,-0.5287 -1.8686,-1.3032 -2.4218,-2.3236 -0.5491,-1.0203 -0.8278,-2.262 -0.8278,-3.729zm3.4586 0.1803c0,1.2662 0.2992,2.2333 0.9016,2.9054 0.5983,0.672 1.34,1.0081 2.221,1.0081 0.8811,0 1.6187,-0.3361 2.2129,-1.0081 0.5983,-0.6721 0.8974,-1.6474 0.8974,-2.93 0,-1.2458 -0.2991,-2.2088 -0.8974,-2.8808 -0.5942,-0.6721 -1.3318,-1.0081 -2.2129,-1.0081 -0.881,0 -1.6227,0.336 -2.221,1.0081 -0.6024,0.672 -0.9016,1.6432 -0.9016,2.9054z"/>
  <path fill="#C2C1C1" fill-rule="nonzero" d="M121.867 33.6568l0 -2.6309 4.7781 -5.4829c0.7827,-0.8975 1.3646,-1.5327 1.7376,-1.9097 -0.3893,0.0246 -0.9057,0.0369 -1.545,0.0451l-4.5035 0.0246 0 -2.7948 10.5397 0 0 2.3891 -4.8724 5.6182 -1.717 1.8605c0.9343,-0.0574 1.5162,-0.0861 1.7416,-0.0861l5.2208 0 0 2.9669 -11.3799 0z"/>
  <g id="_189122800">
   <rect id="_189119224" fill="#AAA9A9" x="24.6323" y="9.4936" width="31.0128" height="31.0128" rx="1.96" ry="1.96"/>
   <path id="_189123712" fill="white" d="M33.8363 29.0632c-0.5586,-3.4481 -2.3305,-5.1721 -5.3158,-5.1721 2.9853,0 4.7572,-1.7241 5.3158,-5.1721 0.5585,3.448 2.3305,5.1721 5.3157,5.1721 -2.9852,0 -4.7572,1.724 -5.3157,5.1721z"/>
   <path id="_189121144" fill="white" d="M46.8618 29.2499c-0.5586,-3.448 -2.3305,-5.1721 -5.3158,-5.1721 2.9853,0 4.7572,-1.724 5.3158,-5.1721 0.5586,3.4481 2.3305,5.1721 5.3158,5.1721 -2.9853,0 -4.7572,1.7241 -5.3158,5.1721z"/>
  </g>
 </g>
</svg>
