<?xml version="1.0" encoding="UTF-8"?>
<!DOCTYPE svg PUBLIC "-//W3C//DTD SVG 1.1//EN" "http://www.w3.org/Graphics/SVG/1.1/DTD/svg11.dtd">
<!-- Creator: CorelDRAW -->
<svg xmlns="http://www.w3.org/2000/svg" xml:space="preserve" width="160px" height="50px" shape-rendering="geometricPrecision" text-rendering="geometricPrecision" image-rendering="optimizeQuality" fill-rule="evenodd" clip-rule="evenodd"
viewBox="0 0 160 50">
 <g id="MasterLayer_x0020_1">
  <metadata id="CorelCorpID_0Corel-Layer"/>
  <path fill="#B8BBC6" d="M33.961 42.836c-1.1445,0.2279 -2.3277,0.3475 -3.5386,0.3475 -9.9961,0 -18.1031,-8.143 -18.1031,-18.1836 0,-10.0406 8.1072,-18.1849 18.1031,-18.1836 8.7885,0.0012 16.3017,6.4494 17.7612,14.643 0.1052,0.5906 -0.5817,0.6344 -0.6833,0.1047 -1.5129,-7.8898 -8.4294,-13.8626 -16.7561,-13.8626 -9.4185,0 -17.0571,7.6386 -17.0571,17.0571 0,6.5546 3.6955,12.2586 9.12,15.1144 0.9814,-2.702 0.7326,-5.57 -0.9747,-8.7024 -0.5915,-1.156 -1.1635,-2.3223 -1.7745,-3.4683 -0.1642,-0.308 -0.1358,-0.4651 0.3226,-0.4033 2.5016,0.2454 5.7563,2.8565 8.7919,5.2428 5.5437,4.3583 12.4732,5.8626 17.3963,0.6727 -2.4589,4.8927 -7.0813,8.5211 -12.6077,9.6216z"/>
  <path fill="#AAA9A9" d="M33.961 42.836c-1.1445,0.2279 -2.3277,0.3475 -3.5386,0.3475 -9.9961,0 -18.1031,-8.143 -18.1031,-18.1836 0,-10.0406 8.1072,-18.1849 18.1031,-18.1836 8.7885,0.0012 16.3017,6.4494 17.7612,14.643 0.1052,0.5906 -0.5817,0.6344 -0.6833,0.1047 -1.5129,-7.8898 -8.4294,-13.8626 -16.7561,-13.8626 -9.4185,0 -17.0571,7.6386 -17.0571,17.0571 0,6.5546 3.6955,12.2586 9.12,15.1144 0.9814,-2.702 0.7326,-5.57 -0.9747,-8.7024 -0.5915,-1.156 -1.1635,-2.3223 -1.7745,-3.4683 -0.1642,-0.308 -0.1358,-0.4651 0.3226,-0.4033 2.5016,0.2454 5.7563,2.8565 8.7919,5.2428 5.5437,4.3583 12.4732,5.8626 17.3963,0.6727 -2.4589,4.8927 -7.0813,8.5211 -12.6077,9.6216z"/>
  <path fill="#DEDEDD" d="M29.1886 32.5476c5.5437,4.3582 12.457,5.8567 17.3809,0.6684 -2.0297,1.0732 -3.9508,1.7736 -5.5907,1.6177 -3.6954,-0.3512 -6.206,-3.4213 -9.1886,-5.1672 -0.5277,-0.3956 -1.1008,-0.5949 -1.8074,-0.4903 -0.2548,0.0374 -0.2623,0.0285 -0.3208,0.2719 0.0001,-0.0001 -0.0001,0.0002 -0.0001,0.0002 -0.2571,1.0629 -0.418,2.0966 -0.4733,3.0993z"/>
  <path fill="#C2C1C1" d="M33.9618 42.8399c5.5256,-1.1044 10.148,-4.7328 12.6069,-9.6255 -4.9231,5.1899 -11.8372,3.6893 -17.3804,-0.6689 -0.2176,3.9352 1.1883,7.3973 4.7735,10.2944z"/>
  <path fill="#C2C1C1" fill-rule="nonzero" d="M70.7411 33.4865l-2.2987 0 -5.2639 -12.4798 0.0885 12.4798 -2.5759 0 -0.0592 -16.8461 2.9285 -0.0547 6.0313 13.2512 6.0314 -13.2512 2.9285 0.0547 -0.0593 16.8461 -2.5759 0 0.0885 -12.4798 -5.2638 12.4798zm16.7072 -13.34c1.228,0 2.3824,0.3099 3.4635,0.922 1.077,0.6119 1.9215,1.4481 2.5253,2.4965 0.6078,1.0527 0.9096,2.1867 0.9096,3.4066 0,1.2278 -0.3058,2.3741 -0.9137,3.443 -0.6119,1.069 -1.44,1.9011 -2.4926,2.5049 -1.0525,0.5996 -2.2111,0.9016 -3.4798,0.9016 -1.8644,0 -3.4553,-0.6651 -4.7731,-1.9908 -1.3177,-1.3259 -1.9785,-2.9373 -1.9785,-4.8343 0,-2.0316 0.7466,-3.7247 2.2355,-5.0789 1.3055,-1.1791 2.8067,-1.7706 4.5038,-1.7706zm0.0476 2.2488c-1.2318,0 -2.2599,0.4321 -3.0796,1.2914 -0.8194,0.8592 -1.2267,1.9569 -1.2267,3.293 0,1.3809 0.4023,2.4936 1.2169,3.3478 0.8096,0.8542 1.8328,1.2815 3.0745,1.2815 1.2419,0 2.2749,-0.4321 3.0995,-1.2964 0.8246,-0.8642 1.2368,-1.9719 1.2368,-3.3329 0,-1.356 -0.4024,-2.4586 -1.212,-3.308 -0.8146,-0.8492 -1.8478,-1.2764 -3.1094,-1.2764zm16.391 0c-1.2317,0 -2.2599,0.4321 -3.0796,1.2914 -0.8193,0.8592 -1.2266,1.9569 -1.2266,3.293 0,1.3809 0.4022,2.4936 1.2168,3.3478 0.8096,0.8542 1.8329,1.2815 3.0745,1.2815 1.2419,0 2.2749,-0.4321 3.0995,-1.2964 0.8246,-0.8642 1.2368,-1.9719 1.2368,-3.3329 0,-1.356 -0.4024,-2.4586 -1.212,-3.308 -0.8146,-0.8492 -1.8478,-1.2764 -3.1094,-1.2764zm-0.0476 -2.2488c1.228,0 2.3824,0.3099 3.4636,0.922 1.0769,0.6119 1.9214,1.4481 2.5252,2.4965 0.6078,1.0527 0.9097,2.1867 0.9097,3.4066 0,1.2278 -0.3059,2.3741 -0.9138,3.443 -0.6119,1.069 -1.44,1.9011 -2.4926,2.5049 -0.2083,0.1187 -0.4213,0.2252 -0.6379,0.3204 -0.7809,0.3869 -1.6281,0.5812 -2.5438,0.5812 -0.0464,0 -0.0928,-0.0009 -0.1387,-0.0019 -0.053,0.0012 -0.1059,0.0019 -0.1594,0.0019 -1.6525,0 -3.0897,-0.5231 -4.3128,-1.5651l0 1.2305 -2.6466 0 0 -18.0233 2.5073 0 0 6.3966c1.2907,-1.1412 2.7702,-1.7133 4.4398,-1.7133zm41.2022 -0.2754l2.6392 0 0 13.4194 -2.6392 0 0 -0.9386c-0.2618,0.2074 -0.5415,0.3968 -0.8391,0.5676 -1.0524,0.5996 -2.2111,0.9016 -3.4798,0.9016 -1.8643,0 -3.4553,-0.6651 -4.7731,-1.9908 -1.3176,-1.3259 -1.9785,-2.9373 -1.9785,-4.8343 0,-2.0316 0.7466,-3.7247 2.2356,-5.0789 1.3055,-1.1791 2.8066,-1.7706 4.5037,-1.7706 1.228,0 2.3825,0.3099 3.4636,0.922 0.3084,0.1752 0.5976,0.3685 0.8676,0.5803l0 -1.7777zm0 7.7979l0 -1.3849c-0.1173,-1.0427 -0.5075,-1.913 -1.1741,-2.6124 -0.8147,-0.8492 -1.8479,-1.2764 -3.1095,-1.2764 -1.2317,0 -2.2598,0.4321 -3.0795,1.2914 -0.8194,0.8592 -1.2267,1.9569 -1.2267,3.293 0,1.3809 0.4023,2.4936 1.2169,3.3478 0.8095,0.8542 1.8328,1.2815 3.0745,1.2815 1.2418,0 2.2749,-0.4321 3.0995,-1.2964 0.6806,-0.7133 1.0801,-1.593 1.1989,-2.6436zm-16.3037 -12.2058l2.5595 0 0 18.0233 -2.5595 0 0 -18.0233zm-6.0081 4.4163l2.6738 0 0 13.4357 -2.6738 0 0 -1.2714c-1.0249,0.9908 -2.4206,1.6012 -3.9583,1.6012 -1.1107,0 -2.1473,-0.3182 -3.0237,-0.8683 -1.6051,-1.0075 -2.6726,-2.7934 -2.6723,-4.8626l0.0004 -8.0346 2.6738 0 -0.0011 7.996c-0.0011,2.0463 1.5555,3.603 3.4748,3.603 1.9192,0 3.4759,-1.5567 3.4759,-3.4759l0.0305 -0.001 0 -8.1221z"/>
 </g>
</svg>
