<?xml version="1.0" encoding="UTF-8"?>
<!DOCTYPE svg PUBLIC "-//W3C//DTD SVG 1.1//EN" "http://www.w3.org/Graphics/SVG/1.1/DTD/svg11.dtd">
<!-- Creator: CorelDRAW -->
<svg xmlns="http://www.w3.org/2000/svg" xml:space="preserve" width="160px" height="50px" shape-rendering="geometricPrecision" text-rendering="geometricPrecision" image-rendering="optimizeQuality" fill-rule="evenodd" clip-rule="evenodd"
viewBox="0 0 160 50">
 <g id="Layer_x0020_1">
  <metadata id="CorelCorpID_0Corel-Layer"/>
  <g id="_189158408">
   <path id="_189158864" fill="#C2C1C1" fill-rule="nonzero" d="M105.039 24.7072l-0.127 0.0662 -0.0994 0.1602 -0.1216 0.1876 -0.0966 0.1768 -0.0634 0.1546 -0.0884 0.2098 -0.0966 0.1382 -0.0662 0.2098 -0.1298 0.1518 -0.185 0.334 -0.0664 0.21 -0.1518 0.138 -0.0662 0.1766 -0.0966 0.1712 -0.1134 0.1934 -0.1048 0.1546 -0.0496 0.2264 -0.1436 0.1352 -0.0498 0.1628 -0.1546 0.2348 -0.1602 0.2816 -0.1214 0.163 -0.1298 0.1214 -0.2512 0.0496 -0.3314 0.0138 -0.2264 -0.0138 -0.2014 0.0304 -0.3812 -0.0304 -0.1296 -0.033 -0.185 -0.1546 -0.1464 -0.0802 -0.1546 -0.3644 -0.1932 -0.3312 -0.1216 -0.185 -0.1298 -0.2126 -0.0468 -0.1354 -0.1382 -0.196 -0.0966 -0.185 -0.2016 -0.381 -0.113 -0.1766 -0.163 -0.2844 -0.1214 -0.2016 -0.0968 -0.1932 -0.08 -0.1548 -0.0664 -0.1932 -0.1682 -0.3644 -0.083 -0.1546 -0.0966 -0.1768 -0.0882 -0.0496 -0.0802 0.033 -0.0166 0.0966 0 0.163 0.0166 0.2182 0.0138 0.2014 0 0.163 0.0332 0.2016 0 0.3948 0.0332 0.4306 -0.0166 0.2016 0.0496 0.381 -0.0166 0.1934 0.0166 0.1848 -0.0166 0.2348 -0.033 0.1794 0 0.2016 0.0166 0.2098 -0.0166 0.1546 0.0166 0.2264 0 0.348 0.033 0.2014 -0.033 0.2016 -0.0166 0.21 0.033 0.2346 0.0166 0.1462 -0.0166 0.2348 -0.033 0.185 0 0.381 -0.0332 0.2098 -0.1132 0.1546 -0.1518 0.0966 -0.1464 0.0332 -0.3644 0.0166 -0.2182 -0.0332 -0.381 0 -0.1768 0.0332 -0.3974 -0.0498 -0.185 -0.0332 -0.163 -0.0964 -0.0884 -0.1216 -0.0634 -0.2264 -0.0166 -0.3312 -0.0166 -0.2514 0 -0.1684 0.0498 -0.2264 -0.0498 -0.1712 0 -0.2428 0.0332 -0.1686 0 -0.218 -0.0166 -0.163 -0.0166 -0.218 0 -0.3978 0.0498 -0.2318 0 -0.2126 -0.0166 -0.185 -0.0332 -0.1932 0.0332 -0.1878 -0.0332 -0.1934 0.0332 -0.1848 -0.0332 -0.196 0.0166 -0.2512 0.0166 -0.2018 -0.0166 -0.1766 -0.0166 -0.2016 0.0166 -0.2346 0 -0.1464 -0.0166 -0.2346 0.0498 -0.1796 -0.0498 -0.2014 0.0332 -0.1768 -0.0332 -0.2346 0 -0.2182 0.0498 -0.196 0 -0.1684 -0.0166 -0.243 -0.0332 -0.185 0.0166 -0.1628 0 -0.2182 0.0332 -0.2016 -0.0166 -0.1794 0.0166 -0.2678 0 -0.1436 -0.0498 -0.2512 0.0332 -0.185 -0.0332 -0.2126 0.0166 -0.152 0.0332 -0.2262 -0.0166 -0.1712 0 -0.243 0.0166 -0.1684 -0.0332 -0.2348 0.047 -0.3976 0.033 -0.1766 0.105 -0.105 0.1298 -0.0966 0.163 -0.0496 0.6294 0 0.4528 -0.0332 0.3644 0.0166 0.1932 0.0332 0.2182 0.0634 0.1298 0.0828 0.1712 0.1188 0.1766 0.3974 0.0664 0.13 0.0882 0.1848 0.1464 0.163 0.0802 0.185 0.0718 0.196 0.1296 0.185 0.083 0.1462 0.0964 0.1686 0.0884 0.196 0.0802 0.1684 0.218 0.3312 0.083 0.1796 0.0634 0.218 0.1464 0.152 0.0718 0.1794 0.113 0.1298 0.0802 0.2016 0.0662 0.1628 0.1214 0.1684 0.0968 0.1796 0.1132 0.218 0.0496 0.1684 0.1354 0.1464 0.0828 0.2016 0.08 0.1296 0.0884 0.2348 0.1132 0.1132 0.0828 0.2346 0.1132 0.1464 0.1684 -0.0496 0.0802 -0.0968 0.1214 -0.171 0.0828 -0.2264 0.0966 -0.152 0.0802 -0.1628 0.1048 -0.185 0.1132 -0.1464 0.0664 -0.2346 0.0966 -0.1132 0.138 -0.2016 0.0966 -0.1796 0.0636 -0.1516 0.105 -0.2182 0.2262 -0.348 0.0662 -0.1462 0.0718 -0.163 0.1134 -0.1684 0.0966 -0.218 0.0828 -0.13 0.1352 -0.2346 0.0498 -0.1296 0.1298 -0.1852 0.0882 -0.196 0.1134 -0.1684 0.0496 -0.1628 0.1518 -0.185 0.163 -0.3314 0.08 -0.196 0.1878 -0.3312 0.0966 -0.152 0.1684 -0.0994 0.163 -0.0468 0.1848 -0.0498 0.4142 0.0332 0.1766 -0.0332 0.4198 0.0332 0.1628 -0.0498 0.3978 0.0498 0.1352 0.0496 0.196 0.08 0.0636 0.1216 0.0662 0.2264 0.0222 0.3478 -0.0388 0.2514 0.0552 0.1518 -0.0552 0.243 0.0388 0.1876 0 0.1768 0.0164 0.2016 -0.0386 0.196 0.0222 0.185 -0.0388 0.2182 0.0166 0.2098 0.0222 0.2014 -0.0222 0.2126 0 0.185 0.0222 0.2016 0 0.2098 -0.0222 0.1712 0.0386 0.1932 -0.0164 0.2182 0.0164 0.2182 0 0.2126 -0.0386 0.1684 -0.0166 0.243 0.0552 0.1546 -0.0386 0.2428 0.0386 0.1686 -0.0386 0.2346 -0.0166 0.1934 0 0.1544 0.0552 0.1934 -0.0552 0.2182 0 0.196 0.0166 0.218 0.0386 0.218 -0.0164 0.1768 0.0164 0.1878 0 0.1934 -0.0552 0.218 0.0166 0.2346 0 0.3976 -0.0166 0.1768 0 0.2014 0.0552 0.2348 0 0.3976 -0.0386 0.163 0.0386 0.2014 0 0.428 -0.0552 0.1628 0.0166 0.4198 -0.1298 0.2982 -0.196 0.1462 -0.1518 -0.0166 -0.3812 0.0166 -0.6294 0 -0.1794 0.0332 -0.4032 0 -0.1794 -0.0664 -0.2016 -0.113 -0.0496 -0.152 -0.0802 -0.1628 -0.0166 -0.3644 0 -0.2348 0.0332 -0.1518 0 -0.243 -0.0166 -0.1712 -0.0166 -0.2098 0.0332 -0.2016 -0.0166 -0.218 -0.0166 -0.1464 0.0332 -0.2182 -0.0166 -0.1932 0 -0.1878 0.0332 -0.1932 -0.0166 -0.2346 -0.0166 -0.2016 0 -0.3644 0.0166 -0.21 0 -0.3808 -0.0166 -0.1852 0 -0.2346 0.0166 -0.1628 0.047 -0.2016 0 -0.428 0.0166 -0.1962 0.0164 -0.1682 0.0332 -0.2844 0 -0.1602 -0.0662 -0.0662zm9.0616 6.9742l-0.1712 -0.0662 -0.2264 0.0164 -0.185 -0.0164 -0.1796 -0.0332 -0.2512 0 -0.2014 -0.0718 -0.1602 -0.0166 -0.1878 -0.0634 -0.2098 -0.0166 -0.1712 -0.1132 -0.2098 -0.0496 -0.2016 -0.0718 -0.1132 -0.1132 -0.218 -0.0332 -0.185 -0.1298 -0.1298 -0.138 -0.1464 -0.0802 -0.1546 -0.1684 -0.1768 -0.0994 -0.138 -0.1132 -0.1464 -0.2016 -0.0634 -0.1296 -0.1546 -0.1686 -0.0966 -0.1794 -0.08 -0.1682 -0.1216 -0.13 -0.0498 -0.185 -0.0964 -0.1628 -0.0166 -0.2182 -0.0636 -0.1932 -0.0332 -0.2044 -0.0882 -0.1932 -0.0332 -0.185 -0.033 -0.218 -0.014 -0.1796 0.047 -0.218 -0.047 -0.3646 0 -0.16 -0.0166 -0.2348 0.0166 -0.1628 0.014 -0.2182 -0.0306 -0.2016 0.0166 -0.196 0 -0.2346 0.0304 -0.1436 -0.0164 -0.2042 0 -0.2098 -0.014 -0.2182 0.014 -0.2182 0.0164 -0.1628 -0.0164 -0.2348 -0.0306 -0.1766 0.0166 -0.4032 0 -0.1462 0.047 -0.2514 0 -0.1464 0.0166 -0.218 0.0496 -0.1934 0.0388 -0.1876 0.0966 -0.1932 0.0496 -0.1852 0.0498 -0.218 0.08 -0.1794 0.0884 -0.1132 0.1462 -0.2348 0.0802 -0.1132 0.138 -0.2014 0.0966 -0.0968 0.2678 -0.301 0.1132 -0.1518 0.1684 -0.0966 0.163 -0.1628 0.2016 -0.0884 0.1628 -0.0966 0.1298 -0.0994 0.2182 -0.0968 0.185 -0.0386 0.1296 -0.0662 0.2182 -0.0634 0.1766 -0.0498 0.1878 -0.08 0.21 -0.0332 0.2014 -0.0386 0.2182 -0.0166 0.1464 -0.0496 0.2512 0 0.1462 -0.0166 0.2486 -0.0166 0.381 0.0332 0.2346 0.0164 0.1298 -0.0164 0.2512 -0.0166 0.1934 0.033 0.2016 0.0718 0.1462 0.0166 0.2182 0.0332 0.1628 0.0496 0.2512 0.0802 0.152 0.0164 0.2264 0.08 0.1546 0.105 0.1932 0.0968 0.1546 0.033 0.163 0.1132 0.1518 0.105 0.196 0.1628 0.1684 0.1132 0.0968 0.105 0.1296 0.16 0.1548 0.1712 0.1296 0.1132 0.1354 0.185 0.0828 0.163 0.0634 0.1684 0.0968 0.1794 0.1048 0.1298 0.0994 0.2016 0.0304 0.2182 0.0662 0.1628 0.0166 0.2014 0.0304 0.1602 0.0498 0.221 0.0552 0.1932 0.0164 0.185 0 0.218 0.0166 0.4308 -0.033 0.3478 -0.0222 0.1934 0.0386 0.218 -0.0386 0.1852 0 0.2126 0.0552 0.2014 -0.0552 0.2098 0.0222 0.1712 0.0164 0.1768 0.0166 0.2182 0 0.218 -0.033 0.1932 0.033 0.1714 -0.0166 0.2096 -0.0386 0.3976 0 0.2182 -0.033 0.2016 0 0.1628 -0.0166 0.2182 -0.0498 0.16 -0.0634 0.1878 -0.0166 0.243 -0.0968 0.1684 -0.0882 0.1464 -0.0166 0.218 -0.1464 0.163 -0.0634 0.2016 -0.1214 0.113 -0.1134 0.1686 -0.0828 0.1462 -0.1352 0.185 -0.1298 0.0994 -0.3008 0.2652 -0.1768 0.0966 -0.2016 0.138 -0.163 0.0662 -0.1546 0.1436 -0.1932 0.0332 -0.185 0.105 -0.1298 0.0496 -0.2016 0.0966 -0.196 0.0636 -0.2014 0 -0.2016 0.0662 -0.1932 0.0552 -0.221 0.0332 -0.1932 0.0164 -0.1546 0.0332 -0.1934 -0.0166 -0.2346 -0.0166 -0.3948 0.0498zm0.4114 -2.4684l0.3644 -0.033 0.428 -0.1382 0.1546 -0.0302 0.1932 -0.0968 0.1382 -0.0828 0.298 -0.265 0.1464 -0.1712 0.08 -0.1932 0.083 -0.1712 0.0718 -0.1602 0 -0.2042 0.033 -0.2486 0.0304 -0.3976 -0.0138 -0.1932 0.0138 -0.2044 -0.047 -0.1766 0.0166 -0.2182 -0.0166 -0.185 0.047 -0.2428 -0.0138 -0.1712 -0.0332 -0.1768 0.0332 -0.2512 0.0138 -0.2016 -0.0304 -0.1794 0.0304 -0.2182 -0.0138 -0.1768 -0.0332 -0.2208 0.0166 -0.2318 -0.033 -0.3978 0.033 -0.1462 -0.0828 -0.218 -0.0552 -0.21 -0.0498 -0.1546 -0.113 -0.2098 -0.1298 -0.1546 -0.105 -0.127 -0.1932 -0.1214 -0.1546 -0.0664 -0.1436 -0.08 -0.2182 -0.08 -0.3976 -0.1382 -0.1462 0.0332 -0.2348 -0.0332 -0.3948 -0.0332 -0.1546 0.0664 -0.2264 -0.0332 -0.348 0.105 -0.2512 0.08 -0.1296 0.08 -0.1852 0.0996 -0.1462 0.1682 -0.1684 0.1298 -0.1134 0.1712 -0.0662 0.1436 -0.1048 0.2044 -0.047 0.127 -0.0332 0.2042 -0.0332 0.243 0.0498 0.3866 -0.0166 0.1932 0.0166 0.1878 -0.0166 0.2098 0.0166 0.2346 -0.0332 0.163 0.0332 0.2182 -0.0498 0.218 0.0498 0.1768 -0.0166 0.2042 -0.0166 0.2486 -0.0166 0.1464 0.0332 0.2346 0.0166 0.1766 -0.0332 0.2512 0.0166 0.163 0 0.4196 0.0332 0.21 0.047 0.1712 0.0496 0.2098 0.0884 0.1712 0.0634 0.1932 0.0996 0.138 0.1352 0.1298 0.1628 0.0966 0.1464 0.105 0.185 0.08 0.2016 0.1132 0.196 0.0166 0.185 0.0884 0.1628 0.0164 0.2182 -0.0164 0.428 0.033zm10.8976 2.4684l-0.1712 -0.0662 -0.2264 0.0164 -0.185 -0.0164 -0.1794 -0.0332 -0.2512 0 -0.2016 -0.0718 -0.1602 -0.0166 -0.1876 -0.0634 -0.2098 -0.0166 -0.1714 -0.1132 -0.2098 -0.0496 -0.2014 -0.0718 -0.1132 -0.1132 -0.2182 -0.0332 -0.185 -0.1298 -0.1298 -0.138 -0.1464 -0.0802 -0.1546 -0.1684 -0.1766 -0.0994 -0.138 -0.1132 -0.1464 -0.2016 -0.0636 -0.1296 -0.1546 -0.1686 -0.0966 -0.1794 -0.08 -0.1682 -0.1216 -0.13 -0.0496 -0.185 -0.0966 -0.1628 -0.0166 -0.2182 -0.0634 -0.1932 -0.0332 -0.2044 -0.0884 -0.1932 -0.0332 -0.185 -0.033 -0.218 -0.014 -0.1796 0.047 -0.218 -0.047 -0.3646 0 -0.16 -0.0164 -0.2348 0.0164 -0.1628 0.014 -0.2182 -0.0304 -0.2016 0.0164 -0.196 0 -0.2346 0.0304 -0.1436 -0.0164 -0.2042 0 -0.2098 -0.014 -0.2182 0.014 -0.2182 0.0164 -0.1628 -0.0164 -0.2348 -0.0304 -0.1766 0.0164 -0.4032 0 -0.1462 0.047 -0.2514 0 -0.1464 0.0166 -0.218 0.0498 -0.1934 0.0386 -0.1876 0.0966 -0.1932 0.0496 -0.1852 0.0498 -0.218 0.08 -0.1794 0.0884 -0.1132 0.1464 -0.2348 0.08 -0.1132 0.138 -0.2014 0.0968 -0.0968 0.2678 -0.301 0.1132 -0.1518 0.1684 -0.0966 0.1628 -0.1628 0.2016 -0.0884 0.1628 -0.0966 0.1298 -0.0994 0.2182 -0.0968 0.185 -0.0386 0.1298 -0.0662 0.2182 -0.0634 0.1766 -0.0498 0.1876 -0.08 0.21 -0.0332 0.2016 -0.0386 0.218 -0.0166 0.1464 -0.0496 0.2512 0 0.1464 -0.0166 0.2484 -0.0166 0.381 0.0332 0.2346 0.0164 0.1298 -0.0164 0.2514 -0.0166 0.1932 0.033 0.2016 0.0718 0.1462 0.0166 0.2182 0.0332 0.163 0.0496 0.2512 0.0802 0.1518 0.0164 0.2264 0.08 0.1546 0.105 0.1934 0.0968 0.1546 0.033 0.1628 0.1132 0.1518 0.105 0.196 0.1628 0.1686 0.1132 0.0966 0.105 0.1298 0.16 0.1546 0.1712 0.1298 0.1132 0.1352 0.185 0.0828 0.163 0.0636 0.1684 0.0966 0.1794 0.105 0.1298 0.0992 0.2016 0.0304 0.2182 0.0664 0.1628 0.0166 0.2014 0.0302 0.1602 0.0498 0.221 0.0552 0.1932 0.0164 0.185 0 0.218 0.0166 0.4308 -0.033 0.3478 -0.0222 0.1934 0.0386 0.218 -0.0386 0.1852 0 0.2126 0.0552 0.2014 -0.0552 0.2098 0.0222 0.1712 0.0164 0.1768 0.0166 0.2182 0 0.218 -0.033 0.1932 0.033 0.1714 -0.0166 0.2096 -0.0386 0.3976 0 0.2182 -0.033 0.2016 0 0.1628 -0.0166 0.2182 -0.0498 0.16 -0.0634 0.1878 -0.0166 0.243 -0.0966 0.1684 -0.0884 0.1464 -0.0164 0.218 -0.1464 0.163 -0.0636 0.2016 -0.1214 0.113 -0.1132 0.1686 -0.0828 0.1462 -0.1354 0.185 -0.1298 0.0994 -0.3008 0.2652 -0.1768 0.0966 -0.2014 0.138 -0.163 0.0662 -0.1546 0.1436 -0.1934 0.0332 -0.185 0.105 -0.1298 0.0496 -0.2014 0.0966 -0.196 0.0636 -0.2016 0 -0.2016 0.0662 -0.1932 0.0552 -0.2208 0.0332 -0.1934 0.0164 -0.1546 0.0332 -0.1934 -0.0166 -0.2346 -0.0166 -0.3948 0.0498zm0.4114 -2.4684l0.3644 -0.033 0.428 -0.1382 0.1546 -0.0302 0.1932 -0.0968 0.1382 -0.0828 0.2982 -0.265 0.1462 -0.1712 0.0802 -0.1932 0.0828 -0.1712 0.0718 -0.1602 0 -0.2042 0.033 -0.2486 0.0304 -0.3976 -0.0138 -0.1932 0.0138 -0.2044 -0.047 -0.1766 0.0166 -0.2182 -0.0166 -0.185 0.047 -0.2428 -0.0138 -0.1712 -0.0332 -0.1768 0.0332 -0.2512 0.0138 -0.2016 -0.0304 -0.1794 0.0304 -0.2182 -0.0138 -0.1768 -0.0332 -0.2208 0.0166 -0.2318 -0.033 -0.3978 0.033 -0.1462 -0.0828 -0.218 -0.0552 -0.21 -0.0496 -0.1546 -0.1132 -0.2098 -0.1298 -0.1546 -0.105 -0.127 -0.1932 -0.1214 -0.1546 -0.0664 -0.1436 -0.08 -0.218 -0.08 -0.3978 -0.1382 -0.1462 0.0332 -0.2348 -0.0332 -0.3946 -0.0332 -0.1548 0.0664 -0.2264 -0.0332 -0.3478 0.105 -0.2512 0.08 -0.1298 0.08 -0.185 0.0996 -0.1464 0.1682 -0.1684 0.1298 -0.1132 0.1712 -0.0662 0.1436 -0.105 0.2044 -0.047 0.127 -0.033 0.2042 -0.0332 0.243 0.0496 0.3866 -0.0164 0.1932 0.0164 0.1878 -0.0164 0.2098 0.0164 0.2346 -0.033 0.163 0.033 0.2182 -0.0496 0.218 0.0496 0.1768 -0.0164 0.2042 -0.0166 0.2486 -0.0166 0.1464 0.0332 0.2346 0.0164 0.1766 -0.033 0.2512 0.0166 0.163 0 0.4196 0.033 0.21 0.047 0.1712 0.0498 0.2098 0.0884 0.1712 0.0634 0.1932 0.0994 0.138 0.1352 0.1298 0.163 0.0966 0.1462 0.105 0.185 0.08 0.2016 0.1132 0.196 0.0166 0.185 0.0884 0.163 0.0164 0.2182 -0.0164 0.4278 0.033zm13.6144 -2.6036l0.0166 -0.1628 -0.0332 -0.2016 -0.0164 -0.1794 -0.0166 -0.2016 0 -0.185 -0.0222 -0.1628 0 -0.2514 -0.0164 -0.16 -0.0166 -0.2348 -0.0332 -0.1794 0 -0.2016 0.0166 -0.3976 0.0166 -0.185 -0.0332 -0.243 0 -0.1518 0.0332 -0.2512 -0.0166 -0.1796 -0.0332 -0.1682 0.0166 -0.1962 -0.0166 -0.185 0.0332 -0.2262 -0.0166 -0.1714 0.0332 -0.2484 -0.0166 -0.196 -0.0166 -0.1684 0.0332 -0.2264 -0.0166 -0.1712 0.0166 -0.2264 -0.0332 -0.2016 -0.0166 -0.185 0.0166 -0.4142 0.0498 -0.16 0.138 -0.1382 0.0966 -0.08 0.2182 -0.0828 0.381 0.0332 0.2098 -0.0498 0.185 0.0332 0.2348 -0.0166 0.1932 -0.0166 0.3644 0.0664 0.2016 -0.0166 0.1794 0.0966 0.0884 0.185 0.033 0.1628 0.0166 0.3976 0.0166 0.185 -0.0332 0.2346 0.0166 0.21 -0.0166 0.2014 0.0332 0.1464 -0.0166 0.2514 0.0166 0.1462 -0.0496 0.2484 0.0496 0.1878 -0.0166 0.1934 -0.0166 0.218 0 0.2182 -0.0164 0.196 0 0.2016 0.0496 0.1628 -0.0166 0.2182 0 0.1766 0.0166 0.2182 -0.0496 0.1628 0 0.2514 0.0164 0.218 0.0332 0.1768 -0.0166 0.218 -0.033 0.1794 0.0164 0.1852 -0.0164 0.2014 0 0.4308 0.0164 0.1766 -0.0164 0.1712 0.033 0.2652 0.0166 0.1794 -0.0496 0.1684 0.0496 0.2264 -0.0496 0.2182 0.0164 0.1464 0.0332 0.2512 -0.0496 0.1848 0 0.2098 0.033 0.188 0 0.16 -0.0166 0.2042 0.0332 0.2266 -0.0332 0.218 -0.0164 0.2016 0.0164 0.163 -0.0164 0.2014 0 0.2098 0.0164 0.2348 0.0166 0.2016 0.0166 0.3974 -0.0992 0.1768 -0.0718 0.105 -0.1466 0.0994 -0.1682 0.0634 -0.3976 0 -0.2098 0.0332 -0.1852 0 -0.196 -0.0332 -0.2014 0.0166 -0.1298 0 -0.4032 -0.0498 -0.2098 0 -0.138 -0.0966 -0.2596 -0.3312 -0.1214 -0.185 -0.0498 -0.1298 -0.1434 -0.1878 -0.1216 -0.1434 -0.0664 -0.2182 -0.113 -0.163 -0.1132 -0.138 -0.152 -0.1766 -0.0662 -0.138 -0.1132 -0.1934 -0.1214 -0.138 -0.0968 -0.1962 -0.0966 -0.1684 -0.1048 -0.1132 -0.21 -0.3312 -0.138 -0.2182 -0.1132 -0.1628 -0.218 -0.2982 -0.1298 -0.1464 -0.0802 -0.2016 -0.138 -0.1464 -0.0966 -0.138 -0.0828 -0.1766 -0.0966 -0.2044 -0.138 -0.1434 -0.127 -0.1714 -0.1714 -0.3312 -0.1462 -0.1766 -0.0636 -0.1712 -0.1048 -0.1464 -0.0966 -0.1684 -0.1132 -0.1796 -0.0994 -0.1682 -0.0884 -0.163 -0.0636 -0.1684 -0.0662 -0.1132 -0.08 -0.1132 -0.1382 0 -0.033 0.1132 0.0164 0.2016 0.0332 0.2264 0 0.218 0.0166 0.218 -0.0166 0.1796 0.0166 0.185 0.0332 0.1794 0.022 0.2016 0 0.2264 0.0332 0.2346 0.0166 0.3784 0 0.2042 -0.0332 0.21 -0.0166 0.1546 0.0332 0.2098 0.0166 0.2346 -0.0498 0.2016 0.0498 0.1462 -0.0498 0.2348 0.0166 0.2098 0 0.185 0.0166 0.2182 0 0.1462 0.0166 0.2182 -0.0332 0.2098 0.0332 0.3644 -0.0498 0.2348 0.0166 0.1464 0 0.4526 -0.0166 0.1602 -0.1352 0.1712 -0.1298 0.0498 -0.2348 0.0302 -0.3312 0.0166 -0.2182 0.0498 -0.2126 -0.0332 -0.1848 0.0166 -0.6076 -0.0498 -0.185 0.0166 -0.2014 -0.1132 -0.0498 -0.1684 -0.0332 -0.1464 -0.0138 -0.4526 -0.033 -0.1464 0 -0.2514 0.033 -0.1434 -0.033 -0.4308 0.0164 -0.185 -0.033 -0.2346 0.0166 -0.1934 0 -0.414 0.033 -0.1686 -0.0166 -0.1794 0 -0.2014 -0.0164 -0.2512 0.0164 -0.1934 0 -0.1546 -0.033 -0.21 0.033 -0.1848 -0.033 -0.196 0 -0.453 0.033 -0.16 -0.0164 -0.2182 0.033 -0.4306 0 -0.1686 -0.033 -0.2262 0.033 -0.2044 -0.0496 -0.1932 0.0166 -0.1684 0.033 -0.2126 0 -0.2182 -0.0496 -0.1684 0 -0.428 0.0496 -0.1628 0 -0.3976 -0.0166 -0.2182 -0.033 -0.2016 0.0496 -0.1766 -0.0496 -0.2514 0.0496 -0.2014 -0.0166 -0.196 -0.0164 -0.2182 0.0164 -0.1766 0 -0.2182 -0.033 -0.1796 0 -0.2014 0.033 -0.2182 0 -0.3644 0.0802 -0.2098 0.0718 -0.1216 0.1462 -0.113 0.1852 -0.0332 0.5604 0 0.185 -0.0166 0.1932 0.0332 0.2044 -0.0498 0.1932 0.0166 0.4362 0.0498 0.1464 0.0468 0.2016 0.0994 0.2098 0.265 0.1214 0.1714 0.08 0.2098 0.0996 0.1682 0.1352 0.1298 0.1298 0.2182 0.0662 0.163 0.1132 0.1546 0.1382 0.1766 0.127 0.1546 0.1214 0.1464 0.0828 0.2016 0.1298 0.1296 0.08 0.1686 0.1216 0.1794 0.0966 0.2014 0.1132 0.1298 0.138 0.185 0.0634 0.163 0.0968 0.185 0.171 0.163 0.0636 0.1516 0.1464 0.1962 0.2016 0.2816 0.0828 0.1628 0.1352 0.2182 0.1298 0.1132 0.0662 0.218 0.2514 0.3314 0.0966 0.1794 0.1352 0.1852 0.083 0.1628 0.0798 0.1518 0.0968 0.1794 0.0662 0.2016 0.0884 0.1132 0.1132 0.185 0.1132 0.0966 0.1048 -0.0138zm8.5896 5.072l-0.185 0 -0.1794 -0.0166 -0.2182 -0.0332 -0.2014 -0.0496 -0.1934 0.0166 -0.2208 -0.0388 -0.1602 -0.0496 -0.2348 -0.033 -0.1794 -0.0802 -0.1684 -0.0332 -0.218 -0.0634 -0.1934 -0.0884 -0.138 -0.0994 -0.196 -0.0966 -0.152 -0.08 -0.196 -0.0718 -0.1352 -0.163 -0.196 -0.1296 -0.1132 -0.105 -0.1684 -0.1132 -0.2348 -0.3478 -0.1298 -0.1852 -0.0966 -0.1628 -0.1048 -0.1132 -0.0664 -0.185 -0.0634 -0.2182 -0.1464 -0.3256 -0.0332 -0.2018 0.0664 -0.2014 0.1132 -0.1628 0.185 -0.0802 0.3478 -0.1546 0.1932 -0.0304 0.2348 -0.0966 0.2126 -0.0662 0.185 -0.0884 0.3976 -0.1298 0.185 -0.0332 0.1768 0.083 0.138 0.08 0.2428 0.5164 0.105 0.1296 0.1298 0.1878 0.1464 0.1132 0.1682 0.1132 0.163 0.1048 0.185 0.0802 0.2182 0.0634 0.196 0.1216 0.185 0.0166 0.1932 0 0.1546 0.0164 0.428 0.0332 0.1794 -0.0332 0.185 0.0332 0.2016 -0.0496 0.2126 -0.0552 0.1518 -0.0166 0.1962 -0.0498 0.2014 -0.08 0.2982 -0.2016 0.1298 -0.1464 0.0966 -0.1848 0.105 -0.1298 0.0496 -0.1796 -0.0332 -0.436 -0.0882 -0.1602 -0.0636 -0.1546 -0.1296 -0.163 -0.1714 -0.0802 -0.4112 -0.1544 -0.1464 -0.0968 -0.3976 -0.0468 -0.2182 -0.0332 -0.2014 -0.0496 -0.2098 0 -0.3812 -0.0552 -0.1684 -0.0166 -0.2182 -0.0664 -0.196 -0.0304 -0.2014 0 -0.1768 -0.033 -0.1878 -0.0636 -0.1932 -0.033 -0.2016 -0.0498 -0.196 -0.0386 -0.2346 -0.0332 -0.185 -0.0496 -0.1464 -0.0636 -0.2016 -0.08 -0.1628 -0.105 -0.2182 -0.0662 -0.1298 -0.1464 -0.1518 -0.0634 -0.196 -0.138 -0.1352 -0.1298 -0.1298 -0.185 -0.0968 -0.1132 -0.1214 -0.2016 -0.1464 -0.1298 -0.0634 -0.1794 -0.0994 -0.2182 -0.0552 -0.185 -0.0498 -0.196 -0.047 -0.185 -0.0496 -0.1932 0.0166 -0.1712 0 -0.6294 0.0166 -0.21 0.0164 -0.1876 -0.0164 -0.1602 0.08 -0.2348 0.1382 -0.3644 0.033 -0.1628 0.1132 -0.2016 0.08 -0.1628 0.1382 -0.185 0.0966 -0.0968 0.1132 -0.1546 0.2982 -0.2982 0.1546 -0.1132 0.1766 -0.113 0.1546 -0.1548 0.163 -0.0634 0.2182 -0.1132 0.3312 -0.1382 0.2098 -0.0662 0.1712 -0.08 0.21 -0.0636 0.1682 0 0.1796 -0.0828 0.2512 -0.022 0.185 -0.0498 0.2264 -0.033 0.2016 0.033 0.1462 -0.033 0.2348 0 0.3948 -0.0304 0.2346 0.047 0.1962 -0.0166 0.1848 0.033 0.2182 -0.0164 0.1796 0.0882 0.1848 0.0166 0.1796 0.0332 0.2346 0.0634 0.2098 0.0332 0.185 0.08 0.1464 0.0332 0.185 0.1048 0.163 0.0802 0.1848 0.113 0.163 0.0996 0.185 0.0884 0.1296 0.1462 0.185 0.1684 0.1134 0.1132 0.171 0.1298 0.0968 0.185 0.1462 0.1464 0.0718 0.1546 0.1132 0.1766 0.1132 0.2044 0.1546 0.3314 0.0166 0.16 -0.033 0.1878 -0.1382 0.1602 -0.1602 0.1544 -0.3008 0.1298 -0.2348 0.0802 -0.1132 0.0718 -0.2016 0.0662 -0.1932 0.1298 -0.1712 0.047 -0.4114 0.1546 -0.218 0.0496 -0.1298 -0.0828 -0.163 -0.1684 -0.2346 -0.3644 -0.185 -0.3646 -0.1628 -0.0966 -0.1686 -0.138 -0.1462 -0.1132 -0.185 -0.0496 -0.2264 -0.047 -0.1546 -0.105 -0.1934 0 -0.2208 -0.0498 -0.3782 0.0332 -0.2182 0.0332 -0.3644 0 -0.1932 0.0166 -0.2514 0.0884 -0.1628 0.0966 -0.2016 0.08 -0.1462 0.105 -0.1216 0.1794 -0.0802 0.1518 -0.0164 0.163 -0.0166 0.381 0.0496 0.2016 0.1134 0.1932 0.138 0.1214 0.1766 0.1134 0.185 0.0496 0.4142 0.1464 0.1462 0.0552 0.2182 0.0166 0.2016 0.0634 0.2098 0.0496 0.2512 -0.0164 0.2016 0.0496 0.381 0.0304 0.21 0.0166 0.1848 0.0884 0.163 -0.0222 0.2346 0.0386 0.1464 0.0664 0.3866 0.047 0.2098 0.0964 0.2042 0.0166 0.1934 0.083 0.1546 0.1214 0.1766 0.047 0.1712 0.08 0.1602 0.1216 0.218 0.0662 0.1134 0.1464 0.138 0.1516 0.196 0.0968 0.1352 0.1298 0.0828 0.1878 0.1132 0.16 0.0968 0.1546 0.1214 0.1932 0.0166 0.1548 0.0634 0.2098 0.0968 0.1848 0.0166 0.1796 0.033 0.2512 0.0388 0.2016 0 0.1464 -0.0222 0.3948 -0.0166 0.2016 0.0166 0.2512 -0.0496 0.1628 -0.0802 0.2182 -0.0498 0.1464 -0.033 0.2346 -0.0966 0.1436 -0.0718 0.2044 -0.2264 0.3312 -0.1382 0.1132 -0.0966 0.2016 -0.1462 0.08 -0.152 0.1464 -0.1462 0.1214 -0.1382 0.1464 -0.1766 0.0966 -0.1712 0.105 -0.1932 0.08 -0.1546 0.0828 -0.1768 0.0968 -0.1878 0.0716 -0.1932 0.0498 -0.2348 0.0966 -0.2014 0.0332 -0.1794 0.0468 -0.1852 0.0332 -0.4278 0.033 -0.1464 0.0884 -0.218 0.0166 -0.2514 -0.0166 -0.1932 -0.0166 -0.3976 0.0498z"/>
   <g>
    <path id="_189159200" fill="#AAA9A9" d="M27.0856 4.754c11.1798,0 20.246,9.0664 20.246,20.246 0,11.1798 -9.0662,20.246 -20.246,20.246 -11.1796,0 -20.246,-9.0662 -20.246,-20.246 0,-11.1796 9.0664,-20.246 20.246,-20.246z"/>
    <path id="_189159416" fill="white" d="M27.0858 10.3192c4.0356,0 7.6914,1.6294 10.3452,4.266 -1.0438,0.7286 -1.7268,1.9384 -1.7268,3.3078 0,2.2264 1.8052,4.0316 4.0316,4.0316 0.58,0 1.1312,-0.1228 1.6294,-0.3434 0.262,1.0972 0.4014,2.2418 0.4014,3.4188 0,8.1068 -6.5742,14.681 -14.6808,14.681 -0.3418,0 -0.6806,-0.0126 -1.0166,-0.0356 -0.2444,-1.9924 -1.9428,-3.5356 -4.0012,-3.5356 -1.1456,0 -2.1796,0.478 -2.9138,1.2454 -4.0598,-2.6118 -6.7494,-7.17 -6.7494,-12.3552 0,-3.4384 1.183,-6.6008 3.1638,-9.103 0.8528,1.1936 2.2496,1.972 3.8284,1.972 2.5964,0 4.702,-2.1054 4.702,-4.702 0,-0.8736 -0.2386,-1.6916 -0.6538,-2.3926 1.1642,-0.297 2.3838,-0.4552 3.6406,-0.4552zm-10.71 11.4142c1.7934,0 3.2476,1.4542 3.2476,3.2478 0,1.7934 -1.4542,3.2478 -3.2476,3.2478 -1.7936,0 -3.2478,-1.4544 -3.2478,-3.2478 0,-1.7936 1.4542,-3.2478 3.2478,-3.2478zm8.716 -1.5704c0.831,0 1.5048,0.6738 1.5048,1.5048 0,0.8308 -0.6738,1.5048 -1.5048,1.5048 -0.8308,0 -1.5048,-0.674 -1.5048,-1.5048 0,-0.831 0.674,-1.5048 1.5048,-1.5048zm7.4114 8.2056c1.3448,0 2.4356,1.0906 2.4356,2.4356 0,1.3448 -1.0908,2.4358 -2.4356,2.4358 -1.345,0 -2.4358,-1.091 -2.4358,-2.4358 0,-1.345 1.0908,-2.4356 2.4358,-2.4356z"/>
   </g>
   <path id="_189158984" fill="#C2C1C1" fill-rule="nonzero" d="M58.9028 31.3188c-0.9734,0 -1.781,-0.2326 -2.4226,-0.698 -0.6416,-0.4652 -1.1062,-1.1352 -1.3938,-2.0096 -0.0664,-0.2018 -0.119,-0.4064 -0.1576,-0.6138 -0.0388,-0.2074 -0.0718,-0.4344 -0.0996,-0.681 -0.0276,-0.2468 -0.0442,-0.5242 -0.0496,-0.8326 -0.0056,-0.3082 -0.0084,-0.6642 -0.0084,-1.0678 0,-0.4036 0.0028,-0.7596 0.0084,-1.068 0.0054,-0.3082 0.022,-0.5856 0.0496,-0.8324 0.0278,-0.2466 0.0608,-0.4736 0.0996,-0.681 0.0386,-0.2074 0.0912,-0.412 0.1576,-0.6138 0.2876,-0.8746 0.7522,-1.5444 1.3938,-2.0096 0.6416,-0.4654 1.4492,-0.698 2.4226,-0.698 0.9846,0 1.7976,0.2326 2.4392,0.698 0.6416,0.4652 1.1062,1.135 1.3938,2.0096 0.0664,0.2018 0.1188,0.4064 0.1576,0.6138 0.0386,0.2074 0.0718,0.4344 0.0996,0.681 0.0276,0.2468 0.0442,0.5242 0.0498,0.8324 0.0056,0.3084 0.0082,0.6644 0.0082,1.068 0,0.4036 -0.0026,0.7596 -0.0082,1.0678 -0.0056,0.3084 -0.0222,0.5858 -0.0498,0.8326 -0.0278,0.2466 -0.061,0.4736 -0.0996,0.681 -0.0388,0.2074 -0.0912,0.412 -0.1576,0.6138 -0.2876,0.8744 -0.7522,1.5444 -1.3938,2.0096 -0.6416,0.4654 -1.4546,0.698 -2.4392,0.698zm0 -1.3958c0.6636,0 1.1864,-0.1598 1.5682,-0.4794 0.3816,-0.3194 0.6552,-0.7484 0.8212,-1.2864 0.0442,-0.1346 0.083,-0.2832 0.116,-0.4456 0.0332,-0.1626 0.061,-0.3504 0.0832,-0.5634 0.022,-0.213 0.0386,-0.4598 0.0498,-0.74 0.011,-0.2804 0.0166,-0.611 0.0166,-0.9922 0,-0.3812 -0.0056,-0.712 -0.0166,-0.9922 -0.0112,-0.2802 -0.0278,-0.527 -0.0498,-0.74 -0.0222,-0.213 -0.05,-0.4008 -0.0832,-0.5634 -0.033,-0.1624 -0.0718,-0.311 -0.116,-0.4456 -0.166,-0.5382 -0.4396,-0.967 -0.8212,-1.2866 -0.3818,-0.3194 -0.9046,-0.4792 -1.5682,-0.4792 -0.6526,0 -1.1698,0.1598 -1.5514,0.4792 -0.3816,0.3196 -0.6554,0.7484 -0.8214,1.2866 -0.0442,0.1346 -0.083,0.2832 -0.1162,0.4456 -0.0332,0.1626 -0.0608,0.3504 -0.083,0.5634 -0.022,0.213 -0.0386,0.4598 -0.0496,0.74 -0.011,0.2802 -0.0166,0.611 -0.0166,0.9922 0,0.3812 0.0056,0.7118 0.0166,0.9922 0.011,0.2802 0.0276,0.527 0.0496,0.74 0.0222,0.213 0.0498,0.4008 0.083,0.5634 0.0332,0.1624 0.072,0.311 0.1162,0.4456 0.166,0.538 0.4398,0.967 0.8214,1.2864 0.3816,0.3196 0.8988,0.4794 1.5514,0.4794zm6.5376 -9.4008c0,-0.2802 0.072,-0.5016 0.2156,-0.6642 0.1438,-0.1626 0.343,-0.244 0.5974,-0.244 0.2212,0 0.4066,0.0674 0.556,0.202 0.1492,0.1344 0.2956,0.325 0.4396,0.5718l4.8118 8.0552 0.0666 0 0 -8.072c0,-0.2356 0.0636,-0.4206 0.1908,-0.555 0.1272,-0.1346 0.2904,-0.202 0.4894,-0.202 0.2102,0 0.3788,0.0674 0.5062,0.202 0.1272,0.1344 0.1906,0.3194 0.1906,0.555l0 9.9388c0,0.2802 -0.0718,0.5016 -0.2156,0.6642 -0.1438,0.1626 -0.3428,0.2438 -0.5974,0.2438 -0.2212,0 -0.4092,-0.0672 -0.564,-0.2018 -0.1548,-0.1346 -0.3042,-0.325 -0.4482,-0.5718l-4.8118 -8.0216 -0.0498 0 0 8.0384c0,0.2356 -0.0636,0.4204 -0.1908,0.555 -0.1272,0.1346 -0.2904,0.2018 -0.4896,0.2018 -0.21,0 -0.3788,-0.0672 -0.506,-0.2018 -0.1272,-0.1346 -0.1908,-0.3194 -0.1908,-0.555l0 -9.9388zm10.8518 -0.1008c0,-0.258 0.0662,-0.457 0.199,-0.597 0.1328,-0.1402 0.3098,-0.2104 0.531,-0.2104 0.2214,0 0.401,0.0702 0.5392,0.2104 0.1384,0.14 0.2074,0.339 0.2074,0.597l0 9.2156c0,0.0674 0.0332,0.101 0.0996,0.101l4.895 0c0.2212,0 0.3982,0.0672 0.531,0.2018 0.1328,0.1344 0.199,0.2972 0.199,0.4876 0,0.2018 -0.0662,0.37 -0.199,0.5046 -0.1328,0.1346 -0.3098,0.2018 -0.531,0.2018l-5.7578 0c-0.2212,0 -0.3954,-0.0672 -0.5226,-0.2018 -0.1272,-0.1346 -0.1908,-0.314 -0.1908,-0.5382l0 -9.9724zm12.6272 6.0708l0 3.9184c0,0.258 -0.0664,0.4568 -0.199,0.597 -0.1328,0.1402 -0.3098,0.2102 -0.5312,0.2102 -0.21,0 -0.3842,-0.07 -0.5224,-0.2102 -0.1384,-0.1402 -0.2076,-0.339 -0.2076,-0.597l0 -3.9184 -3.0862 -5.768c-0.0776,-0.1572 -0.1162,-0.3028 -0.1162,-0.4374 0,-0.1906 0.0662,-0.3504 0.1992,-0.4792 0.1326,-0.129 0.2986,-0.1936 0.4976,-0.1936 0.2766,0 0.4922,0.146 0.6472,0.4374l2.5884 4.8768 0.0498 0 2.5554 -4.8768c0.155,-0.2914 0.3706,-0.4374 0.6472,-0.4374 0.199,0 0.3622,0.0646 0.4894,0.1936 0.1272,0.1288 0.1908,0.2886 0.1908,0.4792 0,0.1346 -0.0386,0.2802 -0.116,0.4374l-3.0864 5.768z"/>
  </g>
 </g>
</svg>
