<?xml version="1.0" encoding="UTF-8"?>
<!DOCTYPE svg PUBLIC "-//W3C//DTD SVG 1.1//EN" "http://www.w3.org/Graphics/SVG/1.1/DTD/svg11.dtd">
<!-- Creator: CorelDRAW -->
<svg xmlns="http://www.w3.org/2000/svg" xml:space="preserve" width="200px" height="75px" style="shape-rendering:geometricPrecision; text-rendering:geometricPrecision; image-rendering:optimizeQuality; fill-rule:evenodd; clip-rule:evenodd"
viewBox="0 0 200 75">
 <defs>
  <style type="text/css">
   <![CDATA[
    .fil1 {fill:#838281}
    .fil0 {fill:#C2C1C1}
   ]]>
  </style>
 </defs>
 <g id="Layer_x0020_1">
  <metadata id="CorelCorpID_0Corel-Layer"/>
  <g id="_182583432">
   <path id="_182583600" class="fil0" d="M14.7785 11.3345c-6.53375,0.06575 -11.7195,5.38625 -11.7195,11.9198l0 28.4237c0,4.84775 2.895,9.1615 7.33975,11.0468 4.446,1.88625 9.56625,0.8085 13.0018,-2.56l8.082 -8.08325c0.20025,6.53375 5.59,11.6533 12.0572,11.584 6.5325,-0.06575 11.7173,-5.38625 11.7173,-11.9198l0 -28.4238c0,-4.84775 -2.895,-9.1615 -7.3405,-11.0467 -4.4465,-1.8185 -9.56425,-0.8085 -13.0007,2.56l-8.08125 8.08325c-0.2025,-6.53375 -5.52175,-11.718 -12.056,-11.584zm26.301 26.1668c0,-6.584 -5.338,-11.9228 -11.921,-11.9228 -6.5835,0 -11.9215,5.33875 -11.9215,11.9228 0,6.581 5.338,11.9215 11.9215,11.9215 6.583,0 11.921,-5.3405 11.921,-11.9215z"/>
   <path id="_182582832" class="fil1" d="M73.6977 47.685l-4.6145 0 0 -20.3703 4.6145 0 0 2.9995c1.681,-2.2085 4.186,-3.428 7.11975,-3.428 4.6475,0 7.38325,3.1315 7.38325,7.97675l0 12.822 -4.6145 0 0 -11.932c0,-3.0985 -1.64825,-4.7465 -4.15325,-4.7465 -3.461,0 -5.70225,3.0985 -5.70225,7.746 -0.033,0.03275 -0.033,8.9325 -0.033,8.9325zm17.5025 -10.1523c0,-6.3615 4.08725,-10.6465 10.1523,-10.6465 6.06475,0 10.152,4.252 10.152,10.6465 0,6.32875 -4.08725,10.5808 -10.152,10.5808 -6.065,0 -10.1523,-4.252 -10.1523,-10.5808zm15.5908 0c0,-3.92225 -2.24125,-6.55925 -5.4385,-6.55925 -3.19725,0 -5.43875,2.637 -5.43875,6.55925 0,3.8895 2.2415,6.4935 5.43875,6.4935 3.19725,0 5.4385,-2.637 5.4385,-6.4935l0 0zm12.5585 10.1523l-4.61475 0 0 -20.3703 4.61475 0 0 2.9995c1.45025,-2.24125 3.59275,-3.428 6.03175,-3.428 2.703,0 5.07625,1.4175 6.19675,4.02125 1.68125,-2.63675 4.318,-4.02125 7.08675,-4.02125 3.9225,0 6.65825,2.76875 6.65825,7.51525l0 13.3165 -4.6145 0 0 -12.1958c0,-2.9665 -1.2855,-4.51575 -3.62575,-4.51575 -3.0985,0 -4.84525,2.80175 -4.84525,7.77875l0 8.93275 -4.61475 0 0 -12.1958c0,-3.0655 -1.3515,-4.51575 -3.527,-4.51575 -2.9665,0 -4.74625,2.86775 -4.74625,7.77875l0 8.89975zm30.1925 -20.3703l4.61475 0 0 20.3703 -4.61475 0c0,0 0,-20.3703 0,-20.3703zm7.845 10.185c0,-6.3285 4.186,-10.5805 10.1192,-10.5805 4.5485,0 7.84475,2.40625 9.22925,6.4275l-4.28525 1.78c-0.56025,-2.67 -2.27425,-4.12025 -4.84525,-4.12025 -3.329,0 -5.5045,2.571 -5.5045,6.49325 0,3.9885 2.1755,6.5265 5.5375,6.5265 2.538,0 4.219,-1.45025 4.81225,-4.12025l4.25225 1.78c-1.48325,4.18625 -4.68075,6.4275 -9.1305,6.4275 -5.999,0 -10.185,-4.252 -10.185,-10.6138zm21.8205 4.8455l4.186 -1.91175c0.29675,2.24125 2.604,3.8235 5.274,3.8235 2.0435,0 3.65875,-0.956 3.65875,-2.2415 0,-3.461 -12.2618,-1.9775 -12.2618,-8.9655 0,-3.8235 3.362,-6.032 7.97675,-6.032 4.5485,0 7.91075,2.1755 8.73475,5.04325l-4.41675 1.91175c-0.132,-1.681 -1.912,-3.0985 -4.45,-3.0985 -1.84575,0 -3.263,0.79125 -3.263,1.879 0,3.296 12.2945,1.77975 12.2945,9.06425 0,3.69175 -3.26325,6.29575 -8.40525,6.29575 -5.043,0 -8.537,-2.27425 -9.328,-5.76825z"/>
  </g>
 </g>
</svg>
