<?xml version="1.0" encoding="UTF-8"?>
<!DOCTYPE svg PUBLIC "-//W3C//DTD SVG 1.1//EN" "http://www.w3.org/Graphics/SVG/1.1/DTD/svg11.dtd">
<!-- Creator: CorelDRAW -->
<?xml-stylesheet href="nuggetPlata.css" type="text/css"?>
<svg xmlns="http://www.w3.org/2000/svg" xml:space="preserve" width="251px" height="90px" style="shape-rendering:geometricPrecision; text-rendering:geometricPrecision; image-rendering:optimizeQuality; fill-rule:evenodd; clip-rule:evenodd"
viewBox="0 0 251 89.8812">
 <g id="Layer_x0020_1">
  <metadata id="CorelCorpID_0Corel-Layer"/>
  <g id="_184135760">
   <polygon id="_184159312" class="fil0" points="10.9781,0.003765 13.7187,30.7813 22.0171,13.7792 "/>
   <polygon id="_184158904" class="fil1" points="76.6284,35.7292 54.369,11.5772 58.798,28.0957 "/>
   <polygon id="_184159288" class="fil2" points="46.0218,36.8379 54.3365,11.5788 58.279,25.4504 "/>
   <polygon id="_184158856" class="fil3" points="19.1669,35.7387 3.4013,35.7387 76.8887,89.8774 "/>
   <polygon id="_184159456" class="fil2" points="18.9671,9.64794 13.7145,30.7728 76.875,89.8643 76.8889,89.8774 76.8871,89.8708 "/>
   <polygon id="_184159264" class="fil2" points="76.6286,35.7293 76.8888,89.8775 57.3977,24.952 "/>
   <polygon id="_184158712" class="fil0" points="76.8889,89.8774 58.2806,25.4404 46.8442,34.3376 "/>
   <polygon id="_184159120" class="fil4" points="17.3017,35.3038 11.267,29.6784 13.9944,34.7351 "/>
   <polygon id="_184166656" class="fil5" points="19.0223,35.7386 0.0719115,28.8895 4.22759,35.7386 "/>
   <polygon id="_184166488" class="fil3" points="76.8883,89.8774 0.0512667,70.323 16.8718,84.1304 "/>
   <polygon id="_184166392" class="fil6" points="15.2705,83.1204 9.41514,89.8419 76.8893,89.8773 "/>
   <polygon id="_184166776" class="fil5" points="18.0498,83.4341 0.0512667,70.3231 9.41514,89.8419 "/>
   <polygon id="_184166560" class="fil3" points="-0.00144325,51.7417 76.8889,89.8774 7.15155,65.5396 "/>
   <polygon id="_184166728" class="fil6" points="6.42842,63.8812 0.0512667,70.3231 76.8889,89.8774 "/>
   <polygon id="_184135520" class="fil5" points="3.74429,35.1383 0.0226528,51.7741 76.8885,89.8775 "/>
   <polygon id="_184135136" class="fil5" points="0.0512667,51.6927 0.0511413,70.323 7.8366,64.4254 "/>
   <polygon id="_184135280" class="fil2" points="0.0515178,28.9062 -0.0026355,51.8626 4.54981,35.7292 "/>
   <polygon id="_184135784" class="fil2" points="34.9413,12.1099 10.9823,0.0490077 21.202,13.766 "/>
   <polygon id="_184135472" class="fil1" points="76.8889,89.8771 34.9385,12.1078 18.7376,10.4879 "/>
  </g>
  <path class="fil7" d="M233.498 73.2117c-2.44819,0 -4.59035,-0.418229 -6.42648,-1.25475 -1.83613,-0.836458 -3.25409,-1.99934 -4.25376,-3.48865 -0.99967,-1.48931 -1.49947,-3.17245 -1.49947,-5.04937 0,-1.83619 0.438623,-3.48871 1.31587,-4.95763 0.877245,-1.46891 2.3156,-2.6318 4.31494,-3.48865 1.99934,-0.856851 4.65159,-1.28531 7.95664,-1.28531l9.48673 0 0 5.07999 -8.93591 0c-2.6114,0 -4.36596,0.418229 -5.2636,1.25469 -0.897702,0.836458 -1.34649,1.86675 -1.34649,3.09088 0,1.38728 0.550819,2.48898 1.65252,3.30504 1.1017,0.816064 2.6318,1.22406 4.59035,1.22406 1.87692,0 3.56006,-0.428394 5.04937,-1.28525 1.48931,-0.856914 2.56045,-2.12177 3.2133,-3.79474l1.28525 4.59035c-0.734426,1.91777 -2.05036,3.40707 -3.94767,4.46799 -1.89737,1.06085 -4.29455,1.59134 -7.19159,1.59134zm10.2824 -0.428457l0 -6.61015 -0.428394 -1.40767 0 -11.5677c0,-2.24419 -0.673307,-3.98852 -2.0198,-5.23304 -1.34649,-1.24446 -3.38668,-1.86675 -6.12045,-1.86675 -1.83619,0 -3.6417,0.285638 -5.41664,0.856914 -1.77495,0.571213 -3.27448,1.36688 -4.49855,2.38695l-2.99901 -5.56963c1.75449,-1.34649 3.8457,-2.35639 6.27343,-3.02963 2.4278,-0.673245 4.9474,-1.0099 7.5588,-1.0099 4.73317,0 8.39526,1.13232 10.9863,3.39691 2.59101,2.26458 3.88648,5.76346 3.88648,10.4966l0 19.1571 -7.22215 0zm-52.9666 -26.318l0 -6.12051 21.7889 0 0 6.12051 -21.7889 0zm16.6477 26.7465c-3.59068,0 -6.3653,-0.928324 -8.32385,-2.78485 -1.95855,-1.85652 -2.93783,-4.60058 -2.93783,-8.23205l0 -29.3171 7.65061 0 0 29.1335c0,1.55049 0.397835,2.75422 1.1935,3.61107 0.79567,0.856851 1.90754,1.28531 3.33566,1.28531 1.7137,0 3.14183,-0.448851 4.28432,-1.34649l2.14216 5.4472c-0.897639,0.734489 -1.99934,1.28531 -3.30504,1.65252 -1.3057,0.367276 -2.65219,0.550882 -4.03953,0.550882zm-42.1334 0c-2.44819,0 -4.59035,-0.418229 -6.42648,-1.25475 -1.83613,-0.836458 -3.25409,-1.99934 -4.25376,-3.48865 -0.99967,-1.48931 -1.49947,-3.17245 -1.49947,-5.04937 0,-1.83619 0.438622,-3.48871 1.31587,-4.95763 0.877245,-1.46891 2.3156,-2.6318 4.31494,-3.48865 1.99934,-0.856851 4.65159,-1.28531 7.95664,-1.28531l9.48673 0 0 5.07999 -8.93591 0c-2.6114,0 -4.36596,0.418229 -5.2636,1.25469 -0.897701,0.836458 -1.34649,1.86675 -1.34649,3.09088 0,1.38728 0.55082,2.48898 1.65252,3.30504 1.1017,0.816064 2.6318,1.22406 4.59035,1.22406 1.87692,0 3.56006,-0.428394 5.04937,-1.28525 1.48931,-0.856914 2.56045,-2.12177 3.2133,-3.79474l1.28525 4.59035c-0.734426,1.91777 -2.05036,3.40707 -3.94767,4.46799 -1.89737,1.06085 -4.29455,1.59134 -7.19159,1.59134zm10.2824 -0.428457l0 -6.61015 -0.428394 -1.40767 0 -11.5677c0,-2.24419 -0.673307,-3.98852 -2.0198,-5.23304 -1.34649,-1.24446 -3.38668,-1.86675 -6.12045,-1.86675 -1.83619,0 -3.6417,0.285638 -5.41664,0.856914 -1.77495,0.571213 -3.27448,1.36688 -4.49855,2.38695l-2.99901 -5.56963c1.75449,-1.34649 3.8457,-2.35639 6.27343,-3.02963 2.4278,-0.673245 4.9474,-1.0099 7.5588,-1.0099 4.73317,0 8.39526,1.13232 10.9863,3.39691 2.59101,2.26458 3.88648,5.76346 3.88648,10.4966l0 19.1571 -7.22215 0zm-40.3584 0l0 -45.4139 7.65061 0 0 45.4139 -7.65061 0zm-27.2606 -6.12051c1.83613,0 3.47842,-0.408 4.92694,-1.22406 1.44852,-0.816064 2.60124,-1.99934 3.45809,-3.54989 0.856851,-1.55049 1.28531,-3.36622 1.28531,-5.4472 0,-2.12177 -0.428457,-3.94773 -1.28531,-5.47782 -0.856851,-1.53016 -2.00957,-2.70321 -3.45809,-3.51927 -1.44852,-0.816064 -3.09081,-1.22413 -4.92694,-1.22413 -1.83619,0 -3.48871,0.408063 -4.95763,1.22413 -1.46891,0.816064 -2.6318,1.98911 -3.48865,3.51927 -0.856851,1.5301 -1.28531,3.35606 -1.28531,5.47782 0,2.08098 0.428457,3.89671 1.28531,5.4472 0.856851,1.55055 2.01973,2.73383 3.48865,3.54989 1.46891,0.816064 3.12144,1.22406 4.95763,1.22406zm-17.2598 17.9943l0 -44.5571 7.28333 0 0 7.71179 -0.244788 8.69106 0.612063 8.69106 0 19.4632 -7.65061 0zm18.1166 -11.4453c-2.65219,0 -5.06982,-0.612064 -7.25277,-1.83619 -2.18301,-1.22406 -3.91711,-3.07042 -5.20241,-5.53901 -1.28531,-2.46859 -1.92793,-5.60025 -1.92793,-9.39493 0,-3.83553 0.622229,-6.97736 1.86675,-9.42555 1.24446,-2.44819 2.94799,-4.27415 5.11055,-5.47782 2.16262,-1.20367 4.6312,-1.80557 7.40582,-1.80557 3.22347,0 6.06943,0.693701 8.53808,2.08098 2.46859,1.38734 4.42714,3.3255 5.87566,5.81448 1.44846,2.48898 2.17272,5.42681 2.17272,8.81349 0,3.38668 -0.72426,6.33468 -2.17272,8.84411 -1.44852,2.50937 -3.40707,4.4577 -5.87566,5.84504 -2.46865,1.38728 -5.31461,2.08098 -8.53808,2.08098z"/>
 </g>
</svg>
