<?xml version="1.0" encoding="UTF-8"?>
<!DOCTYPE svg PUBLIC "-//W3C//DTD SVG 1.1//EN" "http://www.w3.org/Graphics/SVG/1.1/DTD/svg11.dtd">
<!-- Creator: CorelDRAW -->
<svg xmlns="http://www.w3.org/2000/svg" xml:space="preserve" width="52px" height="52px" style="shape-rendering:geometricPrecision; text-rendering:geometricPrecision; image-rendering:optimizeQuality; fill-rule:evenodd; clip-rule:evenodd"
viewBox="0 0 52 52">
 <defs>
  <style type="text/css">
   <![CDATA[
    .str0 {stroke:#1F1A17;stroke-width:0.079248}
    .fil4 {fill:none}
    .fil13 {fill:#1F1A17}
    .fil14 {fill:#383431}
    .fil18 {fill:#838281}
    .fil17 {fill:#969594}
    .fil15 {fill:#AAA9A9}
    .fil16 {fill:#C2C1C1}
    .fil8 {fill:#1BAB7A}
    .fil12 {fill:#522277}
    .fil11 {fill:#725037}
    .fil10 {fill:#87603F}
    .fil9 {fill:#976A49}
    .fil0 {fill:#484848}
    .fil2 {fill:#606060}
    .fil7 {fill:#7A7A7A}
    .fil1 {fill:#848484}
    .fil6 {fill:#8F8F8F}
    .fil5 {fill:darkgray}
    .fil3 {fill:#C8C8C8}
   ]]>
  </style>
 </defs>
 <g id="Layer_x0020_1">
  <metadata id="CorelCorpID_0Corel-Layer"/>
  <g id="_184284728">
   <polygon id="_182233040" class="fil0" points="10.4598,0.57408 12.0104,17.9885 16.7058,8.36846 "/>
   <polygon id="_182625632" class="fil1" points="47.6056,20.788 35.011,7.12254 37.517,16.4689 "/>
   <polygon id="_181855176" class="fil2" points="30.288,21.4154 34.9926,7.12338 37.2233,14.9722 "/>
   <polygon id="_277008624" class="fil3" points="15.0931,20.7934 6.17271,20.7934 47.7528,51.4258 "/>
   <polygon id="_277013232" class="fil2" points="14.9801,6.03086 12.008,17.9837 47.7452,51.4184 47.753,51.4258 47.7519,51.4221 "/>
   <polygon id="_182625872" class="fil2" points="47.6057,20.788 47.753,51.4259 36.7246,14.6901 "/>
   <polygon id="_182629952" class="fil0" points="47.753,51.4258 37.2242,14.9665 30.7533,20.0007 "/>
   <polygon id="_182625560" class="fil4" points="14.0378,20.5474 10.6233,17.3645 12.1664,20.2256 "/>
   <polygon id="_182523392" class="fil5" points="15.0113,20.7934 4.28896,16.918 6.6403,20.7933 "/>
   <polygon id="_182626928" class="fil3" points="47.7526,51.4258 4.27721,40.3617 13.7946,48.1742 "/>
   <polygon id="_182292784" class="fil5" points="12.8885,47.6027 9.57549,51.4058 47.7533,51.4258 "/>
   <polygon id="_182627264" class="fil6" points="14.461,47.7801 4.27721,40.3618 9.57549,51.4058 "/>
   <polygon id="_182627720" class="fil3" points="4.24746,29.8481 47.753,51.4258 8.29462,37.6552 "/>
   <polygon id="_182579736" class="fil5" points="7.88549,36.7169 4.27721,40.3618 47.753,51.4258 "/>
   <polygon id="_182627000" class="fil6" points="6.36678,20.4537 4.26109,29.8665 47.7527,51.4259 "/>
   <polygon id="_184283072" class="fil6" points="4.27721,29.8204 4.27721,40.3618 8.68223,37.0247 "/>
   <polygon id="_182524256" class="fil2" points="4.27742,16.9276 4.24674,29.9165 6.82261,20.788 "/>
   <polygon id="_182310024" class="fil2" points="24.0185,7.42394 10.4621,0.599768 16.2446,8.36098 "/>
   <polygon id="_184675168" class="fil7" points="47.753,51.4257 24.0169,7.42269 14.8502,6.50624 "/>
  </g>
 </g>
 <g id="_184284800">
  <rect id="_184283048" class="fil8 str0" x="-200.799" y="-32.9338" width="18.6499" height="6.40308"/>
  <rect id="_182626736" class="fil9 str0" x="-200.799" y="-26.5307" width="18.6499" height="6.40308"/>
  <rect id="_182233424" class="fil10 str0" x="-200.799" y="-20.1276" width="18.6499" height="6.40308"/>
  <rect id="_182627192" class="fil11 str0" x="-200.799" y="-13.7245" width="18.6499" height="6.40308"/>
  <rect id="_182627120" class="fil12 str0" x="-200.799" y="-7.32145" width="18.6499" height="6.40308"/>
  <rect id="_181855488" class="fil4 str0" x="-200.799" y="-0.918371" width="18.6499" height="6.40308"/>
  <rect id="_184282664" class="fil4 str0" x="-200.799" y="5.48471" width="18.6499" height="6.40308"/>
  <rect id="_184282712" class="fil4 str0" x="-200.799" y="11.8878" width="18.6499" height="6.40308"/>
  <rect id="_184286768" class="fil13 str0" x="-200.799" y="18.2909" width="18.6499" height="6.40308"/>
  <rect id="_184283528" class="fil14 str0" x="-200.799" y="24.694" width="18.6499" height="6.40308"/>
  <rect id="_184283936" class="fil15 str0" x="-182.149" y="-32.9338" width="18.6499" height="6.40308"/>
  <rect id="_184284032" class="fil15 str0" x="-182.149" y="-26.5307" width="18.6499" height="6.40308"/>
  <rect id="_184283648" class="fil16 str0" x="-182.149" y="-20.1276" width="18.6499" height="6.40308"/>
  <rect id="_184283672" class="fil17 str0" x="-182.149" y="-13.7245" width="18.6499" height="6.40308"/>
  <rect id="_184283912" class="fil4 str0" x="-182.149" y="-7.32145" width="18.6499" height="6.40308"/>
  <rect id="_184284056" class="fil4 str0" x="-182.149" y="-0.918371" width="18.6499" height="6.40308"/>
  <rect id="_184284416" class="fil4 str0" x="-182.149" y="5.48471" width="18.6499" height="6.40308"/>
  <rect id="_184284200" class="fil4 str0" x="-182.149" y="11.8878" width="18.6499" height="6.40308"/>
  <rect id="_184284224" class="fil4 str0" x="-182.149" y="18.2909" width="18.6499" height="6.40308"/>
  <rect id="_184284776" class="fil18 str0" x="-182.149" y="24.694" width="18.6499" height="6.40308"/>
 </g>
</svg>
