<?xml version="1.0" encoding="UTF-8"?>
<!DOCTYPE svg PUBLIC "-//W3C//DTD SVG 1.1//EN" "http://www.w3.org/Graphics/SVG/1.1/DTD/svg11.dtd">
<!-- Creator: CorelDRAW -->
<svg xmlns="http://www.w3.org/2000/svg" xml:space="preserve" width="300px" height="342px" style="shape-rendering:geometricPrecision; text-rendering:geometricPrecision; image-rendering:optimizeQuality; fill-rule:evenodd; clip-rule:evenodd"
viewBox="0 0 300 341.81">
 <defs>
  <style type="text/css">
   <![CDATA[
    .str2 {stroke:#605D5C;stroke-width:0.159129;stroke-linecap:round;stroke-linejoin:round}
    .str3 {stroke:#72706F;stroke-width:0.159129;stroke-linecap:round;stroke-linejoin:round}
    .str0 {stroke:#838281;stroke-width:0.159129}
    .str1 {stroke:#AAA9A9;stroke-width:0.159129}
    .fil1 {fill:#4C5255}
    .fil0 {fill:#5F6669}
    .fil10 {fill:#8E9295}
    .fil7 {fill:#949698}
    .fil2 {fill:#9DA0A4}
    .fil9 {fill:#A9ABAE}
    .fil6 {fill:#C8CACD}
    .fil13 {fill:#484848}
    .fil4 {fill:#5F5F5F}
    .fil12 {fill:#606060}
    .fil3 {fill:#7A7A7A}
    .fil11 {fill:#848484}
    .fil8 {fill:#A4A4A4}
    .fil5 {fill:#B3B3B3}
   ]]>
  </style>
 </defs>
 <g id="Layer_x0020_1">
  <metadata id="CorelCorpID_0Corel-Layer"/>
  <g id="_181917088">
   <polygon id="_181917280" class="fil0" points="157.095,50.1233 68.7479,0.164141 103.215,52.3706 "/>
   <polygon id="_181917184" class="fil1" points="68.749,-0.000208831 67.8213,111.67 104.133,53.0578 "/>
   <polygon id="_181917592" class="fil2" points="87.0797,131.012 25.9664,126.742 290.511,341.773 "/>
   <polygon id="_181917400" class="fil3 str0" points="290.512,341.772 157.085,50.115 87.3422,27.9708 "/>
   <polygon id="_181917160" class="fil4" points="87.3545,27.8718 67.8078,111.638 290.512,341.773 "/>
   <polygon id="_181917880" class="fil5 str1" points="86.519,130.973 15.6312,101.154 29.1695,126.966 "/>
   <polygon id="_181917904" class="fil6" points="290.509,341.773 0.000417662,250.482 60.0209,304.803 "/>
   <polygon id="_181917640" class="fil7" points="54.1926,300.729 28.9723,323.368 290.512,341.775 "/>
   <polygon id="_181917304" class="fil8" points="64.8482,302.612 0.000208831,250.482 28.9723,323.368 "/>
   <polygon id="_181916872" class="fil5" points="6.77008,183.498 290.512,341.773 29.319,235.165 "/>
   <polygon id="_181916704" class="fil9" points="27.1382,228.992 0.000208831,250.482 290.512,341.773 "/>
   <polygon id="_181916800" class="fil10" points="27.5214,124.671 6.85111,183.621 290.51,341.773 "/>
   <polygon id="_181916608" class="fil7" points="6.99249,183.335 -0.000208831,250.482 32.3926,231.335 "/>
   <polygon id="_181917040" class="fil11" points="15.5458,101.209 6.71996,183.933 30.422,127.019 "/>
   <polygon id="_181916752" class="fil12" points="299.904,141.768 290.501,341.81 215.904,72.1393 "/>
   <polygon id="_181916584" class="fil13 str2" points="290.568,341.753 215.946,72.1454 189.012,120.891 "/>
   <polygon id="_181916488" class="fil11 str3" points="300,142.098 206.836,27.0041 216,72.4064 "/>
   <polygon id="_181916920" class="fil4" points="189.226,120.511 206.842,26.9997 216.008,72.3283 "/>
  </g>
 </g>
</svg>
