<?xml version="1.0" encoding="UTF-8"?>
<!DOCTYPE svg PUBLIC "-//W3C//DTD SVG 1.1//EN" "http://www.w3.org/Graphics/SVG/1.1/DTD/svg11.dtd">
<!-- Creator: CorelDRAW -->
<svg xmlns="http://www.w3.org/2000/svg" xml:space="preserve" width="200px" height="75px" style="shape-rendering:geometricPrecision; text-rendering:geometricPrecision; image-rendering:optimizeQuality; fill-rule:evenodd; clip-rule:evenodd"
viewBox="0 0 200 75">
 <defs>
  <style type="text/css">
   <![CDATA[
    .fil0 {fill:#838281}
    .fil2 {fill:#969594}
    .fil1 {fill:#AAA9A9}
    .fil3 {fill:#C2C1C1}
   ]]>
  </style>
 </defs>
 <g id="Layer_x0020_1">
  <metadata id="CorelCorpID_0Corel-Layer"/>
  <g id="_182524256">
   <path id="_182583048" class="fil0" d="M58.7937 44.8038c-0.99725,-1.1225 -2.1925,-2.1 -3.5265,-2.886 0.469,-0.568 1.42,-2.833 1.51225,-3.19625 0.284,-1.136 0.3105,-2.338 0.1255,-3.4935 -0.7065,-4.4315 -4.68875,-6.406 -8.14275,-8.526 -2.48325,-1.5255 -4.95325,-3.738 -5.792,-6.624 -0.53475,-1.82925 -0.198,-3.804 0.70025,-5.455 0.46225,-0.852 1.07625,-1.63125 1.80275,-2.27175 0.634,-0.56125 1.4265,-0.90475 1.65775,-1.79625 0.84525,-3.256 -6.2145,-2.3115 -7.81275,-2.04075 -5.50125,0.9445 -10.4808,4.1475 -14.6413,7.7335 -1.8755,1.618 -3.771,3.203 -5.2305,5.22375 -0.71325,0.99075 -1.3275,2.0605 -1.7435,3.2095 -0.1055,0.29075 -0.75275,3.59925 -0.58775,3.56625 -0.81875,0.1455 -1.61125,0.403 -2.37075,0.76625 -3.104,1.499 -5.21075,4.768 -5.8975,8.07675 -0.51525,2.49625 -0.19825,5.3295 1.3605,7.4165 -0.0925,-0.119 -1.6115,1.1425 -1.7635,1.2745 -2.7605,2.417 -4.14075,6.30025 -3.38125,9.91275 0.36975,1.76325 1.235,3.40125 2.45675,4.7285 3.1765,3.4475 8.07675,4.63625 12.5215,5.3955 6.93425,1.18875 14.179,1.22175 21.1793,0.621 6.7495,-0.57475 15.282,-1.6775 19.1585,-7.958 2.906,-4.689 1.73025,-9.9525 -1.585,-13.6773z"/>
   <path id="_182583000" class="fil1" d="M53.1142 47.6568c-0.9245,-1.565 -2.1925,-3.02475 -3.40775,-4.1605 -0.87175,-0.1585 -1.73675,-0.3235 -2.536,-0.68025 -0.581,-0.2575 -1.09625,-0.74625 -1.215,-1.37375 -0.23125,-1.248 0.97725,-1.9415 2.07375,-1.92175 0.77925,0.00675 1.20175,0.23125 2.232,0.568 0.35,-0.30375 -0.04625,-2.13975 -0.1255,-2.5625 -0.55475,-3.0905 -3.335,-4.93975 -5.521,-6.888 -1.89525,-1.69075 -4.055,-3.35475 -5.402,-5.50775 -1.321,-2.10675 -2.07375,-4.57 -2.07375,-7.05975 0,-2.13975 0.56125,-4.25975 1.60475,-6.122 -2.001,0.482 -3.8965,1.29425 -5.6795,2.2915 -3.43425,3.1765 -5.871,7.225 -8.18925,11.2733 -0.634,1.017 -0.97725,2.2255 -1.03025,3.40775 0.00675,0 0.02,0.0065 0.0265,0.0065 1.02375,0.26425 2.23875,0.634 2.8135,1.59825 0.766,1.268 -0.5615,2.68125 -1.869,2.3775 -1.0765,-0.251 -2.07375,-0.6405 -3.0975,-0.96425 -2.767,0.2775 -5.03875,2.5625 -6.01625,5.072 -0.67375,1.8955 -0.4755,3.8965 0.6075,5.56725 0.39625,-0.01325 0.786,0 1.18225,0.0265 1.16225,0.0925 2.61525,0.33 3.63875,0.91125 0.90475,0.51525 1.453,1.5915 0.77275,2.5295 -0.984,1.35375 -2.4765,0.2245 -3.652,-0.053 -0.10575,-0.02625 -0.2115,-0.04625 -0.317,-0.05925 -4.92675,1.281 -6.2475,7.31725 -3.7115,11.2138 0.7595,1.16875 1.73675,2.17275 2.78025,3.09075 0.77275,0.68 2.219,2.17925 3.2295,2.37075 3.751,0.71325 7.66075,0.99075 11.3457,1.05675 5.87775,0.099 11.762,-0.49525 17.5143,-1.69725 0.5415,-0.11225 1.083,-0.23775 1.6245,-0.3765 0.5085,-0.132 1.31425,-1.4265 1.63775,-1.8425 2.6945,-3.47375 2.99175,-8.32125 0.7595,-12.0922z"/>
   <g>
    <path id="_182583264" class="fil2" d="M47.1705 62.3575c0.1585,-0.02625 0.317,-0.05925 0.4755,-0.08575 -0.1585,0.0265 -0.317,0.05275 -0.4755,0.08575z"/>
    <path id="_182583216" class="fil2" d="M49.0725 43.3708c-0.013,0 -0.02625,-0.0065 -0.0395,-0.0065 0.01325,0.0065 0.0265,0.0065 0.0395,0.0065z"/>
    <path id="_182582952" class="fil2" d="M46.1602 62.5358c0.165,-0.02625 0.33025,-0.05925 0.50175,-0.08575 -0.165,0.0265 -0.33,0.05275 -0.50175,0.08575z"/>
    <path id="_182583240" class="fil2" d="M46.0215 41.6735c0.0265,0.0725 0.0595,0.13875 0.0925,0.21125 -0.03975,-0.066 -0.066,-0.1385 -0.0925,-0.21125z"/>
    <path id="_182582880" class="fil2" d="M45.962 41.4555c0.01325,0.07275 0.033,0.14525 0.0595,0.218 -0.0265,-0.07275 -0.04625,-0.14525 -0.0595,-0.218z"/>
    <path id="_182582208" class="fil2" d="M46.114 41.8915c0.033,0.066 0.07925,0.132 0.11875,0.1915 -0.0395,-0.0595 -0.07925,-0.1255 -0.11875,-0.1915z"/>
    <path id="_182582688" class="fil2" d="M48.3197 39.5337c-0.0065,0 -0.01975,0 -0.033,0 0.01325,0 0.02625,0 0.033,0z"/>
    <path id="_182582544" class="fil2" d="M48.7555 43.3047c-0.01975,-0.0065 -0.046,-0.01325 -0.0725,-0.01325 0.01975,0.0065 0.04625,0.01325 0.0725,0.01325z"/>
    <path id="_182582592" class="fil2" d="M48.1942 39.5273c-0.0065,0 -0.01325,0 -0.0265,0 0.00675,0 0.01325,0 0.0265,0z"/>
    <path id="_182582640" class="fil2" d="M48.432 43.232c-0.0265,-0.0065 -0.0595,-0.01325 -0.08575,-0.01975 0.02625,0.0065 0.05925,0.01325 0.08575,0.01975z"/>
    <path id="_182582496" class="fil2" d="M48.1677 62.166c0.13225,-0.02625 0.26425,-0.05275 0.39625,-0.07925 -0.132,0.0265 -0.264,0.053 -0.39625,0.07925z"/>
    <path id="_182582712" class="fil2" d="M46.3847 42.2677c-0.05275,-0.05275 -0.099,-0.11225 -0.14525,-0.17825 0.04625,0.0595 0.0925,0.119 0.14525,0.17825z"/>
    <path id="_182582472" class="fil2" d="M47.6857 43.014c0.033,0.01325 0.0725,0.0265 0.10575,0.03325 -0.03325,-0.00675 -0.06625,-0.02 -0.10575,-0.03325z"/>
    <path id="_182582040" class="fil2" d="M47.362 42.8952c0.03975,0.01325 0.07275,0.033 0.1125,0.04625 -0.03325,-0.01325 -0.07275,-0.033 -0.1125,-0.04625z"/>
    <path id="_182582256" class="fil2" d="M41.8278 11.486c-1.314,0.07275 -2.582,0.3105 -3.817,0.6605 0.24425,-0.066 0.48875,-0.132 0.7395,-0.1915 -1.04325,1.86225 -1.60475,3.98225 -1.60475,6.122 0,2.48975 0.7595,4.953 2.07375,7.05975 1.34725,2.1595 3.5135,3.82375 5.40225,5.508 2.18575,1.94825 4.96625,3.79725 5.521,6.888 0.0725,0.42275 0.46875,2.2585 0.1255,2.5625 -0.54825,-0.1785 -0.92475,-0.33025 -1.27475,-0.4295 0.67375,0.1915 1.4595,0.5615 3.40125,1.01725 0.132,0.033 0.667,-1.36725 0.7265,-1.50575 0.21125,-0.52175 0.416,-1.0435 0.52175,-1.59825 0.2575,-1.32075 0.05275,-2.7605 -0.70675,-3.88325 -0.83875,-1.24825 -2.17275,-2.087 -3.4605,-2.80675 -4.48425,-2.5295 -8.9685,-5.4155 -9.926,-10.91 -0.44925,-2.6285 -0.19825,-6.86175 2.27825,-8.493z"/>
    <path id="_182582280" class="fil2" d="M48.0093 43.1197c0.033,0.00675 0.06625,0.01975 0.09925,0.0265 -0.033,-0.00675 -0.06625,-0.01975 -0.09925,-0.0265z"/>
    <path id="_182581296" class="fil2" d="M46.966 42.717c0.066,0.033 0.132,0.066 0.198,0.099 -0.066,-0.033 -0.132,-0.066 -0.198,-0.099z"/>
    <path id="_182581440" class="fil2" d="M46.5697 42.4395c0.05275,0.04625 0.11225,0.0925 0.1715,0.13225 -0.05925,-0.03975 -0.11875,-0.086 -0.1715,-0.13225z"/>
    <path id="_182581824" class="fil2" d="M46.5565 42.4263c-0.053,-0.046 -0.11225,-0.099 -0.1585,-0.15175 0.04625,0.05275 0.099,0.10575 0.1585,0.15175z"/>
    <path id="_182581272" class="fil2" d="M46.7612 42.5915c0.05925,0.0395 0.1255,0.07925 0.18475,0.11875 -0.05925,-0.0395 -0.1255,-0.07925 -0.18475,-0.11875z"/>
    <path id="_182581968" class="fil2" d="M45.9555 40.9075c0.0925,-0.568 0.52825,-0.9775 1.06975,-1.202 -0.548,0.2245 -0.97725,0.634 -1.06975,1.202z"/>
    <path id="_182581536" class="fil2" d="M36.571 12.6155c0.14525,-0.053 0.284,-0.09925 0.42925,-0.152 -0.14525,0.04625 -0.2905,0.099 -0.42925,0.152z"/>
    <path id="_182581344" class="fil2" d="M36.2407 12.741c-0.11875,0.046 -0.23775,0.08575 -0.3565,0.1385l0 0c0.11875,-0.04625 0.23775,-0.09225 0.3565,-0.1385z"/>
    <path id="_182581920" class="fil2" d="M36.3927 63.5992c0.08575,-0.00675 0.17825,-0.00675 0.27075,-0.01325 -0.0925,0.0065 -0.185,0.01325 -0.27075,0.01325z"/>
    <path id="_182581704" class="fil2" d="M39.873 63.3615c0.10575,-0.00675 0.218,-0.02 0.32375,-0.0265 -0.10575,0.0065 -0.218,0.01975 -0.32375,0.0265z"/>
    <path id="_182581776" class="fil2" d="M37.8522 12.1928c-0.1915,0.05275 -0.3765,0.11225 -0.568,0.17175 0.1915,-0.0595 0.3765,-0.119 0.568,-0.17175z"/>
    <path id="_182580864" class="fil2" d="M37.3635 63.553c0.07925,-0.00675 0.1585,-0.00675 0.23775,-0.01325 -0.07925,0 -0.1585,0.0065 -0.23775,0.01325z"/>
    <path id="_182580768" class="fil2" d="M50.7105 61.6047c-0.2445,0.066 -0.48875,0.1255 -0.73325,0.17825 0.2445,-0.0595 0.48875,-0.11875 0.73325,-0.17825z"/>
    <path id="_182580600" class="fil2" d="M35.455 63.6388c0.0725,0 0.14525,-0.0065 0.2245,-0.0065 -0.07275,0 -0.152,0.0065 -0.2245,0.0065z"/>
    <path id="_182580840" class="fil2" d="M52.5793 44.269c-0.91775,-0.42275 -1.89525,-0.5945 -2.87275,-0.77275 1.22175,1.136 2.48325,2.5955 3.40775,4.1605 2.23225,3.771 1.935,8.6185 -0.75275,12.0987 -0.32375,0.416 -1.12275,1.704 -1.63125,1.8425 1.5255,-0.40275 3.0115,-0.94425 4.33225,-1.78975 2.087,-1.347 3.50025,-3.48675 3.804,-5.95675 0.535,-4.3455 -2.5625,-7.872 -6.28725,-9.5825z"/>
    <path id="_182580576" class="fil2" d="M48.4517 39.5535c-0.0065,0 -0.01325,0 -0.01975,0 0.0065,-0.0065 0.01325,-0.0065 0.01975,0z"/>
    <path id="_182581032" class="fil2" d="M49.885 61.8028c-0.218,0.053 -0.4425,0.099 -0.667,0.14525 0.2245,-0.046 0.449,-0.09225 0.667,-0.14525z"/>
    <path id="_182581152" class="fil2" d="M48.7092 39.5932c-0.01975,0 -0.033,-0.00675 -0.05275,-0.01325 0.01975,0.0065 0.033,0.01325 0.05275,0.01325z"/>
    <path id="_182580648" class="fil2" d="M40.7975 63.269c0.13875,-0.01325 0.271,-0.0265 0.4095,-0.03975 -0.1385,0.01325 -0.27725,0.0265 -0.4095,0.03975z"/>
    <path id="_182580888" class="fil2" d="M48.9868 39.6593c-0.0265,-0.0065 -0.0595,-0.01325 -0.08575,-0.01975 0.033,0.0065 0.05925,0.01325 0.08575,0.01975z"/>
    <path id="_182580528" class="fil2" d="M48.597 39.5735c-0.013,0 -0.033,-0.00675 -0.04625,-0.00675 0.01325,0 0.03325,0 0.04625,0.00675z"/>
    <path id="_182580984" class="fil2" d="M48.8943 39.6328c-0.04625,-0.01325 -0.0925,-0.01975 -0.132,-0.033 0.0395,0.01325 0.08575,0.0265 0.132,0.033z"/>
    <path id="_182526008" class="fil2" d="M41.7685 63.1633c0.14525,-0.01325 0.29725,-0.033 0.4425,-0.05275 -0.14525,0.01975 -0.29075,0.0395 -0.4425,0.05275z"/>
    <path id="_182525624" class="fil2" d="M45.1433 62.701c0.17825,-0.0265 0.35,-0.05275 0.5215,-0.086 -0.1715,0.03325 -0.34325,0.0595 -0.5215,0.086z"/>
    <path id="_182525432" class="fil2" d="M42.759 63.0445c0.16525,-0.02 0.33025,-0.04625 0.49525,-0.06625 -0.165,0.0265 -0.33,0.04625 -0.49525,0.06625z"/>
    <path id="_182525936" class="fil2" d="M44.6677 62.7738c-0.251,0.0395 -0.502,0.0725 -0.7595,0.11225 0.2575,-0.033 0.5085,-0.07275 0.7595,-0.11225z"/>
   </g>
   <g>
    <path id="_182526152" class="fil3" d="M21.923 46.0585c0.03975,-0.05925 0.07925,-0.11875 0.11225,-0.17825 -0.033,0.0595 -0.0725,0.119 -0.11225,0.17825 -0.52825,0.73325 -1.2085,0.73975 -1.902,0.54825 0.6935,0.1915 1.36725,0.185 1.902,-0.54825z"/>
    <path id="_182525720" class="fil3" d="M24.8882 25.5132c2.3115,-4.04825 4.755,-8.09675 8.18925,-11.2733 0.21775,-0.1255 0.4425,-0.24425 0.667,-0.36325 -2.985,1.57175 -5.66625,3.7115 -7.99775,5.8315 -2.39725,2.186 -5.41525,4.99275 -5.3295,8.51925 0,0.0595 3.038,0.601 3.44075,0.6935 0.053,-1.18225 0.39625,-2.39075 1.03025,-3.40775z"/>
    <path id="_182525696" class="fil3" d="M21.1437 43.5292c-0.05275,-0.0265 -0.1055,-0.0595 -0.1585,-0.08575 0.053,0.02625 0.10575,0.05275 0.1585,0.08575 0.033,0.01975 0.0595,0.0395 0.0925,0.0595 -0.0265,-0.02 -0.0595,-0.03975 -0.0925,-0.0595z"/>
    <path id="_182525648" class="fil3" d="M24.829 32.9033c0.416,0.099 0.8385,0.01975 1.18875,-0.17175 -0.35675,0.1915 -0.77275,0.27075 -1.18875,0.17175 -1.0765,-0.251 -2.07375,-0.6405 -3.0975,-0.96425 1.017,0.32375 2.021,0.71975 3.0975,0.96425z"/>
    <path id="_182525480" class="fil3" d="M34.187 13.6522c-0.14525,0.07275 -0.29725,0.14525 -0.4425,0.2245 0.15175,-0.07925 0.29725,-0.15175 0.4425,-0.2245z"/>
    <path id="_182525528" class="fil3" d="M24.2345 29.0268c0.30375,0.08575 0.61425,0.18475 0.918,0.31025 -0.30375,-0.132 -0.61425,-0.231 -0.918,-0.31025z"/>
    <path id="_182524976" class="fil3" d="M35.8842 12.8795l0 0c-0.00675,0 -0.01325,0.00675 -0.0265,0.00675 0.0065,0 0.01975,-0.00675 0.0265,-0.00675z"/>
    <path id="_182524880" class="fil3" d="M35.4748 13.0513c-0.11225,0.04625 -0.2245,0.0925 -0.33025,0.13875 0.11225,-0.04625 0.218,-0.0925 0.33025,-0.13875z"/>
    <path id="_182524832" class="fil3" d="M34.8077 13.355c-0.119,0.0595 -0.2445,0.11225 -0.36975,0.17175 0.12525,-0.0595 0.24425,-0.11875 0.36975,-0.17175z"/>
    <path id="_182525360" class="fil3" d="M20.2458 62.615c-1.004,-0.1915 -2.45675,-1.6905 -3.2295,-2.37075 -1.03675,-0.918 -2.01425,-1.92175 -2.78025,-3.09075 -2.54275,-3.8965 -1.22175,-9.9325 3.70475,-11.2073 -1.01025,-0.17825 -2.067,-0.1055 -3.05775,0.152 -4.08125,1.083 -7.94475,5.02575 -6.49175,9.50325 0.91125,2.7935 3.60575,4.6625 6.38625,5.6135 2.84625,0.96425 5.91725,1.5785 9.008,1.95475 -1.18225,-0.15175 -2.371,-0.33 -3.53975,-0.55475z"/>
    <path id="_182525216" class="fil3" d="M25.793 63.3745c-0.4225,-0.0395 -0.83875,-0.07925 -1.26125,-0.12525 0.4225,0.046 0.84525,0.08575 1.26125,0.12525z"/>
    <path id="_182524952" class="fil3" d="M23.7987 63.1633c0.23775,0.0265 0.46875,0.05275 0.7065,0.07925 -0.23775,-0.01975 -0.4755,-0.05275 -0.7065,-0.07925z"/>
    <path id="_182524856" class="fil3" d="M33.0378 63.685c0.07925,0 0.1585,0 0.2445,0 -0.086,0 -0.16525,0 -0.2445,0z"/>
    <path id="_182524736" class="fil3" d="M26.9355 63.467c0.26425,0.01975 0.5285,0.03975 0.786,0.053 -0.26425,-0.01325 -0.52175,-0.03325 -0.786,-0.053z"/>
    <path id="_182525072" class="fil3" d="M15.4312 42.6443c0.29725,-0.033 0.5945,-0.05275 0.8915,-0.0595 -1.0765,-1.67075 -1.281,-3.67175 -0.6075,-5.56725 0.9775,-2.516 3.2425,-4.7945 6.01625,-5.07175 -0.97075,-0.304 -1.96125,-0.54175 -3.05775,-0.52175 -5.151,0.1055 -9.3315,7.8325 -5.3095,11.7025 0.066,0.05925 1.82925,-0.44925 2.067,-0.48225z"/>
    <path id="_182524808" class="fil3" d="M30.4292 63.6453c0.07925,0 0.165,0.00675 0.24425,0.00675 -0.08575,0 -0.165,-0.00675 -0.24425,-0.00675z"/>
    <path id="_182525192" class="fil3" d="M26.0045 63.3945c0.1915,0.01325 0.3895,0.033 0.581,0.04625 -0.1915,-0.01325 -0.3895,-0.03325 -0.581,-0.04625z"/>
    <path id="_182524088" class="fil3" d="M28.23 63.553c0.132,0.0065 0.27075,0.013 0.4095,0.01975 -0.13875,-0.00675 -0.2775,-0.01325 -0.4095,-0.01975z"/>
    <path id="_182523920" class="fil3" d="M29.3593 63.6058c0.086,0 0.17175,0.0065 0.25775,0.01325 -0.086,-0.00675 -0.17175,-0.00675 -0.25775,-0.01325z"/>
   </g>
   <g>
    <path id="_182524544" class="fil0" d="M28.1375 52.927c0.4095,0.34325 0.90475,0.6075 1.3275,0.8055 2.754,1.2945 6.155,1.301 8.86925,-0.099 0.72,-0.36975 1.638,-0.7925 2.06725,-1.519 0.49525,-0.84525 0.01975,-2.0735 -0.93125,-2.33775 -0.3765,-0.10575 -0.77925,-0.0595 -1.14925,0.066 -1.09625,0.36325 -1.79625,1.0435 -2.93875,1.3275 -1.02375,0.251 -2.11325,0.231 -3.13025,-0.03975 -0.99725,-0.27075 -2.10675,-1.1095 -3.11075,-1.268 -0.75275,-0.11875 -1.47925,0.4625 -1.74325,1.1425 -0.271,0.74625 0.1715,1.453 0.7395,1.922z"/>
   </g>
   <g>
    <path id="_182524448" class="fil0" d="M26.1167 41.667c-0.11225,1.4925 0.8915,3.09725 2.54925,2.97175 1.55175,-0.119 2.516,-1.79625 2.21225,-3.24275 -0.40275,-1.92825 -2.89925,-2.80675 -4.2135,-1.1755 -0.33,0.4095 -0.5085,0.92475 -0.548,1.4465z"/>
   </g>
   <g>
    <path id="_182524376" class="fil0" d="M36.9937 41.667c-0.11225,1.4925 0.8915,3.09725 2.549,2.97175 1.552,-0.119 2.51625,-1.79625 2.2125,-3.24275 -0.403,-1.92825 -2.89925,-2.80675 -4.2135,-1.1755 -0.33025,0.4095 -0.5085,0.92475 -0.548,1.4465z"/>
   </g>
  </g>
  <g id="_182523392">
   <path id="_182524304" class="fil0" d="M76.3822 27.3035c1.0095,-0.07025 1.76075,-0.11725 2.30075,-0.16425 1.59625,-0.11725 4.03775,-0.21125 4.88275,-0.21125 4.50725,0 6.78425,0.5635 8.5685,2.18325 1.66675,1.45525 2.58225,3.5915 2.58225,5.89225 0,5.04725 -3.61525,8.099 -9.57775,8.099 -0.25825,0 -0.70425,0 -1.17375,-0.0235l0 4.789 -7.58275 -0.00025 0 -20.5643 0 0zm7.5825 10.0475c0.30525,0 0.70425,0.0235 0.84525,0.0235 1.71375,0 2.676,-0.75125 2.676,-2.113 0,-1.2675 -1.10325,-2.2065 -2.58225,-2.2065l-0.939 0 0 4.296 0 0z"/>
   <path id="_182524472" class="fil0" d="M110.469 34.5105c1.3615,1.2675 2.11275,3.00475 2.23,5.0705 0.30525,5.09425 -3.52125,8.77975 -9.1085,8.77975 -2.7935,0 -5.094,-0.8215 -6.6435,-2.371 -1.3615,-1.3615 -2.23,-3.42725 -2.23,-5.35225 0,-4.88275 3.3805,-8.19275 8.63875,-8.498 2.69975,-0.14075 5.376,0.72775 7.11325,2.371zm-8.8035 5.7045c0.094,1.59625 0.986,2.7465 2.13625,2.7465 1.29125,0 2.0425,-1.12675 1.8545,-2.864 -0.16425,-1.479 -1.00925,-2.46475 -2.11275,-2.46475 -1.15025,-0.00025 -1.97175,1.05625 -1.878,2.58225z"/>
   <path id="_182524328" class="fil0" d="M129.131 34.5105c1.36175,1.2675 2.113,3.00475 2.23025,5.0705 0.30525,5.09425 -3.52125,8.77975 -9.1085,8.77975 -2.7935,0 -5.094,-0.8215 -6.6435,-2.371 -1.3615,-1.3615 -2.23,-3.42725 -2.23,-5.35225 0,-4.88275 3.38025,-8.19275 8.63875,-8.498 2.69975,-0.14075 5.376,0.72775 7.113,2.371zm-8.7795 5.7045c0.094,1.59625 0.986,2.7465 2.13625,2.7465 1.291,0 2.04225,-1.12675 1.8545,-2.864 -0.16425,-1.479 -1.0095,-2.46475 -2.11275,-2.46475 -1.15025,-0.00025 -1.972,1.05625 -1.878,2.58225z"/>
   <path id="_182523968" class="fil0" d="M146.925 34.8155c-1.12675,-0.9155 -1.99525,-1.2675 -3.216,-1.2675 -2.08925,0 -3.61525,1.66675 -3.61525,3.94375 0,2.27725 1.73725,4.06125 3.8735,4.06125 1.3615,0 2.3945,-0.399 3.662,-1.3615l3.23975 5.86875c-2.67625,1.8545 -5.46975,2.65275 -8.5685,2.418 -6.08025,-0.399 -10.2353,-4.90625 -10.2353,-11.1508 0,-2.7935 1.12675,-5.681 3.02825,-7.559 1.9955,-1.99525 5.04725,-3.21625 7.95825,-3.21625 3.122,0 5.28175,0.7045 7.81725,2.4885l-3.944 5.77475z"/>
   <path id="_182523560" class="fil0" d="M165.987 34.5105c1.3615,1.2675 2.11275,3.00475 2.23025,5.0705 0.305,5.09425 -3.5215,8.77975 -9.1085,8.77975 -2.7935,0 -5.09425,-0.8215 -6.6435,-2.371 -1.3615,-1.3615 -2.23025,-3.42725 -2.23025,-5.35225 0,-4.88275 3.3805,-8.19275 8.639,-8.498 2.69975,-0.14075 5.37575,0.72775 7.113,2.371zm-8.77975 5.7045c0.094,1.59625 0.986,2.7465 2.13625,2.7465 1.29125,0 2.04225,-1.12675 1.8545,-2.864 -0.16425,-1.479 -1.0095,-2.46475 -2.11275,-2.46475 -1.15025,-0.00025 -1.972,1.05625 -1.878,2.58225z"/>
   <path id="_182523536" class="fil0" d="M176.41 47.8678l-7.113 0 0 -15.0945 7.113 0 0 15.0945zm-0.399 -18.6863c0,1.64325 -1.12675,2.69975 -2.864,2.69975 -1.71375,0 -2.864,-1.1035 -2.864,-2.69975 0,-1.59625 1.17375,-2.6995 2.864,-2.6995 1.69025,0 2.864,1.10325 2.864,2.6995z"/>
   <path id="_182523440" class="fil0" d="M183.101 32.2803c0.939,0.58675 1.22075,1.10325 1.4555,2.418 1.479,-1.73725 3.169,-2.55875 5.42275,-2.55875 2.04225,0 3.85,1.00925 4.6245,2.58225 0.399,0.77475 0.54,1.71375 0.54,3.404l0 9.74225 -7.113 -0.00025 0 -7.84075c0,-1.291 -0.399,-1.831 -1.4555,-1.831 -0.53975,0 -1.07975,0.25825 -1.57275,0.77475l0 8.897 -7.113 0 0 -9.39c0,-3.31025 -0.11725,-3.944 -0.892,-5.07075l6.1035 -1.12675z"/>
  </g>
 </g>
</svg>
