<?xml version="1.0" encoding="UTF-8"?>
<!DOCTYPE svg PUBLIC "-//W3C//DTD SVG 1.1//EN" "http://www.w3.org/Graphics/SVG/1.1/DTD/svg11.dtd">
<!-- Creator: CorelDRAW -->
<svg xmlns="http://www.w3.org/2000/svg" xml:space="preserve" width="220px" height="66px" style="shape-rendering:geometricPrecision; text-rendering:geometricPrecision; image-rendering:optimizeQuality; fill-rule:evenodd; clip-rule:evenodd"
viewBox="0 0 220 66">
 <defs>
  <style type="text/css">
   <![CDATA[
    .fil0 {fill:#383431}
    .fil2 {fill:#969594}
    .fil4 {fill:#C2C1C1}
    .fil3 {fill:#725037}
    .fil1 {fill:#87603F}
    .fil5 {fill:#976A49}
   ]]>
  </style>
 </defs>
 <g id="Layer_x0020_1">
  <metadata id="CorelCorpID_0Corel-Layer"/>
  <path class="fil0" d="M64.6731 41.0341c-1.09698,-1.23475 -2.41175,-2.31 -3.87915,-3.1746 0.5159,-0.6248 1.562,-3.1163 1.66347,-3.51588 0.3124,-1.2496 0.34155,-2.5718 0.13805,-3.84285 -0.77715,-4.87465 -5.15762,-7.0466 -8.95702,-9.3786 -2.73158,-1.67805 -5.44858,-4.1118 -6.3712,-7.2864 -0.588225,-2.01217 -0.2178,-4.1844 0.770275,-6.0005 0.508475,-0.9372 1.18388,-1.79438 1.98302,-2.49893 0.6974,-0.617375 1.56915,-0.995225 1.82353,-1.97587 0.929775,-3.5816 -6.83595,-2.54265 -8.59403,-2.24482 -6.05137,1.03895 -11.5288,4.56225 -16.1054,8.50685 -2.06305,1.7798 -4.1481,3.5233 -5.75355,5.74612 -0.784575,1.08983 -1.46025,2.26655 -1.91785,3.53045 -0.11605,0.319825 -0.828025,3.95918 -0.646525,3.92288 -0.900625,0.16005 -1.77237,0.4433 -2.60783,0.842875 -3.4144,1.6489 -5.73183,5.2448 -6.48725,8.88443 -0.566775,2.74587 -0.218075,5.86245 1.49655,8.15815 -0.10175,-0.1309 -1.77265,1.25675 -1.93985,1.40195 -3.03655,2.6587 -4.55483,6.93028 -3.71937,10.904 0.406725,1.93957 1.3585,3.74137 2.70242,5.20135 3.49415,3.79225 8.88443,5.09988 13.7737,5.93505 7.62768,1.30763 15.5969,1.34393 23.2972,0.6831 7.42445,-0.632225 16.8102,-1.84525 21.0743,-8.7538 3.1966,-5.1579 1.90327,-10.9477 -1.7435,-15.045z"/>
  <path class="fil1" d="M58.4257 44.1724c-1.01695,-1.7215 -2.41175,-3.32723 -3.74853,-4.57655 -0.958925,-0.17435 -1.91043,-0.35585 -2.7896,-0.748275 -0.6391,-0.28325 -1.20587,-0.820875 -1.3365,-1.51112 -0.254375,-1.3728 1.07498,-2.13565 2.28113,-2.11393 0.857175,0.007425 1.32193,0.254375 2.4552,0.6248 0.385,-0.334125 -0.050875,-2.35372 -0.13805,-2.81875 -0.610225,-3.39955 -3.6685,-5.43372 -6.0731,-7.5768 -2.08478,-1.85983 -4.4605,-3.69022 -5.9422,-6.05852 -1.4531,-2.31743 -2.28113,-5.027 -2.28113,-7.76572 0,-2.35373 0.617375,-4.68573 1.76523,-6.7342 -2.2011,0.5302 -4.28615,1.42367 -6.24745,2.52065 -3.77768,3.49415 -6.4581,7.9475 -9.00817,12.4006 -0.6974,1.1187 -1.07498,2.44805 -1.13327,3.74853 0.007425,0 0.022,0.00715 0.02915,0.00715 1.12612,0.290675 2.46262,0.6974 3.09485,1.75807 0.8426,1.3948 -0.61765,2.94937 -2.0559,2.61525 -1.18415,-0.2761 -2.28113,-0.70455 -3.40725,-1.06067 -3.0437,0.30525 -5.54263,2.81875 -6.61787,5.5792 -0.741125,2.08505 -0.52305,4.28615 0.66825,6.12398 0.435875,-0.014575 0.8646,0 1.30047,0.02915 1.27848,0.10175 2.87678,0.363 4.00263,1.00238 0.995225,0.566775 1.5983,1.75065 0.850025,2.78245 -1.0824,1.48913 -2.72415,0.24695 -4.0172,-0.0583 -0.116325,-0.028875 -0.23265,-0.050875 -0.3487,-0.065175 -5.41942,1.4091 -6.87225,8.04897 -4.08265,12.3351 0.83545,1.28563 1.91043,2.39003 3.05828,3.39983 0.850025,0.748 2.4409,2.39717 3.55245,2.60782 4.1261,0.784575 8.42683,1.08983 12.4803,1.16243 6.46552,0.1089 12.9382,-0.544775 19.2657,-1.86698 0.59565,-0.123475 1.1913,-0.261525 1.78695,-0.41415 0.55935,-0.1452 1.44568,-1.56915 1.80152,-2.02675 2.96395,-3.82112 3.29093,-9.15337 0.83545,-13.3015z"/>
  <g id="_182525864">
   <path id="_182583264" class="fil2" d="M51.8875 60.3432c0.17435,-0.028875 0.3487,-0.065175 0.52305,-0.094325 -0.17435,0.02915 -0.3487,0.058025 -0.52305,0.094325z"/>
   <path id="_182583216" class="fil2" d="M53.9797 39.4578c-0.0143,0 -0.028875,-0.00715 -0.04345,-0.00715 0.014575,0.00715 0.02915,0.00715 0.04345,0.00715z"/>
   <path id="_182582952" class="fil2" d="M50.7763 60.5393c0.1815,-0.028875 0.363275,-0.065175 0.551925,-0.094325 -0.1815,0.02915 -0.363,0.058025 -0.551925,0.094325z"/>
   <path id="_182583240" class="fil2" d="M50.6236 37.5909c0.02915,0.07975 0.06545,0.152625 0.10175,0.232375 -0.043725,-0.0726 -0.0726,-0.15235 -0.10175,-0.232375z"/>
   <path id="_182582880" class="fil2" d="M50.5582 37.3511c0.014575,0.080025 0.0363,0.159775 0.06545,0.2398 -0.02915,-0.080025 -0.050875,-0.159775 -0.06545,-0.2398z"/>
   <path id="_182582208" class="fil2" d="M50.7254 37.8306c0.0363,0.0726 0.087175,0.1452 0.130625,0.21065 -0.04345,-0.06545 -0.087175,-0.13805 -0.130625,-0.21065z"/>
   <path id="_182582688" class="fil2" d="M53.1517 35.2371c-0.00715,0 -0.021725,0 -0.0363,0 0.014575,0 0.028875,0 0.0363,0z"/>
   <path id="_182582544" class="fil2" d="M53.631 39.3852c-0.021725,-0.00715 -0.0506,-0.014575 -0.07975,-0.014575 0.021725,0.00715 0.050875,0.014575 0.07975,0.014575z"/>
   <path id="_182582592" class="fil2" d="M53.0137 35.23c-0.00715,0 -0.014575,0 -0.02915,0 0.007425,0 0.014575,0 0.02915,0z"/>
   <path id="_182582640" class="fil2" d="M53.2752 39.3052c-0.02915,-0.00715 -0.06545,-0.014575 -0.094325,-0.021725 0.028875,0.00715 0.065175,0.014575 0.094325,0.021725z"/>
   <path id="_182582496" class="fil2" d="M52.9845 60.1326c0.145475,-0.028875 0.290675,-0.058025 0.435875,-0.087175 -0.1452,0.02915 -0.2904,0.0583 -0.435875,0.087175z"/>
   <path id="_182582712" class="fil2" d="M51.0232 38.2445c-0.058025,-0.058025 -0.1089,-0.123475 -0.159775,-0.196075 0.050875,0.06545 0.10175,0.1309 0.159775,0.196075z"/>
   <path id="_182582472" class="fil2" d="M52.4543 39.0654c0.0363,0.014575 0.07975,0.02915 0.116325,0.036575 -0.036575,-0.007425 -0.072875,-0.022 -0.116325,-0.036575z"/>
   <path id="_182582040" class="fil2" d="M52.0982 38.9348c0.043725,0.014575 0.080025,0.0363 0.12375,0.050875 -0.036575,-0.014575 -0.080025,-0.0363 -0.12375,-0.050875z"/>
   <path id="_182582256" class="fil3" d="M46.0105 4.3846c-1.4454,0.080025 -2.8402,0.34155 -4.1987,0.72655 0.268675,-0.0726 0.537625,-0.1452 0.81345,-0.21065 -1.14758,2.04847 -1.76523,4.38048 -1.76523,6.7342 0,2.73872 0.83545,5.4483 2.28112,7.76572 1.48198,2.37545 3.86485,4.20613 5.94248,6.0588 2.40433,2.14307 5.46287,4.17697 6.0731,7.5768 0.07975,0.465025 0.515625,2.48435 0.13805,2.81875 -0.603075,-0.19635 -1.01722,-0.363275 -1.40223,-0.47245 0.741125,0.21065 1.60545,0.61765 3.74138,1.11897 0.1452,0.0363 0.7337,-1.50397 0.79915,-1.65633 0.232375,-0.573925 0.4576,-1.14785 0.573925,-1.75807 0.28325,-1.45283 0.058025,-3.03655 -0.777425,-4.27157 -0.922625,-1.37308 -2.39003,-2.2957 -3.80655,-3.08743 -4.93268,-2.78245 -9.86535,-5.95705 -10.9186,-12.001 -0.494175,-2.89135 -0.218075,-7.54793 2.50608,-9.3423z"/>
   <path id="_182582280" class="fil2" d="M52.8102 39.1817c0.0363,0.007425 0.072875,0.021725 0.109175,0.02915 -0.0363,-0.007425 -0.072875,-0.021725 -0.109175,-0.02915z"/>
   <path id="_182581296" class="fil2" d="M51.6626 38.7387c0.0726,0.0363 0.1452,0.0726 0.2178,0.1089 -0.0726,-0.0363 -0.1452,-0.0726 -0.2178,-0.1089z"/>
   <path id="_182581440" class="fil2" d="M51.2267 38.4335c0.058025,0.050875 0.123475,0.10175 0.18865,0.145475 -0.065175,-0.043725 -0.130625,-0.0946 -0.18865,-0.145475z"/>
   <path id="_182581824" class="fil2" d="M51.2121 38.4189c-0.0583,-0.0506 -0.123475,-0.1089 -0.17435,-0.166925 0.050875,0.058025 0.1089,0.116325 0.17435,0.166925z"/>
   <path id="_182581272" class="fil2" d="M51.4374 38.6007c0.065175,0.04345 0.13805,0.087175 0.203225,0.130625 -0.065175,-0.04345 -0.13805,-0.087175 -0.203225,-0.130625z"/>
   <path id="_182581968" class="fil2" d="M50.551 36.7482c0.10175,-0.6248 0.581075,-1.07525 1.17672,-1.3222 -0.6028,0.24695 -1.07497,0.6974 -1.17672,1.3222z"/>
   <path id="_182581536" class="fil2" d="M40.2281 5.62705c0.159775,-0.0583 0.3124,-0.109175 0.472175,-0.1672 -0.159775,0.050875 -0.31955,0.1089 -0.472175,0.1672z"/>
   <path id="_182581344" class="fil2" d="M39.8648 5.7651c-0.130625,0.0506 -0.261525,0.094325 -0.39215,0.15235l0 0c0.130625,-0.050875 0.261525,-0.101475 0.39215,-0.15235z"/>
   <path id="_182581920" class="fil2" d="M40.032 61.7092c0.094325,-0.007425 0.196075,-0.007425 0.297825,-0.014575 -0.10175,0.00715 -0.2035,0.014575 -0.297825,0.014575z"/>
   <path id="_182581704" class="fil2" d="M43.8603 61.4477c0.116325,-0.007425 0.2398,-0.022 0.356125,-0.02915 -0.116325,0.00715 -0.2398,0.021725 -0.356125,0.02915z"/>
   <path id="_182581776" class="fil2" d="M41.6375 5.16202c-0.21065,0.058025 -0.41415,0.123475 -0.6248,0.188925 0.21065,-0.06545 0.41415,-0.1309 0.6248,-0.188925z"/>
   <path id="_182580864" class="fil2" d="M41.0998 61.6583c0.087175,-0.007425 0.17435,-0.007425 0.261525,-0.014575 -0.087175,0 -0.17435,0.00715 -0.261525,0.014575z"/>
   <path id="_182580768" class="fil2" d="M55.7815 59.5152c-0.26895,0.0726 -0.537625,0.13805 -0.806575,0.196075 0.26895,-0.06545 0.537625,-0.130625 0.806575,-0.196075z"/>
   <path id="_182580600" class="fil2" d="M39.0005 61.7526c0.07975,0 0.159775,-0.00715 0.24695,-0.00715 -0.080025,0 -0.1672,0.00715 -0.24695,0.00715z"/>
   <path id="_182580840" class="fil3" d="M57.8372 40.4459c-1.00952,-0.465025 -2.08478,-0.65395 -3.16002,-0.850025 1.34392,1.2496 2.73157,2.85505 3.74853,4.57655 2.45547,4.1481 2.1285,9.48035 -0.828025,13.3086 -0.356125,0.4576 -1.23503,1.8744 -1.79437,2.02675 1.67805,-0.443025 3.31265,-1.03867 4.76547,-1.96873 2.2957,-1.4817 3.85028,-3.83543 4.1844,-6.55242 0.5885,-4.78005 -2.81875,-8.6592 -6.91598,-10.5407z"/>
   <path id="_182580576" class="fil2" d="M53.2969 35.2589c-0.00715,0 -0.014575,0 -0.021725,0 0.00715,-0.00715 0.014575,-0.00715 0.021725,0z"/>
   <path id="_182581032" class="fil2" d="M54.8735 59.733c-0.2398,0.0583 -0.48675,0.1089 -0.7337,0.159775 0.24695,-0.0506 0.4939,-0.101475 0.7337,-0.159775z"/>
   <path id="_182581152" class="fil2" d="M53.5802 35.3026c-0.021725,0 -0.0363,-0.007425 -0.058025,-0.014575 0.021725,0.00715 0.0363,0.014575 0.058025,0.014575z"/>
   <path id="_182580648" class="fil2" d="M44.8772 61.3459c0.152625,-0.014575 0.2981,-0.02915 0.45045,-0.043725 -0.15235,0.014575 -0.304975,0.02915 -0.45045,0.043725z"/>
   <path id="_182580888" class="fil2" d="M53.8854 35.3752c-0.02915,-0.00715 -0.06545,-0.014575 -0.094325,-0.021725 0.0363,0.00715 0.065175,0.014575 0.094325,0.021725z"/>
   <path id="_182580528" class="fil2" d="M53.4567 35.2809c-0.0143,0 -0.0363,-0.007425 -0.050875,-0.007425 0.014575,0 0.036575,0 0.050875,0.007425z"/>
   <path id="_182580984" class="fil2" d="M53.7837 35.346c-0.050875,-0.014575 -0.10175,-0.021725 -0.1452,-0.0363 0.04345,0.014575 0.094325,0.02915 0.1452,0.0363z"/>
   <path id="_182526008" class="fil2" d="M45.9453 61.2296c0.159775,-0.014575 0.326975,-0.0363 0.48675,-0.058025 -0.159775,0.021725 -0.319825,0.04345 -0.48675,0.058025z"/>
   <path id="_182525624" class="fil2" d="M49.6576 60.7211c0.196075,-0.02915 0.385,-0.058025 0.57365,-0.0946 -0.18865,0.036575 -0.377575,0.06545 -0.57365,0.0946z"/>
   <path id="_182525432" class="fil2" d="M47.0349 61.099c0.181775,-0.022 0.363275,-0.050875 0.544775,-0.072875 -0.1815,0.02915 -0.363,0.050875 -0.544775,0.072875z"/>
   <path id="_182525936" class="fil2" d="M49.1345 60.8011c-0.2761,0.04345 -0.5522,0.07975 -0.83545,0.123475 0.28325,-0.0363 0.55935,-0.080025 0.83545,-0.123475z"/>
  </g>
  <g id="_182523896">
   <path id="_182526152" class="fil4" d="M24.1153 42.4143c0.043725,-0.065175 0.087175,-0.130625 0.123475,-0.196075 -0.0363,0.06545 -0.07975,0.1309 -0.123475,0.196075 -0.581075,0.806575 -1.32935,0.813725 -2.0922,0.603075 0.76285,0.21065 1.50397,0.2035 2.0922,-0.603075z"/>
   <path id="_182525720" class="fil5" d="M27.3771 19.8146c2.54265,-4.45307 5.2305,-8.90642 9.00818,-12.4006 0.239525,-0.13805 0.48675,-0.268675 0.7337,-0.399575 -3.2835,1.72893 -6.23288,4.08265 -8.79753,6.41465 -2.63697,2.4046 -5.95677,5.49203 -5.86245,9.37118 0,0.06545 3.3418,0.6611 3.78482,0.76285 0.0583,-1.30047 0.435875,-2.62982 1.13327,-3.74853z"/>
   <path id="_182525696" class="fil4" d="M23.2581 39.6322c-0.058025,-0.02915 -0.11605,-0.06545 -0.17435,-0.094325 0.0583,0.028875 0.116325,0.058025 0.17435,0.094325 0.0363,0.021725 0.06545,0.04345 0.10175,0.06545 -0.02915,-0.022 -0.06545,-0.043725 -0.10175,-0.06545z"/>
   <path id="_182525648" class="fil4" d="M27.3119 27.9436c0.4576,0.1089 0.92235,0.021725 1.30763,-0.188925 -0.392425,0.21065 -0.850025,0.297825 -1.30763,0.188925 -1.18415,-0.2761 -2.28113,-0.70455 -3.40725,-1.06067 1.1187,0.356125 2.2231,0.791725 3.40725,1.06067z"/>
   <path id="_182525480" class="fil4" d="M37.6057 6.76747c-0.159775,0.080025 -0.326975,0.159775 -0.48675,0.24695 0.166925,-0.087175 0.326975,-0.166925 0.48675,-0.24695z"/>
   <path id="_182525528" class="fil4" d="M26.658 23.6794c0.334125,0.094325 0.675675,0.203225 1.0098,0.341275 -0.334125,-0.1452 -0.675675,-0.2541 -1.0098,-0.341275z"/>
   <path id="_182524976" class="fil4" d="M39.4727 5.91745l0 0c-0.007425,0 -0.014575,0.007425 -0.02915,0.007425 0.00715,0 0.021725,-0.007425 0.02915,-0.007425z"/>
   <path id="_182524880" class="fil4" d="M39.0222 6.10637c-0.123475,0.050875 -0.24695,0.10175 -0.363275,0.152625 0.123475,-0.050875 0.2398,-0.10175 0.363275,-0.152625z"/>
   <path id="_182524832" class="fil4" d="M38.2885 6.4405c-0.1309,0.06545 -0.26895,0.123475 -0.406725,0.188925 0.137775,-0.06545 0.268675,-0.130625 0.406725,-0.188925z"/>
   <path id="_182525360" class="fil5" d="M22.2703 60.6265c-1.1044,-0.21065 -2.70243,-1.85955 -3.55245,-2.60782 -1.14042,-1.0098 -2.21568,-2.11393 -3.05827,-3.39982 -2.79703,-4.28615 -1.34392,-10.9258 4.07523,-12.328 -1.11128,-0.196075 -2.2737,-0.11605 -3.36353,0.1672 -4.48937,1.1913 -8.73922,5.52833 -7.14092,10.4536 1.00238,3.07285 3.96632,5.12875 7.02487,6.17485 3.13088,1.06068 6.50898,1.73635 9.9088,2.15023 -1.30047,-0.166925 -2.6081,-0.363 -3.89372,-0.610225z"/>
   <path id="_182525216" class="fil4" d="M28.3723 61.462c-0.46475,-0.04345 -0.922625,-0.087175 -1.38738,-0.137775 0.46475,0.0506 0.929775,0.094325 1.38738,0.137775z"/>
   <path id="_182524952" class="fil4" d="M26.1786 61.2296c0.261525,0.02915 0.515625,0.058025 0.77715,0.087175 -0.261525,-0.021725 -0.52305,-0.058025 -0.77715,-0.087175z"/>
   <path id="_182524856" class="fil4" d="M36.3415 61.8035c0.087175,0 0.17435,0 0.26895,0 -0.0946,0 -0.181775,0 -0.26895,0z"/>
   <path id="_182524736" class="fil4" d="M29.629 61.5637c0.290675,0.021725 0.58135,0.043725 0.8646,0.0583 -0.290675,-0.014575 -0.573925,-0.036575 -0.8646,-0.0583z"/>
   <path id="_182525072" class="fil5" d="M16.9744 38.6587c0.326975,-0.0363 0.65395,-0.058025 0.98065,-0.06545 -1.18415,-1.83783 -1.4091,-4.03893 -0.66825,-6.12398 1.07525,-2.7676 3.56675,-5.27395 6.61787,-5.57893 -1.06782,-0.3344 -2.15738,-0.595925 -3.36352,-0.573925 -5.6661,0.11605 -10.2647,8.61575 -5.84045,12.8727 0.0726,0.065175 2.01217,-0.494175 2.2737,-0.530475z"/>
   <path id="_182524808" class="fil4" d="M33.4722 61.7598c0.087175,0 0.1815,0.007425 0.268675,0.007425 -0.094325,0 -0.1815,-0.007425 -0.268675,-0.007425z"/>
   <path id="_182525192" class="fil4" d="M28.6049 61.484c0.21065,0.014575 0.42845,0.0363 0.6391,0.050875 -0.21065,-0.014575 -0.42845,-0.036575 -0.6391,-0.050875z"/>
   <path id="_182524088" class="fil4" d="M31.053 61.6583c0.1452,0.00715 0.297825,0.0143 0.45045,0.021725 -0.152625,-0.007425 -0.30525,-0.014575 -0.45045,-0.021725z"/>
   <path id="_182523920" class="fil4" d="M32.2952 61.7163c0.0946,0 0.188925,0.00715 0.283525,0.014575 -0.0946,-0.007425 -0.188925,-0.007425 -0.283525,-0.014575z"/>
  </g>
  <g id="_182524520">
   <path id="_182524544" class="fil0" d="M30.9513 49.9697c0.45045,0.377575 0.995225,0.66825 1.46025,0.88605 3.0294,1.42395 6.7705,1.4311 9.75618,-0.1089 0.792,-0.406725 1.8018,-0.87175 2.27397,-1.6709 0.544775,-0.929775 0.021725,-2.28085 -1.02438,-2.57153 -0.41415,-0.116325 -0.857175,-0.06545 -1.26417,0.0726 -1.20588,0.399575 -1.97588,1.14785 -3.23262,1.46025 -1.12613,0.2761 -2.32457,0.2541 -3.44327,-0.043725 -1.09698,-0.297825 -2.31743,-1.22045 -3.42182,-1.3948 -0.828025,-0.130625 -1.62718,0.50875 -1.91757,1.25675 -0.2981,0.820875 0.18865,1.5983 0.81345,2.1142z"/>
  </g>
  <g id="_182524352">
   <path id="_182524448" class="fil0" d="M28.7284 37.5837c-0.123475,1.64175 0.98065,3.40698 2.80418,3.26893 1.70692,-0.1309 2.7676,-1.97588 2.43347,-3.56703 -0.443025,-2.12108 -3.18917,-3.08743 -4.63485,-1.29305 -0.363,0.45045 -0.55935,1.01722 -0.6028,1.59115z"/>
  </g>
  <g id="_182524280">
   <path id="_182524376" class="fil0" d="M40.6931 37.5837c-0.123475,1.64175 0.98065,3.40698 2.8039,3.26893 1.7072,-0.1309 2.76788,-1.97588 2.43375,-3.56703 -0.4433,-2.12108 -3.18918,-3.08743 -4.63485,-1.29305 -0.363275,0.45045 -0.55935,1.01722 -0.6028,1.59115z"/>
  </g>
  <path class="fil0" d="M92.3612 32.8361c0.335775,0 0.774675,0.02585 0.929775,0.02585 1.88513,0 2.9436,-0.826375 2.9436,-2.3243 0,-1.39425 -1.21358,-2.42715 -2.84047,-2.42715l-1.0329 0 0 4.7256 0 0zm-8.34075 -11.0523c1.11045,-0.077275 1.93682,-0.128975 2.53082,-0.180675 1.75588,-0.128975 4.44152,-0.232375 5.37103,-0.232375 4.95798,0 7.46268,0.61985 9.42535,2.40158 1.83343,1.60077 2.84047,3.95065 2.84047,6.48147 0,5.55197 -3.97677,8.9089 -10.5355,8.9089 -0.284075,0 -0.774675,0 -1.29112,-0.02585l0 5.2679 -8.34103 -0.000275 0 -22.6207 0 0zm37.4949 7.9277c1.49765,1.39425 2.32403,3.30523 2.453,5.57755 0.335775,5.60368 -3.87337,9.65773 -10.0194,9.65773 -3.07285,0 -5.6034,-0.90365 -7.30785,-2.6081 -1.49765,-1.49765 -2.453,-3.76997 -2.453,-5.88747 0,-5.37103 3.71855,-9.01203 9.50263,-9.3478 2.96972,-0.154825 5.9136,0.800525 7.82457,2.6081zm-9.68385 6.27495c0.1034,1.75588 1.0846,3.02115 2.34987,3.02115 1.42037,0 2.24675,-1.23942 2.03995,-3.1504 -0.180675,-1.6269 -1.11018,-2.71122 -2.32403,-2.71122 -1.26528,-0.000275 -2.16893,1.16188 -2.0658,2.84047zm30.2126 -6.27495c1.49792,1.39425 2.3243,3.30523 2.45327,5.57755 0.335775,5.60368 -3.87338,9.65773 -10.0194,9.65773 -3.07285,0 -5.6034,-0.90365 -7.30785,-2.6081 -1.49765,-1.49765 -2.453,-3.76997 -2.453,-5.88747 0,-5.37103 3.71828,-9.01203 9.50262,-9.3478 2.96973,-0.154825 5.9136,0.800525 7.8243,2.6081zm-9.65745 6.27495c0.1034,1.75588 1.0846,3.02115 2.34987,3.02115 1.4201,0 2.24648,-1.23942 2.03995,-3.1504 -0.180675,-1.6269 -1.11045,-2.71122 -2.32403,-2.71122 -1.26528,-0.000275 -2.1692,1.16188 -2.0658,2.84047zm29.2311 -5.93945c-1.23942,-1.00705 -2.19477,-1.39425 -3.5376,-1.39425 -2.29817,0 -3.97678,1.83343 -3.97678,4.33812 0,2.50498 1.91098,4.46738 4.26085,4.46738 1.49765,0 2.63395,-0.4389 4.0282,-1.49765l3.56373 6.45562c-2.94387,2.03995 -6.01673,2.91803 -9.42535,2.6598 -6.68827,-0.4389 -11.2588,-5.39688 -11.2588,-12.2658 0,-3.07285 1.23943,-6.2491 3.33107,-8.3149 2.19505,-2.19478 5.55197,-3.53788 8.75408,-3.53788 3.4342,0 5.80992,0.77495 8.59897,2.73735l-4.3384 6.35222zm20.9682 -0.3355c1.49765,1.39425 2.32403,3.30523 2.45327,5.57755 0.3355,5.60368 -3.87365,9.65773 -10.0194,9.65773 -3.07285,0 -5.60368,-0.90365 -7.30785,-2.6081 -1.49765,-1.49765 -2.45327,-3.76997 -2.45327,-5.88747 0,-5.37103 3.71855,-9.01203 9.5029,-9.3478 2.96972,-0.154825 5.91332,0.800525 7.8243,2.6081zm-9.65773 6.27495c0.1034,1.75588 1.0846,3.02115 2.34987,3.02115 1.42038,0 2.24648,-1.23942 2.03995,-3.1504 -0.180675,-1.6269 -1.11045,-2.71122 -2.32403,-2.71122 -1.26528,-0.000275 -2.1692,1.16188 -2.0658,2.84047zm21.123 8.41803l-7.8243 0 0 -16.604 7.8243 0 0 16.604zm-0.4389 -20.5549c0,1.80758 -1.23942,2.96973 -3.1504,2.96973 -1.88512,0 -3.1504,-1.21385 -3.1504,-2.96973 0,-1.75587 1.29112,-2.96945 3.1504,-2.96945 1.85928,0 3.1504,1.21358 3.1504,2.96945zm7.79845 3.40863c1.0329,0.645425 1.34283,1.21358 1.60105,2.6598 1.6269,-1.91098 3.4859,-2.81463 5.96502,-2.81463 2.24648,0 4.235,1.11018 5.08695,2.84048 0.4389,0.852225 0.594,1.88512 0.594,3.7444l0 10.7165 -7.8243 -0.000275 0 -8.62483c0,-1.4201 -0.4389,-2.0141 -1.60105,-2.0141 -0.593725,0 -1.18773,0.284075 -1.73003,0.852225l0 9.7867 -7.8243 0 0 -10.329c0,-3.64128 -0.128975,-4.3384 -0.9812,-5.57782l6.71385 -1.23943z"/>
 </g>
</svg>
