<?xml version="1.0" encoding="UTF-8" standalone="no"?>
<!-- Generator: Adobe Illustrator 23.0.1, SVG Export Plug-In . SVG Version: 6.00 Build 0)  -->

<svg
   xmlns:dc="http://purl.org/dc/elements/1.1/"
   xmlns:cc="http://creativecommons.org/ns#"
   xmlns:rdf="http://www.w3.org/1999/02/22-rdf-syntax-ns#"
   xmlns:svg="http://www.w3.org/2000/svg"
   xmlns="http://www.w3.org/2000/svg"
   xmlns:sodipodi="http://sodipodi.sourceforge.net/DTD/sodipodi-0.dtd"
   xmlns:inkscape="http://www.inkscape.org/namespaces/inkscape"
   version="1.1"
   id="Livello_1"
   x="0px"
   y="0px"
   viewBox="0 0 699.99998 699.99998"
   enable-background="new 0 0 240.1 240.1"
   xml:space="preserve"
   sodipodi:docname="telegram-logo.svg"
   width="700"
   height="700"
   inkscape:export-filename="C:\Users\suitedoalex\sites\telegram-logo-0.png"
   inkscape:export-xdpi="561.73712"
   inkscape:export-ydpi="561.73712"
   inkscape:version="0.92.0 r15299"><metadata
     id="metadata15"><rdf:RDF><cc:Work
         rdf:about=""><dc:format>image/svg+xml</dc:format><dc:type
           rdf:resource="http://purl.org/dc/dcmitype/StillImage" /><dc:title></dc:title></cc:Work></rdf:RDF></metadata><defs
     id="defs13" /><sodipodi:namedview
     pagecolor="#ffffff"
     bordercolor="#666666"
     borderopacity="1"
     objecttolerance="10"
     gridtolerance="10"
     guidetolerance="10"
     inkscape:pageopacity="0"
     inkscape:pageshadow="2"
     inkscape:window-width="1920"
     inkscape:window-height="1017"
     id="namedview11"
     showgrid="false"
     inkscape:zoom="0.34751603"
     inkscape:cx="-438.36954"
     inkscape:cy="-17.802703"
     inkscape:window-x="-8"
     inkscape:window-y="-8"
     inkscape:window-maximized="1"
     inkscape:current-layer="Livello_1" /><g
     id="Artboard"
     transform="matrix(2.1261079,0,0,2.1261079,94.654444,94.654444)"
     inkscape:export-filename="C:\Users\suitedoalex\sites\telegram-logo-4.png"
     inkscape:export-xdpi="75.192223"
     inkscape:export-ydpi="75.192223"><linearGradient
       id="Oval_1_"
       gradientUnits="userSpaceOnUse"
       x1="-838.04102"
       y1="660.58099"
       x2="-838.04102"
       y2="660.34271"
       gradientTransform="matrix(1000,0,0,-1000,838161,660581)"><stop
         offset="0"
         style="stop-color:#2AABEE"
         id="stop2" /><stop
         offset="1"
         style="stop-color:#229ED9"
         id="stop4" /></linearGradient><circle
       id="Oval"
       cx="120.1"
       cy="120.1"
       r="120.1"
       style="clip-rule:evenodd;fill:url(#Oval_1_);fill-rule:evenodd" /><path
       id="Path-3"
       d="m 54.3,118.8 c 35,-15.2 58.3,-25.3 70,-30.2 33.3,-13.9 40.3,-16.3 44.8,-16.4 1,0 3.2,0.2 4.7,1.4 1.2,1 1.5,2.3 1.7,3.3 0.2,1 0.4,3.1 0.2,4.7 -1.8,19 -9.6,65.1 -13.6,86.3 -1.7,9 -5,12 -8.2,12.3 -7,0.6 -12.3,-4.6 -19,-9 -10.6,-6.9 -16.5,-11.2 -26.8,-18 -11.9,-7.8 -4.2,-12.1 2.6,-19.1 1.8,-1.8 32.5,-29.8 33.1,-32.3 0.1,-0.3 0.1,-1.5 -0.6,-2.1 -0.7,-0.6 -1.7,-0.4 -2.5,-0.2 -1.1,0.2 -17.9,11.4 -50.6,33.5 -4.8,3.3 -9.1,4.9 -13,4.8 -4.3,-0.1 -12.5,-2.4 -18.7,-4.4 -7.5,-2.4 -13.5,-3.7 -13,-7.9 0.3,-2.2 3.3,-4.4 8.9,-6.7 z"
       inkscape:connector-curvature="0"
       style="clip-rule:evenodd;fill:#ffffff;fill-rule:evenodd" /></g></svg>