<?xml version="1.0" encoding="UTF-8"?>
<!DOCTYPE svg PUBLIC "-//W3C//DTD SVG 1.1//EN" "http://www.w3.org/Graphics/SVG/1.1/DTD/svg11.dtd">
<!-- Creator: CorelDRAW -->
<svg xmlns="http://www.w3.org/2000/svg" xml:space="preserve" width="220px" height="69px" style="shape-rendering:geometricPrecision; text-rendering:geometricPrecision; image-rendering:optimizeQuality; fill-rule:evenodd; clip-rule:evenodd"
viewBox="0 0 220 68.75">
 <defs>
  <style type="text/css">
   <![CDATA[
    .fil1 {fill:#383431}
    .fil0 {fill:url(#id0)}
   ]]>
  </style>
  <linearGradient id="id0" gradientUnits="userSpaceOnUse" x1="55.7056" y1="6.32335" x2="14.4452" y2="58.8363">
   <stop offset="0" style="stop-color:#F8C300"/>
   <stop offset="1" style="stop-color:#FFFB9C"/>
  </linearGradient>
 </defs>
 <g id="Layer_x0020_1">
  <metadata id="CorelCorpID_0Corel-Layer"/>
  <path class="fil0" d="M35.1235 10.0752c12.6035,0 22.9741,9.57275 24.2382,21.8433l0.472725 0.293425 1.55732 0c-1.13355,-13.514 -12.4619,-24.1318 -26.2683,-24.1318 -13.5993,0 -24.7946,10.3007 -26.2113,23.524l2.00832 0c1.40717,-12.119 11.7068,-21.5289 24.203,-21.5289zm-26.3612 24.1249c-0.000825,0.0814 -0.003025,0.162525 -0.003025,0.2442 0,4.2185 0.99385,8.20408 2.75577,11.74 0.525525,-0.384175 1.05407,-0.81125 1.5873,-1.29608 -1.4938,-3.14352 -2.33585,-6.65637 -2.34767,-10.3653l-1.99238 -0.32285zm39.8824 22.8794c6.93852,-4.15497 11.8082,-11.4095 12.6954,-19.8489 -0.6754,0.194425 -1.36593,0.35805 -2.06938,0.495 -1.07608,7.99233 -6.04368,14.7306 -12.9027,18.3414 -1.14015,0.60005 -0.638,1.00897 0.203775,1.0098l2.07295 0.00275zm-27.5261 -0.29755c0.4598,0.26455 0.97075,-0.126775 0.7238,-0.535425l-1.44182 -2.3859c-1.82435,-1.38573 -3.4485,-3.02197 -4.81883,-4.85815 -0.66935,0.13695 -1.34557,0.33275 -2.02867,0.598675 2.0174,2.86605 4.521,5.43015 7.56552,7.1808z"/>
  <path class="fil1" d="M213.671 43.2652l-3.19055 0 0 -12.782 2.96203 0 0 1.81583c0.50765,-0.858825 0.965525,-1.4256 1.3684,-1.69675 0.407,-0.271425 0.864325,-0.411125 1.38023,-0.411125 0.72875,0 1.42642,0.213675 2.101,0.6413l-0.98835 2.9458c-0.53515,-0.36575 -1.03537,-0.55055 -1.49655,-0.55055 -0.449625,0 -0.825825,0.127325 -1.13575,0.390225 -0.314325,0.258775 -0.554675,0.731225 -0.732875,1.41322 -0.1782,0.682275 -0.267575,2.112 -0.267575,4.28533l0 3.94873zm-8.82722 -7.48605c-0.023375,-0.982025 -0.259875,-1.72563 -0.713625,-2.2352 -0.453475,-0.509575 -1.00787,-0.764225 -1.65908,-0.764225 -0.69795,0 -1.27187,0.27115 -1.72535,0.809325 -0.453475,0.534325 -0.6787,1.26555 -0.670725,2.1901l4.76878 0zm-0.1826 3.41853l3.18285 0.56265c-0.41085,1.23667 -1.05435,2.17773 -1.9382,2.82287 -0.88,0.649 -1.98495,0.96965 -3.311,0.96965 -2.09743,0 -3.64787,-0.72325 -4.65602,-2.17773 -0.794475,-1.1627 -1.19405,-2.63367 -1.19405,-4.40467 0,-2.11997 0.523325,-3.77987 1.57025,-4.9797 1.0428,-1.19982 2.36472,-1.7996 3.9622,-1.7996 1.79465,0 3.2098,0.62865 4.24875,1.88623 1.03538,1.25702 1.53148,3.1801 1.48885,5.77252l-7.99782 0c0.0231,1.00265 0.279125,1.7831 0.771375,2.33805 0.49225,0.558525 1.1088,0.837925 1.84113,0.837925 0.5005,0 0.91905,-0.143825 1.26032,-0.431475 0.341275,-0.2915 0.600875,-0.755975 0.771375,-1.39672zm-16.1276 -8.71448l1.77182 0 0 -0.965525c0,-1.0725 0.108625,-1.87798 0.3256,-2.4079 0.216975,-0.529925 0.6127,-0.9614 1.18993,-1.29443 0.5819,-0.332475 1.31477,-0.496925 2.19835,-0.496925 0.911075,0 1.79877,0.143825 2.67107,0.4312l-0.4301 2.3628c-0.5082,-0.131725 -0.996325,-0.193325 -1.4652,-0.193325 -0.465575,0 -0.795025,0.1111 -0.9966,0.341 -0.201575,0.230175 -0.29865,0.6699 -0.29865,1.3189l0 0.9042 2.38425 0 0 2.65815 -2.38425 0 0 10.1238 -3.1944 0 0 -10.1238 -1.77182 0 0 -2.65815zm-7.74565 0l1.77128 0 0 -0.965525c0,-1.0725 0.108625,-1.87798 0.325875,-2.4079 0.216975,-0.529925 0.612425,-0.9614 1.18993,-1.29443 0.5819,-0.332475 1.3145,-0.496925 2.19835,-0.496925 0.911075,0 1.79877,0.143825 2.67107,0.4312l-0.4301 2.3628c-0.5082,-0.131725 -0.996325,-0.193325 -1.46548,-0.193325 -0.4653,0 -0.795025,0.1111 -0.9966,0.341 -0.2013,0.230175 -0.298375,0.6699 -0.298375,1.3189l0 0.9042 2.38425 0 0 2.65815 -2.38425 0 0 10.1238 -3.19468 0 0 -10.1238 -1.77128 0 0 -2.65815zm-5.06358 12.782l0 -12.782 3.19083 0 0 12.782 -3.19083 0zm0 -14.5162l0 -3.1306 3.19083 0 0 3.1306 -3.19083 0zm-3.23702 14.5162l-3.19055 0 0 -6.52465c0,-1.3805 -0.06985,-2.27205 -0.205425,-2.67905 -0.13585,-0.402325 -0.360525,-0.71885 -0.666875,-0.9449 -0.30635,-0.221925 -0.67485,-0.336875 -1.10495,-0.336875 -0.554125,0 -1.05022,0.160325 -1.48857,0.4807 -0.438075,0.3245 -0.740575,0.748 -0.903375,1.27793 -0.1628,0.529925 -0.2442,1.50782 -0.2442,2.93755l0 5.7893 -3.19082 0 0 -12.782 2.96203 0 0 1.87742c1.05462,-1.44622 2.3804,-2.16947 3.9776,-2.16947 0.702075,0 1.34915,0.13585 1.93077,0.402875 0.58135,0.27115 1.02355,0.611875 1.32165,1.03125 0.298925,0.4191 0.5082,0.89155 0.6248,1.42175 0.1199,0.529925 0.177925,1.2859 0.177925,2.27205l0 7.94613zm-27.316 -5.74007l3.27195 -0.340725c0.19415,1.16655 0.59345,2.02125 1.19817,2.56768 0.600875,0.542575 1.41102,0.81785 2.43485,0.81785 1.0813,0 1.89942,-0.242275 2.44585,-0.7315 0.55055,-0.484825 0.825825,-1.05188 0.825825,-1.70088 0,-0.4191 -0.11605,-0.772475 -0.348975,-1.06425 -0.228525,-0.295625 -0.63195,-0.55055 -1.20945,-0.764225 -0.3916,-0.14795 -1.29085,-0.4026 -2.6906,-0.772475 -1.80263,-0.47245 -3.06625,-1.056 -3.79143,-1.74625 -1.02355,-0.96965 -1.53505,-2.1527 -1.53505,-3.5497 0,-0.900075 0.24035,-1.738 0.720775,-2.52285 0.4807,-0.78045 1.1748,-1.3761 2.07818,-1.78723 0.90695,-0.406725 1.9965,-0.61215 3.2758,-0.61215 2.09357,0 3.66382,0.484825 4.72202,1.45448 1.05435,0.973775 1.60875,2.26792 1.6632,3.89098l-3.36105 0.155925c-0.14355,-0.907775 -0.45375,-1.56118 -0.926475,-1.95553 -0.473275,-0.39875 -1.1825,-0.595925 -2.1285,-0.595925 -0.977075,0 -1.7446,0.20955 -2.29515,0.6369 -0.356675,0.271425 -0.53515,0.6369 -0.53515,1.09313 0,0.4191 0.16665,0.776325 0.500225,1.07222 0.4224,0.378125 1.45392,0.772475 3.0899,1.1792 1.6357,0.41085 2.8457,0.834075 3.62862,1.2694 0.7832,0.439725 1.3959,1.03538 1.84168,1.79548 0.44165,0.7601 0.663025,1.69702 0.663025,2.8105 0,1.01063 -0.263725,1.95992 -0.795025,2.8391 -0.531025,0.883575 -1.2793,1.54082 -2.2484,1.9679 -0.969375,0.43175 -2.17882,0.64515 -3.62505,0.64515 -2.10513,0 -3.72185,-0.513425 -4.8499,-1.54495 -1.12805,-1.03125 -1.8029,-2.53468 -2.01988,-4.50725zm-7.2545 5.74007l-3.19055 0 0 -6.52465c0,-1.3805 -0.06985,-2.27205 -0.205425,-2.67905 -0.13585,-0.402325 -0.360525,-0.71885 -0.666875,-0.9449 -0.30635,-0.221925 -0.67485,-0.336875 -1.10495,-0.336875 -0.554125,0 -1.05023,0.160325 -1.48857,0.4807 -0.438075,0.3245 -0.740575,0.748 -0.903375,1.27793 -0.1628,0.529925 -0.2442,1.50782 -0.2442,2.93755l0 5.7893 -3.19083 0 0 -12.782 2.96203 0 0 1.87742c1.05462,-1.44622 2.3804,-2.16947 3.9776,-2.16947 0.702075,0 1.34915,0.13585 1.93078,0.402875 0.58135,0.27115 1.02355,0.611875 1.32165,1.03125 0.298925,0.4191 0.5082,0.89155 0.624525,1.42175 0.120175,0.529925 0.1782,1.2859 0.1782,2.27205l0 7.94613zm-16.7437 -7.48605c-0.023375,-0.982025 -0.259875,-1.72563 -0.713625,-2.2352 -0.45375,-0.509575 -1.00787,-0.764225 -1.65935,-0.764225 -0.697675,0 -1.2716,0.27115 -1.72508,0.809325 -0.45375,0.534325 -0.678425,1.26555 -0.670725,2.1901l4.76877 0zm-0.182325 3.41853l3.18285 0.56265c-0.411125,1.23667 -1.05463,2.17773 -1.93848,2.82287 -0.880275,0.649 -1.98495,0.96965 -3.31072,0.96965 -2.0977,0 -3.64815,-0.72325 -4.6563,-2.17773 -0.794475,-1.1627 -1.19405,-2.63367 -1.19405,-4.40467 0,-2.11997 0.523325,-3.77987 1.57025,-4.9797 1.0428,-1.19982 2.36473,-1.7996 3.9622,-1.7996 1.79465,0 3.2098,0.62865 4.24903,1.88623 1.0351,1.25702 1.5312,3.1801 1.48857,5.77252l-7.99782 0c0.023375,1.00265 0.279125,1.7831 0.7711,2.33805 0.492525,0.558525 1.10908,0.837925 1.84168,0.837925 0.49995,0 0.918775,-0.143825 1.25977,-0.431475 0.34155,-0.2915 0.601425,-0.755975 0.771925,-1.39672zm-20.036 4.06752l0 -17.6468 3.19495 0 0 9.36375 3.7334 -4.499 3.93112 0 -4.12087 4.6673 4.41513 8.1147 -3.43832 0 -3.03573 -5.74007 -1.48472 1.6478 0 4.09228 -3.19495 0zm-11.5602 -6.3932c0,1.2694 0.282975,2.23905 0.8525,2.91307 0.566225,0.67375 1.26802,1.01062 2.10155,1.01062 0.83325,0 1.53148,-0.336875 2.0933,-1.01062 0.56595,-0.674025 0.848925,-1.65165 0.848925,-2.93755 0,-1.24905 -0.282975,-2.21457 -0.848925,-2.8886 -0.561825,-0.67375 -1.26005,-1.01062 -2.0933,-1.01062 -0.833525,0 -1.53533,0.336875 -2.10155,1.01062 -0.569525,0.674025 -0.8525,1.64753 -0.8525,2.91307zm-3.27223 -0.18095c0,-1.12145 0.263725,-2.21045 0.7832,-3.26205 0.523325,-1.04775 1.2639,-1.85323 2.22145,-2.40378 0.95755,-0.554675 2.02785,-0.834075 3.21008,-0.834075 1.82215,0 3.3187,0.62865 4.48552,1.88623 1.16683,1.25702 1.74845,2.84295 1.74845,4.7619 0,1.93105 -0.589325,3.53348 -1.76412,4.807 -1.17865,1.2738 -2.65953,1.90657 -4.44648,1.90657 -1.10908,0 -2.15958,-0.263175 -3.1636,-0.7931 -1.00402,-0.529925 -1.76797,-1.30652 -2.2913,-2.32952 -0.519475,-1.02327 -0.7832,-2.2682 -0.7832,-3.73918zm-7.97418 6.57415l0 -14.66 -4.93927 0 0 -2.98678 13.2316 0 0 2.98678 -4.92745 0 0 14.66 -3.3649 0zm-30.1012 -0.8646c1.46823,0.037675 2.96422,-0.20405 4.38185,0 0.779625,0.1122 0.840675,1.12558 0.4345,2.08148 -0.1056,0.248875 -0.299475,0.4554 -0.4015,0.705375 -0.170225,0.418 0.5313,1.1946 0.836,0.939675 1.04747,-0.875325 1.75422,-2.14142 1.87275,-3.79362 0.104775,-1.45063 -0.786225,-2.46482 -2.80885,-2.34987 -2.0031,0.11385 -3.30633,1.18057 -4.31475,2.41697zm-45.6437 -10.3691c15.8579,0 31.718,0.2266 47.5747,0 2.26407,-0.03245 3.29863,-2.1395 4.6739,-3.619 0.181225,-0.1947 0.46365,0.02695 0.452375,0.301675 -0.03575,0.853875 -0.050325,1.8865 -0.075625,2.74065 0.383075,0.330825 0.6094,0.582175 0.6787,0.7546 2.27975,-0.055825 4.0084,-0.15125 3.7697,0.42515l5.0127 0c0.76285,0 0.385,1.21715 -0.528275,2.41258 -1.01723,1.33237 -2.52945,2.08863 -7.32958,2.62653 -0.541475,0.0605 -1.2111,0.15565 -1.83232,0.21835 -8.9463,0.905575 -14.9674,9.31287 -17.4083,16.8932 2.5663,-0.2695 2.4992,0.956175 2.7093,1.99183 -1.18635,0 -2.37297,0 -3.55933,0 -0.66275,0 -0.480425,-0.3146 -0.57585,-0.9361 -0.361075,-2.3485 -0.807675,-4.70443 -0.991375,-7.0719 -0.068475,-0.8822 0.20075,-1.7589 0.301675,-2.6389 0.301125,-0.87945 0.90805,-2.321 0.745525,-3.2362 -0.1551,-0.877525 -0.694375,-1.30625 -1.57492,-1.43825 -3.7752,-0.56485 -8.29923,-0.085525 -12.1388,2.71425 -1.2683,0.924825 -1.9272,2.4882 -3.0162,3.619 -0.232925,0.24255 -0.567325,0.439725 -0.904475,0.4521 -4.52678,0.16995 -7.76022,1.79685 -9.801,4.82542 -0.399575,0.5929 -0.243925,1.63708 0.360525,1.82573 1.11402,0.3476 1.66678,1.03482 1.9602,1.88485 -1.80978,0 -3.61955,0 -5.42878,0 -0.533775,-0.5511 -1.01557,-1.16133 -0.82885,-1.88485 0.0924,-0.35915 0.51865,-1.04665 0.69465,-1.37308 1.18113,-1.63378 2.42468,-3.2241 3.54338,-4.90078 0.415525,-0.6226 0.794475,-0.84315 1.20642,-1.05573 2.67822,-1.38105 4.84,-3.76887 6.93632,-6.33297 1.84085,-2.25198 3.71965,-4.47342 5.57948,-6.71028 -2.57757,0 -5.14442,0 -7.74977,0 -2.1857,0 -3.81947,-0.398475 -5.94412,-0.7359 -0.776325,-0.122925 -1.65028,-0.220825 -2.67163,-0.2926 -3.45455,-0.242275 -3.50487,-0.93335 -3.84037,-1.45943zm21.1689 15.5499c2.06388,-1.73415 4.50285,-2.84405 7.4822,-3.05607 -0.096525,4.1107 -4.17148,8.09188 -8.1961,8.02505 0.140525,0.6567 0.4257,1.35052 1.71353,2.3133 1.74515,0.048675 2.35867,0.872025 2.65568,1.91345 -1.52323,0 -3.04645,0 -4.56912,0 -0.942425,-1.5422 -1.88513,-3.0844 -2.82755,-4.62633 3.1548,-0.8261 3.71717,-2.59985 3.74137,-4.5694z"/>
 </g>
</svg>
