<?xml version="1.0" encoding="UTF-8"?>
<!DOCTYPE svg PUBLIC "-//W3C//DTD SVG 1.1//EN" "http://www.w3.org/Graphics/SVG/1.1/DTD/svg11.dtd">
<!-- Creator: CorelDRAW -->
<svg xmlns="http://www.w3.org/2000/svg" xml:space="preserve" width="200px" height="62px" style="shape-rendering:geometricPrecision; text-rendering:geometricPrecision; image-rendering:optimizeQuality; fill-rule:evenodd; clip-rule:evenodd"
viewBox="0 0 200 62.5">
 <defs>
  <style type="text/css">
   <![CDATA[
    .fil1 {fill:#838281}
    .fil0 {fill:#AAA9A9}
   ]]>
  </style>
 </defs>
 <g id="Layer_x0020_1">
  <metadata id="CorelCorpID_0Corel-Layer"/>
  <g id="_182627816">
   <path id="_182627912" class="fil0" d="M164.789 13.8732l0 0 19.6783 18.8053 0 -18.8053 6.73525 0 0 35.529 -19.678 -18.993 0 18.993 -6.7355 0 0 -35.529zm-18.842 0l5.535 0 10.1093 0 0 6.23 -10.1093 0 0 7.072 9.604 0 0 6.23025 -9.604 0 0 9.76625 10.1093 0 0 6.23025 -10.1093 0 0 0.00025 -6.7355 0 0 -35.529 1.2005 0zm-31.993 0l6.73525 0 0 11.7598 12.0392 -11.7598 8.6935 0 -16.1362 15.537 16.7947 19.992 -8.42975 0 -12.9615 -15.4287 0 15.4287 -6.73525 0 0 -35.529zm-62.9913 0l25.7628 0 0 6.23 -9.91925 0 0 29.299 -6.73525 0 0 -29.299 -9.10825 0 0 -6.23zm42.7115 5.22325c6.58275,0 11.9205,5.338 11.9205,11.9202 0,6.58275 -5.33775,11.9205 -11.9205,11.9205 -6.58225,0 -11.9202,-5.33775 -11.9202,-11.9205 0,-6.58225 5.338,-11.9202 11.9202,-11.9202zm0 -6.46475c10.1528,0 18.3855,8.23325 18.3855,18.385 0,10.1528 -8.23275,18.3855 -18.3855,18.3855 -10.152,0 -18.385,-8.23275 -18.385,-18.3855 0,-10.1517 8.233,-18.385 18.385,-18.385z"/>
   <path id="_182628344" class="fil1" d="M8.7975 34.5887l7.21075 -4.96975 0 20.0733 -3.89775 0 0 -14.1295 -2.14375 1.5595 -1.16925 -2.5335zm15.7857 -2.02575l0 0c1.6615,0 3.02075,1.344 3.02075,2.987l0 8.4795c0,1.643 -1.35925,2.98725 -3.02075,2.98725l0 0c-1.6615,0 -3.02075,-1.34425 -3.02075,-2.98725l0 -8.4795c0,-1.643 1.35925,-2.987 3.02075,-2.987zm-0.71925 -3.00925l1.2765 0c3.235,0 5.76775,2.37025 5.7905,6.326l0.04575 7.8655c0.023,3.95575 -2.60125,6.50875 -5.83625,6.50875l-1.2765 0c-3.235,0 -5.83175,-2.918 -5.882,-6.8735l-0.09125 -7.1815c-0.05,-3.9555 2.738,-6.64525 5.97325,-6.64525zm15.2382 3.00925l0 0c1.66125,0 3.0205,1.344 3.0205,2.987l0 8.4795c0,1.643 -1.35925,2.98725 -3.0205,2.98725l0 0c-1.6615,0 -3.02075,-1.34425 -3.02075,-2.98725l0 -8.4795c0,-1.643 1.35925,-2.987 3.02075,-2.987zm-0.7195 -3.00925l1.27675 0c3.235,0 5.7675,2.37025 5.7905,6.326l0.04575 7.8655c0.02275,3.95575 -2.6015,6.50875 -5.83625,6.50875l-1.27675 0c-3.235,0 -5.8315,-2.918 -5.88175,-6.8735l-0.09125 -7.1815c-0.05025,-3.9555 2.738,-6.64525 5.973,-6.64525z"/>
   <path id="_182628440" class="fil0" d="M27.4737 14.9808c2.98375,0 5.40375,2.42 5.40375,5.404 0,2.984 -2.42,5.404 -5.40375,5.404 -2.984,0 -5.404,-2.42 -5.404,-5.404 0,-2.984 2.42,-5.404 5.404,-5.404zm0 -2.7345c4.6135,0 8.3555,3.62525 8.3555,8.09525 0,4.46975 -3.742,8.095 -8.3555,8.095 -4.61375,0 -8.3555,-3.62525 -8.3555,-8.095 0,-4.47 3.74175,-8.09525 8.3555,-8.09525zm-15.3005 15.7128l2.64775 0 0 -12.8045 3.0385 0 0 -2.474 -8.85475 0 0 2.474 3.1685 0 0 12.8045zm32.6673 -14.008c0.83525,0.72875 1.202,1.699 1.319,2.76225 -0.0145,0.87725 0.003,1.75575 -0.04325,2.632 -0.084,1.58375 -1.163,2.9265 -3.418,3.667 -0.89325,0.2935 -1.8205,0.32675 -2.789,0.26425l0 4.6825 -2.82125 0 0 -15.322c2.454,0 5.719,-0.46025 7.7525,1.314zm-4.94275 6.62925c0,-1.82325 0,-3.64625 0,-5.46925l0.60725 -0.00075c1.296,-0.00125 2.778,0.9135 3.0105,2.47775 0.0685,0.46075 0.038,0.88775 -0.05825,1.25 -0.09625,0.36225 -0.25825,0.65975 -0.45275,0.8615 -0.389,0.40325 -0.73475,0.54575 -1.28425,0.691 -0.5065,0.1335 -1.11525,0.196 -1.8225,0.18975z"/>
  </g>
 </g>
</svg>
