<?xml version="1.0" encoding="UTF-8"?>
<!DOCTYPE svg PUBLIC "-//W3C//DTD SVG 1.1//EN" "http://www.w3.org/Graphics/SVG/1.1/DTD/svg11.dtd">
<!-- Creator: CorelDRAW -->
<svg xmlns="http://www.w3.org/2000/svg" xml:space="preserve" width="150px" height="32px" shape-rendering="geometricPrecision" text-rendering="geometricPrecision" image-rendering="optimizeQuality" fill-rule="evenodd" clip-rule="evenodd"
viewBox="0 0 150 32.4655">
 <g id="Layer_x0020_1">
  <metadata id="CorelCorpID_0Corel-Layer"/>
  <g id="_351676224">
   <g>
    <polygon id="_351675600" fill="#A9A9C8" points="0.86597,7.92429 7.8828,0.907724 40.2527,0.907724 40.2527,8.82742e-005 7.50649,8.82742e-005 -0.000176548,7.50684 -0.000176548,24.9586 7.50649,32.4653 40.2527,32.4653 40.2527,31.5578 7.8828,31.5578 0.86597,24.5412 "/>
    <path id="_351675504" fill="#A9A9C8" d="M11.6827 3.81883l21.0688 -0.00141239 0.00114757 16.4662 -21.0693 0.00141239 -0.000529645 -16.4662 -8.82742e-005 0zm-1.03678 19.3832l23.0786 -0.00114757 0.000529645 5.44573 -23.0786 0.000794468 -0.000529645 -5.44546 0 8.82742e-005zm16.7258 1.94406l5.25108 -0.000264823 0 0.972606 -5.25108 0.000264823 0 -0.972606zm4.34345 -3.95442l-19.0595 0.000794468 0 1.10193 19.0595 -0.000794468 0 -1.10193zm-21.0051 -18.2804l23.0136 -0.00114757 0.00114757 18.2812 -1.16725 0 0.000264823 1.10193 2.13924 0 0 7.26064 -25.0228 0.00141239 -0.000264823 -7.26064 2.13924 -0.000264823 0 -1.10193 -1.10228 0.000264823 -0.000794468 -18.2815 -8.82742e-005 8.82742e-005z"/>
   </g>
   <polygon id="_351672696" fill="#A9A9C8" fill-rule="nonzero" points="66.2659,11.3459 61.2611,11.3459 61.2611,24.2674 57.1301,24.2674 57.1301,11.3459 52.129,11.3459 52.129,8.25046 66.2659,8.25046 "/>
   <polygon id="_351672696" fill="#A9A9C8" fill-rule="nonzero" points="73.9878,19.9969 76.7418,12.1868 80.7221,12.1868 74.0099,28.6994 69.8165,28.6994 71.7296,24.1829 67.0296,12.1868 71.0944,12.1868 "/>
   <path id="_351672696" fill="#A9A9C8" fill-rule="nonzero" d="M95.4832 18.0619c0,0.995027 -0.154215,1.90205 -0.458938,2.72088 -0.304811,0.815124 -0.705046,1.49078 -1.20079,2.02325 -0.514021,0.55807 -1.09787,0.980374 -1.75145,1.26674 -0.653582,0.28645 -1.3513,0.429631 -2.09669,0.429631 -0.690305,0 -1.27415,-0.0734442 -1.75516,-0.220332 -0.481006,-0.1468 -0.973047,-0.352479 -1.47241,-0.61686l0 5.03419 -3.87391 0 0 -16.5126 3.87391 0 0 1.2595c0.594792,-0.47368 1.20071,-0.859261 1.82127,-1.15304 0.62048,-0.293688 1.33656,-0.440577 2.14807,-0.440577 1.50543,0 2.67683,0.55445 3.51031,1.65602 0.837193,1.10519 1.25579,2.62174 1.25579,4.55319zm-3.99132 0.0734442c0,-1.17502 -0.201971,-2.03057 -0.602207,-2.55934 -0.403943,-0.53247 -1.03916,-0.796852 -1.90575,-0.796852 -0.363513,0 -0.741768,0.0550831 -1.12726,0.165249 -0.389201,0.113874 -0.760129,0.271708 -1.1089,0.481006l0 6.07706c0.256966,0.099132 0.532382,0.165249 0.826159,0.194556 0.293777,0.0293953 0.587465,0.0440488 0.873915,0.0440488 1.02442,0 1.78817,-0.301015 2.29125,-0.899603 0.499367,-0.598499 0.752803,-1.50181 0.752803,-2.70614z"/>
   <path id="_351672696" fill="#A9A9C8" fill-rule="nonzero" d="M110.626 18.2307c0,1.98652 -0.576519,3.55445 -1.7368,4.69637 -1.15666,1.14562 -2.78338,1.71843 -4.87636,1.71843 -2.09669,0 -3.72332,-0.572812 -4.87998,-1.71843 -1.15666,-1.14192 -1.7368,-2.70984 -1.7368,-4.69637 0,-1.99756 0.583846,-3.5691 1.74783,-4.71102 1.16398,-1.1383 2.78699,-1.71111 4.86894,-1.71111 2.10772,0 3.73806,0.576431 4.8873,1.72205 1.15304,1.14933 1.72585,2.71355 1.72585,4.70007zm-4.76619 2.9375c0.253347,-0.30843 0.440665,-0.67927 0.565485,-1.11252 0.12482,-0.433338 0.190937,-1.03555 0.190937,-1.80291 0,-0.708666 -0.0661174,-1.30355 -0.194556,-1.78455 -0.128527,-0.481006 -0.308518,-0.862969 -0.539797,-1.15304 -0.227659,-0.293688 -0.503075,-0.499367 -0.826159,-0.620568 -0.323172,-0.12482 -0.672032,-0.183522 -1.04287,-0.183522 -0.374548,0 -0.704958,0.0476681 -0.995115,0.150508 -0.293688,0.099132 -0.569104,0.301103 -0.833485,0.602207 -0.238694,0.279035 -0.425923,0.664617 -0.565485,1.14933 -0.139562,0.488333 -0.209298,1.10157 -0.209298,1.83964 0,0.660909 0.0587906,1.23372 0.179903,1.71843 0.124908,0.481006 0.301103,0.870207 0.539797,1.16398 0.227659,0.282742 0.503075,0.484714 0.822539,0.613241 0.319464,0.132147 0.682978,0.194556 1.09054,0.194556 0.352479,0 0.686597,-0.0587024 1.00606,-0.176195 0.319464,-0.117493 0.591173,-0.319464 0.811505,-0.598588z"/>
   <polygon id="_351672696" fill="#A9A9C8" fill-rule="nonzero" points="132.628,11.3459 125.259,11.3459 125.259,14.3275 132.089,14.3275 132.089,17.4266 125.259,17.4266 125.259,24.2674 121.15,24.2674 121.15,8.25046 132.628,8.25046 "/>
   <polygon id="_351672696" fill="#A9A9C8" fill-rule="nonzero" points="150,24.2674 145.223,24.2674 141.771,18.9945 138.254,24.2674 133.69,24.2674 139.37,16.2002 133.811,8.25046 138.573,8.25046 141.911,13.2406 145.341,8.25046 149.912,8.25046 144.32,16.0386 "/>
  </g>
 </g>
</svg>
