<?xml version="1.0" encoding="UTF-8"?>
<!DOCTYPE svg PUBLIC "-//W3C//DTD SVG 1.1//EN" "http://www.w3.org/Graphics/SVG/1.1/DTD/svg11.dtd">
<!-- Creator: CorelDRAW -->
<svg xmlns="http://www.w3.org/2000/svg" xml:space="preserve" width="190px" height="139px" style="shape-rendering:geometricPrecision; text-rendering:geometricPrecision; image-rendering:optimizeQuality; fill-rule:evenodd; clip-rule:evenodd"
viewBox="0 0 190 139.005">
 <defs>
  <style type="text/css">
   <![CDATA[
    .fil0 {fill:#BAB3D6}
   ]]>
  </style>
 </defs>
 <g id="Layer_x0020_1">
  <metadata id="CorelCorpID_0Corel-Layer"/>
  <polygon class="fil0" points="3.71572,33.928 33.7599,3.88499 172.359,3.88499 172.359,-0.00118373 32.1488,-0.00118373 0.00710236,32.1406 0.00710236,106.864 32.1488,139.006 172.359,139.006 172.359,135.12 33.7599,135.12 3.71572,105.077 "/>
  <path class="fil0" d="M50.0302 16.3496l90.2106 -0.00591863 0.00473491 70.504 -90.213 0.00591863 -0.00236745 -70.504zm-4.43898 82.9935l98.8163 -0.00473491 0.00236745 23.3171 -98.8163 0.00355118 -0.00236745 -23.3159zm71.6155 8.32397l22.4837 -0.00118373 0 4.16435 -22.4837 0.00118373 0 -4.16435zm18.5975 -16.932l-81.6073 0.00355118 0 4.71834 81.6073 -0.00355118 0 -4.71834zm-89.9384 -78.2716l98.5382 -0.00473491 0.00473491 78.2751 -4.99769 0 0.00118373 4.71834 9.15968 0 0 31.0882 -107.141 0.00591863 -0.00118373 -31.0882 9.15968 -0.00118373 0 -4.71834 -4.71952 0.00118373 -0.00355118 -78.2763z"/>
 </g>
</svg>
