<svg width="32" height="32" viewBox="0 0 32 32" fill="none" xmlns="http://www.w3.org/2000/svg">
<path fill-rule="evenodd" clip-rule="evenodd" d="M24.0823 23.9414L15.9514 32.0002L11.9219 28.0065C16.2672 27.7436 20.4639 26.3407 24.0823 23.9414Z" fill="#EBF1FF"/>
<path d="M31.6893 15.7519L30.6909 14.751L15.9754 0L1.25997 14.751L0 16.014L0.451686 16.4191C0.974691 16.8481 1.4977 17.2532 2.04447 17.6345C6.03833 20.4376 10.7803 21.973 15.6554 22.0409C20.5306 22.1088 25.3134 20.7064 29.3834 18.0157C29.9539 17.6345 30.5245 17.2055 31.0712 16.7766C31.618 16.3476 31.6656 16.2761 31.9508 16.014L31.6893 15.7519ZM19.8504 19.4456C15.4603 16.7439 10.4052 15.3246 5.25382 15.3467C11.9816 12.4156 20.207 12.0105 27.7668 16.3714C25.3515 17.9002 22.6628 18.9444 19.8504 19.4456Z" fill="#EBF1FF"/>
</svg>
