<svg width="34" height="24" viewBox="0 0 34 24" fill="none" xmlns="http://www.w3.org/2000/svg">
<path d="M30.7179 21.2846C27.1035 20.6773 26.3334 15.4517 25.5366 12.5372C27.9423 8.74406 30.3862 4.93184 32.7805 1.07761C32.2201 0.894255 27.6868 0.848408 26.6041 0.997383L23.5159 5.87152C23.1346 5.10755 22.841 4.34358 22.4255 3.68657C21.9062 2.78272 21.2013 1.99967 20.3574 1.38923C19.5134 0.778789 18.5498 0.354884 17.5301 0.145562C16.1492 -0.0899462 14.7348 -0.0392498 13.3743 0.29453C10.892 0.824834 8.58138 1.96854 6.65269 3.62162C4.36448 5.46996 2.51412 7.80397 1.23499 10.4554C0.266656 12.3859 -0.145276 14.5487 0.0454581 16.7008C0.590661 21.999 5.79867 24.4513 10.6636 23.9318C13.8784 23.5419 16.9033 22.1969 19.3487 20.0699C19.8748 19.6154 20.3171 19.2563 20.8279 18.7903L18.9979 12.8237C17.7502 14.698 16.3059 16.4332 14.6897 17.9996C13.683 18.9731 12.5399 19.7941 11.2964 20.4366C10.3257 20.9365 9.22242 21.1169 8.14343 20.9523C7.61482 20.8732 7.11775 20.6511 6.70589 20.3098C6.29403 19.9685 5.983 19.521 5.8063 19.0157C5.4763 18.259 5.31867 17.4382 5.34495 16.613C5.36753 14.4217 5.90431 12.2666 6.91192 10.3217C7.60108 8.872 8.43933 7.49833 9.41302 6.22296C10.0504 5.36957 10.792 4.5996 11.6205 3.93104C12.5618 3.14075 13.7476 2.70201 14.9756 2.68959C15.3704 2.68966 15.7613 2.768 16.1258 2.9201C16.4903 3.07219 16.8211 3.29503 17.0992 3.57579C17.7322 4.22637 18.2139 5.00898 18.5099 5.8677C19.1885 7.57518 19.5813 9.45455 20.1074 11.2155C20.664 13.1 21.2219 14.9832 21.7811 16.8651C22.1058 18.1145 22.562 19.3258 23.1422 20.4787C23.5483 21.2519 24.1051 21.9356 24.7796 22.4894C25.4541 23.0431 26.2327 23.4557 27.0692 23.7026C28.17 23.9876 29.3256 23.9819 30.4235 23.686C31.5214 23.3901 32.5239 22.8141 33.3333 22.0142C33.4908 21.8224 33.6759 21.6551 33.8824 21.5177V21.2464C32.833 21.3993 31.7672 21.3993 30.7179 21.2464" fill="#10D876"/>
</svg>
