<svg xmlns="http://www.w3.org/2000/svg" xmlns:xlink="http://www.w3.org/1999/xlink" viewBox="0 0 298.66 299"><defs><style>.cls-1{opacity:0;}.cls-2{fill:#090909;}.cls-15,.cls-3{fill:#fff;}.cls-3{stroke:#fff;stroke-miterlimit:10;stroke-width:12.55px;}.cls-4{fill:#8e552b;}.cls-5{fill:#ce8249;}.cls-6{fill:url(#linear-gradient);}.cls-7{fill:#5b361d;}.cls-8{fill:url(#linear-gradient-2);}.cls-9{fill:#b67744;}.cls-10,.cls-12,.cls-18{fill:#6d4122;}.cls-10{opacity:0.39;}.cls-11{fill:url(#linear-gradient-3);}.cls-13{fill:#d87500;}.cls-14{fill:#fec500;}.cls-16{opacity:0.42;}.cls-17{fill:url(#linear-gradient-4);}.cls-18{opacity:0.2;}</style><linearGradient id="linear-gradient" x1="236.27" y1="206.38" x2="245.5" y2="255.53" gradientUnits="userSpaceOnUse"><stop offset="0" stop-color="#ce8249"/><stop offset="0.54" stop-color="#915a32"/><stop offset="1" stop-color="#5b361d"/></linearGradient><linearGradient id="linear-gradient-2" x1="234.79" y1="211.61" x2="185.33" y2="177.66" gradientUnits="userSpaceOnUse"><stop offset="0" stop-color="#ce8249"/><stop offset="0.35" stop-color="#915a32"/><stop offset="0.66" stop-color="#5b361d"/></linearGradient><linearGradient id="linear-gradient-3" x1="250.66" y1="-141.5" x2="289.08" y2="-22.65" gradientTransform="translate(-166.65 252.55) rotate(-12.96)" gradientUnits="userSpaceOnUse"><stop offset="0.14" stop-color="#ce8249"/><stop offset="0.95" stop-color="#5b361d"/></linearGradient><linearGradient id="linear-gradient-4" x1="246.22" y1="-115" x2="266.9" y2="-22.54" gradientTransform="translate(-166.65 252.55) rotate(-12.96)" xlink:href="#linear-gradient"/></defs><g id="Layer_2" data-name="Layer 2"><g id="Layer_1-2" data-name="Layer 1"><g class="cls-1"><rect class="cls-2" width="298.66" height="299"/></g><path class="cls-3" d="M119.23,95.78c5.19,10.07,23.51,4.93,41.27,1.25,10-2.07,30.93-7.91,38.59-10.07,8.23-2.32,22.57.11,27.92,10.7,3.08,6.1,39.39,77.75,42.41,83.36s20.48,19,22.21,31.25-3.35,30.2-16.86,33.24c-13.89,3.12-17.91-3.88-31.74,2.2-5.07,2.23-12.55,16-23.88,23.28-5.87,3.75-32.36,4.72-39-7.87-8-15.27-9.75-26.29-22.28-27.58S105,226.8,84.1,223.43c-16-2.58-24.06,5.09-36.64,13.65-9.05,6.16-31.31,3.71-37.26-10.13-4.11-9.56-5.91-24.52.31-33.85,4.44-6.66,9.94-18,44.51-36.84,19.53-10.67-35.75-44.16-32.3-45.89s70.86-66.61,86.85-69.64c.29,0-10.11,42-9.82,42C117.8,79.4,110.81,79.45,119.23,95.78Z"/><polygon class="cls-4" points="209.56 100.25 205.85 182.8 189.64 149.88 192.42 99.61 209.56 100.25"/><polygon class="cls-5" points="207.55 117.42 178.52 125.76 172.04 109.76 207.55 100.18 211.64 100.49 209.79 116.72 207.55 117.42"/><ellipse class="cls-5" cx="263.93" cy="219.04" rx="16.85" ry="18.19"/><polyline class="cls-4" points="264.45 201.2 253.44 198.97 256.34 216.89 264.68 218.94"/><ellipse class="cls-4" cx="259.99" cy="220.29" rx="15.46" ry="16.79"/><path class="cls-6" d="M256.94,223.34l7.82-3.55.1,7.48-41.76,19-8.22-15.44,7.88-21.33,29.74-10.94a4.64,4.64,0,0,1,3.77,4Z"/><polygon class="cls-7" points="228.93 205.91 169.74 213.74 135.61 205.06 94.13 203.49 34.15 182.12 87.48 160.54 272.96 196.83 264.41 201.24 254.44 199.17 247.14 197.42 228.93 205.91"/><ellipse class="cls-7" cx="62.68" cy="107.75" rx="10.92" ry="32.75" transform="translate(-61.76 100.46) rotate(-56.46)"/><polygon class="cls-7" points="206.97 129.7 204.19 186.97 211.18 188.13 213.26 145.24 206.97 129.7"/><polygon class="cls-5" points="231.31 212.94 231.49 233.47 222.53 237.29 222.53 216.42 231.31 212.94"/><polygon class="cls-8" points="225.47 211.99 253.61 198.97 232.31 193.81 192.88 208.41 225.47 211.99"/><polygon class="cls-5" points="272.79 196.83 273.37 214.68 264.68 219.79 264.45 201.2 272.79 196.83"/><polygon class="cls-4" points="222.53 216.42 231.31 212.94 72.41 183.17 122.88 162.25 91.2 157.74 25.9 184.66 114.83 202.97 222.53 216.42"/><path class="cls-9" d="M222.53,216.42v20.87L25.2,203.21l.7-18.55S137.18,203,143.32,204.83,222.53,216.42,222.53,216.42Z"/><path class="cls-10" d="M47.46,197c5.92.59,14.38.82,22.46,1.68S98,210,106.56,210.27s13.13,2.7,13.13,2.7A101.82,101.82,0,0,1,97,211.62c-13.5-2.17-18.45-8.48-22.67-7.91S47.46,197,47.46,197Z"/><path class="cls-11" d="M200.34,170.32l-82.78-29.95s-24.84-37.82-50.73-45.1-52.48-5.9-58.7,2.16S-2.18,146.2,27.69,163s69.23,12.44,69.23,12.44l63.24,25.43Z"/><polygon class="cls-5" points="174.18 109.82 220.68 210.39 212.57 212.71 161.21 111.68 174.18 109.82"/><polygon class="cls-12" points="167.69 202.05 170.65 158.22 163.24 144.31 159.53 205.06 167.69 202.05"/><polygon class="cls-9" points="206.95 135.31 232.31 193.81 254 199.09 208.58 101.21 206.95 135.31"/><path class="cls-5" d="M216.79,101.87l45.12,92.83L254,199.09l-47.54-97.66L214,100C215.07,99.76,216.29,100.86,216.79,101.87Z"/><ellipse class="cls-13" cx="88.72" cy="95.26" rx="67.29" ry="69.83" transform="translate(-18.61 21.6) rotate(-12.57)"/><path class="cls-14" d="M88.62,153.37c-23.38,0-44.84-19.49-51-46.33C30.49,76.05,46,45.93,72.12,39.9a41.91,41.91,0,0,1,9.33-1.06c23.39,0,44.84,19.49,51,46.33,7.12,31-8.36,61.11-34.51,67.14a41.91,41.91,0,0,1-9.33,1.06Z"/><path class="cls-13" d="M81.46,40.63c22.55,0,43.28,18.9,49.26,44.94,6.91,30-8,59.19-33.16,65a39.61,39.61,0,0,1-8.94,1c-22.56,0-43.28-18.9-49.27-44.94-6.9-30,8-59.19,33.17-65a39.55,39.55,0,0,1,8.94-1m0-3.58a43.13,43.13,0,0,0-9.74,1.11c-27.16,6.26-43.21,37.27-35.85,69.28,6.48,28.17,28.94,47.72,52.75,47.72a43.19,43.19,0,0,0,9.74-1.11c27.16-6.26,43.21-37.28,35.85-69.28-6.48-28.17-28.94-47.72-52.75-47.72Z"/><path class="cls-15" d="M76.58,38.56c24.27,0,46.46,19.9,52.76,47.33,7.3,31.76-8.9,62.7-36.13,69A44.13,44.13,0,0,1,83.37,156c-24.27,0-46.46-19.91-52.76-47.34-7.3-31.76,8.9-62.7,36.13-69a43.55,43.55,0,0,1,9.84-1.12m0-10.74a54.63,54.63,0,0,0-12.25,1.4c-33,7.62-52.82,44.26-44.18,81.84C27.72,144,54.6,166.72,83.37,166.72a54.06,54.06,0,0,0,12.25-1.4c33-7.61,52.82-44.25,44.18-81.84-7.57-32.92-34.45-55.66-63.22-55.66Z"/><path class="cls-13" d="M110.43,114.36a21.57,21.57,0,0,1-3.58,5,30.84,30.84,0,0,1-5.09,4.21,98.62,98.62,0,0,1-9.67,4.14,42.48,42.48,0,0,1-6.27,1.17c-4.21.7,1-1.85-2.78-2.77a26.53,26.53,0,0,1-10.27-4.93A30.24,30.24,0,0,1,65,112a39.56,39.56,0,0,1-4.37-13,39.38,39.38,0,0,1,0-13.7A29.9,29.9,0,0,1,65,74.16a26.83,26.83,0,0,1,8.14-8c1.61-1-.58-.5,3.64-1.2,3.7-.61,8.89-2.07,12.7-1,4.87,1.36,9.72,3.14,14.26,7.8L96,80.7c-.93.22-2.84.29-5.2.85-.15,0-3.42-7.23-5.85-6.83a12.8,12.8,0,0,0-5.74,2.47,15.18,15.18,0,0,0-4.15,4.91,20.72,20.72,0,0,0-2.21,6.78A25.58,25.58,0,0,0,73,97a26.1,26.1,0,0,0,2.48,7.69,20.23,20.23,0,0,0,4.32,5.74,15.33,15.33,0,0,0,5.62,3.3,13.61,13.61,0,0,0,6.45.44c2.23-.37,3-4.63,3-4.63,1.78-.94,3.14-1.7,4.33-2.26Z"/><path class="cls-15" d="M81.94,63.76a23.87,23.87,0,0,0-3.87.32,30.07,30.07,0,0,0-11.28,4.18,26.72,26.72,0,0,0-8.14,8,30,30,0,0,0-4.37,11.18,39.44,39.44,0,0,0,0,13.71,39.58,39.58,0,0,0,4.37,13,30.28,30.28,0,0,0,7.74,9.18,26.82,26.82,0,0,0,10.27,4.93,28.38,28.38,0,0,0,6.67.78,31.79,31.79,0,0,0,5.35-.46,25.08,25.08,0,0,0,4.68-1.26A23.79,23.79,0,0,0,98,125a21.14,21.14,0,0,0,4.15-3.54,19.84,19.84,0,0,0,3.26-4.9l-10.54-7A12.2,12.2,0,0,1,91.2,114a13,13,0,0,1-5.69,2.28,14.62,14.62,0,0,1-2.36.19,13.24,13.24,0,0,1-4.09-.64,15.33,15.33,0,0,1-5.62-3.3,20.09,20.09,0,0,1-4.32-5.74A27.47,27.47,0,0,1,66.51,91a20.66,20.66,0,0,1,2.21-6.77,15.22,15.22,0,0,1,4.15-4.92,12.68,12.68,0,0,1,5.74-2.46,14,14,0,0,1,2.3-.2,11.68,11.68,0,0,1,4.45.86,14,14,0,0,1,5.45,4.08l8.51-10a21.74,21.74,0,0,0-10-6.62,25.34,25.34,0,0,0-7.37-1.13Z"/><path class="cls-16" d="M18.13,94s30,32.24,49.45,39.79,60.17,11,60.17,11l-3.5,9.8-62-4.61-33-25L18.72,103.16Z"/><polygon class="cls-12" points="122.71 193.93 147.72 153.82 148.88 140.14 114.6 194.86 114.83 196.48 122.71 193.93"/><path class="cls-17" d="M17.56,97c6.24,28.58,70.66,64.09,106.65,53.86,32.13-9.13-32.92,22.2-32.92,22.2L23.86,150.46Z"/><path class="cls-4" d="M162.74,117.16l-14.4-4.88h0c1-3,6.69-4.77,9.8-5.5l37.09-9.92a37.38,37.38,0,0,1,12.09-.9,13.73,13.73,0,0,1,6.45,2.63,10.46,10.46,0,0,1,3.12,3.59Z"/><path class="cls-7" d="M97.32,151.55s10.93,5.49,26.93,3.09c19.29-2.89,20.36-12.48,20.36-12.48S113.4,157.88,97.32,151.55Z"/><path class="cls-9" d="M159.53,205.06l-15.75-2.32,5.9-89.95a4.62,4.62,0,0,1,5.59-4.21h0a12.74,12.74,0,0,1,10,13.32Z"/><path class="cls-9" d="M162.08,142.27l30.57,67.2,19.92,3.24-49-98.08c-1.66-3.58,1,6.88.56,10.79Z"/><path class="cls-9" d="M95.38,193.47l49.68-78.19c2.66-4.19,8.55-8.88,12.42-5.79l.66,4.44L150,140.14l-35.21,56.34Z"/><path class="cls-7" d="M18.12,93s-5.06,7.16-2.88,14c5.52,17.27,32.22,24.33,32.22,24.33S19.57,110.23,18.12,93Z"/><path class="cls-4" d="M16,211.65c0,10.87,8.46,20,19.36,19,11.1-1,20.8-8.91,20.8-19.78a19.75,19.75,0,0,0-19.83-19.67C25.38,191.21,16,201.67,16,211.65Z"/><path class="cls-5" d="M35.69,208.63l13.82-.29c-1.22-7.7-6.59-13.78-13.43-15.24Z"/><path class="cls-5" d="M29.62,193.12c-7,1.55-12.43,7.94-13.42,15.92l13.7-.29Z"/><path class="cls-5" d="M30,214.2l-13.85-.41c.84,8.47,6.68,15.24,14.14,16.54Z"/><path class="cls-5" d="M35.55,214.36l-.4,16c7.34-1.09,13.19-7.48,14.39-15.62Z"/><path class="cls-4" d="M182.18,241.61c1.06,12.28,11.52,21.83,23.75,19.6,12.45-2.27,22.65-12.1,21.59-24.39a22.41,22.41,0,0,0-24.34-20.31C190.8,217.58,181.21,230.32,182.18,241.61Z"/><path class="cls-5" d="M205.62,236.81l14.92,4.82c1.55-8.7-2-17.22-8.75-21.33Z"/><path class="cls-5" d="M204.86,217.92c-8.08-.94-16.28,3.89-20.3,12.09l14.8,4.78Z"/><path class="cls-5" d="M197.45,240.67l-14.71-5.59c-2.24,9.39,1.52,18.83,9,23Z"/><path class="cls-5" d="M203.34,242.9,197,260c8.28,1.56,16.92-3.12,21.23-11.4Z"/><path class="cls-18" d="M199.09,204.9c-1.69-5.6-3.56-14.14-5.91-21.73s-15.61-19-17.54-27.54-5-11.16-5-11.16a98.73,98.73,0,0,0,5.66,22.25c4.59,12,11.19,11.49,11.51,16.37S199.09,204.9,199.09,204.9Z"/><path class="cls-10" d="M144.89,210.27c-3.94-1.13-9.57-3.26-14.94-4.76s-18.53,1.58-24.21-.52-8.7-1.37-8.7-1.37a66.34,66.34,0,0,0,15.09,5.09c9,1.92,12.14-1.91,15-.29S144.89,210.27,144.89,210.27Z"/><path class="cls-10" d="M254.5,211.52c-1.71.26-4.19.43-6.51.79s-7.28,3.82-9.79,4a7.77,7.77,0,0,0-3.64,1,27.81,27.81,0,0,0,6.61-.69c3.8-.83,4.67-2.83,6-2.71S254.5,211.52,254.5,211.52Z"/><path class="cls-10" d="M238.43,224.57c.7,0,1.7.16,2.64.21s3.19-.93,4.2-.81a3.05,3.05,0,0,0,1.52-.1,11.33,11.33,0,0,0-2.67-.26c-1.57,0-2.08.75-2.59.6A14.83,14.83,0,0,0,238.43,224.57Z"/><path class="cls-10" d="M150.17,123.88c-1.81,1.6-4.65,3.74-7.09,6s-5.07,9.77-7.91,11.94-3.43,3.91-3.43,3.91a39.18,39.18,0,0,0,7.31-5.93c3.78-3.87,2.88-6.67,4.58-7.57S150.17,123.88,150.17,123.88Z"/><path class="cls-10" d="M140.8,143.11c-1.38,1.15-3.55,2.69-5.41,4.27s-3.84,7-6,8.6a6.94,6.94,0,0,0-2.61,2.81,29.28,29.28,0,0,0,5.58-4.25c2.89-2.78,2.18-4.81,3.48-5.45S140.8,143.11,140.8,143.11Z"/><path class="cls-10" d="M60,163.78c-4.2-3.92-8.87-17-14.61-22.32s-20.93-.29-27-6.73S9.16,128,9.16,128A116.11,116.11,0,0,0,25.3,144.23c9.54,7.82,12.8,3.1,15.84,7.26S60,163.78,60,163.78Z"/></g></g></svg>