<svg xmlns="http://www.w3.org/2000/svg" fill="none" viewBox="0 0 28 32">
  <path fill="#FEFEFE" fill-rule="evenodd" d="M13.981.815.667 8.411v15.191l13.314 7.596 13.315-7.596V8.411L13.98.815Z" clip-rule="evenodd"/>
  <path fill="#002D72" fill-rule="evenodd" d="M13.981.815.667 8.411v15.191l13.314 7.596 13.315-7.596V8.411L13.98.815ZM8.724 7.383h10.479l1.263 5.278H7.51l1.215-5.278Zm3.02 9.024L10.6 13.459h6.785l-1.119 2.948.325 3.293-2.61.012h-2.587l.348-3.305Zm3.332 6.789V22.15l2.346-2.223v-3.508l3.068-1.973 3.501 2.603-4.765 8.204h-1.888l-2.262-2.057ZM3.973 17.049l3.513-2.58 3.104 1.95v3.508l2.345 2.223v1.046l-2.26 2.08H8.76L3.972 17.05Z" clip-rule="evenodd"/>
  <path fill="url(#a)" fill-rule="evenodd" d="M19.226 25.253h-1.888l-2.261-2.057V22.15l2.345-2.223v-3.508l3.068-1.973 3.501 2.603-4.765 8.204ZM13.981.815v6.568h5.222l1.263 5.279h-6.485v.797h3.405l-1.119 2.948.325 3.293-2.61.012v11.486l13.314-7.596V8.411L13.981.815Z" clip-rule="evenodd" style="mix-blend-mode:multiply"/>
  <path fill="url(#b)" fill-rule="evenodd" d="m12.934 23.196-2.26 2.08H8.76L3.972 17.05l3.513-2.58 3.104 1.95v3.508l2.345 2.223v1.046Zm-1.54-3.484.35-3.305-1.143-2.948h3.38v-.797H7.51l1.216-5.28h5.256V.816L.667 8.411v15.191l13.314 7.596V19.712h-2.586Z" clip-rule="evenodd" style="mix-blend-mode:multiply"/>
  <defs>
    <linearGradient id="a" x1="20.639" x2="20.639" y1="27.921" y2="4.018" gradientUnits="userSpaceOnUse">
      <stop stop-color="#002D72"/>
      <stop offset="1" stop-color="#002D72" stop-opacity="0"/>
    </linearGradient>
    <linearGradient id="b" x1="7.324" x2="7.324" y1="27.921" y2="4.018" gradientUnits="userSpaceOnUse">
      <stop stop-color="#002D72" stop-opacity="0"/>
      <stop offset="1" stop-color="#002D72"/>
    </linearGradient>
  </defs>
</svg>
