<?xml version="1.0" encoding="UTF-8"?>
<!DOCTYPE svg PUBLIC "-//W3C//DTD SVG 1.1//EN" "http://www.w3.org/Graphics/SVG/1.1/DTD/svg11.dtd">
<!-- Creator: CorelDRAW -->
<svg xmlns="http://www.w3.org/2000/svg" xml:space="preserve" width="40px" height="40px" shape-rendering="geometricPrecision" text-rendering="geometricPrecision" image-rendering="optimizeQuality" fill-rule="evenodd" clip-rule="evenodd"
viewBox="0 0 40 40">
 <g id="Layer_x0020_1">
  <metadata id="CorelCorpID_0Corel-Layer"/>
  <path fill="#07A8CC" d="M15.6558 2.6978c-2.3211,1.2112 -4.2286,2.2341 -4.2213,2.2773 0,0.1089 5.5777,2.9301 5.7734,2.9231 0.087,0 0.7398,-0.3047 1.4507,-0.6674l1.291 -0.6601 1.4072 0.7255 1.4072 0.7255 2.3065 -1.0371c3.4669,-1.5594 3.8296,-1.7338 3.7715,-1.7843 -0.0724,-0.0798 -1.3202,-0.7471 -4.7,-2.5241 -1.6318,-0.8561 -3.2131,-1.7046 -3.5178,-1.8716 -0.3046,-0.1741 -0.5949,-0.3046 -0.6454,-0.3046 -0.0509,0 -2.0019,0.9866 -4.323,2.1978zm-10.1907 5.2801l-2.4228 1.2477 0 5.4834c0,3.0174 0.0292,5.4834 0.0728,5.4834 0.0362,0 1.2258,-0.5149 2.6473,-1.1458l2.5746 -1.1461 0 -5.7807 1.2548 0.6817c0.9717,0.5295 1.9367,1.0518 2.9085,1.5813l1.6537 0.8923 0.7325 -0.3336c0.4644,-0.2103 0.9212,-0.4209 1.3783,-0.6312 0.3551,-0.1667 1.2258,-0.5587 1.9364,-0.8703 0.7109,-0.312 1.3637,-0.6312 1.458,-0.7036 0.1233,-0.0944 -1.3853,-0.9285 -5.5777,-3.0826 -3.1622,-1.6248 -5.8531,-2.945 -5.9764,-2.9377 -0.1232,0.0073 -1.3128,0.5731 -2.64,1.2621l0 -0.0003zm23.8048 0.3482c-1.6464,0.7468 -2.9955,1.3853 -2.9955,1.4215 0,0.0362 0.8993,0.573 1.9946,1.1896 1.1023,0.6166 1.9945,1.1534 1.9945,1.1966 0,0.0436 -0.9717,0.515 -2.1613,1.0445 -1.1896,0.5368 -4.1924,1.8929 -6.6803,3.0174l-8.3194 3.7645c-2.0962,0.9428 -3.9818,1.7986 -4.1924,1.893 -4.2722,1.9367 -5.4542,2.4732 -5.6139,2.5676 -0.1598,0.094 -0.196,0.6311 -0.2249,3.3363l-0.0363 3.2277 2.1614 1.1023 2.1613 1.1026 3.0028 -1.3564c1.6465,-0.7471 3.0028,-1.3926 3.0028,-1.4434 0,-0.0508 -0.3046,-0.2465 -0.6744,-0.4425 -0.37,-0.196 -1.1388,-0.6312 -1.7118,-0.9647 -0.5657,-0.3338 -1.1315,-0.6382 -1.2547,-0.682 -0.1233,-0.0435 -0.2247,-0.1086 -0.2247,-0.1595 0,-0.0435 1.3202,-0.6744 2.9374,-1.3926 3.1334,-1.3999 5.5269,-2.4806 10.6694,-4.809 2.2995,-1.0371 4.5984,-2.0816 6.9052,-3.119 2.0235,-0.9139 4.3735,-1.98 5.2223,-2.3716l1.545 -0.7107 0.0365 -3.2639 0.0363 -3.2639 -2.1906 -1.1172c-1.2042,-0.6166 -2.2411,-1.1242 -2.2922,-1.1242 -0.0578,0 -1.4507,0.6163 -3.0968,1.3564l-0.0003 0.0006zm6.9268 11.7793c-0.3263,0.1597 -0.9647,0.4571 -1.4215,0.6601 -0.4568,0.2032 -1.3272,0.5949 -1.9292,0.8704l-1.0952 0.5006 -0.0217 2.8649c-0.0146,1.574 -0.0724,2.8579 -0.1305,2.8506 -0.1306,-0.0216 -2.183,-1.0733 -4.2503,-2.1832 -1.4939,-0.7979 -1.5883,-0.8342 -1.9367,-0.6598 -0.203,0.1013 -1.4142,0.6455 -2.6909,1.2039 -1.2766,0.5658 -2.3646,1.0591 -2.4154,1.1096 -0.0508,0.0435 2.5171,1.4361 5.7156,3.0972l5.8026 3.0174 2.4805 -1.284c1.3634,-0.7036 2.5241,-1.3491 2.5747,-1.4288 0.1232,-0.1814 0.1089,-10.9306 -0.0073,-10.916 -0.0508,0.0073 -0.3552,0.1379 -0.6744,0.2974l-0.0003 -0.0003zm-13.7374 12.6132c-0.4279,0.1814 -0.863,0.3698 -1.2909,0.5584 -1.2983,0.5585 -1.0445,0.5801 -2.5893,-0.1886 -1.0298,-0.515 -1.4726,-0.6674 -1.6683,-0.5947 -0.1451,0.0578 -1.3853,0.6166 -2.7636,1.2401 -1.3709,0.6239 -2.5457,1.1388 -2.6038,1.1388 -0.5801,0 0.3844,0.5731 4.0835,2.4371l4.3373 2.1903 1.8278 -0.8993c1.0009,-0.4931 3.0317,-1.487 4.497,-2.2049 1.4723,-0.7179 2.6546,-1.3202 2.6327,-1.3491 -0.0216,-0.0216 -1.2547,-0.6528 -2.7416,-1.4072l-2.6982 -1.3634 -1.0228 0.4425 0.0002 0z"/>
 </g>
</svg>
