<svg width="32" height="24" viewBox="0 0 32 24" fill="none" xmlns="http://www.w3.org/2000/svg">
<path d="M14.935 4.57143C14.7737 4.57141 14.6191 4.50734 14.505 4.39332C14.391 4.2793 14.3269 4.12464 14.3268 3.96338C14.326 3.23501 14.0363 2.53674 13.5213 2.02169C13.0063 1.50664 12.3079 1.2169 11.5794 1.21606C11.4181 1.21606 11.2635 1.15198 11.1494 1.03795C11.0354 0.923927 10.9713 0.769271 10.9713 0.608011C10.9713 0.446751 11.0354 0.2921 11.1494 0.178072C11.2635 0.064044 11.4181 0 11.5794 0C12.6302 0.00128203 13.6375 0.41923 14.3805 1.16216C15.1235 1.90509 15.5415 2.91234 15.5428 3.96299C15.5428 4.12426 15.4789 4.27895 15.3649 4.39304C15.2509 4.50714 15.0963 4.57132 14.935 4.57143Z" fill="black"/>
<path d="M17.0654 4.57143C16.904 4.57141 16.7495 4.50734 16.6354 4.39331C16.5214 4.27928 16.4573 4.1246 16.4572 3.96333C16.4585 2.9125 16.8766 1.9051 17.6196 1.1621C18.3626 0.419105 19.3699 0.00117697 20.4206 0C20.5819 0 20.7365 0.0640883 20.8506 0.178126C20.9645 0.292163 21.0286 0.446829 21.0286 0.608102C21.0286 0.769375 20.9645 0.924038 20.8506 1.03808C20.7365 1.15212 20.5819 1.21617 20.4206 1.21617C19.6923 1.21698 18.994 1.50673 18.4789 2.02182C17.9639 2.53692 17.6742 3.23531 17.6734 3.96376C17.6733 4.12497 17.6091 4.27951 17.4952 4.39346C17.3811 4.50741 17.2265 4.57143 17.0654 4.57143Z" fill="black"/>
<path d="M9.03008 19.3064C6.90086 20.0451 5.11397 19.9702 3.92985 19.7483C2.29887 19.4431 1.34863 18.7718 1.20247 18.4803C1.12508 18.3256 1.18809 18.2814 1.24813 18.2449L8.63288 14.1039V12.8002L0.657128 17.2727L0.643604 17.28C0.0272745 17.6475 -0.169345 18.3274 0.153886 18.9721C0.557163 19.7759 1.98544 20.5325 3.70827 20.855C4.3356 20.9714 4.97299 21.0296 5.61175 21.0287C6.86579 21.0287 8.38145 20.8086 10.0571 20.1277L9.75939 19.9613C9.46898 19.7983 9.21983 19.5745 9.03008 19.3064Z" fill="black"/>
<path d="M31.3563 17.2797C31.3518 17.277 31.3472 17.2745 31.3427 17.2723L23.3652 12.8002V14.1038L30.7515 18.2446C30.812 18.2808 30.8752 18.3256 30.7976 18.4799C30.6515 18.7713 29.701 19.4426 28.0697 19.7478C26.8854 19.9694 25.0983 20.0444 22.969 19.3059C22.7806 19.5732 22.5332 19.7967 22.2446 19.9601L21.9429 20.1286C23.6182 20.8089 25.1332 21.0287 26.3871 21.0287C27.026 21.0296 27.6635 20.9714 28.2909 20.8551C30.0141 20.5325 31.4428 19.776 31.8461 18.9723C32.1695 18.327 31.9726 17.6472 31.3563 17.2797Z" fill="black"/>
<path d="M22.6931 9.21986L17.0826 5.79313C16.7544 5.59184 16.3817 5.4858 16.0023 5.48572C15.6229 5.48563 15.2502 5.59149 14.9219 5.79263L9.30994 9.22017C8.98211 9.42097 8.70976 9.70927 8.51999 10.0562C8.3303 10.4032 8.22975 10.7967 8.22852 11.1975V18.0557C8.22946 18.4573 8.32979 18.8515 8.51963 19.1992C8.70947 19.5469 8.98204 19.8359 9.31031 20.0374L14.9194 23.4632C15.2477 23.6649 15.6206 23.7712 16.0003 23.7714C16.3799 23.7717 16.7529 23.6658 17.0815 23.4645L22.6952 20.036C23.0219 19.8337 23.2931 19.5445 23.4819 19.1972C23.6706 18.8499 23.7704 18.4565 23.7714 18.0558V11.1976C23.77 10.7971 23.6698 10.4039 23.4807 10.057C23.2916 9.71012 23.02 9.42152 22.6931 9.21986ZM9.87022 10.2456L11.6855 9.13693H20.3179L22.131 10.2443C22.2887 10.3415 22.4198 10.4806 22.5112 10.6477C22.6025 10.815 22.651 11.0045 22.6518 11.1976V12.7012H9.3479V11.1978C9.34877 11.0047 9.39741 10.8151 9.48909 10.648C9.5807 10.4809 9.71208 10.3422 9.87022 10.2456ZM22.1337 19.0117L20.337 20.109H11.6669L9.8708 19.012C9.71223 18.9149 9.58055 18.7755 9.4888 18.6077C9.39705 18.4399 9.34848 18.2497 9.3479 18.0558V16.545H22.6522V18.0558C22.6518 18.2491 22.6037 18.4389 22.5128 18.6066C22.4219 18.7742 22.2912 18.9138 22.1337 19.0117Z" fill="black"/>
</svg>
