<?xml version='1.0' encoding='utf-8'?>
<!-- Generator: imaengine 6.0   -->
<svg xmlns:xlink="http://www.w3.org/1999/xlink" xmlns="http://www.w3.org/2000/svg" viewBox="0,0,1200,1200" style="enable-background:new 0 0 1200 1200;" version="1.1">
<defs>
<linearGradient y1="324.66" id="LinearGradient" x1="87.47" y2="324.66" x2="268.77" gradientUnits="userSpaceOnUse" gradientTransform="matrix(1 0 0 1 0 0)">
<stop stop-color="#FFCC26" offset="0"/>
<stop stop-color="#FFFFFF" offset="1"/>
</linearGradient>
<linearGradient y1="86.87" id="LinearGradient_2" x1="113.56" y2="86.87" x2="827.41" gradientUnits="userSpaceOnUse" gradientTransform="matrix(1 0 0 1 0 0)">
<stop stop-color="#FFCC26" offset="0"/>
<stop stop-color="#FFFFFF" offset="1"/>
</linearGradient>
<linearGradient y1="232.52" id="LinearGradient_3" x1="50.48" y2="232.52" x2="353.95" gradientUnits="userSpaceOnUse" gradientTransform="matrix(1 0 0 1 0 0)">
<stop stop-color="#FFCC26" offset="0"/>
<stop stop-color="#FFFFFF" offset="1"/>
</linearGradient>
<linearGradient y1="284.55" id="LinearGradient_4" x1="320.99" y2="284.55" x2="646.43" gradientUnits="userSpaceOnUse" gradientTransform="matrix(1 0 0 1 0 0)">
<stop stop-color="#FFCC26" offset="0"/>
<stop stop-color="#FFFFFF" offset="1"/>
</linearGradient>
</defs>
<g id="layer0">
<g transform="matrix(2.61106 0 0 2.61106 0 134.318)">
<path d="M134.26,337.29C134.16,337.13 134.03,336.99 133.87,336.87C119.31,326.22 106.42,313.52 95.55,299.12C95.18,298.63 94.55,298.41 93.96,298.58C92.1,299.09 90.25,299.66 88.47,300.28C88.02,300.44 87.67,300.8 87.53,301.25C87.39,301.71 87.47,302.2 87.76,302.58C101.86,321.66 119.16,337.8 139.18,350.54C139.43,350.7 139.71,350.77 139.99,350.77C140.38,350.77 140.76,350.62 141.05,350.33C141.55,349.84 141.64,349.06 141.27,348.47L134.27,337.27L134.26,337.29Z" stroke="#FFE181" stroke-width="2.61106" fill="none"/>
<path d="M60.53,169.21C71.85,78.15 149.6,9.5 241.46,9.5C286.87,9.5 330.4,26.36 364.05,56.98C397.43,87.36 418.31,128.64 422.85,173.24L431.87,173.24C431.87,173.24 431.87,173.14 431.87,173.09C427.28,126.09 405.42,82.56 370.31,50.51C334.98,18.26 289.22,0.5 241.46,0.5C144.62,0.5 62.95,72.95 51.49,169.03C51.49,169.09 51.49,169.15 51.49,169.21L60.53,169.21L60.53,169.21Z" stroke="#FFE181" stroke-width="2.61106" fill="none"/>
<path d="M58.46,192.78C57.89,192.72 57.33,192.65 56.76,192.59L55.46,192.44C54.95,192.38 54.43,192.32 53.92,192.26C53.35,192.19 52.79,192.12 52.22,192.04L50.87,191.87C50.75,191.85 50.63,191.84 50.5,191.82C50.5,191.89 50.48,191.96 50.48,192.03C50.87,220.37 57.37,247.61 69.79,272.99C69.83,273.07 69.88,273.13 69.92,273.2C72.21,271.55 74.45,269.82 76.61,268C65.3,244.4 59.31,219.1 58.81,192.8C58.69,192.79 58.56,192.78 58.44,192.76L58.46,192.78Z" stroke="#FFE181" stroke-width="2.61106" fill="none"/>
<path d="M422.26,215.36C413.71,275.04 376.21,326.59 321.83,353.35C321.2,353.66 320.87,354.36 321.03,355.04C321.19,355.72 321.79,356.2 322.49,356.2L334.17,356.2C334.43,356.2 334.68,356.13 334.91,356.01C350.08,347.48 364.07,336.84 376.51,324.4C406.8,294.11 425.61,255.77 430.92,213.53C430.95,213.31 430.92,213.1 430.85,212.89C427.99,213.81 425.11,214.63 422.26,215.35L422.26,215.36Z" stroke="#FFE181" stroke-width="2.61106" fill="none"/>
<path d="M343.95,249.52L357.33,249.65C359.51,249.67 361.68,249.59 363.85,249.38C370.95,248.69 372.97,253.21 371.68,258.22L368.79,269.42C367.82,273.19 371.86,276.28 375.24,274.35L375.24,274.35C379.56,271.88 382.8,267.9 384.34,263.17L387.22,254.33C391.1,242.41 381.48,230.58 369.24,231.66C367.96,231.77 366.67,231.78 365.38,231.75L361.94,231.69C361.94,231.69 342.25,241.54 335.04,248.52C334.61,248.94 334.93,249.67 335.53,249.66L343.94,249.51L343.95,249.52Z" fill="#FFFFFF"/>
<path d="M135.5,318.3L128.64,320.59C128.4,320.67 128.29,320.96 128.43,321.18L149.27,354.52C149.34,354.64 149.47,354.71 149.6,354.71L181.87,354.97C182.12,354.97 182.31,354.75 182.26,354.5L182.14,353.86C180.83,346.81 174.89,341.77 167.76,341.07C161.1,340.42 155.33,336.13 152.8,329.9L150.66,324.63C150.57,324.4 150.7,324.14 150.95,324.09L159.06,322.43C187.23,316.65 208.2,293.2 211.01,264.83C184.29,265.89 163.51,280.9 155.54,287.59C156.81,301.05 148.67,313.92 135.5,318.32L135.5,318.3Z" fill="#FFFFFF"/>
<path d="M134.26,337.29C134.16,337.13 134.03,336.99 133.87,336.87C119.31,326.22 106.42,313.52 95.55,299.12C95.18,298.63 94.55,298.41 93.96,298.58C92.1,299.09 90.25,299.66 88.47,300.28C88.02,300.44 87.67,300.8 87.53,301.25C87.39,301.71 87.47,302.2 87.76,302.58C101.86,321.66 119.16,337.8 139.18,350.54C139.43,350.7 139.71,350.77 139.99,350.77C140.38,350.77 140.76,350.62 141.05,350.33C141.55,349.84 141.64,349.06 141.27,348.47L134.27,337.27L134.26,337.29Z" fill="url(#LinearGradient)"/>
<path d="M60.53,169.21C71.85,78.15 149.6,9.5 241.46,9.5C286.87,9.5 330.4,26.36 364.05,56.98C397.43,87.36 418.31,128.64 422.85,173.24L431.87,173.24C431.87,173.24 431.87,173.14 431.87,173.09C427.28,126.09 405.42,82.56 370.31,50.51C334.98,18.26 289.22,0.5 241.46,0.5C144.62,0.5 62.95,72.95 51.49,169.03C51.49,169.09 51.49,169.15 51.49,169.21L60.53,169.21L60.53,169.21Z" fill="url(#LinearGradient_2)"/>
<path d="M58.46,192.78C57.89,192.72 57.33,192.65 56.76,192.59L55.46,192.44C54.95,192.38 54.43,192.32 53.92,192.26C53.35,192.19 52.79,192.12 52.22,192.04L50.87,191.87C50.75,191.85 50.63,191.84 50.5,191.82C50.5,191.89 50.48,191.96 50.48,192.03C50.87,220.37 57.37,247.61 69.79,272.99C69.83,273.07 69.88,273.13 69.92,273.2C72.21,271.55 74.45,269.82 76.61,268C65.3,244.4 59.31,219.1 58.81,192.8C58.69,192.79 58.56,192.78 58.44,192.76L58.46,192.78Z" fill="url(#LinearGradient_3)"/>
<path d="M422.26,215.36C413.71,275.04 376.21,326.59 321.83,353.35C321.2,353.66 320.87,354.36 321.03,355.04C321.19,355.72 321.79,356.2 322.49,356.2L334.17,356.2C334.43,356.2 334.68,356.13 334.91,356.01C350.08,347.48 364.07,336.84 376.51,324.4C406.8,294.11 425.61,255.77 430.92,213.53C430.95,213.31 430.92,213.1 430.85,212.89C427.99,213.81 425.11,214.63 422.26,215.35L422.26,215.36Z" fill="url(#LinearGradient_4)"/>
<path d="M454.49,178.24L421.93,178.24C420.13,178.24 418.37,177.44 417.36,175.96C417.32,175.91 417.28,175.86 417.24,175.81C417.19,175.74 417.14,175.67 417.08,175.6C417.02,175.52 416.95,175.45 416.88,175.38C416.82,175.32 416.77,175.26 416.7,175.2C416.63,175.13 416.55,175.07 416.47,175C416.41,174.95 416.34,174.89 416.28,174.85C416.2,174.79 416.11,174.74 416.02,174.68C415.95,174.64 415.89,174.59 415.82,174.55C415.73,174.5 415.63,174.46 415.54,174.41C415.47,174.38 415.4,174.34 415.33,174.31C415.23,174.27 415.12,174.24 415.01,174.21C414.94,174.19 414.87,174.16 414.8,174.14C414.68,174.11 414.56,174.09 414.44,174.07C414.38,174.07 414.32,174.04 414.26,174.04C414.08,174.02 413.89,174 413.7,174.01L394.93,174.14C390.5,174.17 386.95,170.47 387.18,166.04L388.1,148.09L388.16,146.83L386.7,148.71C383.08,153.27 365.48,174.2 347.34,174.2L0,174.2L7.21,176.77C8.57,177.26 9.95,177.72 11.33,178.18C11.8,178.33 12.27,178.47 12.73,178.62C13.65,178.91 14.56,179.21 15.49,179.48C16.05,179.65 16.62,179.8 17.19,179.97C18.02,180.21 18.86,180.46 19.7,180.69C20.3,180.86 20.91,181.01 21.52,181.17C22.33,181.38 23.13,181.6 23.95,181.81C24.59,181.97 25.24,182.12 25.89,182.27C26.67,182.46 27.45,182.65 28.23,182.83C28.91,182.98 29.59,183.12 30.26,183.27C31.02,183.44 31.78,183.61 32.54,183.76C33.21,183.9 33.88,184.02 34.54,184.16C35.32,184.31 36.1,184.47 36.89,184.62C37.56,184.74 38.23,184.86 38.9,184.98C39.69,185.12 40.47,185.27 41.26,185.4C41.95,185.52 42.64,185.62 43.32,185.73C44.1,185.85 44.88,185.98 45.66,186.1C46.36,186.21 47.05,186.3 47.75,186.4C48.53,186.51 49.3,186.63 50.08,186.73C50.79,186.83 51.5,186.91 52.21,187C52.98,187.1 53.75,187.2 54.53,187.3C55.25,187.39 55.97,187.47 56.69,187.55C57.46,187.64 58.23,187.73 59,187.81C59.74,187.89 60.47,187.96 61.21,188.03C61.97,188.11 62.72,188.19 63.48,188.26C64.22,188.33 64.95,188.39 65.69,188.46C66.46,188.53 67.22,188.6 67.99,188.66C68.72,188.72 69.45,188.77 70.18,188.83C70.95,188.89 71.73,188.95 72.5,189.01C73.24,189.06 73.98,189.11 74.72,189.16C75.49,189.21 76.26,189.27 77.03,189.31C77.76,189.36 78.49,189.4 79.22,189.44C80,189.48 80.78,189.53 81.56,189.57C82.3,189.61 83.04,189.65 83.78,189.68C84.55,189.72 85.32,189.76 86.1,189.8C86.86,189.84 87.61,189.87 88.37,189.9C89.12,189.93 89.88,189.97 90.63,190C91.39,190.03 92.14,190.06 92.9,190.08C93.66,190.11 94.42,190.14 95.19,190.16C95.94,190.18 96.68,190.21 97.43,190.23C98.19,190.25 98.96,190.28 99.72,190.3C100.48,190.32 101.24,190.34 102,190.36C102.75,190.38 103.51,190.4 104.26,190.42C105.02,190.44 105.78,190.46 106.54,190.47C107.29,190.49 108.04,190.51 108.79,190.52C109.58,190.54 110.38,190.55 111.17,190.57C111.88,190.58 112.6,190.6 113.31,190.61C114.18,190.63 115.04,190.64 115.91,190.66C116.56,190.67 117.21,190.68 117.85,190.7C118.8,190.72 119.75,190.73 120.7,190.75C121.73,190.77 122.76,190.79 123.79,190.8C124.76,190.82 125.73,190.83 126.7,190.85C127.31,190.86 127.91,190.87 128.51,190.88C129.4,190.9 130.29,190.91 131.18,190.93C131.85,190.94 132.51,190.96 133.18,190.97C133.99,190.99 134.81,191 135.62,191.02C136.32,191.03 137.01,191.05 137.7,191.07C138.48,191.09 139.26,191.11 140.04,191.12C140.73,191.14 141.43,191.16 142.12,191.17C142.89,191.19 143.67,191.21 144.44,191.23C145.13,191.25 145.82,191.27 146.51,191.29C147.15,191.31 147.78,191.33 148.42,191.35C148.75,191.37 148.91,191.75 148.7,192L95.7,255.86C84.49,269.37 70.55,280.34 54.79,288.06L52.12,289.37L52.03,289.41L51.97,289.49L51.97,289.49L37.19,309.81L18.07,336.1L18.13,336.29L23.13,352.29L23.22,352.57L59.08,352.57L59.11,352.68L60.95,352.62L61.63,352.62C61.78,352.64 61.92,352.62 62.06,352.58L62.46,352.58L62.1,352.57C63.02,352.32 63.58,351.32 63.21,350.37L61.49,345.98C60.24,342.8 57.77,340.35 54.75,339.07L54.72,338.98C54.67,338.98 54.61,338.98 54.56,338.98C53.1,338.39 51.53,338.07 49.89,338.07C46.88,336.48 45.08,333.14 45.37,329.76C45.39,329.69 45.42,329.63 45.44,329.56C60.4,307.07 85.97,292.24 115,292.24C116.64,292.24 118.27,292.29 119.88,292.38C121.9,292.5 123.77,291.33 124.52,289.45C124.85,288.9 125.17,288.34 125.5,287.79C125.89,287.16 126.3,286.55 126.7,285.94C127.05,285.41 127.38,284.87 127.74,284.34C128.16,283.73 128.59,283.13 129.02,282.53C129.38,282.02 129.74,281.51 130.11,281.01C130.56,280.41 131.03,279.83 131.49,279.23C131.86,278.75 132.23,278.26 132.61,277.79C133.1,277.19 133.6,276.62 134.1,276.03C134.48,275.59 134.85,275.13 135.23,274.69C135.76,274.09 136.32,273.5 136.86,272.92C137.23,272.52 137.59,272.11 137.97,271.72C138.59,271.08 139.23,270.46 139.86,269.83C140.18,269.51 140.5,269.18 140.82,268.87C141.79,267.94 142.78,267.03 143.78,266.14C159.65,252.12 179.83,243.47 201.34,241.89C204.55,241.65 207.78,241.57 211.04,241.65L237.05,242.32C244.43,242.51 249.7,249.53 247.82,256.67L238.79,290.99C238.79,291.04 238.79,291.1 238.79,291.15L245.95,338.17L248.42,354.39L248.47,354.73L277.73,354.73L276.87,350.64C275.5,344.12 269.75,339.45 263.09,339.45L260.15,339.45C259.64,339.45 259.26,338.97 259.38,338.47L260.73,332.82C260.98,331.78 261.24,330.74 261.51,329.71C261.63,329.26 261.75,328.82 261.87,328.38C262.03,327.8 262.18,327.21 262.35,326.63C262.46,326.25 262.57,325.88 262.68,325.51C262.87,324.86 263.05,324.22 263.25,323.58C263.36,323.23 263.47,322.88 263.58,322.54C263.79,321.88 263.99,321.21 264.21,320.56C264.36,320.1 264.52,319.65 264.67,319.19C264.85,318.65 265.03,318.11 265.22,317.57C265.39,317.09 265.57,316.61 265.74,316.13C265.92,315.62 266.1,315.11 266.29,314.6C266.44,314.19 266.61,313.78 266.77,313.37C266.99,312.8 267.2,312.23 267.43,311.67C267.63,311.18 267.83,310.69 268.03,310.2C268.23,309.72 268.42,309.24 268.62,308.77C268.82,308.28 269.04,307.8 269.25,307.32C269.46,306.84 269.66,306.36 269.87,305.89C270.06,305.47 270.25,305.06 270.44,304.64C270.68,304.11 270.92,303.57 271.17,303.05C271.37,302.62 271.58,302.2 271.78,301.78C272.03,301.27 272.27,300.75 272.52,300.24C272.74,299.8 272.96,299.36 273.19,298.92C273.44,298.44 273.68,297.95 273.93,297.47C274.17,297 274.42,296.55 274.67,296.08C274.91,295.63 275.15,295.18 275.39,294.73C275.64,294.28 275.89,293.83 276.14,293.38C276.39,292.93 276.64,292.48 276.89,292.03C277.16,291.56 277.43,291.1 277.7,290.64C277.95,290.22 278.19,289.79 278.45,289.36C278.73,288.9 279.01,288.44 279.29,287.98C279.55,287.56 279.8,287.14 280.06,286.73C280.33,286.29 280.62,285.86 280.89,285.43C281.17,285 281.44,284.56 281.72,284.14C281.99,283.73 282.27,283.32 282.54,282.92C282.84,282.47 283.13,282.03 283.43,281.59C283.7,281.19 283.98,280.8 284.26,280.4C284.57,279.96 284.88,279.51 285.19,279.07C285.48,278.67 285.77,278.27 286.06,277.88C286.37,277.45 286.68,277.02 287,276.59C287.29,276.19 287.59,275.8 287.89,275.41C288.21,274.99 288.52,274.56 288.85,274.15C289.15,273.77 289.45,273.39 289.75,273.01C290.08,272.59 290.41,272.17 290.75,271.75C291.07,271.36 291.39,270.97 291.71,270.58C292.04,270.18 292.36,269.78 292.69,269.39C293.03,268.99 293.37,268.6 293.71,268.2C294.03,267.82 294.35,267.44 294.68,267.07C295,266.7 295.34,266.33 295.66,265.96C296.01,265.57 296.35,265.17 296.71,264.79C297.04,264.42 297.38,264.06 297.72,263.7C298.07,263.32 298.43,262.93 298.78,262.55C299.13,262.18 299.48,261.82 299.83,261.46C300.18,261.09 300.53,260.72 300.89,260.36C301.25,259.99 301.61,259.64 301.97,259.28C302.33,258.92 302.68,258.56 303.04,258.21C303.4,257.85 303.77,257.51 304.14,257.15C304.51,256.8 304.87,256.44 305.24,256.1C305.62,255.75 306,255.4 306.37,255.05C306.74,254.71 307.1,254.37 307.47,254.03C307.85,253.69 308.24,253.35 308.62,253.01C309,252.68 309.37,252.34 309.75,252.01C310.13,251.68 310.52,251.35 310.9,251.03C311.3,250.69 311.69,250.35 312.1,250.01C313.15,249.13 314.22,248.28 315.3,247.43C315.86,246.99 316.42,246.56 316.98,246.12C317.29,245.88 317.6,245.63 317.91,245.39C318.77,244.73 319.63,244.09 320.51,243.45C326.26,239.28 332.31,235.53 338.59,232.17L338.59,232.17C339.21,231.84 339.83,231.49 340.46,231.16C341.31,230.72 342.17,230.3 343.03,229.88C343.72,229.54 344.41,229.22 345.1,228.89C345.74,228.59 346.37,228.28 347.01,227.98C347.68,227.67 348.37,227.38 349.04,227.08C349.69,226.79 350.34,226.5 350.99,226.22C351.66,225.93 352.34,225.67 353.02,225.39C353.69,225.12 354.35,224.83 355.03,224.57C355.72,224.3 356.42,224.04 357.12,223.78C357.79,223.53 358.45,223.27 359.12,223.03C359.84,222.77 360.56,222.53 361.29,222.28C361.95,222.05 362.6,221.82 363.26,221.6C363.99,221.36 364.73,221.14 365.47,220.91C366.13,220.7 366.78,220.49 367.45,220.29C368.19,220.07 368.93,219.87 369.68,219.66C370.35,219.47 371.02,219.27 371.69,219.09C372.44,218.89 373.19,218.71 373.94,218.52C374.62,218.35 375.29,218.17 375.96,218.01C376.73,217.83 377.51,217.67 378.28,217.5C378.95,217.35 379.61,217.2 380.28,217.06C381.04,216.9 381.81,216.77 382.57,216.62C383.26,216.49 383.95,216.35 384.64,216.22C385.39,216.09 386.15,215.97 386.91,215.85C387.62,215.74 388.33,215.61 389.04,215.51C389.81,215.4 390.59,215.31 391.36,215.2C392.07,215.11 392.77,215 393.48,214.92C394.31,214.82 395.15,214.75 395.98,214.66C396.64,214.59 397.29,214.52 397.95,214.46C398.89,214.38 399.84,214.32 400.79,214.25C401.34,214.21 401.9,214.16 402.45,214.13C402.54,214.13 402.62,214.13 402.71,214.12C414.27,212.4 430.02,209.1 442.28,202.9C449.98,199.01 456.01,192.45 459.43,184.53L459.43,184.53C460.23,181.32 457.81,178.22 454.5,178.22L454.49,178.24Z" fill="#FFFFFF"/>
</g>
</g>
</svg>
